<svg id="Layer_1" xmlns="http://www.w3.org/2000/svg" viewBox="0 0 435.25 432.78" enable-background="new 0 0 435.25 432.78"><style>.st0{fill:#160D37;} .st1{fill:#B00D23;} .st2{fill:none;}</style><title>icon-connect</title><path class="st0" d="M316.71 140.37h-113.8c-26.01.03-47.09 21.11-47.12 47.12v59.27c.03 26.01 21.11 47.09 47.12 47.12h78.92l37.14 42.44 10.13 11.44c.53.58 1.28.91 2.07.91.34.01.68-.06 1-.2 1.08-.42 1.8-1.46 1.81-2.62V290.6c18.02-7.1 29.87-24.48 29.89-43.85v-59.26c-.08-26.01-21.15-47.07-47.16-47.12zm35.81 106.39c.03 14.61-8.85 27.76-22.41 33.2-1.72.75-3.51 1.32-5.34 1.71-1.27.29-2.17 1.42-2.17 2.72v39l-29.68-34-5.09-5.8c-.51-.62-1.27-.98-2.07-1h-82.85c-19.76-.01-35.77-16.02-35.78-35.78v-59.32c.02-19.75 16.03-35.76 35.78-35.78h113.8c19.75.03 35.77 16.03 35.81 35.78v59.27z"/><path class="st0" d="M63.2 149.24v26.46c.02 19.37 11.87 36.75 29.89 43.85v45.66c-.01 1.17.72 2.21 1.81 2.62.32.12.66.19 1 .2.79.01 1.55-.32 2.07-.91l10.13-11.44.05-.05 27.47-32.76h11.9v-11.39h-15.83c-.81.01-1.57.37-2.07 1l-5.09 5.8-20.06 24v-29c0-1.3-.9-2.43-2.17-2.72-1.81-.4-3.58-.97-5.29-1.71-13.56-5.42-22.45-18.56-22.43-33.16v-26.45c.01-19.76 16.02-35.77 35.78-35.78h82.91c13.46.01 25.77 7.59 31.85 19.6h12.4c-1.06-2.94-2.43-5.76-4.08-8.42-8.53-14.04-23.79-22.59-40.22-22.53h-82.9c-26.01.03-47.09 21.12-47.12 47.13z"/><path class="st1" d="M245.41 251.6c-3.94 0-7.72-1.56-10.5-4.35l-19.77-19.77c-5.86-5.74-5.95-15.14-.21-21s15.14-5.95 21-.21l.21.21 9.27 9.27 38.11-38.12c5.86-5.74 15.26-5.65 21 .21 5.66 5.77 5.66 15.01 0 20.79l-48.61 48.61c-2.78 2.79-6.56 4.36-10.5 4.36z"/><path class="st2" d="M264.52 421.96c0-1.93 1.2-4.07 3.38-6.16l42-39.38c3.89-3.62 6.58-3.24 7.84-2.69s3.23 2.15 3.17 7.08l-.56 12.64c60.1-36 96.31-99.32 97.08-169.72 1.14-106.57-81.39-194.87-186.32-202.29v407.52l98.61 1-57.51-2.56c-7.21-.29-7.69-4.25-7.69-5.44z"/><path class="st2" d="M231.11-.04v6c113.51 7.45 203 102.79 201.69 218-.85 77.19-41.16 146.07-107.89 184.58l9.87 10.42c3.33 3.6 3.9 7.08 1.64 9.23-1.34 1.31-3.69 1.88-6.69 1.79l100.79 1.13 4.73-428.85-204.14-2.3z"/><path class="st0" d="M329.41 428.21c2.26-2.15 1.7-5.64-1.64-9.23l-4.25-4.55c-2.48-2.64-2.35-6.79.3-9.27.32-.3.67-.57 1.04-.8 62.59-39.18 100.16-105.93 101-180.42 1.2-114.23-85.54-208.98-197.72-217.75-1.76-.13-3.49.45-4.81 1.62l-.89.78c-2.44 2.15-2.93 5.76-1.16 8.48l1.08 1.67c1.11 1.72 2.96 2.83 5 3 103.4 9 184.24 96.56 183.07 202-.73 66.07-32.66 125.86-86.26 162.76-2.97 2.06-7.06 1.31-9.11-1.66-.81-1.18-1.22-2.59-1.16-4.02.05-4.93-2-6.51-3.17-7.08s-3.95-.94-7.84 2.69l-42 39.38c-2.18 2.05-3.37 4.15-3.37 6.15 0 1.22.5 5.18 7.7 5.51l57.5 2.49c3.01.13 5.36-.44 6.69-1.75zM96.4 10.74c-2.26 2.15-1.7 5.64 1.64 9.23l4.29 4.55c2.48 2.64 2.35 6.79-.3 9.27-.32.3-.67.57-1.04.8C38.39 73.78.83 140.53.01 215.01c-1.26 114.23 85.51 208.95 197.66 217.75 1.76.13 3.49-.45 4.81-1.62l.89-.78c2.44-2.15 2.93-5.76 1.16-8.48l-1.08-1.67c-1.11-1.72-2.96-2.83-5-3-103.4-9-184.24-96.56-183.07-202 .73-66.07 32.66-125.86 86.26-162.76 2.97-2.06 7.06-1.31 9.11 1.66.81 1.18 1.22 2.59 1.16 4.02-.05 4.93 2 6.51 3.17 7.08s3.95.94 7.84-2.69l42-39.38c2.18-2.09 3.36-4.23 3.38-6.16 0-1.22-.5-5.18-7.7-5.51l-57.51-2.51c-3.01-.1-5.35.47-6.69 1.78z"/></svg>