<?xml version="1.0" encoding="utf-8"?>
<!-- Generator: Adobe Illustrator 19.2.1, SVG Export Plug-In . SVG Version: 6.00 Build 0)  -->
<svg version="1.1" id="Layer_1" xmlns="http://www.w3.org/2000/svg" xmlns:xlink="http://www.w3.org/1999/xlink" x="0px" y="0px"
	 viewBox="0 0 386.9 387" style="enable-background:new 0 0 386.9 387;" xml:space="preserve">
<style type="text/css">
	.st0{display:none;}
	.st1{display:none;fill:none;stroke:#000000;stroke-width:39;stroke-miterlimit:10;}
	.st2{display:none;fill:none;stroke:#000000;stroke-width:24;stroke-miterlimit:10;}
	.st3{fill:none;stroke:#000000;stroke-width:24;stroke-miterlimit:10;}
</style>
<path class="st0" d="M193.6,378.5c-49.4,0-95.9-19.2-130.8-54.2S8.6,242.9,8.6,193.5S27.8,97.6,62.8,62.7S144.2,8.5,193.6,8.5
	s95.9,19.2,130.8,54.2c4.4,4.4,4.4,11.6,0,16c-2.1,2.1-5,3.3-8,3.3s-5.9-1.2-8-3.3C277.7,48,236.9,31.1,193.6,31.1
	c-43.4,0-84.2,16.9-114.9,47.6s-47.6,71.5-47.6,114.8c0,43.4,16.9,84.2,47.6,114.9S150.2,356,193.6,356s84.2-16.9,114.9-47.6
	s47.6-71.5,47.6-114.9c0-6.2,5.1-11.3,11.3-11.3c6.2,0,11.3,5.1,11.3,11.3c0,49.4-19.3,95.9-54.2,130.8
	C289.5,359.3,243,378.5,193.6,378.5z M257.7,275c-3.3,0-6.4-1.4-8.5-3.8l-64.1-73c-1.8-2.1-2.8-4.7-2.8-7.5v-69
	c0-6.2,5.1-11.3,11.3-11.3c3,0,5.9,1.2,8,3.3c2.1,2.1,3.3,5,3.3,8v64.8l61.3,69.8c2,2.3,3,5.2,2.8,8.2s-1.6,5.8-3.8,7.8
	C263.1,274,260.4,275,257.7,275z"/>
<path class="st0" d="M193.7,370c-47.1,0-91.5-18.3-124.8-51.6c-1.1-1.1-1.1-2.9,0-4c0.7-0.7,1.4-0.8,2-0.8c0.5,0,1.3,0.1,2,0.8
	c32.3,32.3,75.2,50,120.9,50c45.6,0,88.6-17.9,120.9-50.2s49.9-75.2,49.9-120.9s-17.9-88.6-50.2-120.9S239,22.5,193.3,22.5
	c-45.7,0-88.6,17.9-120.9,50.2c-32.3,32.3-50,75.2-50,120.9c0,1.5-1.3,2.8-2.8,2.8c-1.5,0-2.8-1.3-2.8-2.8
	c0-47.2,18.3-91.5,51.6-124.8C101.8,35.4,146.1,17,193.3,17c47.1,0,91.5,18.3,124.8,51.6c33.3,33.4,51.8,77.7,51.8,124.8
	c0,47.1-18.3,91.5-51.6,124.8C285.2,351.6,240.8,370,193.7,370"/>
<path class="st0" d="M193.6,118.9c1,0,1.6,0.4,2,0.8s0.8,1,0.8,2v61.5v6.4l4.2,4.8l59.1,67.4c0.6,0.7,0.7,1.5,0.7,2
	s-0.2,1.3-0.9,1.9c-0.5,0.5-1.1,0.7-1.8,0.7c-0.5,0-1.4-0.1-2.1-1l-64.1-73c-0.4-0.5-0.7-1.2-0.7-1.8v-69
	C190.8,120.2,192,118.9,193.6,118.9"/>
<path class="st0" d="M193.7,387c51.7,0,100.3-20.2,136.8-56.8c36.5-36.6,56.6-85.3,56.6-136.9c0-51.7-20.2-100.3-56.8-136.8
	C293.6,20,245,0,193.3,0S93,20.2,56.6,56.8C20,93.5,0,142.1,0,193.7c0,10.9,8.9,19.8,19.8,19.8s19.8-8.9,19.8-19.8
	c0-41.1,15.9-79.7,45-108.8c29.1-29.1,67.7-45.2,108.8-45.2c41.1,0,79.8,15.9,108.8,45c29.1,29.1,45.2,67.7,45.2,108.9
	c0,41.1-15.9,79.8-45,108.8c-29.1,29.1-67.7,45.2-108.8,45.2c-41.1,0-79.8-15.9-108.8-45c-3.9-3.9-8.9-5.8-14-5.8
	c-5.1,0-10.1,1.9-14,5.8c-7.7,7.7-7.7,20.3,0,28C93.4,367,142,387,193.7,387L193.7,387z"/>
<path class="st0" d="M193.6,101.9c-10.9,0-19.8,8.9-19.8,19.8v69c0,4.8,1.8,9.5,4.9,13.1l64.1,73c3.9,4.5,9.4,6.7,14.9,6.7
	c4.6,0,9.3-1.6,13.1-4.9c8.2-7.2,9-19.7,1.8-27.9l-59.1-67.4v-61.5C213.4,110.8,204.5,101.9,193.6,101.9L193.6,101.9z"/>
<circle class="st1" cx="194.1" cy="193.9" r="173.7"/>
<path class="st2" d="M194,214L194,214c-4.6,0-8.3-3.8-8.3-8.3v-83c0-4.6,3.7-8.3,8.3-8.3h0c4.6,0,8.3,3.8,8.3,8.3v83
	C202.3,210.3,198.6,214,194,214z"/>
<polygon class="st3" points="192.8,24.6 363.2,319.8 22.4,319.8 "/>
<rect x="177.8" y="121.1" width="30.3" height="115.6"/>
<rect x="177.8" y="253.1" width="30.3" height="30.3"/>
</svg>
