<?xml version="1.0" encoding="utf-8"?>
<!-- Generator: Adobe Illustrator 19.1.0, SVG Export Plug-In . SVG Version: 6.00 Build 0)  -->
<!DOCTYPE svg PUBLIC "-//W3C//DTD SVG 1.1//EN" "http://www.w3.org/Graphics/SVG/1.1/DTD/svg11.dtd">
<svg version="1.1" id="Layer_1" xmlns="http://www.w3.org/2000/svg" xmlns:xlink="http://www.w3.org/1999/xlink" x="0px" y="0px"
	 viewBox="5 266.8 606.4 309.1" style="enable-background:new 5 266.8 606.4 309.1;" xml:space="preserve">
<style type="text/css">
	.st0{fill:#000;}
</style>
<g>
	<path class="st0" d="M234.9,571.4c-58.1,0-114.9-8.1-155.8-22.1c-56.9-19.5-68.8-44.2-68.8-61.5v-33.6c0-47.4,98.6-68.9,191-73.2
		c1.5-0.1,2.9-0.9,3.7-2.3c0.8-1.4,0.8-3,0.1-4.3c-11.7-22.1-13.4-41.3-4.8-55.6l17.3-29c7.4-12.3,21.8-18.5,42.8-18.5
		c51.6,0,130.9,36.4,187.8,70.5c44.6,26.7,88.2,59.7,116.6,88.3c26.3,26.5,54.2,63.7,38.1,90.6l-17.2,28.8c-6,10-19.8,22-52,22
		c-30.6,0-72.3-11-117.3-31c-0.6-0.3-1.2-0.4-1.8-0.4c-0.7,0-1.3,0.1-1.9,0.4C371.4,559.8,305,571.4,234.9,571.4z M523.9,555.6
		c0.8,0.7,1.8,1.2,2.9,1.3c2.3,0.1,4.7,0.2,6.9,0.2c3,0,6-0.1,8.8-0.4c1.3-0.1,2.5-0.8,3.2-1.8c0.8,0.7,1.8,1,2.9,1
		c0.3,0,0.5,0,0.8-0.1c11.6-2.1,19.6-6.8,23.8-13.8l6.3-10.5c0.9-1.5,0.8-3.5-0.2-5c-0.9-1.2-2.2-1.9-3.6-1.9c-0.3,0-0.7,0-1,0.1
		c-4.1,0.9-9,1.4-14.4,1.4c-1.1,0-2.1,0.4-2.9,1c-0.8-0.7-1.7-1.1-2.8-1.2c-4.3-0.3-8.9-0.8-13.7-1.5c-0.2,0-0.5-0.1-0.7-0.1
		c-0.8,0-1.5,0.2-2.2,0.5c-0.7-0.7-1.6-1.2-2.5-1.4c-3.9-0.7-8.2-1.6-13.1-2.8c-0.4-0.1-0.7-0.1-1.1-0.1c-0.6,0-1.2,0.1-1.7,0.3
		c-0.6-0.7-1.4-1.3-2.4-1.5c-4.1-1.1-8.2-2.3-12.7-3.7c-0.4-0.1-0.9-0.2-1.3-0.2c-0.5,0-1,0.1-1.5,0.2c-0.6-0.8-1.3-1.3-2.3-1.6
		c-4.5-1.4-8.9-3-12.3-4.2c-0.5-0.2-1-0.3-1.5-0.3c-0.4,0-0.8,0.1-1.2,0.2c-0.5-0.8-1.3-1.4-2.2-1.7c-4.1-1.5-8.2-3.1-12.1-4.7
		c-0.6-0.2-1.1-0.3-1.7-0.3c-0.4,0-0.7,0-1.1,0.1c-0.5-0.8-1.2-1.4-2.1-1.8c-4-1.7-8-3.4-11.9-5.1c-0.6-0.3-1.2-0.4-1.8-0.4
		c-0.3,0-0.6,0-0.9,0.1c-0.5-0.8-1.2-1.4-2-1.8c-3.7-1.7-7.5-3.4-11.7-5.5c-0.6-0.3-1.3-0.4-1.9-0.4c-0.3,0-0.5,0-0.8,0.1
		c-0.4-0.8-1.1-1.5-2-1.9c-4.5-2.2-8.2-4.1-11.6-5.8c-0.7-0.3-1.4-0.5-2-0.5c-0.2,0-0.4,0-0.6,0c-0.4-0.8-1.1-1.5-1.9-2
		c-4-2.1-7.8-4.1-11.4-6.1c-0.7-0.4-1.4-0.5-2.1-0.5c-0.2,0-0.4,0-0.6,0c-0.4-0.8-1.1-1.5-1.9-2c-3.4-1.9-7.1-4-11.2-6.4
		c-0.7-0.4-1.5-0.6-2.2-0.6c-0.1,0-0.3,0-0.4,0c-0.4-0.8-1-1.5-1.8-2c-0.9-0.5-1.8-1.1-2.7-1.6c-0.9-0.5-1.8-1.1-2.7-1.6
		c-1.3-0.8-2.6-1.6-3.9-2.3l-1.8-1.1c-0.7-0.4-1.5-0.6-2.3-0.6c-0.1,0-0.2,0-0.3,0c-0.3-0.8-0.9-1.6-1.8-2.1
		c-4.1-2.5-7.5-4.7-10.9-6.9c-0.7-0.5-1.6-0.7-2.4-0.7c-0.1,0-0.1,0-0.2,0c-0.3-0.8-0.9-1.6-1.7-2.1c-3.9-2.6-7.4-4.9-10.8-7.2
		c-0.8-0.5-1.6-0.8-2.5-0.8h-0.1c-0.3-0.8-0.9-1.6-1.7-2.2c-3.2-2.2-6.6-4.6-10.6-7.5c-0.8-0.6-1.7-0.8-2.6-0.8
		c-0.3-0.9-0.8-1.6-1.6-2.2c-3.8-2.8-7.2-5.3-10.4-7.8c-0.8-0.6-1.7-0.9-2.6-0.9c-0.3-0.9-0.8-1.7-1.6-2.3
		c-3.3-2.5-6.6-5.2-10.2-8.1c-0.7-0.6-1.6-1-2.6-1c-0.2-0.9-0.7-1.7-1.5-2.3c-3.5-2.9-6.9-5.8-10-8.5c-0.7-0.6-1.6-1-2.6-1.1
		c-0.2-0.9-0.7-1.8-1.4-2.4c-3.2-2.9-6.5-5.9-9.7-9c-0.7-0.7-1.6-1.1-2.5-1.2c-0.1-0.9-0.6-1.8-1.3-2.5c-3.3-3.3-6.5-6.6-9.3-9.6
		c-0.7-0.7-1.6-1.2-2.5-1.4c-0.1-1-0.5-1.9-1.1-2.7c-3.1-3.5-6.1-7-8.7-10.4c-0.6-0.8-1.5-1.4-2.5-1.6c0-1-0.3-2-0.9-2.8
		c-2.9-4-5.5-8-7.8-11.8c-0.6-1-1.5-1.7-2.5-2c0.3-1,0.2-2.2-0.3-3.2c-2-3.9-3.4-7.7-4.4-11.1c-0.5-1.7-1.9-3-3.7-3.3
		c-0.2,0-0.4,0-0.6,0c-1.6,0-3,0.8-3.9,2.2l-6.4,10.7c-3.9,6.8-4.3,15.4-1.2,25.9c0.4,1.4,1.5,2.5,2.8,3l-0.1,0.1
		c-0.7,1.2-0.8,2.6-0.2,3.9c1.9,4.6,4.4,9.5,7.4,14.5c0.6,1,1.5,1.7,2.6,2c-0.2,1.1,0.1,2.2,0.7,3.2c2.5,3.8,5.4,7.8,8.6,11.9
		c0.7,0.8,1.6,1.4,2.6,1.6c0,1,0.3,2,1,2.9c2.8,3.4,5.9,6.9,9.2,10.6c0.7,0.8,1.6,1.2,2.6,1.4c0.1,1,0.5,1.9,1.2,2.7
		c2.8,3,6,6.2,9.6,9.7c0.7,0.7,1.6,1.1,2.6,1.2c0.2,0.9,0.6,1.8,1.3,2.5c3.4,3.2,6.6,6.2,10,9.1c0.7,0.7,1.7,1,2.6,1.1
		c0.2,0.9,0.7,1.8,1.5,2.4c3.2,2.7,6.6,5.6,10.2,8.6c0.8,0.6,1.7,1,2.7,1c0.2,0.9,0.8,1.7,1.5,2.4c3.8,3,7.2,5.7,10.5,8.1
		c0.8,0.6,1.7,0.9,2.6,0.9c0.3,0.9,0.8,1.7,1.6,2.3c3.7,2.7,7.2,5.3,10.7,7.7c0.8,0.5,1.7,0.8,2.6,0.8c0,0,0,0,0.1,0
		c0.3,0.9,0.9,1.6,1.7,2.2c3.2,2.3,6.8,4.7,10.9,7.4c0.3,0.2,0.5,0.3,0.8,0.4c0.2,0.3,0.5,0.5,0.8,0.7c5.1,3.3,9.6,6.2,13.8,8.8
		c0.7,0.5,1.6,0.7,2.4,0.7c0.1,0,0.2,0,0.4,0c0.4,0.8,1,1.6,1.8,2.1c1.7,1,3.3,2,5,3c2.1,1.3,4.2,2.5,6.2,3.7
		c0.7,0.4,1.5,0.6,2.3,0.6c0.1,0,0.3,0,0.4,0c0.4,0.8,1,1.6,1.9,2.1c4,2.3,8,4.5,11.4,6.4c0.7,0.4,1.4,0.6,2.2,0.6
		c0.2,0,0.4,0,0.6,0c0.4,0.8,1.1,1.5,1.9,2c3.8,2.1,7.7,4.1,11.6,6.1c0.7,0.3,1.4,0.5,2,0.5c0.2,0,0.5,0,0.7-0.1
		c0.4,0.8,1.1,1.5,2,1.9c4.6,2.3,8.4,4.1,11.8,5.7c0.6,0.3,1.3,0.4,1.9,0.4c0.3,0,0.6,0,0.8-0.1c0.5,0.8,1.2,1.5,2,1.9
		c4.7,2.1,8.5,3.8,12.1,5.3c0.6,0.2,1.2,0.4,1.7,0.4c0.3,0,0.7,0,1-0.1c0.5,0.8,1.2,1.5,2.1,1.8c4,1.6,8,3.3,12.3,4.9
		c0.5,0.2,1.1,0.3,1.6,0.3c0.4,0,0.8-0.1,1.2-0.2c0.5,0.8,1.3,1.4,2.2,1.7c4,1.5,8.1,2.9,12.6,4.4c0.5,0.2,0.9,0.2,1.4,0.2
		s1-0.1,1.4-0.2c0.6,0.8,1.4,1.4,2.3,1.7c4.5,1.4,8.8,2.7,13,3.8c0.4,0.1,0.8,0.2,1.2,0.2c0.6,0,1.2-0.1,1.7-0.3
		c0.6,0.8,1.5,1.3,2.4,1.6c4.5,1.1,9,2.2,13.5,3c0.3,0.1,0.6,0.1,0.9,0.1c0.7,0,1.4-0.2,2.1-0.5c0.7,0.8,1.6,1.3,2.6,1.5
		c5,0.9,9.8,1.5,14.2,1.9c0.1,0,0.3,0,0.4,0C522.3,556.4,523.2,556.1,523.9,555.6z M223.3,555.8c0.7,0.6,1.7,0.9,2.7,0.9h1.6
		c2.4,0,4.9,0,7.3,0c0.9,0,1.7,0,2.5,0h1.6c1,0,1.9-0.3,2.6-0.9c0.8,0.5,1.7,0.8,2.6,0.8h1.2c3.9-0.1,8-0.1,12-0.3
		c1,0,1.9-0.4,2.6-1c0.7,0.5,1.6,0.7,2.5,0.7c0.1,0,0.1,0,0.2,0c4.2-0.2,8.5-0.4,13.1-0.7c1-0.1,1.9-0.4,2.6-1
		c0.7,0.4,1.5,0.7,2.4,0.7c0.1,0,0.2,0,0.3,0c4.5-0.3,8.9-0.7,13.1-1.1c1-0.1,1.8-0.5,2.5-1.1c0.7,0.4,1.5,0.6,2.3,0.6
		c0.2,0,0.3,0,0.5,0c4.7-0.5,9-1,13.1-1.5c1-0.1,1.9-0.6,2.5-1.2c0.6,0.3,1.4,0.5,2.1,0.5c0.2,0,0.4,0,0.6,0c4-0.5,8.2-1.2,13.1-2
		c1-0.2,1.9-0.6,2.5-1.3c0.6,0.3,1.3,0.5,2,0.5c0.3,0,0.5,0,0.8-0.1c4.6-0.8,9.1-1.7,13.2-2.6c1-0.2,1.8-0.7,2.5-1.5
		c0.6,0.3,1.2,0.4,1.8,0.4c0.3,0,0.7,0,1-0.1c4.7-1.1,9-2.2,13.2-3.3c1-0.3,1.8-0.8,2.4-1.6c0.5,0.2,1.1,0.3,1.7,0.3
		c0.4,0,0.8-0.1,1.2-0.2c4.8-1.4,9.7-2.9,14.4-4.6c1.7-0.6,2.9-2.1,3-3.9s-0.8-3.5-2.4-4.3c-4.2-2.1-8.6-4.5-14-7.4
		c-0.7-0.4-1.4-0.5-2.1-0.5c-0.3,0-0.7,0-1,0.1c-0.4-1-1.1-1.9-2.1-2.4c-4.4-2.4-8.8-5-12.9-7.4c-0.7-0.4-1.5-0.6-2.3-0.6
		c-0.3,0-0.7,0-1,0.1c-0.3-0.7-0.7-1.4-1.3-1.9c-0.8-0.7-1.8-1-2.9-1c-0.3,0-0.5,0-0.8,0.1c-4.2,0.8-8.6,1.5-12.9,2.1
		c-0.9,0.1-1.8,0.6-2.4,1.2c-0.6-0.3-1.4-0.5-2.1-0.5c-0.2,0-0.4,0-0.6,0c-4.7,0.7-8.9,1.2-12.9,1.7c-1,0.1-1.8,0.5-2.5,1.2
		c-0.7-0.4-1.4-0.6-2.2-0.6c-0.2,0-0.3,0-0.5,0c-4.2,0.5-8.6,0.9-12.9,1.3c-1,0.1-1.8,0.5-2.5,1.1c-0.7-0.4-1.5-0.6-2.3-0.6
		c-0.1,0-0.3,0-0.4,0c-4.4,0.4-8.8,0.7-12.9,0.9c-1,0.1-1.8,0.4-2.5,1c-0.7-0.5-1.6-0.7-2.4-0.7c-0.1,0-0.2,0-0.3,0
		c-4.2,0.2-8.4,0.4-12.9,0.6c-1,0-1.8,0.4-2.5,0.9c-0.7-0.5-1.6-0.8-2.5-0.8h-0.1c-4.3,0.1-8.7,0.2-12.9,0.3c-1,0-1.9,0.3-2.6,0.9
		c-0.7-0.5-1.6-0.8-2.6-0.8c-0.7,0-1.4,0-2.1,0s-1.3,0-2,0c-2.9,0-5.9,0-8.8-0.1c0,0,0,0-0.1,0c-0.9,0-1.8,0.3-2.5,0.8
		c-0.7-0.5-1.6-0.9-2.6-0.9c-4.3-0.1-8.6-0.2-12.9-0.4c-0.1,0-0.1,0-0.2,0c-0.9,0-1.7,0.3-2.5,0.7c-0.7-0.6-1.6-0.9-2.6-0.9
		c-4.4-0.2-9-0.5-12.9-0.7c-0.1,0-0.2,0-0.3,0c-0.8,0-1.7,0.2-2.4,0.7c-0.7-0.6-1.6-1-2.6-1c-5-0.4-9.1-0.7-12.9-1
		c-0.1,0-0.3,0-0.4,0c-0.8,0-1.6,0.2-2.3,0.6c-0.7-0.6-1.5-1-2.5-1.1c-4.7-0.5-8.9-0.9-12.9-1.4c-0.2,0-0.4,0-0.5,0
		c-0.8,0-1.5,0.2-2.2,0.6c-0.7-0.6-1.5-1-2.5-1.2c-4.2-0.5-8.4-1.1-12.9-1.8c-0.2,0-0.4,0-0.7,0c-0.7,0-1.4,0.2-2,0.5
		c-0.7-0.7-1.5-1.1-2.5-1.3c-5.1-0.8-9.2-1.5-12.9-2.2c-0.3-0.1-0.6-0.1-0.8-0.1c-0.7,0-1.3,0.1-1.9,0.4c-0.6-0.7-1.5-1.2-2.4-1.4
		c-4.2-0.8-8.4-1.8-12.8-2.8c-0.3-0.1-0.7-0.1-1-0.1c-0.6,0-1.2,0.1-1.8,0.4c-0.6-0.7-1.4-1.3-2.4-1.5c-4.7-1.2-8.9-2.3-12.8-3.5
		c-0.4-0.1-0.9-0.2-1.3-0.2c-0.5,0-1.1,0.1-1.6,0.3c-0.6-0.8-1.3-1.4-2.3-1.7c-4.5-1.4-8.8-3-12.7-4.5c-0.5-0.2-1.1-0.3-1.7-0.3
		c-0.4,0-0.9,0.1-1.3,0.2c-0.5-0.9-1.2-1.6-2.2-2c-4.6-2-8.9-4.1-12.5-6.2c-0.7-0.4-1.5-0.6-2.2-0.6c-0.3,0-0.6,0-0.9,0.1
		c-0.3-1.1-0.9-2-1.9-2.6c-3.3-2.2-6.1-4.4-8.3-6.5c-0.9-0.8-2-1.3-3.1-1.3c-0.6,0-1.2,0.1-1.8,0.4c-1.7,0.7-2.7,2.3-2.7,4.1v12.5
		c0.1,7.1,3.6,14.2,10.3,20.9c0.9,0.9,2,1.3,3.2,1.3c0.2,0,0.5,0,0.7-0.1v0.2c0,1.4,0.6,2.7,1.7,3.5c3.9,3.1,8.5,6.1,13.6,8.9
		c0.7,0.4,1.4,0.6,2.2,0.6c0.3,0,0.7,0,1-0.1c0.4,1,1.2,1.9,2.2,2.4c4,2,8.5,4,13.3,6c0.5,0.2,1.1,0.3,1.7,0.3
		c0.5,0,0.9-0.1,1.4-0.2c0.5,0.9,1.3,1.6,2.3,1.9c4.1,1.5,8.6,3,13.2,4.5c0.4,0.1,0.9,0.2,1.3,0.2c0.3,0,0.7,0,1-0.1
		c0.5,0.5,1.2,1,2,1.2c4.3,1.3,8.9,2.5,14.2,3.8c0.3,0.1,0.7,0.1,1.1,0.1c0.6,0,1.2-0.1,1.8-0.4c0.6,0.7,1.5,1.3,2.5,1.5
		c4.2,1,8.6,1.9,13.1,2.8c0.3,0.1,0.6,0.1,0.9,0.1c0.7,0,1.3-0.2,1.9-0.4c0.6,0.7,1.5,1.2,2.5,1.4c3.9,0.7,8.2,1.4,13.1,2.2
		c0.2,0,0.5,0.1,0.7,0.1c0.7,0,1.4-0.2,2.1-0.5c0.7,0.7,1.6,1.1,2.5,1.2c4.8,0.6,9.1,1.2,13.1,1.7c0.2,0,0.3,0,0.5,0
		c0.8,0,1.5-0.2,2.2-0.6c0.7,0.6,1.6,1,2.5,1.1c4.4,0.5,8.8,0.9,13.1,1.2c0.1,0,0.2,0,0.4,0c0.8,0,1.6-0.2,2.3-0.7
		c0.7,0.6,1.6,1,2.6,1c4.3,0.3,8.7,0.6,13.1,0.8c0.1,0,0.2,0,0.2,0c0.9,0,1.7-0.3,2.5-0.7c0.7,0.6,1.6,0.9,2.6,1
		c4.4,0.2,8.8,0.3,13.1,0.4h0.1C221.7,556.6,222.6,556.4,223.3,555.8z M259.8,286.2c-15.3,0-25.4,3.8-29.9,11.3
		c-7.9,13.3,2.9,37,30.7,66.8c28.3,30.4,70.6,63.1,119,92.1c69.1,41.3,140.1,68.1,180.9,68.1c15.3,0,25.4-3.8,29.9-11.3
		c7.9-13.3-3-37-30.7-66.8c-28.3-30.4-70.6-63.1-119-92.1C371.6,312.9,300.6,286.2,259.8,286.2z M215.9,395
		c-107.1,2.7-191,28.7-191,59.2c0,15.5,21.5,30.3,60.6,41.6c39.9,11.6,93,17.9,149.4,17.9c35.8,0,69.8-2.5,100.8-7.4
		c1.9-0.3,3.3-1.7,3.7-3.5c0.4-1.8-0.4-3.7-2-4.7c-45.5-28.6-84.6-61.1-110.1-91.5c-2.6-3.1-5.2-6.3-7.8-9.8
		C218.6,395.7,217.3,395,215.9,395C216,395,215.9,395,215.9,395z"/>
	<path class="st0" d="M260.4,275.8c22.7,0,53.8,7.6,89.9,22c30.4,12.1,64.4,29.1,95.6,47.8c44.3,26.5,87.6,59.3,115.7,87.6
		c25.2,25.3,52.1,60.7,37.4,85.1l-17.2,28.8c-7.7,12.9-24.4,19.8-48.1,19.8c-30,0-71-10.9-115.5-30.6c-1.2-0.5-2.4-0.8-3.6-0.8
		c-1.3,0-2.6,0.3-3.8,0.9c-40.7,19.1-106.5,30.5-175.9,30.5c-57.6,0-113.9-8-154.3-21.9c-21.3-7.3-37.8-16-49.1-25.8
		c-11.1-9.7-16.7-20.2-16.7-31.4v-33.1v-0.5c0-10.1,5-19.2,15.3-27.5c10.1-8.2,25-15.5,44.3-21.6c32.4-10.3,77.5-17.2,127.1-19.6
		c3.1-0.1,5.9-1.9,7.4-4.5c1.5-2.7,1.6-6,0.1-8.7c-11.1-20.9-12.8-38.1-5-51.2l17.3-28.9C228,281.3,241.1,275.8,260.4,275.8
		 M223,309.1h-0.1c-3.1,0-6.1,1.6-7.7,4.4l-6.4,10.7c0,0,0,0.1-0.1,0.1c-4.5,7.8-5,17.7-1.6,29.3c0.4,1.3,1.1,2.5,2,3.5
		c-0.1,1.3,0.2,2.7,0.7,3.9c2,4.8,4.6,9.9,7.7,15.1c0.6,0.9,1.3,1.7,2.1,2.4c0.2,1,0.7,2,1.3,2.9c2.6,3.9,5.6,8,8.8,12.2
		c0.6,0.8,1.4,1.5,2.2,2c0.3,0.9,0.8,1.8,1.5,2.6c2.8,3.4,6,7.1,9.4,10.8c0.7,0.7,1.4,1.3,2.2,1.8c0.4,0.9,0.9,1.7,1.6,2.4
		c2.9,3,6.1,6.2,9.8,9.9c0.7,0.7,1.5,1.2,2.3,1.6c0.4,0.8,1,1.5,1.7,2.2c3.4,3.2,6.7,6.2,10.1,9.2c0.7,0.6,1.5,1.1,2.4,1.5
		c0.5,0.8,1.1,1.5,1.8,2.1c3.1,2.6,6.6,5.7,10.3,8.7c0.7,0.6,1.5,1.1,2.4,1.4c0.5,0.7,1.1,1.4,1.9,2c3.8,3,7.3,5.7,10.6,8.2
		c0.7,0.5,1.5,1,2.4,1.3c0.5,0.7,1.2,1.4,1.9,1.9c3.7,2.8,7.3,5.3,10.8,7.8c0.7,0.5,1.5,0.9,2.4,1.2c0.5,0.7,1.2,1.3,2,1.8
		c3.3,2.3,6.9,4.7,11,7.4c0.2,0.2,0.5,0.3,0.7,0.4c0.3,0.3,0.6,0.5,0.9,0.7c5.2,3.4,9.6,6.2,13.8,8.9c0.8,0.5,1.7,0.9,2.6,1.1
		c0.6,0.6,1.2,1.2,2,1.7c1.7,1,3.3,2,5,3.1c2.2,1.3,4.3,2.5,6.3,3.7c0.8,0.4,1.6,0.8,2.4,1c0.6,0.7,1.3,1.2,2.1,1.7
		c4.1,2.3,8.1,4.6,11.5,6.4c0.8,0.4,1.7,0.8,2.5,0.9c0.6,0.6,1.3,1.2,2.1,1.6c3.8,2.1,7.8,4.1,11.7,6.1c0.8,0.4,1.7,0.7,2.6,0.9
		c0.6,0.6,1.4,1.1,2.2,1.5c4.7,2.3,8.5,4.2,11.9,5.8c0.8,0.4,1.7,0.6,2.6,0.8c0.7,0.6,1.4,1.1,2.3,1.5c4.7,2.2,8.6,3.9,12.2,5.4
		c0.8,0.3,1.7,0.6,2.5,0.7c0.7,0.6,1.5,1.1,2.3,1.4c4,1.7,8.1,3.3,12.4,5c0.9,0.3,1.8,0.5,2.7,0.6c0.7,0.5,1.5,1,2.4,1.3
		c4,1.5,8.2,2.9,12.8,4.5c0.9,0.3,1.8,0.4,2.7,0.5c0.8,0.5,1.6,1,2.5,1.2c4.5,1.4,8.9,2.7,13.1,3.9c0.8,0.2,1.6,0.3,2.4,0.3
		c0.2,0,0.3,0,0.5,0c0.8,0.5,1.6,0.9,2.6,1.1c4.6,1.2,9.2,2.2,13.7,3.1c0.6,0.1,1.2,0.2,1.8,0.2c0.4,0,0.8,0,1.2-0.1
		c0.9,0.5,1.8,0.8,2.8,1c5.2,0.9,10.1,1.5,14.6,2c0.3,0,0.6,0,0.8,0c0.8,0,1.5-0.1,2.2-0.3c0.9,0.4,2,0.6,3,0.7
		c2.4,0.1,4.8,0.2,7.1,0.2c3.2,0,6.3-0.1,9.2-0.4c1.3-0.1,2.4-0.5,3.5-1.1c0.7,0.2,1.4,0.3,2.2,0.3c0.5,0,1.1,0,1.6-0.1
		c12.9-2.4,21.9-7.7,26.9-16l6.3-10.5c1.6-2.8,1.7-6.2,0.2-8.9c4.8-2.2,8.4-5.4,10.8-9.4c6.4-10.7,6.2-32-31.2-72.1
		c-28.6-30.7-71.2-63.7-120-92.9c-36-21.6-72.6-39.3-105.8-51.4c-31-11.3-57.7-17.3-77.4-17.3c-17,0-28.4,4.5-33.7,13.5
		C224,298.6,222.6,303.2,223,309.1 M24.9,467.8c-2.8,1.6-4.5,4.6-4.5,7.8v12.5v0.1c0.1,8.3,4,16.3,11.6,24c1,1,2.2,1.7,3.5,2.2
		c0.6,1.2,1.5,2.3,2.6,3.2c4.1,3.2,8.9,6.4,14.2,9.4c1,0.5,2,0.9,3,1c0.7,0.8,1.6,1.4,2.5,1.9c4.2,2.1,8.8,4.1,13.7,6.1
		c0.9,0.4,1.9,0.6,2.9,0.6c0.8,0.6,1.6,1.1,2.6,1.5c4.2,1.5,8.7,3.1,13.5,4.6c0.8,0.2,1.5,0.4,2.3,0.4c0.6,0.4,1.3,0.7,2.1,0.9
		c4.3,1.3,9,2.5,14.4,3.8c0.7,0.2,1.4,0.3,2.1,0.3c0.2,0,0.4,0,0.6,0c0.8,0.5,1.7,0.8,2.6,1.1c4.2,1,8.7,1.9,13.3,2.8
		c0.6,0.1,1.1,0.2,1.7,0.2c0.3,0,0.7,0,1-0.1c0.8,0.4,1.7,0.7,2.6,0.9c4,0.7,8.3,1.4,13.2,2.2c0.5,0.1,0.9,0.1,1.4,0.1
		s0.9,0,1.4-0.1c0.8,0.4,1.7,0.7,2.7,0.8c4.8,0.7,9.2,1.2,13.2,1.7c0.3,0,0.7,0.1,1,0.1c0.6,0,1.1-0.1,1.7-0.2
		c0.8,0.3,1.7,0.6,2.6,0.7c4.4,0.5,8.8,0.9,13.2,1.2c0.2,0,0.5,0,0.7,0c0.7,0,1.3-0.1,2-0.2c0.8,0.3,1.7,0.5,2.6,0.6
		c4.3,0.3,8.7,0.6,13.2,0.8c0.2,0,0.3,0,0.5,0c0.8,0,1.5-0.1,2.3-0.3c0.8,0.3,1.7,0.5,2.6,0.5c4.4,0.2,8.9,0.3,13.2,0.4
		c0.1,0,0.1,0,0.2,0c0.8,0,1.6-0.1,2.4-0.3c0.9,0.3,1.8,0.4,2.7,0.4h1.8c2.4,0,4.8,0,7.2,0c0.9,0,1.7,0,2.6,0c0.5,0,1.1,0,1.6,0
		c0.9,0,1.8-0.2,2.7-0.4c0.8,0.2,1.7,0.4,2.5,0.4c0.1,0,0.1,0,0.2,0h1.1c4-0.1,8.1-0.1,12.1-0.3c0.9,0,1.8-0.2,2.7-0.5
		c0.7,0.2,1.5,0.3,2.2,0.3c0.1,0,0.2,0,0.4,0c4.2-0.2,8.5-0.4,13.2-0.7c0.9-0.1,1.8-0.3,2.6-0.6c0.7,0.2,1.4,0.2,2.1,0.2
		c0.2,0,0.4,0,0.6,0c4.5-0.3,9-0.7,13.3-1.1c0.9-0.1,1.8-0.3,2.5-0.6c0.6,0.1,1.2,0.2,1.8,0.2c0.3,0,0.6,0,1-0.1
		c4.8-0.5,9.1-1,13.2-1.6c0.9-0.1,1.8-0.4,2.6-0.8c0.5,0.1,1,0.1,1.4,0.1s0.8,0,1.2-0.1c4-0.5,8.4-1.2,13.3-2
		c0.9-0.2,1.8-0.5,2.6-0.9c0.4,0,0.7,0.1,1.1,0.1c0.5,0,1.1,0,1.6-0.1c4.7-0.9,9.2-1.7,13.3-2.6c0.9-0.2,1.8-0.5,2.6-1
		c0.2,0,0.5,0,0.7,0c0.7,0,1.4-0.1,2-0.2c4.7-1.1,9.1-2.2,13.4-3.4c0.9-0.3,1.8-0.6,2.5-1.1c0.1,0,0.2,0,0.3,0
		c0.8,0,1.7-0.1,2.5-0.3c4.9-1.4,9.8-3,14.6-4.7c3.4-1.2,5.7-4.3,6-7.9c0.3-3.6-1.7-7-4.9-8.6c-4.1-2.1-8.6-4.5-13.9-7.3
		c-0.9-0.5-1.9-0.8-2.8-1c-0.7-0.7-1.4-1.4-2.3-1.9c-4.4-2.4-8.7-4.9-12.8-7.3c-1-0.6-2-0.9-3.1-1.1c-0.3-0.3-0.6-0.6-0.9-0.9
		c-1.6-1.4-3.7-2.1-5.8-2.1c-0.5,0-1.1,0-1.6,0.1c-0.9,0.2-1.9,0.3-2.9,0.5c0-3.1-1.5-6-4.2-7.7c-45.1-28.4-83.8-60.6-109-90.6
		c-2.6-3.1-5.1-6.2-7.6-9.6c-1.7-2.3-4.4-3.6-7.2-3.6c-0.1,0-0.2,0-0.2,0c-52.4,1.3-101.2,8.3-137.3,19.6c-26.5,8.3-58,22.6-58,44.1
		C20.4,458.3,21.6,462.9,24.9,467.8 M260.4,266.8c-22.7,0-38.3,7-46.7,20.7l-17.3,29c-7.1,11.9-10.6,31.2,4.7,60
		c-84.6,4-195.2,23.4-195.2,77.7v0.5v33.1c0,57.8,115.2,88.1,229.1,88.1c67.5,0,135.5-10.6,179.7-31.4
		c45.2,20.1,87.3,31.4,119.1,31.4c34.2,0,49.3-13.1,55.9-24.2l17.2-28.8c31.9-53.2-83.2-141.3-156.2-185
		C393,303.5,312.9,266.8,260.4,266.8L260.4,266.8z M560.5,519.9c-35.9,0-102.8-22.1-178.6-67.4C278,390.3,220.4,322.1,233.7,299.8
		c3.6-6,12.7-9.1,26-9.1c35.9,0,102.8,22.1,178.6,67.4c103.9,62.2,161.5,130.4,148.2,152.7C582.9,516.9,573.9,519.9,560.5,519.9
		L560.5,519.9z M215.7,351.1c-2.7-9-2.5-16.6,0.8-22.3l6.4-10.7c1,3.8,2.6,7.8,4.7,11.9L215.7,351.1L215.7,351.1z M225.1,371.5
		c-2.9-4.9-5.3-9.5-7.1-13.8l12.5-22.2c2.3,4,5,8,8,12.2L225.1,371.5L225.1,371.5z M236.7,388.1c-3.1-4-5.9-7.8-8.4-11.6l13.6-24.2
		c2.7,3.5,5.7,7.1,8.9,10.7L236.7,388.1L236.7,388.1z M249.3,402.9c-3.2-3.5-6.3-7-9.1-10.4l14.4-25.5c3,3.2,6.1,6.5,9.4,9.7
		L249.3,402.9L249.3,402.9z M262.6,416.5c-3.3-3.2-6.5-6.4-9.5-9.6l14.9-26.4c3.1,3,6.4,6.1,9.8,9.1L262.6,416.5L262.6,416.5z
		 M276.3,429.3c-3.4-3-6.7-6-9.8-9l15.2-27.1c3.3,2.9,6.6,5.7,10.1,8.6L276.3,429.3L276.3,429.3z M234.9,509.2
		c-121.1,0-205.5-29-205.5-55c0-24.6,75.7-51.9,186.6-54.7c2.4,3.2,5.1,6.5,7.9,10c26,31,65.1,63.5,111.1,92.4
		C306.1,506.5,272.3,509.2,234.9,509.2L234.9,509.2z M290.5,441.3c-3.5-2.9-6.9-5.7-10.1-8.5l15.5-27.6c3.4,2.7,6.8,5.5,10.3,8.2
		L290.5,441.3L290.5,441.3z M305,452.7c-3.6-2.7-7-5.4-10.4-8l15.7-28c3.4,2.6,7,5.2,10.5,7.9L305,452.7L305,452.7z M319.9,463.5
		c-3.6-2.6-7.2-5.1-10.6-7.7l15.9-28.2c3.5,2.5,7.1,5.1,10.7,7.6L319.9,463.5L319.9,463.5z M335,473.8c-3.7-2.4-7.3-4.8-10.8-7.3
		l16-28.4c3.6,2.4,7.2,4.9,10.8,7.3L335,473.8L335,473.8z M339.5,476.5l15.9-28.2c3.6,2.4,7.3,4.7,11,7l-16,28.5
		c-4.7-2.9-9.2-5.9-13.7-8.8L339.5,476.5L339.5,476.5z M366,493.1c-2.1-1.2-4.1-2.4-6.2-3.6c-1.7-1-3.3-2-5-3l16-28.4
		c1.9,1.2,3.8,2.3,5.8,3.5c1.8,1.1,3.6,2.1,5.4,3.2L366,493.1L366,493.1z M381.9,502.1c-3.8-2.1-7.5-4.2-11.3-6.3l16-28.4
		c3.8,2.2,7.5,4.3,11.3,6.4L381.9,502.1L381.9,502.1z M38.4,505.8c-5.8-5.8-8.9-11.8-9-17.8v-12.5c2.6,2.5,5.6,4.8,9,7V505.8
		L38.4,505.8z M398,510.6c-3.8-1.9-7.7-4-11.5-6l16-28.3c3.8,2.1,7.6,4.1,11.5,6.1L398,510.6L398,510.6z M414.4,518.6
		c-3.9-1.8-7.8-3.7-11.7-5.7l15.9-28.2c3.9,2,7.8,3.9,11.7,5.8L414.4,518.6L414.4,518.6z M56.6,519c-5-2.8-9.3-5.6-13-8.5v-24.6
		c3.9,2.3,8.3,4.4,13,6.4V519L56.6,519z M431.2,526.1c-4-1.7-7.9-3.4-12-5.3l15.8-28c3.9,1.9,7.9,3.8,11.8,5.5L431.2,526.1
		L431.2,526.1z M74.9,527.6c-4.7-1.9-9-3.8-13-5.8v-27.3c4.1,1.6,8.5,3.2,13,4.6V527.6L74.9,527.6z M448.2,533
		c-4-1.5-8-3.1-12.2-4.9l15.6-27.7c4,1.8,8,3.5,12,5.2L448.2,533L448.2,533z M93.1,534c-4.6-1.4-8.9-2.9-13-4.4v-28.9
		c4.2,1.3,8.5,2.4,13,3.6V534L93.1,534z M111.3,539c-4.8-1.2-9.5-2.4-14-3.7h1v-29.7c4.2,1,8.6,2,13,2.9V539L111.3,539L111.3,539z
		 M465.6,539.2c-4.1-1.3-8.2-2.8-12.5-4.4l15.3-27.2c4.1,1.7,8.2,3.3,12.2,4.8L465.6,539.2L465.6,539.2z M129.6,543
		c-4.4-0.9-8.8-1.8-13-2.7v-30.8c4.3,0.8,8.6,1.5,13,2.3V543L129.6,543z M335.5,543.9v-31.4c4.4-0.7,8.8-1.4,13-2.1v31
		C344.3,542.2,339.9,543.1,335.5,543.9L335.5,543.9z M147.8,546.1c-4.4-0.7-8.8-1.4-13-2.1v-31.5c4.3,0.6,8.6,1.2,13,1.8V546.1
		L147.8,546.1z M317.2,546.8v-31.9c4.4-0.5,8.7-1.1,13-1.7v31.6C326,545.5,321.7,546.2,317.2,546.8L317.2,546.8z M353.7,540.1v-26.9
		c4.3,2.5,8.7,5,13,7.4v16.3C362.5,538,358.2,539.1,353.7,540.1L353.7,540.1z M483.5,544.7c-4.2-1.1-8.4-2.4-12.8-3.8l15-26.6
		c4.2,1.5,8.4,3,12.5,4.3L483.5,544.7L483.5,544.7z M166.1,548.5c-4.4-0.5-8.8-1.1-13-1.6V515c4.3,0.5,8.6,1,13,1.4V548.5
		L166.1,548.5z M299,549.1v-32.3c4.4-0.4,8.7-0.8,13-1.3v32C307.7,548.1,303.4,548.6,299,549.1L299,549.1z M184.3,550.3
		c-4.4-0.4-8.7-0.8-13-1.2v-32.2c4.3,0.4,8.6,0.7,13,1V550.3L184.3,550.3z M280.7,550.7v-32.5c4.4-0.3,8.7-0.6,13-0.9v32.3
		C289.5,550,285.2,550.4,280.7,550.7L280.7,550.7z M202.6,551.5c-4.4-0.2-8.7-0.5-13-0.8v-32.5c4.3,0.3,8.7,0.5,13,0.7V551.5
		L202.6,551.5z M262.5,551.7v-32.6c4.3-0.2,8.7-0.4,13-0.6V551C271.2,551.3,266.9,551.5,262.5,551.7L262.5,551.7z M220.8,552.1
		c-4.4-0.1-8.7-0.2-13-0.4v-32.6c4.3,0.2,8.7,0.3,13,0.4V552.1L220.8,552.1z M244.3,552.2v-32.6c4.3-0.1,8.7-0.2,13-0.3v32.6
		C253,552.1,248.7,552.1,244.3,552.2L244.3,552.2z M234.9,552.3c-3,0-6,0-8.9-0.1v-32.6c3,0,5.9,0.1,8.9,0.1c1.4,0,2.7,0,4.1,0v32.6
		C237.7,552.3,236.3,552.3,234.9,552.3L234.9,552.3z M502,549c-4.3-0.8-8.7-1.8-13.2-3l14.5-25.8c4.4,1.4,8.7,2.6,12.9,3.7L502,549
		L502,549z M371.9,535.4v-12c4.7,2.6,9.4,5.1,14.1,7.5C381.6,532.5,376.9,534,371.9,535.4L371.9,535.4z M521.3,551.9
		c-4.4-0.4-9-1-13.9-1.9l13.9-24.8c4.6,1.1,9,2.1,13.3,2.8L521.3,551.9L521.3,551.9z M533.7,552.5c-2.1,0-4.3-0.1-6.6-0.2l13.1-23.3
		c4.9,0.7,9.6,1.3,14.1,1.5l-12.2,21.6C539.4,552.4,536.6,552.5,533.7,552.5L533.7,552.5z M548.6,551.3l11.6-20.7
		c5.7,0,10.8-0.5,15.4-1.6l-6.3,10.5C565.8,545.5,558.6,549.5,548.6,551.3L548.6,551.3z"/>
</g>
</svg>
