<svg id="Capa_1" data-name="Capa 1" xmlns="http://www.w3.org/2000/svg" viewBox="0 0 519.29 524"><defs><style>.cls-1{stroke:#000;stroke-miterlimit:10;stroke-width:12px}</style></defs><title>enquires-received</title><path class="cls-1" d="M499.14 520H20.86a14.5 14.5 0 0 1-14.5-14.49V344.12a14.5 14.5 0 1 1 29 0V491h449.28V344.12a14.5 14.5 0 1 1 29 0V505.5a14.51 14.51 0 0 1-14.5 14.5z" transform="translate(-.35 -2)"/><path class="cls-1" d="M260 393.76a14.52 14.52 0 0 1-14.5-14.5V22.5a14.5 14.5 0 1 1 29 0v356.75a14.51 14.51 0 0 1-14.5 14.51z" transform="translate(-.35 -2)"/><path class="cls-1" d="M260 399.72a14.55 14.55 0 0 1-10.42-4.43L71.21 211A14.49 14.49 0 1 1 92 190.81l168 173.58 168-173.6a14.49 14.49 0 1 1 20.83 20.15L270.42 395.3a14.57 14.57 0 0 1-10.42 4.42z" transform="translate(-.35 -2)"/></svg>