<svg xmlns="http://www.w3.org/2000/svg" xmlns:xlink="http://www.w3.org/1999/xlink" version="1.1" id="Layer_1" x="0" y="0" viewBox="149.2 169.2 352.6 360.6" xml:space="preserve" enable-background="new 149.2 169.2 352.6 360.6">
  <style type="text/css">
    
	.st0{fill:#000000;}
	.st1{fill:#000000;stroke:#000000;stroke-width:4;stroke-linecap:round;stroke-linejoin:round;stroke-miterlimit:10;}

  </style>
  <path class="st0" d="M229.3 528.8c-28.2 0-51.1-22.9-51.1-51.1V221.3c0-28.2 22.9-51.1 51.1-51.1h220.4c28.2 0 51.1 22.9 51.1 51.1v256.4c0 28.2-22.9 51.1-51.1 51.1H229.3zM229.3 176.3c-24.9 0-45.1 20.2-45.1 45.1v256.4c0 24.9 20.2 45.1 45.1 45.1h220.4c24.9 0 45.1-20.2 45.1-45.1V221.3c0-24.9-20.2-45.1-45.1-45.1H229.3z"/>
  <path class="st0" d="M449.7 171.2c27.6 0 50.1 22.5 50.1 50.1v256.4c0 27.6-22.5 50.1-50.1 50.1H229.3c-27.6 0-50.1-22.5-50.1-50.1V221.3c0-27.6 22.5-50.1 50.1-50.1H449.7M229.3 523.8h220.4c25.4 0 46.1-20.7 46.1-46.1V221.3c0-25.4-20.7-46.1-46.1-46.1H229.3c-25.4 0-46.1 20.7-46.1 46.1v256.4C183.2 503.1 203.9 523.8 229.3 523.8M449.7 169.2H229.3c-28.7 0-52.1 23.4-52.1 52.1v256.4c0 28.7 23.4 52.1 52.1 52.1h220.4c28.7 0 52.1-23.4 52.1-52.1V221.3C501.8 192.6 478.4 169.2 449.7 169.2L449.7 169.2zM229.3 521.8c-24.3 0-44.1-19.8-44.1-44.1V221.3c0-24.3 19.8-44.1 44.1-44.1h220.4c24.3 0 44.1 19.8 44.1 44.1v256.4c0 24.3-19.8 44.1-44.1 44.1H229.3L229.3 521.8z"/>
  <path class="st0" d="M343.4 452.7c-56.9 0-103.2-46.3-103.2-103.2 0-56.9 46.3-103.2 103.2-103.2s103.2 46.3 103.2 103.2C446.6 406.4 400.3 452.7 343.4 452.7zM343.4 252.4c-53.6 0-97.2 43.6-97.2 97.2 0 53.6 43.6 97.2 97.2 97.2s97.2-43.6 97.2-97.2C440.6 296 397 252.4 343.4 252.4z"/>
  <path class="st0" d="M343.4 247.4c56.3 0 102.2 45.8 102.2 102.2s-45.8 102.2-102.2 102.2 -102.2-45.8-102.2-102.2S287.1 247.4 343.4 247.4M343.4 447.7c54.1 0 98.2-44 98.2-98.2s-44-98.2-98.2-98.2 -98.2 44-98.2 98.2S289.3 447.7 343.4 447.7M343.4 245.4c-57.4 0-104.2 46.7-104.2 104.2 0 57.4 46.7 104.2 104.2 104.2 57.4 0 104.2-46.7 104.2-104.2C447.6 292.1 400.9 245.4 343.4 245.4L343.4 245.4zM343.4 445.7c-53 0-96.2-43.1-96.2-96.2s43.1-96.2 96.2-96.2c53 0 96.2 43.1 96.2 96.2S396.4 445.7 343.4 445.7L343.4 445.7z"/>
  <path class="st1" d="M155.1 254.3"/>
  <path class="st0" d="M155.1 257.3c-1.7 0-3-1.3-3-3s1.3-3 3-3h48.1c1.7 0 3 1.3 3 3s-1.3 3-3 3H155.1z"/>
  <path class="st0" d="M203.2 252.3c1.1 0 2 0.9 2 2s-0.9 2-2 2h-48.1c-1.1 0-2-0.9-2-2s0.9-2 2-2H203.2M203.2 250.3h-48.1c-2.2 0-4 1.8-4 4s1.8 4 4 4h48.1c2.2 0 4-1.8 4-4S205.4 250.3 203.2 250.3L203.2 250.3z"/>
  <path class="st0" d="M155.1 297.4c-1.7 0-3-1.3-3-3s1.3-3 3-3h48.1c1.7 0 3 1.3 3 3s-1.3 3-3 3H155.1z"/>
  <path class="st0" d="M203.2 292.4c1.1 0 2 0.9 2 2s-0.9 2-2 2h-48.1c-1.1 0-2-0.9-2-2s0.9-2 2-2H203.2M203.2 290.4h-48.1c-2.2 0-4 1.8-4 4s1.8 4 4 4h48.1c2.2 0 4-1.8 4-4S205.4 290.4 203.2 290.4L203.2 290.4z"/>
  <path class="st0" d="M155.1 337.5c-1.7 0-3-1.3-3-3s1.3-3 3-3h48.1c1.7 0 3 1.3 3 3s-1.3 3-3 3H155.1z"/>
  <path class="st0" d="M203.2 332.5c1.1 0 2 0.9 2 2s-0.9 2-2 2h-48.1c-1.1 0-2-0.9-2-2s0.9-2 2-2H203.2M203.2 330.5h-48.1c-2.2 0-4 1.8-4 4s1.8 4 4 4h48.1c2.2 0 4-1.8 4-4S205.4 330.5 203.2 330.5L203.2 330.5z"/>
  <path class="st0" d="M153.2 377.5c-1.7 0-3-1.3-3-3s1.3-3 3-3h48.1c1.7 0 3 1.3 3 3s-1.3 3-3 3H153.2z"/>
  <path class="st0" d="M201.3 372.5c1.1 0 2 0.9 2 2s-0.9 2-2 2h-48.1c-1.1 0-2-0.9-2-2s0.9-2 2-2H201.3M201.3 370.5h-48.1c-2.2 0-4 1.8-4 4s1.8 4 4 4h48.1c2.2 0 4-1.8 4-4S203.5 370.5 201.3 370.5L201.3 370.5z"/>
  <path class="st0" d="M153.2 417.6c-1.7 0-3-1.3-3-3s1.3-3 3-3h48.1c1.7 0 3 1.3 3 3s-1.3 3-3 3H153.2z"/>
  <path class="st0" d="M201.3 412.6c1.1 0 2 0.9 2 2s-0.9 2-2 2h-48.1c-1.1 0-2-0.9-2-2s0.9-2 2-2H201.3M201.3 410.6h-48.1c-2.2 0-4 1.8-4 4s1.8 4 4 4h48.1c2.2 0 4-1.8 4-4S203.5 410.6 201.3 410.6L201.3 410.6z"/>
  <path class="st0" d="M153.2 457.7c-1.7 0-3-1.3-3-3s1.3-3 3-3h48.1c1.7 0 3 1.3 3 3s-1.3 3-3 3H153.2z"/>
  <path class="st0" d="M201.3 452.7c1.1 0 2 0.9 2 2s-0.9 2-2 2h-48.1c-1.1 0-2-0.9-2-2s0.9-2 2-2H201.3M201.3 450.7h-48.1c-2.2 0-4 1.8-4 4s1.8 4 4 4h48.1c2.2 0 4-1.8 4-4S203.5 450.7 201.3 450.7L201.3 450.7z"/>
  <path class="st0" d="M343.4 404.4c-2.5 0-4.5-2-4.5-4.5v-98.2c0-2.5 2-4.5 4.5-4.5s4.5 2 4.5 4.5v98.2C347.9 402.3 345.9 404.4 343.4 404.4z"/>
  <path class="st0" d="M343.4 299.6c1.1 0 2 0.9 2 2v98.2c0 1.1-0.9 2-2 2s-2-0.9-2-2v-98.2C341.4 300.5 342.3 299.6 343.4 299.6M343.4 294.6c-3.9 0-7 3.1-7 7v98.2c0 3.9 3.1 7 7 7s7-3.1 7-7v-98.2C350.4 297.8 347.3 294.6 343.4 294.6L343.4 294.6z"/>
  <path class="st0" d="M379.3 338.5c-1.1 0-2.2-0.5-3-1.3l-32.9-36.8 -33.6 36.8c-0.8 0.8-1.8 1.3-3 1.3 -1 0-2-0.4-2.7-1 -0.8-0.7-1.2-1.7-1.3-2.8 0-1.1 0.3-2.1 1-2.9l36.6-40.1c0.8-0.8 1.8-1.3 3-1.3 1.1 0 2.2 0.5 3 1.3l35.9 40.1c0.7 0.8 1.1 1.8 1 2.9 -0.1 1.1-0.5 2-1.3 2.8C381.2 338.1 380.3 338.5 379.3 338.5z"/>
  <path class="st0" d="M343.4 292.4c0.6 0 1.1 0.2 1.5 0.7l35.9 40.1c0.5 0.5 0.5 1.1 0.5 1.4s-0.1 0.9-0.7 1.4c-0.5 0.4-1 0.5-1.3 0.5 -0.3 0-1-0.1-1.5-0.7l-31.4-35.1 -3-3.3 -3 3.3 -32.1 35.2c-0.5 0.6-1.2 0.7-1.5 0.7 -0.4 0-0.9-0.1-1.3-0.5 -0.5-0.5-0.6-1.1-0.6-1.4 0-0.3 0-0.9 0.5-1.4l36.6-40.1C342.3 292.6 342.9 292.4 343.4 292.4L343.4 292.4M343.4 288.4C343.4 288.4 343.4 288.4 343.4 288.4c-1.7 0-3.3 0.7-4.5 2l-36.6 40.1c-2.2 2.4-2.1 6.2 0.4 8.5 1.2 1.1 2.6 1.6 4 1.6 1.6 0 3.2-0.7 4.4-2l32.1-35.2 31.4 35.1c1.2 1.3 2.8 2 4.5 2 1.4 0 2.9-0.5 4-1.5 2.5-2.2 2.7-6 0.5-8.5l-35.9-40.1C346.8 289.1 345.1 288.4 343.4 288.4L343.4 288.4z"/>
</svg>
