<?xml version="1.0" encoding="iso-8859-1"?>
<!DOCTYPE svg PUBLIC "-//W3C//DTD SVG 1.1//EN" "http://www.w3.org/Graphics/SVG/1.1/DTD/svg11.dtd">
<svg version="1.1" id="EIG" xmlns="http://www.w3.org/2000/svg" xmlns:xlink="http://www.w3.org/1999/xlink" x="0px" y="0px"
	 width="896px" height="896px" viewBox="0 0 896 896" style="enable-background:new 0 0 896 896;" xml:space="preserve">
<g>
	<path d="M439.473,217.475l1.061,1.756l2.09,0.656l1.882,0.046c4.42-11.807-5.855-11.807-14.05-13.305l-4.131,0.888l0.696,3.135
		L439.473,217.475z M540.098,233.135l1.689,0.244C546,231,551.25,236.25,553,229.25c-5.25,0-8.75-1.75-14,0
		C539,229.25,539,232.75,540.098,233.135z M502.404,229.337l6.346-0.103c-1.25-5.234-13.5-8.734-13.5-1.734
		C493.5,229.25,498.75,229.25,502.404,229.337z M377.999,129.5c-3.5,5.25-3.5-3.5-6.914-1.089l-1.46,0.693
		c-5.626,7.396-19.626,9.146-17.876,21.396C363.999,148.75,370.999,140,377.999,129.5z M420.91,194.479
		c-8.976-4.488-8.976,4.488-10.067,12.08l2.83,2.945C420.91,207.943,425.398,198.967,420.91,194.479z M383.249,124.25
		c0,1.331-1.015,3.673-2.27,5.489c1.791-1.276,4.02,0.114,4.02,1.511c0,7-10.5,1.75-10.5,8.75c1.75,0,3.5,0,1.75,1.75
		s-5.25,1.75-7,3.5h7c-0.875,2.625-3.938,3.062-6.562,3.938c-2.625,0.873-4.812,2.162-3.938,6.504
		c2.188-1.699,4.595-2.786,7.109-3.524c7.547-2.215,16.078-1.23,22.641-5.168c-1.75,0-1.75-1.75-3.5-1.75c3.5-1.75,7-3.5,5.25-8.75
		c-1.75,0-1.75,1.75-3.5,1.75c3.5-7-3.5-15.75,3.435-20.331l1.458-2.297C397.25,115.5,393.75,115.5,392,115.5
		c1.75-1.75,3.5-1.75,5.25-3.5c-8.75,0-12.25,8.75-19.25,12.25C379.749,127.75,383.249,122.5,383.249,124.25z M379.749,131.25
		c0.421-0.419,0.838-0.941,1.23-1.511C380.528,130.061,380.103,130.544,379.749,131.25z M785.969,336.437l-3.973-1.357l-1.623,2.61
		l-0.088,5.603l0.207,1.998l0.809,0.519l1.846-1.445l1.906-0.498l0.926,1.54l1.648,5.227l3.219,6.064l1.73,0.181l-1.799-9.641
		l0.789,0.021l0.906,0.924l0.633-0.333l-0.068-2.175l-1.111-5.424l-3.346-10.892l-1.688-1.208l0.156,3.143l0.332,3.357l-0.455,1.603
		L785.969,336.437z M784.311,398.696l2.785,0.696l2.525-0.925l1.562-2.973l1.148-4.033l-0.82-1.132
		c-3.287,1.144-7.744,2.411-11.066,3.435l-2.211,3.216l-0.82,5.134l0.037,5.742l-0.793,6.207l-1.389,5.792l-0.256,5.19l0.924,4.865
		l0.379,5.694l-0.322,5.851l0.604,4.108l1.875,0.171l1.18-5.354l-0.557-10.796l1.062-3.102l1.221,3.208l0.807,4.207l2.148,2.257
		l2.182-2.518l0.086-6.272l-2.283-7.149l-0.096-2.304l0.844-2.501l2.574-5.19l-0.205-3.115l-2.387,1.521l-2.389,2.645l-2.109-1.552
		l-0.684-5.403l1.617-5.021L784.311,398.696z M788.629,455.839l-1.912,0.075l-5.93,3.265l-3.975-0.855l-1.877,2.041l-0.748,3.925
		l1.564,1.88l6.244-1.685l7.234-6.448L788.629,455.839z M776.717,451.223l-7.732,0.229l-3.816-0.495l-2.689,3.113l2.77,4.17
		l5.898,0.727l1.895-0.832l3.469-4.655C776.58,452.724,776.648,451.974,776.717,451.223z M797.34,376.914l-0.775-3.092l-0.697,1.477
		l-0.215,4.419l-0.02,4.706l0.469,8.716l-0.068,4.417l0.283,4.188l0.486,1.072l0.516-0.376l0.197-1.99l-0.115-2.231l-0.059-4.198
		l0.852-2.418l1.018-1.382l0.385-3.47l-1.725-5.315L797.34,376.914z M790.809,461.28l-4.201,4.689l-2.115,3.392l-1.008,5.316
		l1.254,2.937l2.111-1.481l3.992-6.732l8.066-10.201l-4.316-0.031L790.809,461.28z M811.334,406.293l-0.611,0.52l-0.619,4.568
		l-0.652,5.493l-0.791,2.468l-0.662-2.081l-0.229-5.542l0.258-6.347l0.096,0.005l-0.697-4.624l-1.107-2.407l-0.57,0.152
		l-1.162,1.552l-2.648-0.282l-0.676,0.508l-0.311,2.302l0.281,2.391l1.002,5.208l0.229,0.275l0.184,0.482l0.209,0.35l0.428,0.337
		l0.174,0.451l0.184,0.979l0.215,0.78l1.904-0.07l0.287,0.53l-0.221,1.936l-0.42,1.426l-0.75,0.13l-0.307,0.711l0.006,2.501
		l0.045,0.825l0.105,0.789l0.035,0.928l-0.094,3.393l0.021,1.475l0.291,0.249l0.365-0.683l0.375-3.237l0.359-1.053l0.354-0.582
		l0.336-0.06l0.332,0.451l0.125,1.589l0.053,2.601l-0.029,1.035l1.633,0.566l0.232,1.371l0.146,0.151l0.078,0.641l0.027,0.566
		l0.051,0.332l0.146-0.016l0.012,1.085l0.055,0.739l-0.605,6.988l-0.357,4.482l-0.254,2.37l-0.166,1.175l-0.127,1.081l0.037,0.401
		l-0.09,0.93l-0.516,0.612l-0.309,0.694l-0.414,2.094l-0.453,4.104l0.098,1.704l0.219-0.388l0.393-2l0.293-1.154l0.105,0.115
		l0.018,1.223l-0.662,4.318l-0.24,1.757l-0.074,0.65l0.115-0.604c3.053-16.695,4.949-33.574,5.688-50.507L811.334,406.293z
		 M763.934,294.479l2.535,6.622l0.398,6.155l1.129,3.759l1.771,2.701l1.004-0.481l-0.334-6.062l0.42-2.625l2.701,0.373l2.941,2.101
		l1.098-3.351l-2.164-5.328l-3.201,0.089l-3.758-2.903l-2.508-7.162l-1.43-9.067l-3.102-6.605l-3.701-4.138l-1.268-0.283
		l-0.455,1.448l0.783,3.047l1.018,3.149l1.148,6.056l1.672,6.222L763.934,294.479z M775.646,313.504l-0.811,1.229l-0.012,1.47
		l0.906,4.665l1.168,0.7l1.043-0.584l0.574-0.248l0.254-1.016l-0.273-1.63l-0.398-1.676l-1.133-2.205L775.646,313.504z
		 M780.754,313.991l2.445,10.65l0.992,1.206l0.551-0.821l-0.482-2.496l-0.77-2.758l-0.537-2.728l0.068-2.141l-0.184-1.445
		l-0.385-1.535l-1.273-2.206l-1.09-0.595l-0.984-0.017l-0.406,1.528l0.93,1.863L780.754,313.991z M763.355,428.085l3.76-2.789
		l1.582-7.017c0.004-1.801-0.006-3.6-0.023-5.396l0.557-2.344l1.777-4.766l0.65-3.049l0.656-6.232l1.992-3.605l1.477-3.965
		l-0.775-3.32l-3.359-5.646L770,376.25l0.93-6.621l2.111-5.846l-1.277-4.693l-8.551-6.95l-2.889,3.314l-0.848,9.936l-0.463,1.028
		c2.045,20.184,2.885,40.559,2.525,60.886L763.355,428.085z M686.471,540.039l-2.826-6.162l-6.117-0.624l-3.922,2.517l-1.934,3.965
		l-16.15,20.407l-17.188,9.625l-2.66,3.081l-1.951,3.551l-0.947,3.468l1.057,22.562l-8.266,20.929l-0.748,3.625l-0.619,7.453
		l0.564,3.114l6.453,7.307l9.539,1.578l9.852-7.153l5.318-16.505l21.096-43.834l6.221-27.099l1.537-3.15l1.107-3.327l0.275,0.395
		c0.217-1.88,0.426-3.76,0.623-5.643l-0.332,1.037L686.471,540.039z M498.043,87.5c2.744-0.001,4.549-0.002,5.637-0.002
		C502.078,87.498,499.484,87.499,498.043,87.5z M447.999,0C200.566,0,0,200.567,0,448c0,247.406,200.566,448,447.999,448
		C695.406,896,896,695.406,896,448C896,200.567,695.406,0,447.999,0z M447.999,816.266c-78.195,0-150.683-24.387-210.312-65.94
		c-0.07-0.126-0.112-0.24-0.094-0.303c0.03-0.11,0.298-0.165,0.592-0.119c0.294,0.045,0.585,0.012,0.647-0.072
		c0.063-0.087-0.4-0.525-1.033-0.979c-0.63-0.452-1.727-1.118-2.436-1.479c-0.708-0.352-1.608-0.747-2.001-0.863
		c-0.271-0.08-1.244-0.484-2.436-1.01c-19.57-14.303-37.679-30.481-54.054-48.284c-0.22-0.378-0.497-0.794-0.81-1.196
		c-0.702-0.894-1.832-2.041-2.513-2.553c-0.06-0.045-0.122-0.082-0.184-0.125c-1.983-2.219-3.939-4.461-5.869-6.727
		c0.952-0.174,1.403-0.868,1.006-1.76c-0.486-1.099-2.061-3.403-3.492-5.13c1.61-0.611,5.275-0.616,7.113-4.12
		c1.851-10.504-3.634-17.494-7.284-26.239c1.832-0.003,3.662,1.743,5.491,3.491c3.215-5.258,4.829-10.617,5.496-16.062
		c0.334-2.723,0.431-5.464,0.366-8.223c-0.295-15.979-13.098-29.958-9.409-43.965c5.533-21.011,16.561-40.281,20.652-62.33
		c0.969-2.03,2.097-4.012,3.205-5.997c2.215-3.975,4.347-7.98,4.94-12.489c0.721-2.771,1.083-7.563,0.767-10.662
		c-0.318-3.095-0.979-6.727-1.466-8.073c-0.488-1.345-1.523-3.35-2.298-4.455c-0.773-1.106-5.719-4.833-10.989-8.274
		c-5.269-3.443-9.614-6.271-9.656-6.28c-0.044-0.012-0.092-0.114-0.11-0.226s-0.248-0.489-0.512-0.839
		c-0.264-0.352-0.624-0.949-0.8-1.338c-0.175-0.384-0.473-0.721-0.66-0.746c-0.188-0.023-0.5-0.025-0.694-0.002
		c-0.195,0.022-0.533-0.043-0.755-0.146c-0.221-0.105-0.566-0.33-0.767-0.497c-0.201-0.169-0.986-0.424-1.746-0.569
		c-0.758-0.145-1.625-0.477-1.925-0.733c-0.3-0.258-0.696-0.482-0.881-0.496c-0.186-0.014-0.486,0.012-0.668,0.065
		c-0.182,0.048-2.837,0.027-5.899-0.041c-3.062-0.07-5.808,0.022-6.103,0.205c-0.293,0.188-0.584,1.013-0.647,1.831
		s-0.36,1.642-0.659,1.823c-0.302,0.186-0.818,0.34-1.147,0.35c-0.332,0.007-0.746-0.259-0.924-0.587
		c1.644-8.969-5.667-19.458-14.835-15.941c0,0-0.006,3.499-0.009,5.251c-7.327-1.738,1.847-8.754-3.646-10.496
		c-7.327-1.738-3.677,7.006-9.178,8.767c7.357-15.764,5.549-29.761-3.589-43.748c-5.476-12.241-20.125-17.468-20.442-33.634
		c-0.614-1.88-1.478-3.752-1.92-4.162c-0.44-0.408-1.578,0.027-2.526,0.97c-0.948,0.941-1.948,1.706-2.224,1.698
		c-0.275-0.007-0.499-0.528-0.495-1.16c0-0.629,0.33-3.012,0.73-5.297c0.09-0.521,0.165-1.027,0.226-1.511
		c37.699-163.353,184.055-285.13,358.864-285.13c19.306,0,38.263,1.493,56.763,4.356c-3.383,0.849-6.604,1.983-9.508,3.436
		c-1.539,0.384-3.072,0.785-4.611,1.465c-0.725,0.17-1.504,0.285-2.396,0.285c3.092,1.031,5.576-0.369,7.818-1.692
		c-0.574,0.054-1.098,0.161-1.604,0.283c0.379-0.105,0.744-0.242,1.131-0.34h0.566c0.154-0.091,0.312-0.182,0.463-0.271
		c0.07-0.018,0.143-0.04,0.215-0.057c2.352-0.547,4.758-0.984,7.164-1.422c1.781,0,3.559,0.449,5.109,0.434
		c-1.412,0.774-2.822,1.485-4.234,2.191C502.25,89.25,500.5,91,497,92.75h5.25c-1.75,1.75-1.75,1.75-3.5,3.5h1.75
		c-5.25,1.75-8.75,1.75-14,1.75c1.75-3.5,7,0,10.5-3.5c-15.75,0-29.75,3.5-45.281,7.584c-2.328,0.833-4.625,1.747-6.89,2.744
		c-2.716,1.196-5.385,2.514-8.001,3.957c-6.329,3.215-16.829,8.465-13.329,11.965s7,4.375,10.5,5.688
		c1.75,0.656,3.5,1.422,5.233,2.681c1.767,2.132,3.517,3.882,5.267,5.632C455,136.5,463.75,124.25,455,115.5
		c2.625-1.75,4.812-4.375,7.219-6.781c2.406-2.406,5.031-4.594,8.531-5.469c-5.25,1.75-5.25,8.75-3.5,10.5
		c3.5,2.625,7.438,0.875,11.594-1.094c4.156-1.969,8.531-4.156,12.906-2.406c-1.312,1.312-3.609,2.188-6.18,2.953
		c-2.572,0.765-5.414,1.422-7.82,2.297c-5.25,0-7,7-3.5,10.5c-1.75-1.75-5.25-1.75-7-1.75c-1.75,17.5-22.751,19.25-35.001,12.25
		c1.75,0,5.25,1.75,7-1.75c0-3.5-1.75-3.5-5.25-1.749c0-1.751,0-5.251,0-5.251c-7-1.75-7,7-7,12.25c-1.75,0-5.25-1.75-7-1.75
		c-14.583,10.208-27.949,15.555-43.142,21.105c-3.039,1.11-6.149,2.219-9.358,3.291c8.75,3.604,8.75,19.354,0,17.604
		C344.749,173.25,318.5,168,315,196c0,3.5-5.25,8.75-1.75,12.25c14,10.5,33.248,10.5,48.998,3.5c5.25-1.75,8.75-10.5,15.036-12.204
		c2.652-1.147,5.322-2.305,7.719-3.942c2.372-1.664,4.474-3.81,5.968-6.961c3.011-2.491,6.371-3.801,9.986-4.572
		c3.616-0.77,7.491-1,11.534-1.33c2.695-0.22,5.468-0.484,8.289-0.974c11.469,10.733,30.702,23.762,37.702,39.512
		c1.75-5.25,6.754-12.358,13.754-5.358c-7-12.25-32.986-23.42-34.736-40.92C455,187.25,472.5,196,484.75,217
		c1.75,1.75,7,3.5,10.5,1.75c5.246-3.5,3.938-6.125,2.188-8.75s-3.938-5.25-0.438-8.75c1.75-3.5,3.062-2.625,4.525-0.38
		C512.75,225.75,546,213.5,558.25,224c17.5,14-10.5,31.5-31.5,28c-12.25-3.5-22.75-5.25-32.506-8.939
		c-2.174-0.59-4.275-1.16-6.264-1.7c-2.439-0.205-5.605,0.179-7.035,0.853c-1.428,0.672-2.994,2.469-3.469,3.99
		c-0.482,1.522-0.844,3.594-0.807,4.604c0.033,1.011-0.969,2.491-2.227,3.292c-1.266,0.798-4.631,0.246-7.48-1.229
		c-2.857-1.475-5.85-2.853-6.652-3.062c-0.799-0.209-4.254-1.85-7.676-3.646c-1.709-0.897-4.058-1.845-6.458-2.65
		c-12.179-0.262-26.179-9.012-19.179-23.012c-11.375-4.375-23.625-5.25-35.655-3.719c-3.008,0.383-6.007,0.91-8.989,1.558
		C365.749,224,349.999,224,332.499,224c-12.248,0-20.998,14-26.567,25.168c-1.323,1.96-2.755,3.825-4.274,5.596
		c-6.074,7.084-13.406,12.783-21.405,15.875c-3.331,1.661-6.391,3.542-9.205,5.618c-22.522,16.602-29.426,45.638-35.94,73.217
		c-0.635,0.974-1.463,2.547-1.836,3.494c-0.375,0.948-0.503,3.219-0.285,5.048c0.219,1.827,0.114,4.894-0.233,6.812
		c-0.346,1.919-0.649,4.255-0.673,5.191c-0.023,0.936,0.356,2.132,0.843,2.654c0.488,0.525,1.49,1.006,2.226,1.07
		c2.463,2.376,4.42,5.034,6.079,7.819c1.659,2.787,3.02,5.702,4.287,8.618C259,435.75,309.75,432.25,345.557,418.011
		c2.936-0.622,5.843-1.237,8.646-1.833c2.805-0.594,5.509-1.166,8.034-1.7c6.166,0.816,11.368,2.085,11.556,2.819
		c0.186,0.734,0.603,1.696,0.919,2.139c0.318,0.443,0.914,1.104,1.322,1.468c0.407,0.364,0.977,1.046,1.267,1.515
		c0.287,0.468,0.689,1.274,0.898,1.791c0.205,0.516,1.141,1.489,2.078,2.163c0.936,0.675,5.522,1.153,10.177,1.078
		c6.793-0.449,10.293,3.051,13.793,8.301c7,15.75-5.25,33.25,9.681,44.976c0.691,0.646,2.172,2.599,3.996,5.225
		c1.824,2.627,3.996,5.928,6.069,9.265c4.151,6.682,8.159,16.509,8.904,21.841c0.749,5.329,2.201,11.091,3.23,12.804
		c1.024,1.709,1.366,5.955,0.755,9.438c-0.309,1.741-0.986,4.007-1.857,6.271c-8.027,10.933-13.277,24.933-11.527,37.183
		c7,21,21,40.25,25.298,62.188c0,0,0,0,0.014,2.378c0.602,1.875,1.715,3.936,2.481,4.576c0.766,0.644,1.621,1.488,1.9,1.876
		c0.277,0.393,0.807,0.969,1.17,1.278c0.365,0.312,0.803,0.634,0.967,0.715c0.164,0.082,1.236,2.037,2.383,4.347
		c1.145,2.307,3.299,5.693,4.781,7.523s3.217,5.282,3.846,7.672c0.633,2.392,0.84,4.799,0.461,5.355
		c-0.375,0.558-0.789,1.562-0.916,2.236c-0.127,0.678-0.004,1.916,0.277,2.761c0.279,0.841,1.572,2.748,2.873,4.234
		c1.303,1.49,3.07,3.228,3.928,3.864c0.855,0.634,3.586,1.249,6.064,1.361c2.479,0.113,5.238,0.007,6.135-0.237
		c0.893-0.244,2.219-0.981,2.939-1.643c0.725-0.661,1.863-1.917,2.533-2.796c0.67-0.877,8.996-1.861,18.504-2.188
		c8.523-4.113,19.887-9.601,28.406-13.716c4.777-4.908,9.406-10.447,10.289-12.304c0.879-1.857,4.061-5.146,7.074-7.305
		c3.012-2.158,5.961-6.599,6.553-9.868c0.588-3.266,2.035-7.015,3.207-8.323c4.084-4.988,12.834-4.988,12.834-10.238
		c3.5-19.25,10.5-35,23.367-51.375c1.658-2.734,3.244-5.512,4.74-8.328c8.986-16.896,14.756-35.192,13.422-54.161
		c-0.736-2.162-1.418-4.271-1.979-6.337c-10.094-37.207,20.367-60.007,55.654-75.378c0.896-2.187,1.803-4.506,2.725-6.914
		c2.748-7.225,5.605-15.254,8.307-22.924c0.898-2.557,1.779-5.073,2.635-7.506c4.879-5.077,3.129-12.077,3.129-17.327
		c-10.5,5.25-21,3.5-31.07,5.44c-2.357,0.194-4.627,0.385-6.719,0.561c-1.73-0.452-3.754-1.187-4.498-1.635
		c-0.746-0.447-5.814-3.281-11.088-5.678c-4.812-2.188-5.742-4.786-9.189-7c-1.723-1.108-4.553-7.916-6.561-9.625
		c-2.012-1.708-5.244-6.386-6.562-7.875c-6.354-8.644-11.812-16.188-17.062-26.688c-7-10.5-15.75-21-21.721-33.466
		c-1.682-2.269-3.418-4.497-5.199-6.682c-1.783-2.185-3.609-4.325-5.477-6.419c-4.354-4.183-6.104-5.933-9.201-9.526
		c-1.254-1.054-0.758-2.59,1.105-3.415C567,259,563.5,274.75,572.199,273.905c1.982,1.965,3.92,3.968,5.826,6.004
		c1.904,2.037,3.777,4.106,5.619,6.205c2.459,2.798,4.867,5.648,7.24,8.539C600.25,306.25,609,318.5,618.191,330.615
		c1.117,1.225,2.576,3.422,4.025,5.976c1.445,2.553,2.885,5.462,3.965,8.11c5.566,31.55,40.566,15.8,59.816,8.8
		c10.5-5.25,22.75-10.5,24.5-22.75c5.25-24.5-14-38.5-29.75-52.5c-1.75,14-17.5,14-22.551,3.504
		c-1.512-1.754-2.824-3.504-3.699-5.254c0,1.75-1.75,3.5-1.75,5.25c-3.5-8.75-10.5-17.5-15.75-24.5c8.75,0,15.75,5.25,25.238,9.389
		c2.896,1.293,5.787,2.595,8.688,3.883c17.387,7.727,35.027,15.078,57.076,12.977c4.375-0.875,7,2.625,8.531,7.656
		c0.766,2.516,1.258,5.414,1.562,8.335c0.303,2.92,0.441,5.858,0.494,8.465c1.967-2.742,3.738-5.609,5.289-8.578
		c1.547-2.971,2.855-6.031,3.939-9.163c6.086-17.56,5.168-37.348,0.104-55.974c43.023,60.271,68.346,134.055,68.346,213.757
		C816.266,651.383,651.383,816.266,447.999,816.266z M500.5,85.75c-1.203,0.602-2.402,0.99-3.605,1.32
		C498.141,86.348,499.32,85.75,500.5,85.75z M496.158,87.5c-0.029,0.019-0.064,0.038-0.096,0.057
		c0.301-0.028,0.604-0.057,0.938-0.057H496.158z"/>
</g>
<g>
</g>
<g>
</g>
<g>
</g>
<g>
</g>
<g>
</g>
<g>
</g>
<g>
</g>
<g>
</g>
<g>
</g>
<g>
</g>
<g>
</g>
<g>
</g>
<g>
</g>
<g>
</g>
<g>
</g>
</svg>
