<?xml version="1.0" encoding="UTF-8"?><svg id="Layer_2" xmlns="http://www.w3.org/2000/svg" xmlns:xlink="http://www.w3.org/1999/xlink" viewBox="0 0 827.28 91.91"><defs><style>.cls-1{clip-path:url(#clippath);}.cls-2{fill:#ce0e2d;}.cls-3,.cls-4{fill:#1d1d1b;}.cls-4{fill-rule:evenodd;}</style><clipPath id="clippath"><rect class="cls-3" x="60.84" y="66.51" width=".02" height=".02"/></clipPath></defs><rect class="cls-2" width="4.16" height="91.91"/><g><g><path class="cls-3" d="m70.61,33.64c-.2-.08.12-.47.28-.56.15-.08.71-.1.71-.1,0,0-.16.26-.2.52-.03.26-.6.23-.79.14"/><path class="cls-3" d="m72.23,34.58c-.2-.08.12-.47.28-.56.15-.08.71-.1.71-.1,0,0-.16.26-.2.51-.03.26-.6.23-.79.14"/><path class="cls-3" d="m72.34,33.37c-.2-.08.12-.47.28-.56.15-.08.71-.1.71-.1,0,0-.16.26-.2.51-.03.26-.6.23-.79.14"/><path class="cls-3" d="m70.64,34.78c-.2-.08.12-.47.28-.56.15-.08.71-.1.71-.1,0,0-.16.26-.2.51-.03.26-.6.23-.79.14"/><path class="cls-3" d="m72.28,35.73c-.17-.07.11-.41.24-.48.13-.07.61-.09.61-.09,0,0-.14.22-.17.45-.03.22-.52.2-.68.12"/><path class="cls-3" d="m70.67,36.02c-.17-.07.11-.41.24-.48.13-.07.61-.09.61-.09,0,0-.14.22-.17.45-.03.22-.52.2-.68.12"/><path class="cls-3" d="m73.68,35.6c-.17-.07.11-.41.24-.48.13-.07.61-.09.61-.09,0,0-.14.22-.17.45-.03.22-.52.2-.68.13"/><path class="cls-3" d="m72.35,36.82c-.17-.07.11-.41.24-.48.13-.07.61-.09.61-.09,0,0-.14.22-.17.45-.03.22-.52.2-.68.12"/><path class="cls-3" d="m73.74,36.72c-.17-.07.11-.41.24-.48.13-.07.61-.09.61-.09,0,0-.14.22-.17.45-.03.22-.52.2-.68.13"/><path class="cls-3" d="m73.79,34.54c-.17-.07.11-.41.24-.48.13-.07.61-.09.61-.09,0,0-.14.22-.17.45-.03.22-.52.2-.68.13"/></g><g><path class="cls-4" d="m36.65,41.61c-.47-.48-.58-1.12-.44-1.64.23-.87.19-1.52-.18-1.94-.16-.18-.28-.31-.48-.39.21,1.14.31,2.12-.47,3.08.08-.34-.34-1.03-.28-1.89.05-.74.3-1.49.05-1.83.29.21,1.01.33,1.32.38.69.09.87.43,1.11.98.08.18.38.37.47.57.13-.32.28-.57.34-.74.09-.28.05-.54-.03-.83.37.04.55.76.7.92.14.15.23.28.5.28.11-.31.09-.54.12-.84.05-.39.2-.69.06-1.13.22.03.44.31.56.59.15.35.09.63.34.84.25-.16.37-.45.44-.61.2-.56.33-1.01.37-1.68.29.24.46.26.75.49.36.29.56.84.81,1.02.79.53,1.63.95,2.46,1.33,1.05.48,2.04.8,3.7,1.17.69.09,1.17.13,1.81-.04.29-.08.93-.1,1.08-.1.15,0,.5.09.87.19.6.15.79.8.78,1.33-.59.39-1.12.41-2.02.63-.72.17-1.38.25-1.93.83-.12.13-.27.35-.52.35.05-.11.03-.25-.07-.39-.06-.08-.21-.18-.36-.22-.23.22-.28.68-.59.57.03-.21-.27-.3-.5-.28-.24.03-.35.26-.61.23.11-.27-.22-.54-.46-.65-.08.06-.35.59-.67.62.15-.33-.17-.82-.48-.9-.09.28-.24.79-.66.9.15-.33.04-1.12-.49-1.2-.02.46-.13.75-.47.98.15-1.26-.91-1.66-1.91-1.96-.4-.12-.4-.14-.8-.28-.21-.09-.44-.16-.73-.15-.07.31.21.93.49,1.22-.54-.07-.88-.28-1.12-.56-.2-.24-.22-.45-.39-.87-.37.91.13,1.19.49,1.75-1.44,0-1.5-1.69-1.5-1.78-.17.2-.25.36-.33.64-.03.34.06.84.36,1.17-.22-.03-.66-.31-.76-.59-.11-.35-.08-.17-.12-.54-.02-.28-.02-.99-.13-1.27-.12.19-.28.49-.26.83.12.75-.33.98-.2,1.41"/><path class="cls-4" d="m29.66,32.14c-.05.59.27.91.56,1.47.35.67.36,1.64.02,2.47-.12.3-.3.62-.55.98-.42-1.72-.98-3.42-.04-4.92"/><path class="cls-4" d="m33.73,35.91c-.01.39.58.82.63,1.46.04.42-.04.78-.14,1.17-.12.48.15.78-.09,1.38-.13.32-.26.64-.23,1.1-.18-.22-.83-1.4-.59-2.36.19-.77.21-1.23.22-2.09.01-.27.09-.48.2-.68"/><path class="cls-4" d="m32.59,39.79c-.63-.44-.94-1.58-.72-2.16.41-1.14.3-1.24.25-2.41,0-.21.03-.68.18-1-.02,1.02.69,1.34.69,2.31,0,.42.02,1.08-.22,1.64-.32.75-.26,1.41-.19,1.63"/><path class="cls-4" d="m30.95,33.43c.08.53.38,1.04.55,1.36.23.43.18,1.37-.12,2.31-.13.41-.55.92-.54,1.33-.08-.24.04.16-.18-.73-.24-.97.25-1.45.32-2.2.05-.52-.07-1.52-.04-2.06"/></g><g><path class="cls-3" d="m21.23,43.79s.62-.38.93-1.89c.31-1.51,2.07-2.42,2.63-2.49-.5.57-.94,1.26-1.4,2.1-.64,1.19-1.68,2.07-2.15,2.29"/><path class="cls-3" d="m29.53,39.47c-.39-.99-.62-1.51-1.63-2.08-.7-.39-1.18-.47-2-.59-1.29-.19-1.95.09-2.43.33-.47.25-.86.57-1.29,1.48-.34.72-.3,1.36-.27,2.01.17-.8.44-1.45.97-1.98.48-.48,1.04-.82,1.28-.89.8-.23,1.27-.02,1.27-.02-.56.12-.93.23-1.34.51-.71.48-1.37,1.39-1.55,2.11,0,0,.65-1.1,1.75-1.6.85-.44,1.66-.48,2.35-.36-.22.07-.49.2-.81.43-.51.37-.89,1.06-1.28,1.8-.57,1.09-1,1.72-1.47,2.14.37-.12,1.61-.82,2.12-1.57.51-.75.95-1.75,1.11-1.95.16-.2.7-.49,1.03-.39.33.1.6.35.61.36.3.34.67,1,.54,2.13-.21,1.82-.94,3.31-2.53,6-1.52,2.57-2.38,3.54-3,4.94-.86,1.94-.71,4.49,1.35,5.04.97.31,2.39-.29,2.39-.29,0,0,.41-.31.4.6l.21-3.28s-.36,1.43-1.56,1.51c-1.19.08-1.73-.23-1.85-1.08s.41-2.34.82-3.04c.41-.7,3.19-5.27,3.3-5.52.1-.25,1.15-2.06,1.4-3.32.25-1.26.47-2.45.08-3.44"/></g><path class="cls-4" d="m26.31,67.21c-.3,1.36-.27,1.95-.21,2.56.16-.2.32-.32.47-.31-.15.42-.18.74-.16,1.07.15-.24.29-.38.51-.44-.07.41-.1.71-.04,1.17.2-.42.37-.82.59-.67.21.13,0,0,.2.12.17.1-.18.68-.24.83-.06.15.21.4.55.5-.31,1.19-.6,2.17-.35,3.22.09.39.26.77.76,1.05-.21-.91-.19-1.6-.11-2.29.06-.47.29-.93.5-1.37.11-.23.4-.14.52.15.18.41.17,1.3.18,1.75.04,1.48.25,2.28,1.69,2.99.57.28,1.02.13,1.33-.15.21-.18.59-.58.35-.94-.34-.53-.19-.62.29-.55.58.07,1.02-.29,1.26-.76.11-.22.15-.91-.29-.86-1.18.14-1.23-.45-1.4-.84-.18-.4-.09-1.83.37-1.86.25-.02.37-.3.28-.66-2.79.03-5.63-1.27-7.06-3.7m3.97,7.96c-.15-.72-.21-1.29-.22-2.03,0-.59.33-.69.94-.69.52,0,.64.24.52.5-.47,1.01-.28,1.98.13,2.87-.58.59-1.24,0-1.38-.65"/><path class="cls-3" d="m33.05,40.72c.04.37.82,1.98,1.4.7.58-1.28,1.69,1.24,3.91,1.24s3.11-.67,3.77-.57c.66.1,1.04.59.76,1.4-.55,1.59-1.61,2.51-3.95,4.78-.79,1.01-1.42,2.06-1.48,2.18-.21.43-.2.74,0,.8.17.05.35-.03.53-.26.41-.54.51-1.27,1.23-1.69.45-.27,2.47-1.07,2.47-1.07,0,0,1.11-.37,1.69.25.58.62.91,2.6.82,3.46-.08.87-.41,2.55-2.27,3.83-1.85,1.28-1.03,2.39-.58,2.88.45.49,2.85.25,2.85.25,0,0,.95.03,1.47.84.29.45.29,1.05.29,1.05,0,0-1.06.74-1.85.66-1.38-.14-1.98-.74-3.13-.7-1.15.04-3.05.04-3.05.04,0,0-1.03-.14-.74-1.07.45-1.46,1.05-3.01.89-3.92-.1-.57-1.06-.52-1.43-.38-.36.14-.67.34-1.21.06-.22-.11-.23-.62-.3-.98-.15-.76-.16-1.75.15-2.78.16-.53.15-.5.24-.68.19-.38-.31-.82-.67-.06-.51,1.06-.54,1.93-.55,2.59-.03,1.32.84,4.01.67,5.25-.17,1.24-.49,2.06-1.4,2.97-.91.91-3.79,4.37-3.79,4.37,0,0-1.15,1.37-.41,2.88.51,1.05,1.67.86,2.18.86.44,0,.7-.19,1.38.37.59.48.71,1.23.14,1.32-2.86.47-4.06-.06-5.56-.95-1.5-.89-1.24-3.25-1.24-3.25,0,0-.06-1.17,1.79-2.51.45-.72.87-1.71.54-2.33-.31-.58-.97-1.79-.97-1.79,0,0-.62-2.68-.54-3.75.08-1.07-.04-2.72.82-4.45.87-1.73,2.62-3.85,3.32-5.59.7-1.74,1.56-3.84,1.79-6.23"/><g><path class="cls-4" d="m35.32,32.94c0,.19-.04.35-.12.44-.5-.09-.75-.53-.91-.85-.65.09-.9-.08-1.43-.49-.31-.27-.67-.83-.87-1.33-.33.03-.87-.38-1.18-.73-.56-.59-.49-1.16-.99-1.9-.13,1.38-1.09,2.35-.45,3.69.23-.53.38-1,.71-1.41-.01.84,0,1,.08,1.7.06.39.22.87.45,1.06-.07-.48-.02-.67.09-.99.15-.42.29-.58.57-.75.11.27.09.41.06.69-.02.27-.05.51.04.86.14.59.32.89.46,1.29-.04-.42.03-.82.13-1.14.1-.29.22-.43.45-.6.38.65.31,1.05.37,1.67.05.6.42.81.53,1.21.25-.55-.21-1.44.55-1.96-.12.78-.11,1.31.14,1.93.14.35.52.63.65,1.14.09-.72-.28-1.49.1-2.25.36.36.23.68.34,1.05.15.53.43.82.28,1.34.74-.32.39-1.64.4-2.41,0-.49.07-.46.16-.81-.17-.19-.41-.32-.62-.48"/><path class="cls-4" d="m37.53,30.52c0-.16-.03-.44.17-.62.2.06.46.27.51.59.07.38.07.95-.09,1.11.79-.42.81-1.19.64-1.8-.15-.49-.58-.74-.49-1.16.66-.1.83.74.87,1.15.22-.35.33-.9.23-1.3-.08-.31-.53-.62-.34-1.07.21,0,.33.18.46.38.12.17.24.41.31.67.15-.47.06-.87-.09-1.23-.15-.37-.4-.42-.48-1.04.33-.14.34.26.73.39.03-.42.05-.56-.33-1.12.13-.12.38-.03.53.15.02-.4-.38-.91-.6-1.12.16-.08.32,0,.47.07.05-.36-.19-.68-.39-.84-.25-.2-.45-.17-.66-.36-.2-.19-.51-.61-.56-.91.22-.02.52-.05.77-.17.41-.19.62-.4.86-.76.27-.4.38-.91-.07-1.34-.34-.34-.8-.44-1.22-.3-.46.15-.73.63-1.28.36-.08.26-.22.31-.26.33-.15.08-.53.11-.87.06-.32-.04-1.62.03-1.94.07-.68.08-3.3,1.09-3.23.46-.12.62-.97-.28-1.87.53-.51.42-.61,1.08-.4,1.57.27.65.93.86,1.76.71-.02.28-.07.48-.31.72-.2.2-.47.36-.63.82-.15.59-.13,1.7.42,2.18-.08-.62-.08-.9.1-1.3.12-.31.4-.54.57-.54-.13.46-.21,1.11-.21,1.66,0,.59,0,.93.32,1.47.02-.66.24-1.5.6-1.55.37.59-.06,1.11-.15,1.63-.1.57.23.84.61,1.04-.11-.28-.03-.57.03-.82.06-.27.34-1.1.81-.9-.47.93-.46,1.5-.24,2.21.14.45.59,1.01.92,1.08-.24-.31-.4-.9-.4-1.23,0-.58.1-1.25.35-1.41.12.13.3.34.24.8-.06.5-.12.67.04,1.15.14.43.39.73.63.98-.18-1.02-.05-2.14.42-2.37-.06.79-.12,1.4.13,1.88.25.48.43,1.06.43,1.49.21.16.45.28.62.48.02-.08.05-.19.07-.33.09-.61-.39-1.41-.36-1.74.32-.02.62.63.76,1,.43-.2.8-.5,1.21-.74-.04-.36-.06-.72-.08-1.08m-.9-2.95q-.2.09-.39.25c-.14.19-.09.51,0,.8.12.42,0,.73-.33.8-.28.06-.55,0-.71-.36-.17-.4-.23-.73-.11-1.03-.41.03-.69.02-.92,0-.19-.01-.45,0-.6-.16-.19-.22-.41-.71-.15-.86.28-.18,1.01-.23,1.22-.24-.2-.54-.68-.57-.86-.91-.15-.3-.27-.7-.14-1.18-.04,0-.48.1-.65.11-.5.04-.74-.27-.83-.65-.06-.27-.25-.66-.53-.86.06-.16.25-.22.42-.23.28-.03.29,0,.58.02.24.02.5,0,.71-.06.31-.09.37-.15.58-.34.15.25.17.48.12.91-.04.44-.07.97.03,1.4.13.54.44.68.97.58.55-.11.54-.34.53-.72-.08-.96-.77-1.26-.39-2.37.28.24.68.19,1.21.09.32-.06.64-.33,1.1-.13-.28.43-.16.56-.22.97-.13.83-.94.94-1.47.9.42.55.4.89.29,1.32-.14.53-.3.41-.36.94.3-.11,1.13-.51,1.33-.29.25.53.3.95-.44,1.3"/><path class="cls-4" d="m41.4,33.81c-.31-.27-.72-1.08-.58-1.34.42,0,.91.72,1.33,1.18.43.47,1.14.62,1.38,1.27-.04-.88-.27-1.45-.87-1.95-.31-.25-.77-.55-1.15-.79.09-.06.14-.04.35-.04.19,0,.51.18.66.26.33.16.44,0,.79.31.07-.07-.37-.75-.6-.96-.22-.2-.53-.38-.81-.46-.48-.14-1.15-.12-1.56-.29-.38-.16-.48-.23-.89-.55-.22.91-.44,1.24-1.1,1.78-.25.21-.38.31-.53.19-.13-.1-.14-.22-.15-.35-.02-.15-.03-.3-.05-.46-.41.23-.79.54-1.21.74,0,0,0,0,0,0,.18.53.15.94.04,1.45-.19.81-.06,1.56.09,2.32.09.49,1.01,1.4,1.06,1.75.14-.42-.35-1.34-.39-1.61-.06-.46-.13-.69-.13-1.13,0-.44.14-1.21.2-1.21.18.16.47.78.43,1.46-.04.64.2,1.08.54,1.48.19.23.51.22.61.7.13-.41.08-.66.02-.9-.14-.59.01-.72.05-1.34q.03-.48-.09-.98c-.08-.33-.02-.78.12-.94.19.06.42.69.42,1.03,0,.31.03.95.2,1.28.24.48.87.88.84,1.26.31-1,.21-1.87-.13-2.92-.13-.39-.36-.87-.33-1.35.39.14.73,1.28.87,1.69.11.31.09.31.29.55.23.28.45.49.77.63.59.26.78.62,1.03,1.14.06-.25.04-.66-.16-1.18-.31-.84-.67-1.08-1.35-1.68"/><path class="cls-4" d="m42.46,28.57c-.26-.69-.81-.59-1.26-.93-.12-.09-.33-.39-.43-.58-.08.17-.09.5.13.73.25.25.6.42.86.67.36.34.3.75.88,1.04-.82.39-1.31-.75-1.85-.52.18,1.03,1.37.86,1.85,1.68-.58-.19-.9-.09-1.45-.11-.23-.01-.66-.1-.85-.22-.55-.33-.49-.55-.37-.97.18-.61.5-.89.32-1.57-.04-.19-.05-.38-.05-.58,0-.57.65-1.44.14-2.12.25.17.57.41.59.8.06.63.14,1.14.79,1.41.95.39.75,1.2.69,1.26"/><path class="cls-4" d="m58.53,43.33c-.66.15-1.32.29-1.97.45-.59.15-1.02.14-1.38-.51-.28-.51-.53-.5-.53-.5,0,0-.03.24-.38.28-.12.01-.54-.02-.69-.06-.45-.1-1.07-.2-1.51-.19.25.22-.04.48-.2.51-.67.11-1.53.15-2.22.23.42.21.5.89-.08,1.04-.43.11-1.09.12-1.48.39.54.37.14.73.02.84-.21.19-.4.34-.76.48-.36.14-.8.31-.89.54.74.17-.16.95-.41,1.23-.29.32-.46.38-.52.76.44,0,.97.12.7.52-.26.46-.69,1.19-.8,1.45-.1.23-.22.45-.32.68,1-.57,1.38-.83,2.23-.21.19.14.28.16.5.12.27-.06.49-.16.71-.31.47-.34.78-.26.95.3.84-.84,1.62-1.14,2.04-.66.3-.35.6-.71.89-1.06.42-.51.91-.59,1.08.12.18-.37.29-.57.44-.84.2-.36.36-.85.65-.91.13-.03.28-.06.4.18.05-.19.05-.45.06-.57.04-.49.06-.98.09-1.49.17.37.23.7.26,1.31,0,.54.09,1.14-.31,1.79-.12-.43-.25-.92-.46-.68-.49.57-.77,1.43-1.25,2.32,0-.25-.13-1.2-.46-1.09-.39.13-.93,1.03-1.39,1.65-.21-.38-.31-.48-.67-.37-.19.06-.42.18-.56.3-.41.39-.51,1.01-.62,1.53-.07.32-.24.68-.48.9-.11.1-.22.19-.33.28.21.14.42.3.63.46.55-.28.94-.51,1.45-.74.69-.31,1.83-.68,1.51.13.35-.03.66-.28.79-.42.49-.51.78-1.06,1.32-1.16.12-.02.25-.04.37-.05.23-.29.49-.52.74-.78-.12-.02-.33-.2-.29-.49.02-.16.12-.52.15-.65.1-.4.4-.74,1.1-.56-.02-.38-.04-.72-.07-1.04-.06-.69.35-.79.9-.77-.11-.48-.21-.92-.33-1.36-.05-.2-.1-.4-.19-.58-.38-.73-.38-.85.24-1.24.63-.39,1.31-.62,2-.73-.22-.28-.45-.55-.73-.78"/><path class="cls-4" d="m80.99,36.28c-.01-.19-.36-.63-.12-.79.12-.08-.06-.29-.1-.44-.02-.09-.2-.32-.22-.41-.05-.18.06-.24,0-.43-.11-.39-.43-.8-.55-1.14-.13-.37-.06-.66-.18-.85-.03-.05-.36-.28-.4-.33-.22-.35-.11-.47-.3-.72-.24-.33-.59-.5-.8-.72-.21-.21-.28-.48-.5-.63-.07-.05-.32-.05-.37-.11-.45-.54-.97-.46-1.22-.12-.44.61-.86,1.24-1.28,1.87.05.04.11.08.16.13.02-.03.03-.06.06-.09.33-.41.68-.82,1.05-1.2.14-.14.45-.38.69-.24.13.07.18.23.11.37-.19.41-.61.79-.93,1.17.3-.23.58-.51,1.01-.8.21-.14.39-.33.56-.19.22.19-1.2,1.38-1.49,1.72.31-.11,1.32-.99,1.58-1.08.25-.09.36-.07.46.03.06.06.12.23.02.36-.28.48-1.91,1.41-2.18,1.69,1.32-.77,2.53-1.32,2.79-.95.11.12.01.36-.19.48-.25.15-1.31.71-1.69.93.42-.11,1.5-.6,1.81-.61.22-.01.45-.09.64.22.08.22-.28.45-.5.56-.21.1-.63.21-1.01.34.48-.02,1.25-.1,1.59-.11.04.04.22-.07.25.1.08.28-.38.33-.54.37-.45.13-2.03.47-2,.55.53-.08,1.06-.18,1.6-.22.32-.02,1.16-.05,1.21.18.09.23,0,.48-.3.48-.61,0-1.34.11-2.05.2.73,0,1.29.05,1.83.02.3-.01.72.03.8.31.02.1-.01.35-.15.36-1.89.15-2.16,0-3.32,0,0,.15-.08.2-.12.36.43,0,.85-.01,1.28-.02.86,0,1.36.12,2.23.11.51,0,.79-.4.78-.71"/><path class="cls-4" d="m76.29,36.54c.17-.28.1-.45.36-.59-.1-.05-.52-.11-.39-.2.19-.16.05-.37.28-.52-.53-.25-.78-1.55-.68-1.63-.17-.05-.6-.43-.68-.68-.06-.21.07-.61.26-.74-.29-.03-.47-.31-.31-.59-.05-.04-.11-.08-.16-.12-.04.06-.08.11-.11.17-.17.26-.35.34-.67.22-.22-.08-.7-.06-.59-.22-.12-.01-.26,0-.44.06-.27.08-1.12-.19-.87-.28-.41-.12-.79-.04-1.2.25,0,0-.03-.03-.05-.04-.09-.06-.14-.21-.14-.21,0,0-.65.3-.87.54-.26.28-.65,1.12-.79.84-.16.27-.18.62-.26.94-.03.13-.2.57-.27.3-.19.14-.21.45-.2.72,0,.15.08.35.02.46-.25.43-.03.75.19,1.08.19.28.04.72.54.89.45.15.38.69.08,1.09-.37.51-.83.55-1.44.36.11.41.04.63-.13.78.16.27.27.55.4.83.71-.36,1.37-.76,1.95-1.33.28-.28.62-.18.88.11.13.14.23.3.38.42.3.23.62.43.82.56-.06-.4,1.29-.01,1.66-.01-.3-.22.72-.39,1.18-.58-.44-.58.63-.45.91-.81-.29-.02-.43-.1-.31-.27.29-.25.55-.47.71-.61-.25-.12-.05-.47-.06-.67.14,0,.28-.13.43-.13.04-.16.12-.21.12-.36h-.53Z"/><path class="cls-4" d="m66.99,52.42c-.31.09-.6.25-.89.38-.43.2-.95-.02-.73-.5.27-.42.49-.89.83-1.24.33-.34.75-.59,1.22-.71-.02-.17-.05-.34-.07-.51-.33.07-.67.12-.99.21-.39.11-.45-.18-.39-.47.16-.78.49-1.44,1.11-1.92-.03-.27-.06-.54-.08-.81-.35.3-.82.53-1.35.65-.1-.48-.6-1.14.24-1.22-.31-.27-.66-.49-.88-.81-.22-.3-.31-.69-.45-1.05-.41-1.08.22-2.88,1.25-3.46.19-.11.5-.2.68-.12.19.08.28.37.44.61.16-.33.27-.76.57-.9.21-.1.46-.22.66-.33-.13-.28-.24-.57-.4-.83-.13.11-.31.17-.51.22-.56.15-1.1.35-1.64.57-.09.04-.36.19-.5.24-.96.63-1.13.61-1.48.65.66.55.09,1.18-.34,1.43-.35.2-.84.07-1.08-.1-.16-.11-.31-.23-.46-.46-.22-.35-.29-.82-.18-1.15-.24-.06-.5-.09-.74-.18.01.07.01.15,0,.22-.07.2-.23.2-.34.23-.21.04-.44.04-.73,0-.57-.06-.9-.27-.6-1.05-1.69,1.25-3.77.77-4.78-.48.05.4.3,1.11.46,1.37.39.61.87.98,1.48,1.48.14-.48.86-.67,1.47-.45.19.07,1.06.36,1.44.52.14.06.35.12.33.39-.02.22-.25.28-.4.31-.21.05-.42.1-.62.15.28.23.51.5.73.78.6-.09,1.21-.08,1.84,0,.63.09.74.19.95.5.28.4.08.75.08,1.06,0,.13.05.51.06.5.37-.65.7-.59,1.1.16.2.38.39.76.53,1.16.18.54.25.84-.3,1.34-.26.24-.37.41-.46.7,1.09-.69.95,1.21.95,1.46,0,.73-.61,1.08-.94,1.62-.11.18-.19.25-.26.57.57-.41.63,0,.57.49-.02.13-.03.22-.04.29.69.33,1.44.6,2.21.51.26-.61.71-.98,1.37-1.3.28-.13.55-.23.83-.33-.02-.2-.04-.41-.07-.61-.23.06-.45.12-.67.18"/><path class="cls-4" d="m82.16,51.39c-.04-.3.18-.67.56-.91-.85-.37-1.64-.47-2.5-.52-.42-.02-.57-.29-.33-.69.08-.14.14-.16.38-.41-.69-.19-1.33-.19-1.88-.14-.26.02-.39,0-.47-.12-.08-.12-.1-.26.05-.47-.17-.06-.64.08-.86.12-.75.11-1.53-.16-2.28.2-.15.07-.53.15-.67-.16-.01-.03-.05-.16-.02-.22-.09-.02-.3.06-.37.09-.59.24-1.15.32-1.78.05-.06-.02-.12-.03-.18-.02-.22.02-.48.15-.72.18-.38.05-.78-.06-1.16-.02-.2.03-.39.09-.58.25-.1.09-.27.14-.33.24-.4.69-1.02.88-1.67,1.01.02.17.05.34.07.51.1-.02.2-.04.3-.06.5-.06.98-.16,1.17.52.05.16.32.24.46.39.1.11.19.27.19.4,0,.08-.17.21-.29.24-.53.14-1.06.27-1.58.4.02.2.05.41.07.61.17-.06.34-.11.51-.17.5-.17,1.01-.33,1.53-.41.37-.06.7-.08,1.17-.09.82-.01,1.13.23,1.67.72.13.12.28.27.57.45-.03-.22.04-.31.23-.43.09-.06.53,0,.69.09.42.21,1.4.84,1.59.95,0-.34.24-.3.37-.33.92-.01,3.89,2.41,4.82,4.31.35-.47.39-.79-.38-1.69-.52-.61-.93-1.03-1.46-1.64-.11-.13-.43-.4-.27-.68.13-.26.34-.24.54-.22.26.03.36.12.56.24.22-.21.22-.37.13-.66.45.18.71.28,1.38.21-.14-.21-.09-.32.16-.39.69-.15,1.32,0,2.1.26-.18-.96-.71-1.54-1.48-1.97"/><path class="cls-4" d="m62.06,40.43c1.04-.05,1.42-.88,2.32-1.31.13-.06.27-.15.3-.23-1.04-.02.69-1.17.68-1.85-.52.19-.32-.35-.26-.55.24-.69.24-.73.47-1.26.04-.1.29-.6.26-.79-.16.1-.31.1-.48.1-.02,0,.3-1.84.27-2.12-.18.08-.56.18-.53-.13.07-.78.25-1.13.48-1.64-.14.04-.69.06-.48-.58.09-.27.4-.89.34-1.28-.8.27-.36-.6-.15-.93.12-.18.27-.35.63-.56-.26,0-.52,0-.78.11-.39.16-.54.23-.9.45-.81.49-.8.5-1.48-.18-.66.7-.95,1.38-1.41,2.05-.17.21-.45.05-.7-.41-.33.46-.34,1.35-.47,1.98-.09.44-.29.44-.33.44-.09.01-.16.04-.31-.15-.11.24-.1.24-.15.49-.08.43-.07.81-.09,1.22-.02.35-.13.98-.53,1.11.34.28.52.71.61,1.22.1.53.15.73-.24.9-.21.09-.42.1-.64.06,0,.19.09.56.22.8.28.56.55,1.49.21,1.92.52-.09,1.02.17,1.5.66.16.17.36.4.41.63.25.09.5.13.74.18.08-.21.23-.36.48-.37"/><path class="cls-4" d="m95.43,41.74c-.03-.11-.73-1.76-.82-2.42-.13-.97-.05-1.88.13-2.81.02-.11.07-.29.02-.34-.89-.88-1.64-1.75-2.7-2.62-.52-.43-1.43-1.05-3.57-2.28-1.21-.6-1.85.01-2.58.89-.48.58-.88,1.24-1.32,1.87-.11-.23-.1-.35.01-.58.16-.33.45-.69.06-1.12-.55-.62-1.06-1.3-1.56-1.96-.29-.38-1.01-1.87-1.2-2.5-.27-.56-.83-.77-1.42-.84-.81-.1-1.63-.12-2.42-.27-.7-.14-1.37-.47-2.07-.62-.37-.08-.8-.01-1.19.05-.37.06-.71.25-1.07.32-.35.07-.58.15-.64.56-.03.24-.2.53-.4.67-.94.64-1.62,1.39-1.8,2.6.82.15.78-.32,1.12-.73v.85c1.25-.01,2.45-.83,1.96-1.98.05-.02.12-.08.16-.06.49.22.91.19,1.34-.2.16-.15.52-.16.78-.12,1.09.14,2.15.35,3.06,1.03.8.6,1.47,1.27,1.81,2.26.56,1.64,1.14,3.28,1.77,4.9.11.28.33.56.89.52.41-.03.8-.1,1.2-.14.26,0,.12.26.09.38-.11.25-.6.41-.9.41-1.61,0-3.2.55-4.83.21-.37-.08-.9.02-1.18.25-.64.53-1.22,1.12-1.82,1.7.45.25.87.56,1.29.85.88-.77,2.2-.93,3.43-.64.64.15,1.48.34,2.09.52.87.26,1.36.43,2.2.78.55.23,1.08.53,1.58.87.45.31.89.31,1.36,0,.67-.44,1.3-.77,2.02-1.11.48-.23.71.19.47.28-.46.32-.58.41-1.13.78-.23.16-.48.3-.68.48-.64.57-1.08.53-1.7.41-.41-.08-.74-.46-1.15-.55-.39-.05-.42.17-.17.41.4.43.83.85,1.21,1.3.52.62,1.27.71,1.97.94.32.11.64.29.97.35.47.09.98.22,1.44.13,1.12-.22,2.19-.51,3.15-1.27.75-.59.77-1.3.79-2.02,0-.19,0-.26-.03-.37"/><path class="cls-4" d="m101.89,72.54c-.18-.8-.54-1.74-.75-2.58-.1-.39.02-.63.35-.82-.24-.59-.62-1.05-1.03-1.53-.01.05-.03.11-.05.17-.06.17-.33.24-.46.06-1.31-2.69-3.31-4.38-5.77-5.96.39-1.64-.28-2.62-1.82-3.14-.79-.06-1.2.63-1.25.73-.33.63-.06,1.5.24,2.01.41.7,1.17,1.04,1.84,1.01.32-.01.67.23.97.42,1.31.81,2.55,1.73,3.59,2.87.53.59.87,1.14,1.29,1.82.1.16.28.66,0,.82-.35.2-.58-.08-.98-.54-.53-.61-.99-1.08-1.51-1.6-.52-.53-1.01-1.1-1.58-1.58-.63-.55-1.73-1.22-2.35-1.54-1.02-.51-1.31-.61-2.28-1.09-.16-.08-.39-.29-.37-.42.09-.82-.4-1.41-.77-2.04-.13-.22-.42-.36-.66-.5-.47-.27-.36.27-.54.4-.13.1-.32.17-.48.17-1.89-.01-3.6.38-5.35,1.28-.33.17-.62.51-.98.35-.26-.11-.39-.59-.59-.91-.41-.64-.53-1.05-.97-1.67-.56-.8-1.29-1.67-1.95-2.23-1.81-1.54-3.84-2.71-6.4-2.71-1.49,0-2.86.29-4.23.75-.37.12-.7.36-1.06.51-.15.06-.39.08-.48,0-.09-.07-.08-.33-.03-.47.01-.04.03-.08.05-.11-.77.1-1.52-.18-2.21-.51-.04.24-.04.24-.11.53-.05.21-.39.4-.53.24-.19-.24-.31-.4-.58-.72-.63-.74-1.25-1.1-2.07-1.47-1.31-.6-2.48-.96-4.14-1-.06,0-.12,0-.17-.01-.26.25-.52.49-.74.78.85-.09,1.75,0,2.6.15.95.17,1.65.48,2.46,1.07.53.38.93.8,1.22,1.3.28.49.17.66.12.72-.14.15-.41.29-.99.07-.8-.27-1.09-.41-1.8-.65-1.6-.52-3.25-.61-4.9-.35-1.54.24-3.08,1.04-4.27,2.02-1.02.84-1.75,1.74-2.71,2.65-.19.18-.45.41-.67.4-.66-.03-.9-.5-.53-1.04.52-.77,1.09-1.51,1.7-2.21.47-.54.67-.73,1.25-1.17.23-.17.81-.59,1.07-.71-.21-.15-.42-.31-.63-.46-.74.61-1.54,1.16-2.22,1.82-.8.78-1.46,1.72-2.22,2.55-.45.49-.35.42-.97.47-.21.67-.85,2.12-.54,2.25.95.38,1.59.48,2.52,0,.3-.15.66-.21,1-.26.24-.04.35-.01.45-.21.64-1.35,1.08-1.71,2.06-2.76.86-.93,1.96-1.73,3.03-2.22.71-.33,1.95-.58,2.71-.61,1.46-.06,3-.23,4.15,1.03.13.14.21.36.15.63-.04.19-.31.2-.48.2-.59-.02-1.12-.11-1.78-.14-.99-.05-2.02-.04-2.96.19-1.44.36-2.94,1.15-4.03,2.3-.77.81-1.33,1.35-1.84,2.46-.25.55-.42,1.13-.66,1.68-.3.69-.78.82-1.36.36-1.39-1.09-3-1.53-4.73-1.61-.74-.04-1.49-.05-2.22.04-1.2.14-1.78.22-2.9.56-1.13.35-2.71,1.28-3.82,2.42-.79.82-1.13,1.12-1.79,2-.51.69.04,1.96.86,2.03.8.07,1.15-.53,1.61-.98.27-.27.48-.56.78-.85.45-.45,1.01-.85,1.57-1.16.87-.49,1.43-.74,2.43-.98.82-.2,1.81-.27,2.65-.23,1.04.04,1.83.14,2.53.9.31.34.39.76.27,1.09-.09.25-.7.05-.95-.06-1.26-.52-2.56-.67-3.89-.5-.54.07-1.1.23-1.57.5-.64.36-1.3.81-1.77,1.38-.58.71-1.4,1.73-1.17,1.85.12.07.44-.18.57-.3.58-.56,1.11-1.18,1.73-1.7,1.38-1.15,2.69-1.16,4.57-.75.77.17,1.52.64,2.27.91.66.24,1.2-.06,1.17-.65-.07-1.3.76-2.37,2.04-2.49.48-.04.99.15,1.47.27.56.15.9-.03,1.04-.59.12-.48.01-.69-.03-1.03-.04-.29-.08-.55-.11-.83-.08-.94.48-1.76,1.21-2.64.56-.67,1.61-1.44,2.35-1.88,1.44-.86,3.01-1.16,4.67-.79.74.17,1.46.42,2.18.64,1.06.33,1.82-.11,2.04-1.11.02-.09.06-.19.12-.26.42-.53.96-.48,1.49.14.65.76,1.83.81,2.43.09.4-.47.69-1.13,1.19-1.4.98-.54,2.04-1.04,3.12-1.26,1.51-.29,3.35-.24,4.81.41.9.4,1.34.57,2.37,1.37,1.68,1.31,2.99,2.96,3.59,5.07.24.85.17,1.08.11,1.76-.04.45-.55.78-.89.66-.17-.06-.3-.23-.3-.52-.02-1.48-.63-2.19-1.33-3.22-.39-.57-1-1.35-1.79-2.05-.91-.81-1.7-1.49-3.69-2.08-.87-.26-1.37-.22-2.31-.19-1.22.05-2.25.34-3.05,1.23-.42.48-.44,1.36-.04,1.65.36.27.84.4,1.35.15.49-.23.55-.71.5-1.17-.06-.5.12-.77.59-.91,1.66-.49,3.23-.21,4.63.71,1.08.71,2.06,1.55,2.82,2.66.53.77,1.13,1.38,1.39,2.43.07.28-.02.75-.07,1.05-.12.71.19,1.54,1.14,1.39.63-.1,1.21-.27,1.47-.86.15-.35.24-.6.47-1.06.29.85.5,1.19,1.38,1.34.02,0,.11.24.12.29.25.65,1.05,1.09,1.88.71.88-.4,1.8-.38,2.73-.42,2.19-.09,4.07.59,5.74,2.01.92.78,1.62,1.64,2.3,2.59.7.97,1.18,2.17,1.3,3.45.06.62.11.98-.55,1.24-.54.22-.74.83-.65,1.31.09.47.42.97,1.08.98.44,0,.88.02,1.32.09,1.05.17,1.95-.37,2.19-1.35.09-.39.27-.53.69-.43.99.24,1.28-.08,1.46-.99.08-.4-.08-.79-.21-1.36m-8.68-10.87c-.4.2-.82-.22-1.1-.51-.34-.34-.47-1.02-.34-1.26.28-.49.59-.6,1.17-.18.92.62.77,1.69.27,1.95m-48.42,3.08c-.24.32-.45.36-.69.36-.38,0-.78-.11-1.13-.26-1.65-.71-3.33-.67-5.01-.3-1.02.23-2.04.55-2.96,1.04-.78.42-1.41.93-2.02,1.5-.45.42-.71.66-1.1,1-.1.09-.35.25-.57,0-.13-.11-.21-.22-.03-.59.22-.43.32-.66.55-.92.73-.83,1.25-1.48,2.29-2.16.85-.56,1.29-.85,2.24-1.19.74-.26,2.07-.47,2.87-.5,1.41-.05,2.81.02,4.14.56.46.19.85.39,1.26.69.28.21.33.53.16.76m37.9-2.03c-.24.05-.69.12-.78-.16-.17-.36.11-.62.29-.72.73-.41,1.49-.79,2.27-1.07,1.17-.41,2.38-.56,3.63-.41.48.06.81.39.8.87,0,.57-.4.65-.84.66-.29,0-.58,0-.87,0-.9.01-2.04.06-3.01.34-.53.15-.98.38-1.49.49m16.22,12.52c-.28.48-1.22.46-1.27-.16-.04-.5-.05-.52-.13-1.02-.2-1.28-.29-2.6-.97-3.75-.67-1.15-1.3-2-2.48-3.19-2.08-2.1-4.32-2.67-7.08-2.88-1-.08-2.01.05-3.01.05-.35,0-.69-.19-.69-.59,0-.18.02-.38.34-.56.52-.29.95-.41,1.72-.49.56-.06,1.34-.05,1.91-.05,2.73-.01,4.97,1.08,6.45,2.09,1.19.81,2.54,2.47,3.35,3.62,1.05,1.5,1.44,2.43,1.95,4.11.25.81.34,2.06-.1,2.83m2.1-1.49c-.09.16-.31.36-.47.36-.19,0-.49-.16-.56-.32-.26-.68-.38-1.38-.59-2.08-.07-.49.16-.68.51-.83.47-.2.86.06.99.42.29.79.6,1.63.12,2.46"/><path class="cls-3" d="m104.31,46.44c-.53-.75-.98-1.42-1.51-2.17-.37-.51-.7-.9-1.04-1.46-.6-.99-.95-1.25-1.3-2.86-.17-.78-.12-1.6.03-2.34.13-.67.45-.94.88-.92.37.01.58.2.81.49.16.2.41.55.3,1.11-.1.5.86,1.08.88,2.14.28-1.92-.23-3.11-1.24-3.98.22-.02.45-.04.64.02,1.12.38,1.16,1.97,1.11,2.99-.05.94-.12,2.14-.06,2.56.06.43.17,1.61,1.4,2.38-.66-1-.96-1.33-.86-2.92.09-1.44.04-1.84-.03-2.53-.1-1.04-.36-1.49-.48-1.74-.12-.25-.37-.49-.37-.49.03.01.47.25.76.81.29.55.5,1.06.51,1.89,0,.65,0,1.35-.02,1.83-.05,1.2.18,1.8.7,2.54.43.62,1.33,1.23,1.64,1.4-1.32-1.71-1.73-2.43-1.8-3.62-.05-.87.06-1.66-.07-2.48-.25-1.64-.84-3.05-2.22-3.76-.21-.11-.63-.22-1.24-.27.33-.1,1.39-.29,2.53.65.54.44.78,1.21,1.19,1.62,1.01,1.01,1.2,1.48,1.66,2.34-.03-.06-.75-2.59-1.95-3.88-.67-.73-1.81-1.06-1.83-1.07-1.85-.57-3.57.74-4.01,2.48-.2.77-.24,1.49-.22,2.13.03.94.25,1.68.79,2.74.72,1.43,1.18,2.03,2.14,3.35.7.96,1.4,1.85,2.01,2.87.39.65.69,1.1.85,2.09.24,1.52-.67,1.87-1.64,1.68-1.55-.29-2.32-1.46-3.1-2.66-.7-1.08-1.29-2.24-1.91-3.37-.11-.21-.23-.41-.35-.62-.11-.19-1.72-2.48-2.83-4.61-2.95,1.12-8.02,3.08-7.92,3.18,1.09,1.14,1.93,1.2,2.89,2.15.63.62.85.69,1.46,1.44.19.22.46.48.61.71.33.54.54.92.79,1.49.07.16.29.76-.02.73-.21,0-.38-.42-.46-.62-.23-.61-.39-.95-.97-1.16-.65-.25-1.42-.48-2.08-.7-1.22-.4-2.42-.46-3.68-.03-.46.2-.85.67-.91.73-.86.98-.85,2.55.17,3.65.76.81,1.39,1.22,2.01,2.14.34.5.61,1.33.72,2.23-.66.12-1.15.25-1.65.29-.42.03-.87.01-1.28-.1-.96-.28-1.77.03-2.41.65-.56.55-.94,1.28-1.41,1.95,1.45.36,2.4-.02,2.75-.26.69-.48,1.46-.68,2.25-.79,1.23-.18,2.47-.24,3.7-.39.61-.07.66-.63.58-1.03-.08-.41-.42-1.26-.52-1.88-.04-.32-.08-.68.05-.93.21-.41.83-.44,1.36-.17.32.17.63.31.99.45.39.15.69.09.82-.46.27-1.17.25-1.58.88-2.89.11-.22.3-1.12.39-1.54.06-.25.37-.25.36.02-.06.49-.09.94-.22,1.41-.13.48-.41.9-.53,1.37-.38,1.49-.4,2.29-.5,3.44-.11,1.18.28,2.34.96,3.21.76.97,1.8,1.76,3.08,2.12.99.28,1.94.67,2.31,1.75.44,1.3,1.01,2.61.92,4-.02.32-.04.45-.1.68.41.48.79.94,1.03,1.53.03-.02.07-.04.1-.05.27-.12.57-.38.65-.63.13-.41.16-.88.11-1.3-.13-1.06-.35-2.11-.48-3.17-.08-.6-.04-1.22-.1-1.82-.08-.72-.05-1.5-.96-1.8-.3-.1-.57-.28-.83-.46-.96-.64-1.31-2.73-.56-3.65.72-.87.9-1.95,1.23-2.96.19-.59.43-.8.9-.4.69.57,2.11.72,2.99.51.72-.17,1.3-.55,1.65-1.39.4-.98.09-2.39-.49-3.49-.5-.93-.79-1.23-1.39-2.1"/><path class="cls-3" d="m105.62,38.33c.09.39.22.84.25,1.57.02.53-.05,1.34.08,1.81.3,1.06,1.17,2.07,1.17,2.07,0,0-.7-1.46-.43-2.69.16-.7.02-1.05-.18-1.36-.15-.22-.37-.66-.89-1.4"/><path class="cls-4" d="m80.91,43.01c-.45,0-1.07,0-.55-.96-1.05-.05-1.69.33-2.31.22-.22-.04-.35-.07-.43-.36-.03-.11.03-.36.06-.48-.22.11-.41.12-.51.04-.3-.22-.11-.38,0-.52.13-.19.29-.36.46-.5-.41-.29-.84-.6-1.29-.85-.26.25-.52.51-.79.75-.37.33-.79.65-1.25.82-.18.07-.33,0-.54-.21-.14-.15-.35-.36-.64-.4-.55,1.19-1.63,1.45-2.18.6-.32.11-.67.33-.99.82-.22.34-.54.56-.85.56-.24,0-.34-.03-.44-.2-.21.12-.53.44-.65.61-.3.42-.51.92-.35,1.54.1.41.1.83-.03,1.29-.11.39-.27.78-.63,1.09.02.27.05.54.08.81.11-.08.22-.16.34-.23.3-.17,1.16-.45,1.74-.35.71.12,1.4.27,1.87.99.32-.38.48-.54.37-.97.69.17,1.15.73,1.49,1.01.06-.16.11-.33.26-.49.15-.2.35-.23.55-.26.46-.06.64.09,1.06.46.64-.73.93-.78,2.38-.2-.08-.62.3-.94,1.01-.77.7.16.93-.14,1.44-.69.19-.21.65-.33.89-.51-.53-.48.16-.83.33-.9.69-.3,1.22-.61,1.64-1.34.17-.29.48-.39.63-.51-1.06-.25-1.41.07-2.15.09"/></g><g><path class="cls-3" d="m95.42,36.16c.4-.39,1.55-1.24,2.3-1.41l-.49-.87c-.01.45-.26.8-.46.97-.11-.3-.16-.62-.03-.91-.21.19-.63.44-.92.56.31.08.54.18.71.46-.33.16-.98.38-1.44-.17-.3-.36-.33-.85.02-1.16.11-.1.31-.16.48,0,.17.15-.04.45-.18.52.33.06,1.05-.38.75-.76-.23-.29-.86-.18-1.16.02.2-.37.29-1-.02-1.2-.4-.27-.79.47-.78.73.19-.2.48-.29.59-.19.1.08.1.35-.07.53-.3.32-.9.23-1.26-.05-.4-.31-.52-.86-.12-1.5.2.21.48.67.48.99.23-.4.39-.61.73-.95-.37.09-.79-.11-1.03-.25.26-.21.62-.36,1.03-.3l-1.25-.96c.16.38.06.73-.07,1.03-.19-.2-.49-.55-.5-.92-.24.41-.4.62-.73.95.3-.08.81.07,1.06.2-.52.55-1.12.48-1.49.24-.4-.25-.77-.74-.52-1.19.12-.22.46-.16.57-.09.12.08.16.33.02.56.29-.2.77-.65.41-.97-.28-.24-.74-.02-1.04.27.11-.35-.02-.98-.38-1.08-.45-.12-.62.65-.48.95.03-.15.25-.48.44-.36.2.12.13.4.06.53-.22.41-.72.45-1.15.22-.67-.36-.7-1-.4-1.34.32.09.48.29.64.57.04-.31.18-.78.31-1.03-.25.2-.58.24-.9.2.1-.24.38-.57.82-.69l-.96-.25c.04.74-.57,2.07-.77,2.6,3.7,2.12,4.1,2.4,7.18,5.5"/><path class="cls-3" d="m92.01,28.63c-.34.2-.58.29-.72.54-.14.24-.34,1.01-.4,1.31.28-.21.88-.76,1-.98.12-.22.05-.68.11-.86"/><path class="cls-3" d="m96.45,32.03c-.13.38-.17.63-.37.81-.21.19-.91.54-1.2.66.14-.31.56-1.02.75-1.19.19-.17.65-.19.82-.29"/></g><g><path class="cls-3" d="m63.49,5.22v-1.58c-.78.16-1.39.79-1.53,1.58h1.53Z"/><path class="cls-3" d="m64.3,5.22h1.52c-.13-.79-.74-1.41-1.52-1.58v1.58Z"/><path class="cls-3" d="m61.98,5.98c.19.87.98,1.53,1.91,1.53s1.71-.65,1.91-1.53h-3.82Z"/><path class="cls-3" d="m64.13,1.68c.09-.47.31-.91.71-1.41h-1.97c.4.5.62.94.71,1.41.08-.05.17-.08.27-.08s.19.03.27.08"/><path class="cls-3" d="m63.59,2.49c-.08.49-.19,1.02-.65,1.39.69-.33,1.16-.34,1.94,0-.38-.28-.65-.9-.75-1.39-.08.05-.17.08-.27.08s-.19-.03-.27-.08"/><path class="cls-3" d="m63.43,1.87c-.49-.12-1-.38-1.31-.79v2.04c.32-.42.83-.67,1.32-.8-.04-.07-.06-.15-.06-.24,0-.08.02-.15.05-.22"/><path class="cls-3" d="m64.29,1.87c.03.07.05.14.05.22,0,.09-.02.16-.06.24.49.12,1,.38,1.32.8V1.07c-.32.41-.83.67-1.31.79"/><path class="cls-3" d="m63.86,2.63c-.3,0-.55-.25-.55-.55s.25-.55.55-.55.55.25.55.55-.25.55-.55.55"/><rect class="cls-3" x="62.69" y="7.49" width="2.4" height="5.99"/><g><path class="cls-3" d="m53.91,8.74c.34-.31,1.6-1.36,3.04-1.27,1.07.06,1.87.46,2.52.78.18.09.36.18.52.25.73.32,1.92.55,2.76.55.1,0,.2,0,.29-.01h.06s-.04-.44-.04-.44h-.06c-.08.01-.17.02-.26.02-.23,0-.49-.02-.75-.05l.04-.23c.26-.08.45-.32.45-.6,0-.35-.28-.63-.63-.63s-.63.28-.63.63c0,.2.09.37.23.48l-.04.25c-.46-.09-.91-.22-1.25-.37-.1-.04-.21-.09-.32-.15l.13-.28c.33-.02.59-.29.59-.62s-.28-.63-.63-.63-.63.28-.63.63c0,.14.05.28.13.38l-.12.26c-.34-.16-.72-.33-1.15-.45l.08-.31c.26-.08.44-.32.44-.6,0-.35-.28-.63-.63-.63s-.63.28-.63.63c0,.2.09.37.23.49l-.07.29c-.2-.04-.41-.06-.63-.07-.16,0-.33,0-.49,0l-.04-.23c.14-.12.23-.29.23-.48,0-.35-.28-.63-.63-.63s-.63.28-.63.63c0,.29.19.52.45.6l.04.21c-.41.1-.78.26-1.1.44l-.13-.22c.05-.09.08-.2.08-.31,0-.35-.28-.63-.63-.63s-.63.28-.63.63.28.63.63.63c.02,0,.03,0,.05,0l.12.21c-.32.22-.56.42-.68.53-.08.08-.17.16-.25.25l-.16-.12s.02-.09.02-.14c0-.35-.28-.63-.63-.63s-.63.28-.63.63.28.63.63.63c.08,0,.15-.02.22-.04l.19.14c-.19.29-.35.62-.46.98l-.24-.06c-.06-.28-.31-.49-.61-.49-.35,0-.63.28-.63.63s.28.63.63.63c.18,0,.34-.08.46-.2l.26.06c-.06.37-.07.76,0,1.17l-.25.06c-.11-.13-.28-.21-.46-.21-.35,0-.63.28-.63.63s.28.63.63.63c.29,0,.54-.2.61-.48l.23-.05c.11.37.25.74.41,1.07l-.24.12c-.1-.07-.22-.11-.35-.11-.35,0-.63.28-.63.63s.28.63.63.63.63-.28.63-.63h0s.23-.12.23-.12c.21.38.41.68.53.86,0,.03.01.05.01.06v.06s.07-.01.07-.01c.03.04.05.07.06.08l.04.05.27-.21h0s0,0,0,0l.07-.05-.04-.05s-.03-.04-.07-.1c-.08-.45-.25-1.85.34-2.44.39-.39.8-.56,1.32-.56.21,0,.42.03.63.05l.29.04.07-.14c.27-.55.77-1.14,1.33-1.15h.05c.7,0,1.38.25,2.28.84.52.34,1.1.5,1.78.5.19,0,.36-.01.5-.02.11,0,.21-.02.26-.01h.06s.02-.43.02-.43h-.06c-.08,0-.19,0-.32,0-.13,0-.29.02-.47.02-.59,0-1.1-.14-1.54-.43-.98-.64-1.73-.91-2.52-.91h-.06c-.85.01-1.42.85-1.64,1.25-.2-.03-.43-.05-.67-.05-.64,0-1.16.22-1.63.69-.47.47-.57,1.28-.55,1.93-.32-.57-.68-1.34-.8-2.09-.28-1.79.93-2.96,1.07-3.08Z"/><path class="cls-3" d="m76.17,11.67c-.18,0-.35.08-.46.21l-.25-.06c.06-.41.05-.8,0-1.17l.26-.06c.11.12.28.2.46.2.35,0,.63-.28.63-.63s-.28-.63-.63-.63c-.3,0-.55.21-.61.49l-.24.06c-.12-.37-.28-.7-.46-.98l.19-.14c.07.03.14.04.22.04.35,0,.63-.28.63-.63s-.28-.63-.63-.63-.63.28-.63.63c0,.05,0,.1.02.14l-.16.12c-.08-.09-.16-.18-.25-.25-.12-.11-.36-.32-.68-.53l.12-.21s.03,0,.05,0c.35,0,.63-.28.63-.63s-.28-.63-.63-.63-.63.28-.63.63c0,.11.03.22.08.31l-.13.22c-.33-.18-.7-.34-1.1-.44l.04-.21c.26-.08.45-.31.45-.6,0-.35-.28-.63-.63-.63s-.63.28-.63.63c0,.19.09.36.23.48l-.04.23c-.16-.01-.32-.02-.49,0-.22.01-.43.04-.63.07l-.07-.29c.14-.12.23-.29.23-.48,0-.35-.28-.63-.63-.63s-.63.28-.63.63c0,.28.19.52.44.6l.08.31c-.43.13-.81.29-1.15.45l-.12-.26c.08-.11.13-.24.13-.38,0-.35-.28-.63-.63-.63s-.63.28-.63.63.26.6.59.62l.13.28c-.11.05-.22.1-.32.15-.34.15-.79.28-1.25.37l-.04-.25c.14-.12.23-.29.23-.48,0-.35-.28-.63-.63-.63s-.63.28-.63.63c0,.28.19.52.45.6l.04.23c-.27.03-.52.05-.75.05-.09,0-.18,0-.26,0h-.06s-.04.43-.04.43h.06c.09.01.18.02.29.02.84,0,2.03-.24,2.76-.55.17-.07.35-.16.52-.25.65-.32,1.45-.72,2.52-.78,1.44-.08,2.7.96,3.04,1.27.14.13,1.35,1.29,1.07,3.08-.12.75-.48,1.52-.8,2.09.02-.65-.08-1.46-.55-1.93s-.99-.69-1.63-.69c-.24,0-.46.03-.67.05-.22-.4-.79-1.23-1.64-1.25h-.05c-.79,0-1.55.27-2.52.91-.45.29-.95.43-1.54.43-.18,0-.34-.01-.47-.02-.13,0-.24-.02-.32-.01h-.06s.02.44.02.44h.06c.06,0,.16,0,.26,0,.14.01.3.02.5.02.68,0,1.27-.16,1.78-.5.9-.59,1.58-.84,2.27-.84h.06c.57,0,1.06.6,1.33,1.15l.07.14.29-.04c.21-.03.42-.05.63-.05.52,0,.93.17,1.32.57.59.59.41,2,.34,2.44-.04.06-.07.09-.07.09l-.04.05.07.05h0s0,0,0,0l.27.21.04-.05s.03-.03.06-.08h.05s.01-.05.01-.05c0,0,0-.03.01-.06.13-.18.32-.48.53-.86l.23.12h0c0,.35.28.63.63.63s.63-.28.63-.63-.28-.63-.63-.63c-.13,0-.25.04-.35.11l-.24-.12c.16-.33.3-.69.41-1.07l.23.05c.07.27.31.48.61.48.35,0,.63-.28.63-.63s-.28-.63-.63-.63Z"/></g><path class="cls-3" d="m72.29,21.32c-.43-.13-.71-.48-.62-.77.09-.29.51-.42.95-.29.13.04.25.1.35.18.01-.06.03-.11.05-.18.51-2.18.96-3.91,1.96-5.1l-1.85-.79c.54.74.58,1.6.46,2.11-.55-.34-1.01-.8-1.17-1.42-.11.57-.46,1.48-.77,2.03.6-.25,1.09-.37,1.71-.14-.34.67-1.1,1.82-2.52,1.49-.93-.22-1.59-.96-1.4-1.89.06-.3.29-.64.76-.6.46.04.49.77.35,1.05.6-.3,1.21-1.91.27-2.14-.74-.18-1.6.77-1.85,1.46-.14-.84-.77-1.96-1.51-1.91-.97.06-.69,1.74-.35,2.14.06-.56.42-1.05.7-1.03.26.02.59.44.54.95-.09.89-1.15,1.48-2.08,1.48-1.03,0-1.9-.74-2.05-2.27.58.09,1.6.48,1.99,1-.12-.92-.12-1.46,0-2.41-.48.6-1.41.79-1.96.87.16-.65.54-1.35,1.28-1.75h-3.2c.74.41.99,1.1,1.15,1.75-.55-.09-1.47-.27-1.93-.87.12.96.12,1.49,0,2.41.38-.51,1.38-.89,1.96-.99-.15,1.52-1.21,2.14-2.09,2.22-.95.08-2.14-.25-2.3-1.27-.08-.5.54-.83.8-.85.29-.02.66.33.72.89.22-.68.43-2-.54-2.06-.74-.05-1.21.87-1.34,1.71-.24-.69-1.24-1.55-1.95-1.26-.87.36-.2,1.8.4,2.11-.14-.28-.19-1.07.26-1.11.47-.04.71.48.75.78.14.93-.6,1.62-1.56,1.77-1.52.25-2.36-.74-2.29-1.65.62-.24,1.12-.12,1.73.13-.32-.55-.67-1.47-.77-2.03-.16.62-.64,1.09-1.2,1.43-.12-.51-.09-1.38.46-2.12l-1.85.79c.97,1.15,1.38,3.22,1.96,5.12.01.04.02.08.03.11.08-.05.18-.1.28-.13.43-.13.86,0,.95.29.09.29-.19.64-.62.77-.13.04-.26.06-.38.05.01.18,0,.36-.06.58,2.52-1.23,6.29-1.36,8.96-1.36,0,0,5.21-.34,8.9,1.36,0-.23.01-.41.03-.59-.15.02-.32.01-.49-.04"/><path class="cls-3" d="m55.34,20.08c-.12,0-.25.02-.37.06-.11.03-.21.08-.31.14-.33.2-.48.51-.4.79.08.25.34.41.68.43.02,0,.03,0,.05,0,.12,0,.25-.02.37-.06.23-.07.43-.2.57-.37.14-.18.19-.38.14-.56-.08-.26-.37-.43-.73-.43"/><path class="cls-3" d="m72.28,20.08c-.36,0-.65.17-.73.43-.06.18,0,.38.14.56.13.16.33.3.57.37.12.04.25.06.37.06.06,0,.12,0,.18-.01.28-.05.49-.2.56-.42.08-.25-.04-.53-.32-.73-.11-.09-.24-.15-.39-.2-.12-.04-.25-.06-.37-.06"/><path class="cls-3" d="m73.24,20.13s-.05,0-.08-.01c-5.96-1.66-12.26-1.66-18.71,0-.17.04-.33-.06-.38-.22-.04-.16.06-.33.22-.38,6.56-1.69,12.96-1.69,19.03,0,.16.05.26.22.21.38-.04.14-.16.23-.3.23"/><path class="cls-3" d="m54.37,20.2c-.17,0-.32-.11-.36-.28-.02-.1-.01-.2.04-.28.05-.09.13-.15.23-.17,3.27-.84,6.53-1.27,9.71-1.27s6.32.43,9.35,1.27c.2.05.31.26.26.46-.04.16-.19.27-.36.27-.03,0-.07,0-.1-.01-2.96-.82-6.04-1.24-9.15-1.24s-6.32.42-9.53,1.24c-.03,0-.06.01-.09.01"/><path class="cls-3" d="m58.25,12.24c-.3.75-.57,1.19-.49,1.74.07.56.69,2.04.97,2.59.19-.67.48-2.3.4-2.81-.08-.51-.75-1.16-.88-1.53"/><path class="cls-3" d="m69.58,12.26c.26.76.51,1.22.4,1.77-.1.56-.8,2-1.11,2.54-.16-.68-.36-2.32-.26-2.83.1-.51.81-1.12.96-1.48"/><path class="cls-3" d="m54.47,17c0,.37-.3.67-.67.67s-.67-.3-.67-.67.3-.67.67-.67.67.3.67.67"/><path class="cls-3" d="m53.8,17.73c-.4,0-.73-.33-.73-.73s.33-.73.73-.73.73.33.73.73-.33.73-.73.73"/><path class="cls-3" d="m64.55,15.44c0,.39-.32.71-.71.71s-.71-.32-.71-.71.32-.71.71-.71.71.32.71.71"/><path class="cls-3" d="m63.84,16.21c-.42,0-.77-.34-.77-.77s.34-.77.77-.77.77.34.77.77-.34.77-.77.77m0-1.41c-.36,0-.65.29-.65.65s.29.64.65.64.64-.29.64-.64-.29-.65-.64-.65"/><path class="cls-3" d="m74.24,16.96c0,.37-.3.67-.67.67s-.67-.3-.67-.67.3-.67.67-.67.67.3.67.67"/><path class="cls-3" d="m73.58,17.69c-.4,0-.73-.33-.73-.73s.33-.73.73-.73.73.33.73.73-.33.73-.73.73"/><g><path class="cls-3" d="m63.84,20.31c-4.69,0-9.68.83-9.68,2.36s4.99,2.36,9.68,2.36,9.68-.83,9.68-2.36-4.99-2.36-9.68-2.36Zm9.31,2.36c0,.94-3.82,1.99-9.31,1.99s-9.31-1.05-9.31-1.99,3.82-1.99,9.31-1.99,9.31,1.05,9.31,1.99Z"/><path class="cls-3" d="m71.07,23.11c-1.82-.47-4.43-.74-7.18-.74s-5.42.28-7.24.76c-.1.03-.16.13-.13.23.02.08.1.14.18.14.02,0,.03,0,.05,0,1.79-.48,4.4-.75,7.14-.75s5.29.27,7.08.73c.1.02.2-.04.23-.13.03-.1-.03-.2-.13-.23Z"/></g></g><g><path class="cls-3" d="m33.27,14.94l-.08-.53c-.25.1-.42.34-.43.61l.51-.08Z"/><path class="cls-3" d="m33.54,14.9l.51-.08c-.09-.26-.32-.43-.59-.45l.08.53Z"/><path class="cls-3" d="m32.81,15.28c.11.28.41.46.72.41.31-.05.54-.31.55-.61l-1.27.2Z"/><path class="cls-3" d="m33.3,13.73c0-.16.06-.32.16-.51l-.66.1c.16.14.26.28.31.43.02-.02.05-.04.09-.04.03,0,.07,0,.1.01"/><path class="cls-3" d="m33.16,14.03c0,.17,0,.35-.14.5.21-.15.37-.18.64-.1-.14-.07-.26-.27-.32-.42-.02.02-.05.04-.09.04-.03,0-.06,0-.09-.01"/><path class="cls-3" d="m33.07,13.83c-.17-.01-.35-.07-.48-.19l.11.68c.08-.16.24-.27.4-.34-.02-.02-.03-.05-.03-.08,0-.03,0-.05,0-.07"/><path class="cls-3" d="m33.36,13.78s.03.04.03.07c0,.03,0,.06,0,.08.17.01.35.07.48.2l-.11-.68c-.08.16-.24.27-.4.33"/><path class="cls-3" d="m33.26,14.06c-.1.02-.2-.05-.21-.15-.02-.1.05-.2.15-.21.1-.02.2.05.21.15.02.1-.05.2-.15.21m-.05-.32c-.08.01-.13.09-.12.16.01.08.09.13.16.12.08-.01.13-.09.12-.16-.01-.08-.09-.13-.16-.12"/><path class="cls-3" d="m33.12,15.74l.32,2,.8-.13-.32-2-.8.13Z"/><g><path class="cls-3" d="m32.86,16.12s.03,0,.04,0c.14-.02.23-.15.21-.29-.02-.14-.15-.23-.29-.21-.07.01-.12.05-.16.1-.04.05-.06.12-.04.19.02.12.12.21.25.21Z"/><path class="cls-3" d="m33.48,17.01h-.03s-.06.01-.11.02c-.08.02-.2.05-.33.05s-.24-.02-.36-.08c-.37-.17-.64-.22-.91-.17-.28.05-.43.35-.49.5-.22,0-.5.02-.73.34-.13.17-.12.43-.09.64-.13-.17-.28-.39-.35-.62-.19-.58.15-1.02.19-1.07.1-.12.46-.53.94-.58.05,0,.11,0,.16,0,.28,0,.52.08.72.14h.01c.06.02.12.04.18.06.16.04.37.06.59.06.18,0,.34-.02.46-.04h.03s-.04-.17-.04-.17h-.03c-.11.03-.25.05-.42.05-.2,0-.4-.02-.55-.06-.02,0-.05-.01-.07-.02l.02-.07s.09-.05.12-.09c.04-.05.06-.12.04-.19-.02-.14-.15-.23-.29-.21-.14.02-.23.15-.21.29,0,.05.03.09.06.13l-.02.06c-.1-.03-.21-.05-.33-.07v-.08c.09-.05.14-.15.12-.25-.02-.14-.15-.23-.29-.21-.07.01-.12.05-.16.1-.04.05-.06.12-.04.19.01.07.05.13.1.16v.07c-.06,0-.12,0-.18,0-.04,0-.08.01-.12.02l-.02-.05c.04-.05.06-.12.04-.19-.02-.14-.15-.23-.29-.21-.14.02-.23.15-.21.29.02.1.09.18.19.21v.04c-.09.05-.18.1-.26.16l-.03-.04s.01-.07,0-.1c-.02-.14-.15-.23-.29-.21-.14.02-.23.15-.21.29.02.12.12.21.25.21.01,0,.02,0,.03,0l.03.04c-.08.08-.14.15-.17.19-.02.02-.03.04-.05.06l-.03-.02s0-.02,0-.03c-.02-.14-.15-.23-.29-.21-.14.02-.23.15-.21.29.02.12.12.21.25.21.01,0,.03,0,.04,0,.02,0,.04-.01.06-.02l.05.02c-.03.09-.06.18-.08.28h-.05c-.05-.1-.15-.15-.26-.14-.07.01-.13.05-.16.1-.04.05-.06.12-.04.19.02.12.12.21.25.21.01,0,.03,0,.04,0,.06,0,.12-.04.15-.09h.06c0,.11.02.21.05.32l-.05.02c-.05-.03-.11-.05-.18-.04-.07.01-.13.05-.16.1-.04.05-.06.12-.04.19.02.12.12.21.25.21.01,0,.03,0,.04,0,.11-.02.19-.1.21-.2l.05-.02c.05.09.1.18.15.27l-.05.04s-.08-.02-.12-.01c-.14.02-.23.15-.21.29.02.12.12.21.25.21.01,0,.03,0,.04,0,.13-.02.22-.14.21-.26l.05-.03c.08.1.15.18.2.23,0,0,0,.02,0,.02v.03s.03,0,.03,0c0,0,.02.02.02.02l.02.02.08-.09h.01s0,0,0,0l.02-.02-.02-.02s-.01-.01-.03-.03c-.05-.14-.18-.6-.02-.82.19-.26.39-.26.61-.27h.1s.02-.06.02-.06c.06-.19.19-.41.38-.45.24-.04.47,0,.81.16.13.06.28.09.43.09s.28-.03.36-.05c.03,0,.07-.02.09-.02h.03s-.02-.17-.02-.17Z"/></g><rect class="cls-3" x="32.75" y="16.04" width=".2" height=".16" transform="translate(16.42 48.81) rotate(-89.45)"/><path class="cls-3" d="m37.6,16.75h.05c.04.08.13.13.22.13h0s.03,0,.04,0c.14-.02.23-.15.21-.29-.02-.14-.15-.23-.29-.21-.06.01-.12.04-.16.09h-.06c0-.11-.02-.22-.05-.32l.06-.02s.08.04.13.04c.01,0,.03,0,.04,0,.14-.02.23-.15.21-.29-.02-.14-.15-.23-.29-.21-.11.02-.19.1-.21.21l-.05.02c-.05-.09-.1-.17-.16-.24l.04-.04s.02,0,.03,0c.01,0,.03,0,.04,0,.14-.02.23-.15.21-.29-.02-.14-.15-.23-.29-.21-.14.02-.23.15-.21.29,0,0,0,.02,0,.03l-.02.02s-.04-.03-.06-.05c-.05-.03-.12-.08-.22-.12l.02-.05c.13-.02.22-.15.2-.29-.02-.14-.15-.23-.29-.21-.14.02-.23.15-.21.29,0,.04.02.07.04.1l-.02.05c-.1-.03-.2-.06-.31-.07v-.04c.09-.05.14-.15.12-.26-.02-.14-.15-.23-.29-.21-.14.02-.23.15-.21.29.01.07.05.12.1.16v.05s-.08.01-.12.02c-.06.01-.11.03-.17.05l-.03-.06h0c.04-.06.06-.12.05-.19-.02-.14-.15-.23-.29-.21-.14.02-.23.15-.21.29.02.1.09.18.19.21l.03.07c-.11.05-.2.11-.29.17l-.03-.05s.02-.09.02-.14c-.02-.14-.15-.23-.29-.21-.14.02-.23.15-.21.29.02.12.12.21.25.21l.04.06s-.04.03-.06.04c-.1.06-.22.12-.35.17l-.02-.05h0c.04-.06.06-.12.04-.19-.02-.14-.15-.23-.29-.21-.14.02-.23.15-.21.29.02.1.09.18.19.21v.04c-.09.03-.2.05-.28.06h-.03s.01.17.01.17h.03c.28-.02.73-.18.99-.35.05-.03.11-.07.16-.11.2-.14.44-.32.79-.39.07-.02.14-.02.21-.02.4,0,.76.22.86.28.05.03.51.36.51.96,0,.24-.07.49-.14.7-.03-.21-.11-.45-.28-.58-.14-.11-.29-.16-.45-.16-.13,0-.24.03-.35.06-.1-.12-.33-.37-.62-.33-.27.04-.52.17-.81.44-.23.21-.49.23-.65.24-.04,0-.07,0-.1.01h-.03s.04.17.04.17h.03s.04-.01.08-.02h.01c.16-.01.47-.04.74-.28.27-.25.49-.37.73-.4.19-.03.38.15.5.31l.03.05.1-.03c.1-.03.2-.06.31-.06.12,0,.24.04.36.12.22.16.24.63.24.78,0,.02-.02.03-.02.03v.03s.01.02.01.02h0s0,0,0,0l.11.06v-.03s.02-.01.03-.02h.02s0-.03,0-.03c0,0,0,0,0-.02.03-.06.07-.16.12-.28l.05.02c.03.11.13.19.24.19.01,0,.03,0,.04,0,.07-.01.12-.05.16-.1.04-.05.06-.12.04-.19-.02-.14-.15-.23-.29-.21-.04,0-.08.02-.11.05l-.06-.02c.03-.1.05-.2.06-.3Z"/><path class="cls-3" d="m31.34,20.32s-.08.02-.12.04c-.03.02-.07.04-.09.06-.1.09-.13.2-.09.28.04.08.13.12.25.11,0,0,.01,0,.02,0,.04,0,.08-.02.12-.04.07-.04.13-.09.17-.15.04-.07.04-.14.02-.19-.04-.08-.15-.12-.27-.1"/><path class="cls-3" d="m36.98,19.42c-.12.02-.21.09-.22.18,0,.06.02.13.08.18.05.05.13.08.21.09.04,0,.09,0,.13,0,.02,0,.04,0,.06-.01.09-.03.15-.09.16-.17.01-.09-.04-.17-.14-.23-.04-.02-.09-.04-.14-.04-.04,0-.09,0-.13,0"/><path class="cls-3" d="m31.01,20.42c-.05,0-.1-.03-.12-.08-.03-.07,0-.15.07-.18,1.66-.72,3.35-1.08,5.03-1.08.44,0,.88.03,1.32.08.07,0,.13.08.12.15,0,.06-.05.11-.11.12-.01,0-.02,0-.04,0-.43-.05-.86-.07-1.29-.07-1.64,0-3.3.36-4.92,1.06-.02,0-.04.01-.05.01Zm4.98-1.28c-1.67,0-3.35.36-5,1.08-.04.02-.05.06-.04.1.02.04.06.05.1.04,1.63-.71,3.3-1.07,4.95-1.07.43,0,.87.02,1.3.07,0,0,.01,0,.02,0,.03,0,.06-.03.06-.06,0-.04-.02-.08-.06-.08-.44-.05-.88-.08-1.32-.08Z"/><path class="cls-3" d="m31.9,17.56c-.06.26-.13.43-.07.61.05.18.34.64.46.81.03-.23.04-.79-.01-.96-.05-.17-.31-.35-.38-.46"/><path class="cls-3" d="m35.67,16.96c.13.24.23.38.23.57,0,.19-.16.71-.23.9-.09-.22-.24-.75-.24-.93,0-.17.21-.41.24-.54"/><path class="cls-3" d="m34.43,21.5c-1.57.25-3.25.22-3.32-.26-.08-.48,1.51-1.02,3.08-1.27,1.57-.25,3.25-.22,3.32.26.08.48-1.51,1.02-3.08,1.27m-.23-1.45c-1.87.3-3.06.85-3.01,1.18.05.33,1.36.48,3.23.19,1.87-.3,3.06-.85,3.01-1.18-.05-.33-1.36-.48-3.23-.19"/><path class="cls-3" d="m37.3,19.21s.08.05.07.09c0,.04-.05.08-.09.07-.01,0-.02,0-.04,0,0,.01,0,.03,0,.04.01,0,.02,0,.04,0,.01,0,.02,0,.03,0,.06,0,.1-.05.1-.11,0-.07-.04-.13-.11-.14-.01,0-.03,0-.04,0,0,.01,0,.03,0,.04.01,0,.03,0,.04,0Z"/><path class="cls-3" d="m31.04,20.36s-.09,0-.11-.04c0-.02,0-.04,0-.06,0-.02.02-.04.04-.05.02,0,.04-.02.06-.02,0-.01-.01-.03-.02-.04-.02,0-.04.02-.06.02-.03.01-.05.04-.07.07-.01.03-.01.06,0,.1.02.05.08.08.13.07.01,0,.02,0,.03,0,.02,0,.04-.02.06-.03,0-.01-.01-.03-.02-.04-.02,0-.04.02-.06.03Z"/><path class="cls-3" d="m37.41,18.14c.05-.18.11-.35.2-.5l-.66-.17c.19.19.26.42.27.6,0,0,0,0-.01,0-.03,0-.06.02-.09.03-.16-.08-.29-.2-.36-.36,0,.19-.07.52-.15.72.14-.08.26-.14.39-.15,0,.01,0,.03,0,.04.01.06.04.12.09.15-.11.23-.31.47-.69.45-.32-.02-.58-.24-.57-.56,0-.1.06-.23.22-.24.15-.01.2.23.17.33.18-.13.3-.7-.02-.73-.26-.02-.49.34-.54.59-.09-.27-.36-.61-.6-.56-.32.07-.14.61,0,.73,0-.19.08-.37.18-.38.09,0,.22.12.23.29.02.3-.31.55-.62.6-.31.05-.61-.11-.76-.52.04-.03.06-.08.07-.12.2.02.47.09.6.22-.09-.3-.12-.48-.13-.8-.11.19-.34.3-.51.36-.02-.03-.05-.05-.08-.07.04-.2.13-.4.32-.55l-1.06.17c.23.08.35.25.43.42-.03.03-.05.06-.06.1-.19,0-.43-.04-.59-.18.09.31.12.49.13.8.08-.15.31-.3.49-.39.03.04.07.07.11.09-.03.42-.31.65-.58.71-.31.08-.73.03-.83-.3-.05-.16.14-.31.22-.32.09-.02.24.07.29.26.04-.24.04-.69-.29-.66-.25.02-.35.35-.36.64-.12-.22-.5-.45-.71-.32-.27.16.03.61.24.68-.06-.08-.12-.35.03-.38.15-.04.26.12.29.22.1.3-.11.57-.43.67-.41.14-.71-.04-.81-.28.02-.04.03-.09.02-.14,0-.01,0-.02,0-.03.18-.08.34-.07.53-.02-.14-.17-.3-.45-.37-.64-.02.2-.14.37-.29.51-.02,0-.03-.01-.05-.02-.06-.17-.07-.43.06-.69l-.57.36c.11.1.21.22.31.37-.07.05-.11.14-.09.23.02.13.15.23.28.2.02,0,.03,0,.05-.01.09.17.17.36.26.54,1.03-.44,2.07-.75,3.11-.91,1.04-.17,2.1-.19,3.14-.08.02-.22.04-.42.07-.61.11-.04.19-.15.17-.27,0-.06-.04-.11-.08-.14Z"/><path class="cls-3" d="m34.16,19.48c-1.02.16-2.04.46-3.04.89,0,.01.01.03.02.04,0,.01.01.02.02.04.02-.02.05-.04.09-.06.14-.07.29-.05.33.05.05.09-.03.22-.17.29-.04.02-.08.03-.12.04.01.06.02.12.01.2.77-.54,2.02-.79,2.91-.93,0,0,1.72-.39,3.03-.02-.01-.08-.02-.14-.02-.2-.05.02-.11.02-.17.01-.15-.02-.26-.12-.25-.22.01-.1.15-.17.3-.15.05,0,.09.02.13.04,0-.02,0-.04,0-.06,0-.01,0-.02,0-.03-1.02-.11-2.05-.09-3.08.07Z"/></g><g><path class="cls-4" d="m50.51,25.78c.6.09,1.3.25,1.9.3.85.08,1.59.09,2.44.12,1.02-.13,1.56,1.24.91,2.11-.5.66-1.17,1.46-2.1,1.06-.17-.05-.3-.27-.61-.09-.52.46-.89.33-1.26-.06-.14-.08-.36-.17-.5-.12-.75.3-1.11-.05-1.47-.38-.59-.54-.81-1.16-.79-1.84.02-.76.41-1.04,1.48-1.11"/><path class="cls-4" d="m51.74,30.99c-.46.08-.59.21-.81.52-.07.1-.34.03-.53-.02-.21-.06-.51-.12-.54-.36.02-.72.95-1.46,1.62-1.23.35.12.37.39.37.6,0,.19,0,.53-.11.5"/><path class="cls-4" d="m48.47,27.52c-1.19,0-1.49-.25-1.62-.92-.05-.24-.05-.53-.03-.89,1.21.06,1.56.21,1.48.89-.04.34-.04.46.17.91"/><path class="cls-4" d="m52.69,32.6c-.08.5-.49.76-.89.71-.28-.04-.72-.46-.73-.72-.02-.45.31-.84.88-.8.5.03.84.2.73.81"/><path class="cls-4" d="m56.33,28.42c1.06,0,1.32-.23,1.43-.86.04-.22.05-.49.03-.83-1.07.05-1.2.21-1.23.85-.02.59-.08.61-.23.84"/><path class="cls-4" d="m46.73,34.2c-1.08-.3-1.41-.15-1.69.41-.1.2-.18.46-.25.79,1.11.25,1.28.15,1.48-.47.18-.56.3-.53.47-.74"/><path class="cls-4" d="m56.94,34.85c.95-.27,1.24-.14,1.49.37.09.18.16.41.22.7-.98.22-1.13.13-1.3-.41q-.16-.49-.41-.65"/><path class="cls-4" d="m52,37.7c.73.7.77,1.03.46,1.51-.11.17-.28.36-.5.56-.71-.75-.7-.93-.32-1.37.35-.4.26-.41.36-.71"/><path class="cls-4" d="m50.51,32.42c-.08.45,0,.6.22.9.07.09-.08.32-.19.47-.12.17-.27.43-.5.38-.64-.24-1.02-1.32-.6-1.86.22-.28.47-.21.66-.15.18.06.48.18.42.26"/><path class="cls-4" d="m53.23,31.84c-.12-.44-.26-.54-.58-.72-.1-.06-.07-.32-.03-.51.04-.21.06-.5.29-.56.68-.05,1.49.76,1.34,1.42-.08.34-.33.39-.53.42-.18.02-.51.05-.49-.05"/><path class="cls-4" d="m51.47,33.88c.42.17.59.13.93-.01.11-.04.29.15.42.29.14.16.36.36.26.57-.38.57-1.51.7-1.95.18-.22-.27-.11-.5,0-.68.09-.16.28-.43.34-.35"/><path class="cls-4" d="m53.11,33.4c.3-.28.33-.43.35-.77,0-.11.23-.18.4-.23.18-.05.43-.15.57.02.33.55,0,1.55-.59,1.69-.31.07-.46-.12-.56-.28-.1-.14-.25-.41-.16-.43"/><path class="cls-4" d="m45.39,31.92c.24-.42.57-.91.78-1.35.3-.62.51-1.18.76-1.81.16-.81,1.51-.81,2.08-.05.44.58.96,1.32.35,1.91-.09.12-.32.14-.24.44.26.53.04.78-.39.94-.11.08-.24.22-.24.34.06.66-.34.82-.73,1-.63.28-1.22.26-1.81.04-.66-.24-.8-.63-.56-1.45"/><path class="cls-4" d="m57.5,34.31c-.61.06-1.19-.06-1.71-.49-.33-.26-.67-.51-.45-1.13.03-.11-.06-.27-.14-.38-.37-.26-.52-.54-.14-.99.15-.26-.07-.34-.12-.47-.43-.71.25-1.29.81-1.73.73-.58,2.02-.25,1.97.56.09.67.15,1.25.28,1.91.09.47.29,1.01.41,1.47.02.84-.21,1.17-.89,1.24"/><path class="cls-4" d="m52.93,38.18c-.32-.45-.46-.94-.36-1.53.06-.37.11-.74.69-.83.1-.02.19-.16.24-.27.04-.4.2-.63.71-.53.27,0,.24-.2.32-.3.37-.64,1.12-.36,1.7-.12.77.32,1.07,1.45.41,1.76-.48.35-.91.65-1.37,1.03-.32.27-.66.66-.97.95-.65.37-1,.34-1.36-.16"/><path class="cls-4" d="m46.79,35.29c.34-.48.78-.81,1.41-.92.39-.07.78-.16,1.09.39.06.09.23.13.36.14.42-.1.71-.03.79.52.1.27.29.17.41.21.77.14.77.99.74,1.67-.04.89-1.07,1.6-1.62,1.06-.53-.36-.98-.68-1.54-1-.39-.23-.9-.43-1.31-.63-.61-.52-.71-.89-.33-1.42"/></g><g><path class="cls-4" d="m101.55,25.47c-.03-.65-.72-1.17-1.45-1.24-.17-.02-.36-.01-.54-.06-.16-.05-.34-.17-.3-.46.43-.04.92-.04,1.24,0,.44.05.6.18,1.04.38-.14-.64-.85-1.17-1.59-1.12-.16,0-.32.03-.48.03-.19,0-.54-.03-.55-.43.48-.1.93-.18,1.29-.18.44,0,.66.07,1.12.22-.21-.62-.9-1.03-1.63-.91-.17.03-.34.05-.53.09-.18.04-.46.1-.56-.24,0,0,0,0,0,0,.49-.16.86-.32,1.24-.37.44-.06.73,0,1.2.08-.29-.59-1.01-.93-1.71-.71-.16.05-.33.09-.53.16-.17.06-.44.16-.56-.2.46-.24.71-.38,1.06-.49.41-.13.75-.18,1.21-.05-.35-.55-1.1-.78-1.78-.48-.16.07-.34.16-.53.24-.16.06-.36.08-.5-.16,0,0,0,0,0-.01.3-.21.58-.41.83-.51.41-.17.75-.23,1.23-.27-.43-.5-1.22-.47-1.89-.1-.07.04-.16.08-.26.14-.17.09-.44.15-.6-.1.61-.54,1.39-.69,1.75-.67,0-.04-.56-.33-1.02-.12,0-.11-.01-.27-.2-.43,0,.37-.52.74-.85.99-.6.45-1.23.85-2.02,1.01-.36.07-.55,0-.65-.11-.12-.16-.02-.38.28-.39.66-.02,1.06-.49,1.52-.83.18-.13.3-.29.61-.3-1.58-.26-2.51-.76-3.53.49-.2-.55.05-.85.35-1.06.32-.22.71-.35,1.04-.56.53-.35.69-1.09.39-1.52-.29.25-.16.46-.49.99-.28.39-.51.43-.67.36.05-.17.27-.54.34-.75.11-.32.12-.31.16-.69,0,0,.06-.68-.2-.73-.18.23-.22.28-.37.67-.15.38-.55,1.44-.97,1.26.11-.36.14-.39.25-.75.08-.26.12-.51.14-.85.01-.17.03-.51-.19-.65-.1.11-.4.62-.45.75-.21.56-.28.66-.51,1.33-1.62-1.04-3.1-1.94-4.52-2.92-1.47-1.02-2.9-2.09-4.55-2.82.64.72,1.38,1.23,2.03,1.84.34.31.56.45.76.47.42.03.55.18.66.28.25.17-.13.17-.41.18.25.2.38.41.59.41.84,0,.8.12.9.18.46.34-.29.21-.49.24.16.23.46.43.64.46.31.04.68-.07.85.12.4.28-.09.21-.51.24.3.29.5.54.9.53.47,0,.6-.11.92.15.55.37-.38.3-.84.32.35.35.52.49.76.49.39,0,.92-.12,1.15.09.3.27-.22.31-.94.3.16.44.13.78-.48,1.26-.46.36-.75.84-.83,1.35-.18,1.15-.84,2.08-1.58,2.8-.7.68-1.15,1.19-1.11,2.27.01.3.13.79.34.87.28.12.7-.02,1.04-.13.41-.13.79-.34,1.18-.52.08-.06.2-.03.16.17-.09.48-.19.96-.25,1.45,0,.07-.03.26-.03.34,0,.03.08.07.12.09.53.24,1.41-.3,1.5-.93.09-.64,1.06-1.68,1.61-1.71,1.26-.09,2.29-.59,3-1.67.07-.11.1-.26.14-.39.03-.16.16-.16.17.04-.02.21-.02.42-.06.63-.15.84-.81,1.24-1.45,1.67-.23.15-.53.38-.56.61-.09.74-.32,1.37-.81,1.96-.33.4-.89,1.01-1.29,1.24.2-.02-.07.76-.07.76.3-.19.57-.16.73.15-.05-.59,1.37-1.02,1.33-.96-.1.48.08,1.37-.16,1.65.3,0,.43,0,.53.43.06-.32.26-.58.51-.39.73.44,1.33,1.01,1.82,1.41.15.12.08.42-.29.49.62.22,1.99-.11,1.99-.11,0,0,.14.79-.09,1,.41.32.95.58,1.2.86.29.33.54.63.66,1.14.32-.57-.07-1.38-.65-1.84-.26-.2-.52-.41-.37-.9.36.26.67.5.89.74.29.33.56.65.67,1.07.32-.57-.08-1.32-.66-1.77-.26-.21-.64-.4-.47-.91,0-.02.01-.03.02-.05.36.26.71.49.93.73.29.33.57.53.69,1.03.32-.57-.1-1.27-.68-1.73-.26-.21-.61-.44-.45-.95.35.23.69.43.91.66.31.31.55.56.7.99.3-.58-.12-1.27-.72-1.69-.13-.09-.29-.23-.41-.36-.04-.04-.29-.18-.15-.62.37.22.72.42.96.64.32.3.6.6.75,1.02.28-.59-.18-1.31-.79-1.72-.13-.09-.29-.16-.41-.27-.15-.13-.41-.22-.34-.7.4.19.79.34,1.06.54.35.26.69.5.88.87.21-.62-.35-1.23-1.01-1.56-.15-.07-.33-.14-.47-.24-.15-.11-.3-.21-.3-.64.38.1.82.27,1.09.41.39.2.74.4,1,.76.1-.65-.54-1.2-1.24-1.42-.14-.05-.31-.14-.46-.21-.14-.07-.33-.33-.32-.56.4.06.9.18,1.18.29.41.16.65.31,1.03.62.04-.65-.61-1.1-1.33-1.25-.13-.03-.28-.04-.42-.08-.14-.03-.42-.25-.38-.57h0c.42.03.82.04,1.13.12.42.12.69.25,1.09.52m-12.34-4.51c-.12-.19-.78.61-.69.31.26-.63.42-1.14.68-1.61.12-.21.28-.3.54-.42.21,0-.07.56.09.66.41.33.89.7,1.39,1.09-.52.34-1.7.31-2.01-.04m4.78-2.32c-.12.15-.28.2-.46.09-.21-.14-.07-.31.06-.45.25-.3.69-.46,1.42-.25.87.25-.45-.1-1.01.6"/><path class="cls-3" d="m95.85,17.06c.25.02.53-.15.61-.33.08-.19.07-.58-.02-.66-.02-.02-.13-.05-.24.12-.19.27-.11.49-.14.62s-.21.26-.21.26"/><path class="cls-3" d="m97.21,16.6c.07.05.07.28-.05.39-.11.12-.26.2-.52.13.26-.12.17-.29.34-.42,0,0,.17-.14.23-.1"/><path class="cls-3" d="m94.93,16.95c.29,0,.63-.2.73-.43.1-.25.06-.79-.02-.88-.02-.02-.15-.06-.29.15-.22.36-.13.66-.16.82-.03.16-.25.34-.25.34"/></g></g><g><g><rect class="cls-3" x="60.84" y="66.51" width=".02" height=".02"/><g class="cls-1"><path class="cls-4" d="m60.85,66.52s0,0,0-.01h0s-.01.01-.02.02c0,0,0,0,.01,0"/></g></g><path class="cls-4" d="m52.81,84.9c.33.15.77.36,1.1.5.19.08.39.16.59.24,2.22.89,4.52,1.46,6.87,1.82,2.29.36,4.6.41,6.9.24,2.13-.17,3.9-.72,5.91-1.41.92-.33,1.6-.62,2.4-1.07.38-.2.76-.47,1.18-.69.11.36.14.62-.24.84-.4.23-.66.37-1.08.57-1.02.48-1.99.92-3.15,1.25-1.04.3-1.77.51-2.62.66-1.04.19-1.87.28-3.06.33-1.82.09-3.6.03-5.39-.16-1.67-.21-3.25-.54-4.93-.97-.69-.18-1.7-.53-2.36-.78-.63-.27-.97-.44-1.61-.72-.2-.1-.27-.14-.42-.29-.1-.1-.12-.28-.08-.36"/><path class="cls-4" d="m79.79,86.77c-.27.17-.59.39-.86.56-1.27.79-2.68,1.29-4.07,1.81-.71.26-1.45.47-2.18.67-1.51.4-2.23.54-4.3.74-.74.07-1.97-.1-3.16-.39,2.63.03,4.85-.23,6.25-.55,1.92-.44,3.82-1.02,5.59-1.94.59-.31,1.2-.69,1.71-1.1.3-.31.86-.05,1.04.19"/><path class="cls-4" d="m52.38,87.8c-.85-.59-1.45-1.53-1.51-1.59.57.17,1.25.65,1.92,1.13.76.44,1.05.61,1.97.94,1.09.39,1.89.61,3.01.91,1.53.41,1.46.36,3.01.7.71.13,1.68.23,3.06.28-1.85.34-3.24.15-4.55-.09-.92-.17-2.45-.4-3.59-.78-1.95-.65-2.47-.91-3.32-1.5"/><path class="cls-4" d="m83.97,84.38c-2.84,3.89-5.84,5.02-8.7,5.76-1.81.47-4.11.7-4.89.73,2.13-.41,4.1-.97,5.61-1.6,1.53-.65,2.45-1.05,3.76-1.98.1-.1.29-.22.49-.14.66.27,2.91-1.83,3.74-2.77"/><path class="cls-4" d="m61.2,91.45c-.42-.05-1.73-.51-1.92-.76,1.84.41,3.53.41,5.26.45.23.02,1.05-.03,1.28-.04.64-.03,1.57.36,2.11.38-.56.15-2.71.28-3.39.23,0,.04-1.84-.07-3.33-.26"/><path class="cls-4" d="m77.37,83.98c-1.26.69-2.29,1.18-3.59,1.73-.18.08-.48.17-.68.12-.25-.08-.33-.28-.26-.51.33-.11.56-.2.85-.3,1.23-.43,1.92-.77,3.12-1.26.12-.05.62-.36.89-.5.01.49-.2.66-.32.72"/><path class="cls-4" d="m77.46,82.77c-.17.12-.79.41-.97.5-.91.43-1.03.45-1.93.87-.33.15-1.59.61-1.44-.02,1.57-.66,3.1-1.25,4.63-1.9.02.21,0,.42-.29.55"/><path class="cls-4" d="m81.16,78.81c1.34-.29,3.34-.35,4.66-.24,0,.46.01.68-.02,1.06-1.41-.2-3.31-.4-4.67-.6-.14-.02-.09-.21.02-.23"/><path class="cls-4" d="m83.64,81.16c.95.09,1.57,0,1.26.81-.05.13-.22.55-.26.69-.21.64-.65.61-1.23.57.07-.69.17-1.38.24-2.06"/><path class="cls-4" d="m76.78,81.53c0,.3-.46.5-1.15.81-.45.21-.99.48-1.4.54-.27.04-.56.12-.68-.18,1.25-.48,2.08-.82,3.09-1.31.14-.08.14.02.14.14"/><path class="cls-4" d="m79.2,83.49c1.56.22,2.98.42,4.32.61-.02.17-.05.3-.33.25-.73-.09-1.72-.22-2.45-.32-.39-.06-.87-.12-1.25-.17-.25-.04-.29-.18-.29-.36"/><path class="cls-4" d="m80.43,79.7c.28-.04.61-.07.91-.03,1.06.14,3.15.33,4.2.5q-.08.21-.19.4c-1.45-.2-3.45-.47-4.9-.68-.15-.02-.15-.17-.03-.19"/><path class="cls-4" d="m82.47,81.88c-.25-.25-.48-.51.07-.86-.87-.12-1.54-.23-2.26-.34-.55-.09-.83-.01-.89.52-.06.46-.08.93-.14,1.44.26.04.48.07.64.09,0-.51-.04-.95,0-1.39.02-.22-.02-.56.38-.59.62.2.67.69.62,1.23-.02.17-.01.35.03.51.03.11.18.33.27.34.38.08.66.13,1.21.21-.68-.52-.27-.88.08-1.18"/><path class="cls-4" d="m63.12,85.84c-1.05-.19-2.11-.39-3.24-.59,0-.44.99-.23,1.72-.09.84.16,1.52.31,1.52.68"/><path class="cls-4" d="m57.81,85.95c-.94-.19-1.89-.55-2.71-.83,0-.65,2.75.2,2.71.83"/><path class="cls-4" d="m60.44,86.14c.9.16,1.71.3,2.52.44,0,.38-.93.28-1.45.19-.51-.09-1.22-.27-1.08-.63"/><path class="cls-4" d="m57.42,84.2c-.35.39-.82.29-1.3.21-.08-.01-.65-.16-.59-.47.02-.11.24-.14.35-.12.26.05.5.16.75.23.24.06.49.1.79.16"/><path class="cls-4" d="m82.12,85.41c-.51-.07-.86-.11-1.37-.19-.15-.03-.15-.13-.15-.34.52.06,1.16.19,1.68.25,0,.19-.08.28-.16.28"/><path class="cls-3" d="m86.81,77.19c-.49,0-1.78,0-2.55,0-.35,0-.26-.28-.26-.5.01-.89,0-5.51,0-5.91h-.25c-.02.32-.03.82-.03,1.16,0,.29-1.82,1.58-2.6,1.12-.35-.21-.33-.44-.36-.74-.05-.56-.3-1.04-.81-1.25-.73-.3-2.38.56-2.88,1.21-.5.65-.5,5.57-.22,6.9-.08.02-.14.02-.2.01-.26-.06-.47-.46-.73-.86-.02-.04-1.35-1.79-1.4-1.89-.41-.66-1.02-1.55-1.46-2.19-.46-.68.11-.73.83-.99.61-.22.92-.55,1.53-.56.78,0,.53-.27.32-.25-.57,0-.72-.35-.83-.58-.32-.73-.97-2.04-1.26-2.69-.02-.04-.26-.46-.44-.86-.46-1.04-1-2.29-1.5-3.31-.34-.7-.68-1.36-.65-2.14.02-.34.02-.93,0-1.15-.98-.27-1.11-.08-1.81.48-.36.29-1.12.25-1.36.07.15.44.67.64.83.69.69.23.97-.03,1.71-.15.2-.03.44-.08.44.08,0,.11.01.26,0,.44-.08,1.15-.44,2.18-.82,3.26-.38,1.08-.93,2.11-1.42,3.15-.13.27-.22.59-.42.32-.32-.42-2.74-4.22-2.86-4.77-.07-.35.35-.36.68-.44.86-.23.91-1.04,1.65-1.29.19-.09.08-.29-.31-.24-.79.1-1.14-.59-1.45-1.08-.48-.75-.95-1.56-1.31-2.31-.1-.21-.08-.51-.07-.79,0-.27.01-.25.03-.67-.35.31-.97.23-1.32.55-.5.45-.45,1.84-1.64.82.16.21.29.87,1.13.86.43,0,.77-.11,1.11-.61.23-.34.5-.38.37-.11-.03.06-.64,1.65-.88,2.21-.31.7-.59,1.45-.98,1.97-.13.17-.17.3-.51.39-.07.02-.42.02-.42.12,0,.11.05.06.31.11.78.13.36.68-.22,1.07-.02.01-.98.82-.98.82-.51.4-.8.49-1.2,0-.62-.77-1.12-1.69-1.67-2.52-.49-.74-.64-1.55-.62-2.47.01-.53-.01-.86-.01-1.52-.77.08-1.18.55-1.6.95-.48.45-.66,1.05-1.36,1.12.5.41,1.23.19,2-.42.23-.19.59-.25.61.28,0,.23.03.44.01.68-.02.33-.04.42-.09.6-.24.72-.55,1.32-.88,2.11-.26.61-.52,1.36-.92,1.68-.17.14-.39.27-.66.29-.55.04-.41.27-.32.28.58.16,1.05.28,1.52.42.53.16.9.86.66,1.26-.05.08-.1.16-.16.24-.16.21-.99,1.13-2.01,2.06-.9.82-1.97,1.64-2.62,2.06-.85.55-3.36,1.86-4.24,2.37-.66.38-1.45,1.07-2.08,1.07-.16,0-.3-.21-.29-.6.03-1.09.07-3.29.06-5.8-.57,0-.5.59-1.11.66-.45.05-.53.2-.54.36-.05.65-.05,1.03-.06,1.3.12.02.29-.08.39-.14.63-.43.55-.23,1.08-.33.02.74,0,3.31-.05,4.07,0,.17-.06.5-.39.5h-2.05c-.15-.01-.15.26.15.36.21.05.48.03.71.05.31.02.57.26.66.36,1.22,1.31,3.63,3.49,4.15,3.91.34.27.72.56,1.1,1.06.38.49,1.49,2.31,1.75,2.5,0,0,0,0,0,0,0,0,0,0,0,0,0,0,.01,0,.02.01,0,0,0,0,0,0,.64.23,1.19.66,1.79.96.96.47,1.91.94,2.89,1.32.82.32,1.58.54,2.43.77,1.09.3,2.29.68,3.41.84,1.36.19,2.07.27,3.11.29,1.46.02,2.92-.02,4.37-.15,1.2-.11,2.39-.35,3.57-.6.78-.16,1.56-.38,2.3-.65.69-.25,1.32-.55,1.99-.87.64-.3,1.75-1.03,2.36-1.38-.14-.24-.56-.33-.89-.09-.67.39-.79.54-1.88,1.03-1,.45-1.94.9-2.99,1.16-1.54.38-2.9.64-4.75.9-1.92.16-3.82.16-5.66,0-2.03-.23-3.26-.55-5.21-1.11-.83-.2-1.65-.5-2.44-.82-.89-.36-1.91-.89-2.43-1.3-.76-.59-.98-1.42-.94-3.18.01-.48.2-.68.46-.61.16.04.32.09.48.14.55.17,1.27.44,1.81.64,1.69.63,3.24,1.03,4.91,1.33.5.09,1.15.2,1.9.24,0-.19.07-.32-.03-.39-.12-.08-.53-.07-.51-.39,0-.18.46-.17.61-.17.41.02.69.06,1.12.1.14.05.06.76.04.97.66.03,1.27.06,1.97.06.24,0,.68-.03.7.2.02.22-.03.17-1.01.22-.11,0-.1.15,0,.15.13,0,.51.08.61.18.29.29.23.66.22,1.1-.02.71.4.66.94.68,1.14.05,2.03-.05,2.83-.11.37-.07.45-.3.44-.54-.96,0-2.92.23-2.99.11-.15-.05-.12-.13-.14-.3-.02-.16.13-.16.6-.17.62-.02,1.01-.08,1.6-.1.46-.01.59-.16.58-.39-.89,0-1.77,0-2.87.01-.13,0,.01-.52.27-.52,2.09,0,2.19-.24,3.22-.3.25-.01.76.15.77.61,0,1.18.41,1.09.76,1.03.07-.01.65.04.54-.75-.01-.45-.25-1.02-.03-1.32.27-.37.87-.5,1.43-.75.45-.2.27-.32.17-.57-.12-.3.05-.51.32-.61.7-.24,1.36-.49,2.04-.77.29-.12.73-.3,1.01-.42.65-.29.66-.62,1.06.17.03.06.04.14.1.32.32-.2.79-.35.81-.55.09-.83.62-1.36,1.09-1.94.45-.56.99-1.28,1.8-1.33.27-.02,5.19.02,5.6,0,.16-.26.41-.62.04-.62Zm-22.7-5.2c-.22-.03-.35.15-.29-.73.09-1.1.32-4.97.34-5.35.06-.64.17-.58.19.27,0,.17.03,4.1.06,5.07,0,.16.14.77-.29.75Zm-1.94-1.2c-.14-.13-.1-.35.03-.68.06-.16,1.32-4.21,1.42-4.41.11-.32.24-.55.2.15,0,.14-.32,4.57-.36,5.04-.02.19,0,.87-.22.76-.16-.07-.9-.69-1.07-.85Zm.8,1.58c-.72.23-1.16.32-1.72.46-.35.13-.31-.05-.19-.25.22-.46.33-.7.61-1.27.06-.12.14-.25.23-.18.38.28.7.56,1.09.91.2.18.05.3-.02.33Zm-.04-8.48c.39-.95.76-1.86,1.14-2.77.17-.49.26-.19.27-.02.03.48.02,2.21.02,2.37,0,.17-.15.3-.31.37-.28.13-.61.29-1,.37-.13.03-.25-.06-.12-.33Zm-1.97,3.44c.27-.1.05-.2-.41-.22-.19-.01-.06-.07.05-.16.2-.16,1.36-1.14,1.54-1.29.19-.16.76-.6,1.02-.53.25.07.15.27.12.4-.03.14-1.17,3.9-1.46,4.63-.08.19-.2.16-.25.1-.57-.67-1.1-1.26-1.54-2.06-.19-.35.25-.6.93-.86Zm-1.92,1.05c.39-.29.56.03.77.29.52.64,1.06,1.28,1.57,1.93.09.11.13.35.07.48-.32.69-.58,1.17-.94,1.84-.16.28-.39.2-.57-.12-.4-.72-1.42-2.92-1.5-3.26-.04-.15-.04-.24.03-.39.09-.17.34-.6.57-.77Zm1.3,5.94c.21.32.33.44-.1.46-.3.01-.86,0-1.16.03-.32.04-.39-.18-.44-.56,0-.08-.48-3.31-.56-3.99-.06-.29.16-.27.26,0,.36.97,1.71,3.62,2,4.06Zm-3.51,1.04c-.18.06-.33.14-.4.09-.11-.08.03-.24.14-.4.12-.18.04-.06.16-.25.09-.13.18-.04.18.12,0,.17.07.4-.08.45Zm-.77.02c-.14.15-.27.19-.36.2-.74.04-1.26.06-1.6,0-.34-.05-.43-.19-.17-.53.08-.1.33-.45.46-.68.14-.22.27-.5.48-.76.06-.08.07-.15.14-.16.13-.03.31.06.42.1.37.12.63.17,1.2.4.29.11-.02.5-.18.79-.14.26-.27.51-.39.64Zm.79-4.62c.03.39.01,1.46.01,1.76q0,.41,0,.82c0,.09.01.26-.1.3-.13.04-.37-.05-.47-.08-.34-.09-.56-.14-.89-.3-.31-.16-.04-.49.02-.64.29-.7.49-1.19.81-1.88.08-.16.23-.69.43-.56.18.14.17.44.18.59Zm-.82-3.6c-.54.06-.52-.28-.45-.48.28-.79.63-1.55.96-2.33.07-.19.16-.22.16-.03,0,.5.03,2.11.03,2.22-.02.65-.25.57-.7.62Zm-8.11,14.39c-.63-.55-2.04-1.83-2.95-2.67-.16-.15-.97-.89-.9-1.19.1-.26.42-.16,1.05-.17,1.08,0,.34-.01,1.08,0,.86,0,1.13.45,1.34.7.03.04.06.07.08.1.29.35.52.7.74,1.42.19.62,1.11,3.15-.45,1.82Zm2.77,2.27c-.17.09-.41-.25-.57-.45-.31-.36-.4-.76-.61-1.41-.35-1.07-.63-2.33.03-1.93.41.25.39.22.7.45.32.28.33.84.35.96.14.71.16,1.05.18,1.76.01.36.08.54-.08.62Zm-.18-3.79c-.41-.14-.84-.52-1.62-1.17-.48-.4-1.33-1.34-.94-1.35,1.27-.03,1.84.02,2.61.02.65,0,.6.19.66.58.07.44.02,1.09.05,1.53.03.45-.34.56-.76.38Zm2.11.76c-.2-.06-.42-.17-.68-.28-.25-.11-.28-.45-.3-.65-.06-.91-.07-1.33-.16-2.24-.03-.32-.18-.43-.43-.43-1.08,0-1.86.02-2.94,0-.39,0-1.67,0-2.07,0-.22,0,.56-.54.65-.58,1.05-.61,3.84-2.12,4.65-2.65.86-.56,1.95-1.52,2.79-2.29.78-.72,1.28-1.29,1.68-1.69.31-.41.45-.03.38.17-.16.43-.14.42-.26.68-.22.48-.47.94-.69,1.42-.44.97-1.85,3.06-1.9,3.18-.06.14-.65-.01-.29.39.1.11.77.16.94.21.57.16,1.55.27,1.58.66.03.28-.23.91-.22.91,0,0-1.21,2.39-1.65,3.11-.18.29-.24.35-1.07.08Zm1.39.39c-.23-.08.02-.33.06-.44.11-.3.28-.62.43-.88l1.15-2.41c.15-.22.21-.47.5-.4.46.1.45.35.31.76-.15.45-.41,1-.63,1.49l-.65,1.25c-.08.15-.17.29-.25.4-.2.56-.73.31-.93.24Zm1.15.11c-.07-.21.17-.55.3-.85h.01s.5-1.01.5-1.01c.07-.11.39-.78.48-.98.04-.09.17-.42.2-.49.26-.64.32.11.27.29-.02.08-.67,2.36-.83,2.79-.07.19-.2.6-.37.55-.17-.05-.5-.15-.55-.3Zm.4,1.61c-.38-.21-.42-.55-.17-.9.44.15.88.3,1.35.46-.24.57-.65.73-1.18.44Zm1.5-1.43c0,.23,0,.58-.21.57-.1,0-.37-.1-.62-.19-.13-.09-.18-.15-.12-.29.26-.67.41-1.27.62-1.91.04-.13.13-.47.17-.54.12-.25.15.16.14.43,0,.49.04,1.44.02,1.93Zm.18-15.2c-.02-.56-.05-1.29-.06-1.85,0-.08,0-.18,0-.27,0-.28.06-.1.1-.05.2.27.65.97.86,1.32.25.42.46.7.68,1.14.13.27.01.42-.28.44-.09,0-.17.02-.25.03-.99.07-1.01.24-1.04-.75Zm.22,4.85c0-.06-.04-.89-.04-1,0-.22.26-.11.31.05.07.18.41,2.4.48,3.09.01.11.06.27-.15.25-.08,0-.16.01-.3.02-.26,0-.22-.47-.23-.87-.01-.45-.04-1.05-.07-1.54Zm.17,3.44c-.02-.39.02-.57.19-.67.07-.04.16-.06.27-.08.07,0,.21.07.25.17.06.16.1.46.1.64,0,.28-.02.35-.35.43-.21.05-.42.25-.46-.49Zm1.12,7.98c-.14-.01-.26-.03-.36-.05-.15-.04-.32-.07-.38-.2-.04-.09-.04-.61-.04-.74-.05-1.28-.12-2.48-.18-3.75,0-.12-.05-.56.04-.74.07-.14.15-.13.21-.13.31,0,.32.67.35.81.11.54.5,4.38.51,4.54,0,.21.02.26-.15.24Zm1.06.15c-.22-.01-.47-.02-.55-.12-.02-.02-.04-.06-.06-.1-.02-.07-.04-.16-.05-.22-.07-.36-.54-4.2-.67-5.27-.02-.15.11-.19.16-.03.19.6,1.24,5,1.34,5.63.02.12-.09.12-.17.11Zm.93.08c-.11,0-.18,0-.36-.07-.11-.04-.14-.19-.17-.31-.35-1.42-1.17-4.59-1.32-5.3-.09-.42-.24-.72.21-.91.58-.25,1.36-.63,1.92-.95.13-.07.33-.21.34-.3.01-.28-.31-.1-.37-.21-.19-.34-.38-.68-.59-1.03-.06-.1-.05-.14.06-.15.91-.04,1.74-.03,2.57,0,.52.02.48.44.39.78-.24.97-1.98,6.86-2.15,7.35-.12.34-.34,1.09-.52,1.08Zm1.55-.19c-.07.18-.11.31-.26.32-.24.01-.72,0-.78-.14-.06-.18,0-.34.08-.56.17-.48,2.21-7.42,2.37-7.86.05-.14.1-.75.48-.73.49,0,.28.44.27.58-.02.4-.25,1.24-.34,1.63-.35,1.42-.72,2.83-1.08,4.24-.14.55-.3,1.1-.45,1.64-.08.3-.21.66-.29.89Zm2.21.12c0,.27-.08.41-.28.41-.07,0-1.13,0-1.31-.19-.18-.19-.15-.41-.1-.76.03-.22.1-.46.17-.72.31-1.05,1.16-4.53,1.37-5.37.04-.19.11-.15.08.24.02.41,0,.89.01,1.29.01,1.27,0,2.51.04,3.77.02.44.01.88,0,1.33Zm6.55-2.57c0,.56.03,1.09.02,1.66,0,.63-.12.72-.53.82-.31.08-.7.24-.88.12-.13-.08-.11-.32-.07-.54.17-.99,1.12-6.15,1.26-6.94.02-.19.12-.52.14-.27,0,.65.06,4.09.06,5.16Zm-3.84-6.97c.1-.03.37-.02.45.01.66.21,1.22.36,1.85.64.24.11.64.19.52.72-.28,1.29-.7,2.55-1.1,3.8-.04.12-.12.41-.19.68-.04.16-.15.42-.3-.1-.26-.91-1.59-5.27-1.66-5.46-.18-.48-.11-.73.42-1.01.18-.1.12-.05.3-.16,0,0-.2.46-.33.64-.03.04-.06.06-.08.07-.3.07-.13.24.13.17Zm3.28,1.22c.1-.4.3-.28.21.1-.11.64-1.29,7.11-1.53,8.07-.09.35-.62.48-1.09.53q-.18.02-.11-.22c.71-2.41,1.85-6.23,2.52-8.48Zm.41-8.35c.02.34.07,4.46.07,5.19,0,.32-.39.62-.64.83-.22.19-.67.05-.59-.25,0,0,.97-5.57,1.07-6.08.03-.21.09-.09.09.31Zm-2.44,5.03c.27-.19.39-.1.38-.42,0-.2-.32-.05-.17-.29l.35-.76c.39-.77.86-1.7,1.13-2.29.11-.24.11-.14.08.11-.02.11-.71,4.34-.78,4.49-.07.15-.12.47-.9.65-.28.07-.66.2-.94.27-.11.03-.05-.06-.05-.06,0,0,.72-1.59.91-1.72Zm-2.99-4.66c.12.18,1.86,2.75,2.64,4.15.12.22-.11.37-.29.44-.3.11-.35.09-.66.21-.42.16-.62-.18-.74-.63-.14-.53-1.18-3.89-1.15-4.09.03-.24.11-.2.2-.07Zm-.77-3.31c-.03-.59-.07-1.13-.08-1.72,0-.64-.02-.81.11-.57.53.84,1,1.58,1.44,2.34.23.39-.13.36-.27.38-.27.03-.57.08-.79.08-.37,0-.39-.03-.41-.5Zm.3,8.5c-.01-.98-.08-2.64-.13-3.84-.06-1.4.02-1.21.24-.46.23.7.8,2.83.99,3.45.07.25.26.73.07.81-.26.1-.63.19-.88.28-.17.07-.27,0-.29-.24Zm1.91,11.59c-.34.03-.78-.02-1.11-.02-.28,0-.34-.31-.36-.57-.03-.41-.15-3.31-.17-4.33-.02-.85-.03-1.62-.09-2.47-.01-.17-.11-1.19.04-1.19.14-.04.36.95.38,1.05.25.97.48,1.94.72,2.91.33,1.32.66,2.64.96,3.96.11.5.13.62-.36.66Zm.65-.95c-.22-.95-2.11-7.94-2.11-8.5,0-.18.19-.42.56-.63.28-.2.38.33.43.49.44,1.36.86,2.73,1.27,4.09.21.68.38,1.39.58,2.06.07.22.05.37-.02.63-.05.18-.4,1.49-.5,1.72-.08.17-.22.22-.23.13Zm1.85,1.94c-.92.14-1.38-.02-1.66-.6.99-.2,1.97-.41,3-.62,0,.6-.52,1.1-1.34,1.22Zm1.41,1.92c-.22.03-.39,0-.45-.37-.06-.29.04-.5.39-.5.24-.06.3.22.33.45.02.22-.13.41-.28.42Zm.32-20.81c0-.12.04-.65.21-.26.08.13,1.16,2.67,1.54,3.54.14.33.1.55-.17.88-.39.47-.73.83-1.09,1.23-.18.21-.25.11-.25-.13-.04-.56-.19-4.29-.23-5.27Zm.27,6.53c-.01-.18.14-.42.32-.67.43-.58.91-1.11,1.44-1.71.06-.07.12-.02.13.02.34.74.66,1.4.93,2.07.2.49-.08.9-.59.9-.46,0-.91-.02-1.37-.06-.5-.05-.85-.23-.87-.53Zm.63,9.52c-.12.04-.26,0-.28-.46-.04-.88-.12-3.62-.14-4.49,0-.05.31,1.22.41,1.6.15.55.67,2.48.71,2.88.03.27-.28.33-.69.46Zm2.09-.86c-.09.21-.54.34-.69.39-.35.12-.38-.18-.61-1-.39-1.41-.74-2.83-1.09-4.25-.08-.33-.12-.66-.18-.99-.08-.3.13-.35.25-.1.2.36,2.1,5,2.24,5.38.08.22.15.43.09.57Zm1.25-.33c-.59.23-.73.24-.85-.03-.69-1.57-1.75-3.99-2.39-5.55-.3-.73.18-.8.34-.52.5.86,3.37,4.99,3.54,5.2.39.49-.23.74-.64.9Zm8.36-3.45c0,.18-.04.5-.23.5h-1.89c-.52,0-1.13.2-1.39.33-.57.27-1.03.57-1.89,1-.31.16-.41.2-.73.34-.13.06-.31.15-.48.23.62-1.28,1.58-2.56,2.48-2.68.39-.05.84.38,1.21.36.66-.03,1.21-.53,1.61-.9.63-.58,1.25-.51,1.3-.37.04.11,0,.56.02,1.18Zm.02-2.12c-.62-.23-1.49.3-2.21.92-.72.62-.9.35-1.99-.06-1.08-.41-2.36,1.27-2.36,1.27,0,0-.33-2.74.17-3.96.54-.64,2.33-1.74,2.53-.45.16,1.07,1.11,1.28,1.52,1.33,1.1.13,2.34-1.01,2.34-1.01,0,0,.03,1.43,0,1.97Z"/></g><g><path class="cls-3" d="m140.68,29.21c5.51,0,9.75,1.4,12.72,4.21,2.97,2.8,4.46,7.08,4.46,12.82,0,3-.33,5.67-1,7.99-.67,2.32-1.7,4.27-3.1,5.86-1.4,1.59-3.19,2.8-5.36,3.63-2.17.83-4.74,1.25-7.71,1.25h-12.27V29.21h12.27Zm.4,31.74c.53,0,1.2-.04,2-.13.8-.08,1.65-.28,2.55-.6.9-.32,1.79-.78,2.68-1.38.88-.6,1.68-1.42,2.38-2.45.7-1.03,1.28-2.33,1.73-3.88s.68-3.43.68-5.63-.21-4.05-.63-5.73c-.42-1.69-1.1-3.12-2.05-4.31-.95-1.18-2.18-2.09-3.68-2.7-1.5-.62-3.35-.93-5.56-.93h-8.01v27.74h7.91Z"/><path class="cls-3" d="m180.15,63.31c-1.94,1.47-4.37,2.2-7.31,2.2-2.07,0-3.86-.33-5.38-1-1.52-.67-2.8-1.6-3.83-2.8-1.04-1.2-1.81-2.64-2.33-4.31-.52-1.67-.81-3.49-.88-5.46,0-1.97.3-3.77.9-5.41.6-1.63,1.44-3.05,2.53-4.26,1.08-1.2,2.37-2.13,3.85-2.8,1.48-.67,3.11-1,4.88-1,2.3,0,4.21.48,5.73,1.43,1.52.95,2.74,2.16,3.65,3.63.92,1.47,1.55,3.07,1.9,4.81.35,1.74.49,3.39.43,4.96h-19.38c-.03,1.14.1,2.21.4,3.23.3,1.02.78,1.92,1.45,2.7.67.78,1.52,1.41,2.55,1.88,1.03.47,2.25.7,3.65.7,1.8,0,3.28-.42,4.43-1.25,1.15-.83,1.91-2.1,2.28-3.8h4.21c-.57,2.9-1.82,5.09-3.75,6.56Zm-1.03-16.62c-.38-.9-.9-1.68-1.55-2.33-.65-.65-1.42-1.17-2.3-1.55-.88-.38-1.86-.58-2.93-.58s-2.09.19-2.98.58c-.88.38-1.64.91-2.28,1.58-.63.67-1.14,1.44-1.5,2.33-.37.88-.58,1.83-.65,2.83h14.87c-.07-1-.29-1.95-.68-2.85Z"/><path class="cls-3" d="m191.92,39.07v3.5h.1c.7-1.43,1.8-2.48,3.3-3.13,1.5-.65,3.15-.98,4.96-.98,2,0,3.75.37,5.23,1.1,1.48.73,2.72,1.73,3.71,2.98.98,1.25,1.73,2.7,2.23,4.33.5,1.64.75,3.37.75,5.21s-.24,3.57-.73,5.21c-.48,1.64-1.22,3.06-2.2,4.28-.98,1.22-2.22,2.18-3.7,2.88-1.49.7-3.21,1.05-5.18,1.05-.63,0-1.34-.07-2.13-.2-.78-.13-1.56-.35-2.33-.65-.77-.3-1.49-.71-2.18-1.23-.68-.52-1.26-1.16-1.73-1.93h-.1v13.32h-4.26v-35.75h4.26Zm15.29,9.19c-.32-1.15-.8-2.18-1.45-3.08s-1.49-1.62-2.5-2.15c-1.02-.53-2.21-.8-3.58-.8-1.44,0-2.65.28-3.65.85-1,.57-1.82,1.31-2.45,2.23-.63.92-1.09,1.96-1.38,3.13-.28,1.17-.43,2.35-.43,3.56,0,1.27.15,2.5.45,3.68s.78,2.23,1.43,3.13,1.49,1.63,2.53,2.18c1.03.55,2.29.83,3.75.83s2.7-.28,3.68-.85c.98-.57,1.78-1.32,2.38-2.25.6-.93,1.03-2,1.3-3.2.27-1.2.4-2.44.4-3.71,0-1.2-.16-2.38-.48-3.53Z"/><path class="cls-3" d="m238.64,64.86c-.73.43-1.75.65-3.05.65-1.1,0-1.98-.31-2.63-.93-.65-.62-.98-1.63-.98-3.03-1.17,1.4-2.53,2.41-4.08,3.03-1.55.62-3.23.93-5.03.93-1.17,0-2.28-.13-3.33-.4-1.05-.27-1.96-.68-2.73-1.25-.77-.57-1.38-1.31-1.83-2.23-.45-.92-.68-2.03-.68-3.33,0-1.47.25-2.67.75-3.6.5-.93,1.16-1.69,1.98-2.28.82-.58,1.75-1.03,2.8-1.33,1.05-.3,2.13-.55,3.23-.75,1.17-.23,2.28-.41,3.33-.53,1.05-.12,1.98-.28,2.78-.5.8-.22,1.43-.53,1.9-.95.47-.42.7-1.03.7-1.83,0-.93-.18-1.68-.53-2.25-.35-.57-.8-1-1.35-1.3-.55-.3-1.17-.5-1.85-.6-.68-.1-1.36-.15-2.03-.15-1.8,0-3.3.34-4.51,1.03-1.2.68-1.85,1.98-1.95,3.88h-4.26c.07-1.6.4-2.95,1-4.05.6-1.1,1.4-1.99,2.4-2.68,1-.68,2.14-1.18,3.43-1.48,1.28-.3,2.66-.45,4.13-.45,1.17,0,2.33.08,3.48.25,1.15.17,2.19.51,3.13,1.02.93.52,1.69,1.24,2.25,2.17.57.93.85,2.15.85,3.65v13.29c0,1,.06,1.73.18,2.2.12.47.51.7,1.18.7.37,0,.8-.07,1.3-.2v3.3Zm-6.91-13.27c-.53.4-1.24.69-2.1.87-.87.18-1.78.33-2.73.45s-1.91.25-2.88.4c-.97.15-1.84.39-2.6.72-.77.33-1.39.81-1.88,1.42-.48.62-.73,1.45-.73,2.52,0,.7.14,1.29.43,1.77.28.48.65.87,1.1,1.17s.98.51,1.58.65c.6.13,1.23.2,1.9.2,1.4,0,2.6-.19,3.6-.57,1-.38,1.82-.86,2.45-1.44.63-.58,1.1-1.21,1.4-1.89s.45-1.32.45-1.92v-4.33Z"/><path class="cls-3" d="m245.3,39.07v5.46h.1c1.03-2.1,2.3-3.66,3.81-4.66,1.5-1,3.4-1.47,5.71-1.4v4.51c-1.7,0-3.15.23-4.36.7-1.2.47-2.17,1.15-2.9,2.05-.73.9-1.27,2-1.6,3.28-.33,1.29-.5,2.76-.5,4.43v11.52h-4.26v-25.88h4.01Z"/><path class="cls-3" d="m269.48,39.07v3.75h-5.16v16.07c0,.5.04.9.12,1.2.08.3.24.53.48.7.23.17.56.28.98.33.42.05.96.08,1.63.08h1.95v3.75h-3.25c-1.1,0-2.04-.08-2.83-.23-.78-.15-1.42-.42-1.9-.83-.48-.4-.84-.97-1.08-1.7-.23-.73-.35-1.7-.35-2.9v-16.47h-4.41v-3.75h4.41v-7.76h4.26v7.76h5.16Z"/><path class="cls-3" d="m276.47,39.07v3.81h.1c1.94-2.94,4.72-4.41,8.36-4.41,1.6,0,3.05.33,4.36,1,1.3.67,2.22,1.8,2.75,3.41.87-1.4,2.01-2.49,3.43-3.25,1.42-.77,2.98-1.15,4.68-1.15,1.3,0,2.48.14,3.53.43,1.05.28,1.95.73,2.7,1.33.75.6,1.33,1.38,1.75,2.33.42.95.63,2.1.63,3.43v18.98h-4.26v-16.97c0-.8-.07-1.55-.2-2.25-.13-.7-.38-1.31-.75-1.83-.37-.52-.88-.93-1.53-1.23-.65-.3-1.49-.45-2.53-.45-2.1,0-3.75.6-4.96,1.8-1.2,1.2-1.8,2.8-1.8,4.81v16.12h-4.26v-16.97c0-.83-.08-1.6-.23-2.3-.15-.7-.41-1.31-.78-1.83-.37-.52-.86-.92-1.48-1.2-.62-.28-1.41-.43-2.38-.43-1.24,0-2.3.25-3.18.75-.88.5-1.6,1.1-2.15,1.8s-.95,1.43-1.2,2.18-.38,1.38-.38,1.88v16.12h-4.26v-25.88h4.01Z"/><path class="cls-3" d="m332.03,63.31c-1.94,1.47-4.37,2.2-7.31,2.2-2.07,0-3.86-.33-5.38-1-1.52-.67-2.8-1.6-3.83-2.8-1.04-1.2-1.81-2.64-2.33-4.31-.52-1.67-.81-3.49-.88-5.46,0-1.97.3-3.77.9-5.41.6-1.63,1.44-3.05,2.53-4.26,1.08-1.2,2.37-2.13,3.85-2.8,1.48-.67,3.11-1,4.88-1,2.3,0,4.21.48,5.73,1.43,1.52.95,2.74,2.16,3.65,3.63.92,1.47,1.55,3.07,1.9,4.81.35,1.74.49,3.39.43,4.96h-19.38c-.03,1.14.1,2.21.4,3.23.3,1.02.78,1.92,1.45,2.7.67.78,1.52,1.41,2.55,1.88,1.03.47,2.25.7,3.65.7,1.8,0,3.28-.42,4.43-1.25,1.15-.83,1.91-2.1,2.28-3.8h4.21c-.57,2.9-1.82,5.09-3.75,6.56Zm-1.03-16.62c-.38-.9-.9-1.68-1.55-2.33-.65-.65-1.42-1.17-2.3-1.55-.88-.38-1.86-.58-2.93-.58s-2.09.19-2.98.58c-.88.38-1.64.91-2.28,1.58-.63.67-1.14,1.44-1.5,2.33-.37.88-.58,1.83-.65,2.83h14.87c-.07-1-.29-1.95-.68-2.85Z"/><path class="cls-3" d="m343.48,39.07v4.11h.1c1.77-3.14,4.57-4.71,8.41-4.71,1.7,0,3.12.23,4.26.7,1.13.47,2.05,1.12,2.75,1.95.7.83,1.19,1.83,1.48,2.98.28,1.15.43,2.43.43,3.83v17.02h-4.26v-17.52c0-1.6-.47-2.87-1.4-3.8-.93-.93-2.22-1.4-3.85-1.4-1.3,0-2.43.2-3.38.6-.95.4-1.74.97-2.38,1.7-.63.73-1.11,1.59-1.43,2.58-.32.98-.48,2.06-.48,3.23v14.62h-4.26v-25.88h4.01Z"/><path class="cls-3" d="m376.65,39.07v3.75h-5.16v16.07c0,.5.04.9.12,1.2.08.3.24.53.48.7.23.17.56.28.98.33.42.05.96.08,1.63.08h1.95v3.75h-3.25c-1.1,0-2.04-.08-2.83-.23-.78-.15-1.42-.42-1.9-.83-.48-.4-.84-.97-1.08-1.7-.23-.73-.35-1.7-.35-2.9v-16.47h-4.41v-3.75h4.41v-7.76h4.26v7.76h5.16Z"/><path class="cls-3" d="m391.07,42.83v-3.75h4.36v-3.85c0-2.1.61-3.7,1.83-4.78,1.22-1.08,3-1.63,5.33-1.63.4,0,.86.03,1.38.1.52.07.98.17,1.38.3v3.71c-.37-.13-.77-.23-1.2-.28-.43-.05-.83-.08-1.2-.08-1.04,0-1.84.2-2.4.6-.57.4-.85,1.17-.85,2.3v3.6h5.01v3.75h-5.01v22.13h-4.26v-22.13h-4.36Z"/><path class="cls-3" d="m405.89,46.71c.53-1.65,1.33-3.09,2.4-4.31,1.07-1.22,2.39-2.18,3.96-2.88,1.57-.7,3.37-1.05,5.41-1.05s3.88.35,5.43,1.05c1.55.7,2.86,1.66,3.93,2.88,1.07,1.22,1.87,2.65,2.4,4.31.53,1.65.8,3.43.8,5.33s-.27,3.67-.8,5.31c-.53,1.64-1.34,3.06-2.4,4.28-1.07,1.22-2.38,2.17-3.93,2.85-1.55.68-3.36,1.03-5.43,1.03s-3.84-.34-5.41-1.03c-1.57-.68-2.89-1.63-3.96-2.85-1.07-1.22-1.87-2.65-2.4-4.28-.53-1.63-.8-3.4-.8-5.31s.27-3.68.8-5.33Zm4.33,9.51c.42,1.22.99,2.24,1.73,3.05.73.82,1.59,1.44,2.58,1.88.98.43,2.03.65,3.13.65s2.14-.22,3.13-.65c.98-.43,1.84-1.06,2.58-1.88.73-.82,1.31-1.83,1.73-3.05.42-1.22.63-2.61.63-4.18s-.21-2.96-.63-4.18c-.42-1.22-.99-2.24-1.73-3.08-.73-.83-1.59-1.47-2.58-1.9-.99-.43-2.03-.65-3.13-.65s-2.15.22-3.13.65c-.98.43-1.84,1.07-2.58,1.9-.73.83-1.31,1.86-1.73,3.08-.42,1.22-.63,2.61-.63,4.18s.21,2.96.63,4.18Z"/><path class="cls-3" d="m437.78,39.07v5.46h.1c1.03-2.1,2.3-3.66,3.81-4.66,1.5-1,3.4-1.47,5.71-1.4v4.51c-1.7,0-3.15.23-4.36.7-1.2.47-2.17,1.15-2.9,2.05-.73.9-1.27,2-1.6,3.28-.33,1.29-.5,2.76-.5,4.43v11.52h-4.26v-25.88h4.01Z"/><path class="cls-3" d="m476.58,29.21c.77,0,1.59,0,2.48.02.88.02,1.76.07,2.63.15.87.08,1.68.21,2.43.38.75.17,1.39.42,1.93.75,1.17.7,2.16,1.67,2.98,2.9.82,1.24,1.23,2.75,1.23,4.56,0,1.9-.46,3.55-1.38,4.93-.92,1.39-2.23,2.41-3.93,3.08v.1c2.2.47,3.89,1.47,5.06,3,1.17,1.54,1.75,3.4,1.75,5.61,0,1.3-.23,2.57-.7,3.8-.47,1.24-1.16,2.33-2.08,3.28-.92.95-2.05,1.72-3.4,2.3-1.35.58-2.91.88-4.68.88h-17.27V29.21h12.97Zm1.3,15.37c2.7,0,4.65-.48,5.83-1.43,1.18-.95,1.78-2.38,1.78-4.28,0-1.27-.2-2.27-.6-3-.4-.73-.95-1.3-1.65-1.7-.7-.4-1.51-.66-2.43-.78-.92-.12-1.89-.18-2.93-.18h-9.51v11.37h9.51Zm2.4,16.37c2.1,0,3.75-.57,4.93-1.7,1.18-1.13,1.78-2.7,1.78-4.71,0-1.17-.22-2.14-.65-2.9-.43-.77-1.01-1.38-1.73-1.83-.72-.45-1.54-.77-2.48-.95-.93-.18-1.9-.28-2.9-.28h-10.86v12.37h11.92Z"/><path class="cls-3" d="m513.15,64.96v-4.11h-.1c-.9,1.6-2.05,2.78-3.45,3.53s-3.05,1.13-4.96,1.13c-1.7,0-3.12-.23-4.26-.68-1.13-.45-2.05-1.09-2.75-1.93-.7-.83-1.19-1.83-1.48-2.98-.28-1.15-.43-2.43-.43-3.83v-17.02h4.26v17.52c0,1.6.47,2.87,1.4,3.81.93.93,2.22,1.4,3.85,1.4,1.3,0,2.43-.2,3.38-.6.95-.4,1.74-.97,2.38-1.7.63-.73,1.11-1.59,1.43-2.58.32-.98.48-2.06.48-3.23v-14.62h4.26v25.88h-4.01Z"/><path class="cls-3" d="m525.54,59.18c.4.65.93,1.17,1.58,1.55s1.38.66,2.2.83c.82.17,1.66.25,2.53.25.67,0,1.37-.05,2.1-.15.73-.1,1.41-.28,2.03-.55.62-.27,1.13-.66,1.53-1.18s.6-1.18.6-1.98c0-1.1-.42-1.93-1.25-2.5-.83-.57-1.88-1.03-3.13-1.38s-2.61-.67-4.08-.95c-1.47-.28-2.83-.68-4.08-1.2-1.25-.52-2.29-1.24-3.13-2.18-.83-.93-1.25-2.24-1.25-3.9,0-1.3.29-2.42.88-3.35.58-.93,1.33-1.69,2.25-2.28.92-.58,1.95-1.02,3.1-1.3,1.15-.28,2.29-.43,3.43-.43,1.47,0,2.82.12,4.06.38,1.23.25,2.33.68,3.28,1.3s1.71,1.45,2.28,2.5c.57,1.05.9,2.36,1,3.93h-4.26c-.07-.83-.28-1.53-.65-2.08-.37-.55-.83-.99-1.4-1.33-.57-.33-1.19-.58-1.88-.73-.68-.15-1.38-.23-2.08-.23-.63,0-1.28.05-1.93.15s-1.24.28-1.78.53c-.53.25-.97.58-1.3,1-.33.42-.5.96-.5,1.63,0,.73.26,1.34.78,1.83.52.48,1.18.88,1.98,1.2.8.32,1.7.58,2.7.8,1,.22,2,.44,3,.68,1.07.23,2.11.52,3.13.85,1.02.33,1.92.78,2.7,1.33.78.55,1.42,1.24,1.9,2.08.48.83.73,1.87.73,3.1,0,1.57-.33,2.87-.98,3.91-.65,1.04-1.5,1.87-2.55,2.5s-2.24,1.08-3.55,1.33c-1.32.25-2.63.38-3.93.38-1.44,0-2.8-.15-4.11-.45-1.3-.3-2.45-.79-3.45-1.48-1-.68-1.8-1.58-2.4-2.7-.6-1.12-.93-2.48-1-4.08h4.26c.03.94.25,1.73.65,2.38Z"/><path class="cls-3" d="m546.19,34.42v-5.21h4.26v5.21h-4.26Zm4.26,4.66v25.88h-4.26v-25.88h4.26Z"/><path class="cls-3" d="m559.49,39.07v4.11h.1c1.77-3.14,4.57-4.71,8.41-4.71,1.7,0,3.12.23,4.26.7,1.13.47,2.05,1.12,2.75,1.95.7.83,1.19,1.83,1.48,2.98.28,1.15.43,2.43.43,3.83v17.02h-4.26v-17.52c0-1.6-.47-2.87-1.4-3.8s-2.22-1.4-3.85-1.4c-1.3,0-2.43.2-3.38.6-.95.4-1.74.97-2.38,1.7-.63.73-1.11,1.59-1.43,2.58-.32.98-.48,2.06-.48,3.23v14.62h-4.26v-25.88h4Z"/><path class="cls-3" d="m600.16,63.31c-1.94,1.47-4.37,2.2-7.31,2.2-2.07,0-3.86-.33-5.38-1-1.52-.67-2.8-1.6-3.83-2.8-1.04-1.2-1.81-2.64-2.33-4.31-.52-1.67-.81-3.49-.88-5.46,0-1.97.3-3.77.9-5.41.6-1.63,1.44-3.05,2.53-4.26,1.08-1.2,2.37-2.13,3.86-2.8,1.48-.67,3.11-1,4.88-1,2.3,0,4.21.48,5.73,1.43,1.52.95,2.74,2.16,3.65,3.63.92,1.47,1.55,3.07,1.9,4.81.35,1.74.49,3.39.42,4.96h-19.38c-.03,1.14.1,2.21.4,3.23.3,1.02.78,1.92,1.45,2.7s1.52,1.41,2.55,1.88c1.03.47,2.25.7,3.66.7,1.8,0,3.28-.42,4.43-1.25,1.15-.83,1.91-2.1,2.28-3.8h4.21c-.57,2.9-1.82,5.09-3.75,6.56Zm-1.03-16.62c-.38-.9-.9-1.68-1.55-2.33-.65-.65-1.42-1.17-2.3-1.55s-1.86-.58-2.93-.58-2.09.19-2.98.58c-.88.38-1.64.91-2.28,1.58-.63.67-1.13,1.44-1.5,2.33-.37.88-.58,1.83-.65,2.83h14.87c-.07-1-.29-1.95-.68-2.85Z"/><path class="cls-3" d="m610.96,59.18c.4.65.93,1.17,1.58,1.55.65.38,1.38.66,2.2.83.82.17,1.66.25,2.53.25.67,0,1.37-.05,2.1-.15.73-.1,1.41-.28,2.03-.55.62-.27,1.13-.66,1.53-1.18.4-.52.6-1.18.6-1.98,0-1.1-.42-1.93-1.25-2.5-.83-.57-1.88-1.03-3.13-1.38-1.25-.35-2.61-.67-4.08-.95-1.47-.28-2.83-.68-4.08-1.2s-2.29-1.24-3.13-2.18c-.83-.93-1.25-2.24-1.25-3.9,0-1.3.29-2.42.88-3.35s1.33-1.69,2.25-2.28,1.95-1.02,3.1-1.3c1.15-.28,2.29-.43,3.43-.43,1.47,0,2.82.12,4.06.38,1.23.25,2.33.68,3.28,1.3s1.71,1.45,2.28,2.5.9,2.36,1,3.93h-4.26c-.07-.83-.28-1.53-.65-2.08s-.83-.99-1.4-1.33c-.57-.33-1.19-.58-1.88-.73-.68-.15-1.38-.23-2.08-.23-.63,0-1.28.05-1.93.15-.65.1-1.24.28-1.78.53-.53.25-.97.58-1.3,1-.33.42-.5.96-.5,1.63,0,.73.26,1.34.78,1.83.52.48,1.18.88,1.98,1.2s1.7.58,2.7.8c1,.22,2,.44,3,.68,1.07.23,2.11.52,3.13.85,1.02.33,1.92.78,2.7,1.33s1.42,1.24,1.9,2.08c.48.83.73,1.87.73,3.1,0,1.57-.33,2.87-.98,3.91-.65,1.04-1.5,1.87-2.55,2.5-1.05.63-2.24,1.08-3.55,1.33-1.32.25-2.63.38-3.93.38-1.44,0-2.8-.15-4.11-.45-1.3-.3-2.45-.79-3.46-1.48-1-.68-1.8-1.58-2.4-2.7-.6-1.12-.93-2.48-1-4.08h4.26c.03.94.25,1.73.65,2.38Z"/><path class="cls-3" d="m634.92,59.18c.4.65.93,1.17,1.58,1.55.65.38,1.38.66,2.2.83.82.17,1.66.25,2.53.25.67,0,1.37-.05,2.1-.15.73-.1,1.41-.28,2.03-.55.62-.27,1.13-.66,1.53-1.18s.6-1.18.6-1.98c0-1.1-.42-1.93-1.25-2.5-.83-.57-1.88-1.03-3.13-1.38s-2.61-.67-4.08-.95c-1.47-.28-2.83-.68-4.08-1.2s-2.29-1.24-3.13-2.18c-.83-.93-1.25-2.24-1.25-3.9,0-1.3.29-2.42.88-3.35s1.33-1.69,2.25-2.28,1.95-1.02,3.1-1.3c1.15-.28,2.29-.43,3.43-.43,1.47,0,2.82.12,4.06.38,1.23.25,2.33.68,3.28,1.3s1.71,1.45,2.28,2.5c.57,1.05.9,2.36,1,3.93h-4.26c-.07-.83-.28-1.53-.65-2.08-.37-.55-.83-.99-1.4-1.33-.57-.33-1.19-.58-1.88-.73-.68-.15-1.38-.23-2.08-.23-.63,0-1.28.05-1.93.15s-1.24.28-1.78.53c-.53.25-.97.58-1.3,1-.33.42-.5.96-.5,1.63,0,.73.26,1.34.78,1.83.52.48,1.18.88,1.98,1.2s1.7.58,2.7.8c1,.22,2,.44,3,.68,1.07.23,2.11.52,3.13.85,1.02.33,1.92.78,2.7,1.33.78.55,1.42,1.24,1.9,2.08.48.83.73,1.87.73,3.1,0,1.57-.33,2.87-.98,3.91-.65,1.04-1.5,1.87-2.55,2.5-1.05.63-2.24,1.08-3.55,1.33-1.32.25-2.63.38-3.93.38-1.44,0-2.8-.15-4.11-.45-1.3-.3-2.45-.79-3.46-1.48-1-.68-1.8-1.58-2.4-2.7-.6-1.12-.93-2.48-1-4.08h4.26c.03.94.25,1.73.65,2.38Z"/><path class="cls-3" d="m684.36,64.26c-1.85.83-3.76,1.25-5.73,1.25-2.4,0-4.34-.37-5.81-1.1-1.47-.73-2.6-1.62-3.41-2.65-.8-1.03-1.33-2.1-1.58-3.2-.25-1.1-.38-2.02-.38-2.75,0-1.4.23-2.64.68-3.71.45-1.07,1.05-2.03,1.8-2.88.75-.85,1.63-1.62,2.65-2.3,1.02-.68,2.09-1.33,3.23-1.93-.5-.7-.99-1.37-1.45-2-.47-.63-.89-1.28-1.28-1.93-.38-.65-.68-1.33-.9-2.05-.22-.72-.33-1.53-.33-2.43,0-.97.18-1.89.53-2.78.35-.88.87-1.67,1.55-2.35.68-.68,1.53-1.23,2.53-1.63,1-.4,2.15-.6,3.46-.6,1.1,0,2.18.15,3.23.45,1.05.3,1.98.76,2.78,1.38.8.62,1.44,1.39,1.93,2.3.48.92.73,1.98.73,3.18,0,1.07-.18,2.06-.55,2.98-.37.92-.87,1.76-1.5,2.53-.63.77-1.35,1.46-2.15,2.08-.8.62-1.64,1.18-2.5,1.68l6.46,7.86c.67-1.87,1.05-3.72,1.15-5.56h4.06c-.1,1.07-.21,1.98-.33,2.73s-.27,1.44-.45,2.08c-.18.63-.41,1.26-.68,1.88-.27.62-.58,1.33-.95,2.13l6.96,8.06h-5.56l-3.8-4.46c-1.07,1.67-2.53,2.92-4.38,3.75Zm-8.56-15.12c-.75.5-1.41,1.07-1.98,1.7-.57.63-1.02,1.34-1.35,2.13-.33.79-.5,1.71-.5,2.78,0,.9.19,1.73.58,2.48.38.75.89,1.39,1.53,1.9s1.36.93,2.18,1.23c.82.3,1.66.45,2.53.45,1.64,0,3.1-.38,4.38-1.15,1.29-.77,2.36-1.8,3.23-3.1l-8.21-9.86c-.83.47-1.63.95-2.38,1.45Zm5.38-7.26c.57-.4,1.08-.85,1.55-1.35.47-.5.85-1.06,1.15-1.68.3-.62.45-1.31.45-2.08,0-1.03-.37-1.93-1.1-2.68s-1.74-1.13-3-1.13c-1,0-1.94.31-2.8.93-.87.62-1.3,1.58-1.3,2.88,0,.53.11,1.07.33,1.6.22.53.49,1.06.83,1.58.33.52.7,1.03,1.1,1.53s.8,1,1.2,1.5c.5-.33,1.03-.7,1.6-1.1Z"/><path class="cls-3" d="m709.77,33.22v-4.01h28.59v4.01h-11.92v31.74h-4.76v-31.74h-11.92Z"/><path class="cls-3" d="m739.67,39.07v5.46h.1c1.03-2.1,2.3-3.66,3.81-4.66,1.5-1,3.4-1.47,5.71-1.4v4.51c-1.7,0-3.15.23-4.36.7-1.2.47-2.17,1.15-2.9,2.05s-1.27,2-1.6,3.28c-.33,1.29-.5,2.76-.5,4.43v11.52h-4.26v-25.88h4.01Z"/><path class="cls-3" d="m774.14,64.86c-.73.43-1.75.65-3.05.65-1.1,0-1.98-.31-2.63-.93-.65-.62-.98-1.63-.98-3.03-1.17,1.4-2.53,2.41-4.08,3.03-1.55.62-3.23.93-5.03.93-1.17,0-2.28-.13-3.33-.4-1.05-.27-1.96-.68-2.73-1.25-.77-.57-1.38-1.31-1.83-2.23-.45-.92-.68-2.03-.68-3.33,0-1.47.25-2.67.75-3.6.5-.93,1.16-1.69,1.98-2.28.82-.58,1.75-1.03,2.8-1.33,1.05-.3,2.13-.55,3.23-.75,1.17-.23,2.28-.41,3.33-.53,1.05-.12,1.98-.28,2.78-.5.8-.22,1.44-.53,1.9-.95.47-.42.7-1.03.7-1.83,0-.93-.17-1.68-.53-2.25-.35-.57-.8-1-1.35-1.3-.55-.3-1.17-.5-1.85-.6-.68-.1-1.36-.15-2.03-.15-1.8,0-3.3.34-4.51,1.03-1.2.68-1.85,1.98-1.95,3.88h-4.26c.07-1.6.4-2.95,1-4.05.6-1.1,1.4-1.99,2.4-2.68,1-.68,2.14-1.18,3.43-1.48,1.28-.3,2.66-.45,4.13-.45,1.17,0,2.33.08,3.48.25,1.15.17,2.19.51,3.13,1.02s1.69,1.24,2.25,2.17.85,2.15.85,3.65v13.29c0,1,.06,1.73.17,2.2.12.47.51.7,1.18.7.37,0,.8-.07,1.3-.2v3.3Zm-6.91-13.27c-.53.4-1.24.69-2.1.87-.87.18-1.78.33-2.73.45s-1.91.25-2.88.4c-.97.15-1.84.39-2.6.72-.77.33-1.39.81-1.88,1.42-.48.62-.73,1.45-.73,2.52,0,.7.14,1.29.43,1.77.28.48.65.87,1.1,1.17.45.3.98.51,1.58.65.6.13,1.24.2,1.9.2,1.4,0,2.6-.19,3.6-.57,1-.38,1.82-.86,2.45-1.44.63-.58,1.1-1.21,1.4-1.89.3-.68.45-1.32.45-1.92v-4.33Z"/><path class="cls-3" d="m795.46,64.96v-3.5h-.1c-.7,1.44-1.8,2.47-3.3,3.1s-3.15.95-4.96.95c-2,0-3.75-.37-5.23-1.1-1.49-.73-2.72-1.72-3.71-2.95-.98-1.23-1.73-2.67-2.23-4.31-.5-1.63-.75-3.37-.75-5.21s.24-3.57.73-5.21c.48-1.63,1.22-3.06,2.2-4.28.98-1.22,2.22-2.19,3.71-2.9,1.48-.72,3.21-1.08,5.18-1.08.67,0,1.38.07,2.15.2.77.13,1.53.36,2.3.68.77.32,1.49.73,2.18,1.25.68.52,1.26,1.16,1.73,1.93h.1v-13.32h4.26v35.75h-4.26Zm-15.29-9.19c.32,1.15.8,2.18,1.45,3.08.65.9,1.48,1.62,2.5,2.15,1.02.53,2.21.8,3.58.8s2.65-.28,3.65-.85c1-.57,1.82-1.31,2.45-2.23.63-.92,1.09-1.96,1.38-3.13.28-1.17.43-2.35.43-3.55,0-1.27-.15-2.5-.45-3.68-.3-1.18-.78-2.23-1.43-3.13-.65-.9-1.49-1.63-2.53-2.18-1.04-.55-2.29-.83-3.76-.83s-2.65.28-3.65.85c-1,.57-1.8,1.32-2.4,2.25s-1.04,2-1.3,3.2c-.27,1.2-.4,2.44-.4,3.71,0,1.2.16,2.38.48,3.53Z"/><path class="cls-3" d="m823.11,63.31c-1.94,1.47-4.37,2.2-7.31,2.2-2.07,0-3.86-.33-5.38-1-1.52-.67-2.8-1.6-3.83-2.8-1.04-1.2-1.81-2.64-2.33-4.31-.52-1.67-.81-3.49-.88-5.46,0-1.97.3-3.77.9-5.41.6-1.63,1.44-3.05,2.53-4.26,1.08-1.2,2.37-2.13,3.85-2.8,1.49-.67,3.11-1,4.88-1,2.3,0,4.21.48,5.73,1.43,1.52.95,2.74,2.16,3.66,3.63.92,1.47,1.55,3.07,1.9,4.81s.49,3.39.43,4.96h-19.38c-.03,1.14.1,2.21.4,3.23.3,1.02.78,1.92,1.45,2.7.67.78,1.52,1.41,2.55,1.88,1.03.47,2.25.7,3.66.7,1.8,0,3.28-.42,4.43-1.25,1.15-.83,1.91-2.1,2.28-3.8h4.21c-.57,2.9-1.82,5.09-3.75,6.56Zm-1.03-16.62c-.38-.9-.9-1.68-1.55-2.33s-1.42-1.17-2.3-1.55c-.88-.38-1.86-.58-2.93-.58s-2.1.19-2.98.58c-.88.38-1.64.91-2.28,1.58s-1.13,1.44-1.5,2.33c-.37.88-.58,1.83-.65,2.83h14.87c-.07-1-.29-1.95-.68-2.85Z"/></g></svg>