<?xml version="1.0" encoding="utf-8"?>
<!-- Generator: Adobe Illustrator 19.1.0, SVG Export Plug-In . SVG Version: 6.00 Build 0)  -->
<!DOCTYPE svg PUBLIC "-//W3C//DTD SVG 1.1//EN" "http://www.w3.org/Graphics/SVG/1.1/DTD/svg11.dtd">
<svg version="1.1" id="Layer_1" xmlns="http://www.w3.org/2000/svg" xmlns:xlink="http://www.w3.org/1999/xlink" x="0px" y="0px"
	 viewBox="132.6 179 386.9 387" style="enable-background:new 132.6 179 386.9 387;" xml:space="preserve">
<style type="text/css">
	.st0{fill:#000000;stroke-width:4}
</style>
<g>
	<path class="st0" d="M326,557.5c-49.4,0-95.9-19.2-130.8-54.2c-34.9-35-54.2-81.4-54.2-130.8c0-49.4,19.2-95.9,54.2-130.8
		c35-34.9,81.4-54.2,130.8-54.2c49.4,0,95.9,19.2,130.8,54.2c4.4,4.4,4.4,11.6,0,16c-2.1,2.1-5,3.3-8,3.3c-3,0-5.9-1.2-8-3.3
		c-30.7-30.7-71.5-47.6-114.8-47.6c-43.4,0-84.2,16.9-114.9,47.6c-30.7,30.7-47.6,71.5-47.6,114.8c0,43.4,16.9,84.2,47.6,114.9
		c30.7,30.7,71.5,47.6,114.9,47.6c43.4,0,84.2-16.9,114.9-47.6c30.7-30.7,47.6-71.5,47.6-114.9c0-6.2,5.1-11.3,11.3-11.3
		c6.2,0,11.3,5.1,11.3,11.3c0,49.4-19.3,95.9-54.2,130.8C421.9,538.3,375.4,557.5,326,557.5z M390.1,454c-3.3,0-6.4-1.4-8.5-3.8
		l-64.1-73c-1.8-2.1-2.8-4.7-2.8-7.5v-69c0-6.2,5.1-11.3,11.3-11.3c3,0,5.9,1.2,8,3.3c2.1,2.1,3.3,5,3.3,8v64.8l61.3,69.8
		c2,2.3,3,5.2,2.8,8.2c-0.2,3-1.6,5.8-3.8,7.8C395.5,453,392.8,454,390.1,454z"/>
	<path class="st0" d="M326,196c47.1,0,91.5,18.4,124.8,51.7c1.1,1.1,1.1,2.9,0,4c-0.7,0.7-1.4,0.8-2,0.8c-0.5,0-1.3-0.1-2-0.8
		c-32.3-32.3-75.2-50.1-120.9-50.1c-45.6,0-88.6,17.8-120.9,50.1c-32.3,32.3-50,75.2-50,120.9s17.8,88.6,50.1,120.9
		c32.3,32.3,75.2,50,120.9,50c45.7,0,88.6-17.8,120.9-50.1c32.3-32.3,50.1-75.2,50.1-120.9c0-1.5,1.3-2.8,2.8-2.8
		c1.5,0,2.8,1.3,2.8,2.8c0,47.2-18.4,91.5-51.7,124.8C417.5,530.7,373.2,549,326,549c-47.1,0-91.5-18.4-124.8-51.7
		c-33.3-33.4-51.7-77.7-51.7-124.8c0-47.1,18.4-91.5,51.7-124.8C234.5,214.3,278.9,196,326,196 M326,297.9c1,0,1.6,0.4,2,0.8
		c0.4,0.4,0.8,1,0.8,2v61.5v6.4l4.2,4.8l59.1,67.4c0.6,0.7,0.7,1.5,0.7,2c0,0.5-0.2,1.3-0.9,1.9c-0.5,0.5-1.1,0.7-1.8,0.7
		c-0.5,0-1.4-0.1-2.1-1l-64.1-73c-0.4-0.5-0.7-1.2-0.7-1.8v-69C323.2,299.2,324.4,297.9,326,297.9 M326,179
		c-51.7,0-100.3,20.1-136.9,56.7c-36.5,36.6-56.7,85.2-56.7,136.8c0,51.7,20.1,100.3,56.7,136.9C225.7,545.9,274.3,566,326,566
		c51.7,0,100.3-20.1,136.8-56.7c36.6-36.6,56.7-85.2,56.7-136.8c0-10.9-8.9-19.8-19.8-19.8c-10.9,0-19.8,8.9-19.8,19.8
		c0,41.1-16,79.7-45.1,108.8c-29.1,29.1-67.7,45.1-108.8,45.1c-41.1,0-79.8-16-108.8-45.1c-29.1-29.1-45.1-67.7-45.1-108.9
		c0-41.1,16-79.8,45.1-108.8c29.1-29.1,67.7-45.1,108.8-45.1c41.1,0,79.8,16,108.8,45.1c3.9,3.9,8.9,5.8,14,5.8s10.1-1.9,14-5.8
		c7.7-7.7,7.7-20.3,0-28C426.3,199.1,377.7,179,326,179L326,179z M326,280.9c-10.9,0-19.8,8.9-19.8,19.8v69c0,4.8,1.8,9.5,4.9,13.1
		l64.1,73c3.9,4.5,9.4,6.7,14.9,6.7c4.6,0,9.3-1.6,13.1-4.9c8.2-7.2,9-19.7,1.8-27.9l-59.1-67.4v-61.5
		C345.8,289.8,336.9,280.9,326,280.9L326,280.9z"/>
</g>
</svg>
