<svg xmlns="http://www.w3.org/2000/svg" xmlns:xlink="http://www.w3.org/1999/xlink" version="1.1" id="Layer_1" x="0" y="0" viewBox="-229 382.9 72 72" xml:space="preserve" enable-background="new -229 382.9 72 72">
  <style type="text/css">
    
  .st0{display:none;}
  .st1{display:inline;}
  .st2{stroke:#2A26FF;stroke-width:10;stroke-miterlimit:10;}
  .st3{fill:#00549F;}
  .st4{display:inline;stroke:#E00C02;stroke-width:4;stroke-miterlimit:10;}
  .st5{display:inline;fill:none;stroke:#E00C02;stroke-width:4;stroke-miterlimit:10;}
  .st6{stroke:#E00C02;stroke-width:4;stroke-miterlimit:10;}

  </style>
  <g class="st0">
    <g class="st1">
      <path d="M-157 409.9c0 1.6-1.4 3-3 3h-4c-1.6 0-3-1.4-3-3v-14c0-1.6-1.4-3-3-3h-14c-1.6 0-3-1.4-3-3v-4c0-1.6 1.4-3 3-3h24c1.6 0 3 1.4 3 3V409.9z"/>
    </g>
    <g class="st1">
      <path d="M-194.3 427.3c-1.2 1.2-3.1 1.2-4.2 0l-2.8-2.8c-1.2-1.2-1.2-3.1 0-4.2l33.8-33.8c1.2-1.2 3.1-1.2 4.2 0l2.8 2.8c1.2 1.2 1.2 3.1 0 4.2L-194.3 427.3z"/>
    </g>
    <g class="st1">
      <path class="st2" d="M-170 414.9v32c0 1.6-1.4 3-3 3h-48c-1.6 0-3-1.4-3-3v-48c0-1.6 1.4-3 3-3h32"/>
    </g>
  </g>
  <path class="st3" d="M-157 385.9v24c0 1.6-1.4 3-3 3h-4c-1.6 0-3-1.4-3-3V400l-27.3 27.3c-1.2 1.2-3.1 1.2-4.2 0l-2.8-2.8c-1.2-1.2-1.2-3.1 0-4.2l27.3-27.3h-9.9c-1.6 0-3-1.4-3-3v-4c0-1.6 1.4-3 3-3h24C-158.4 382.9-157 384.2-157 385.9zM-165 446.9v-32h-10v30h-44v-44h30v-10h-32c-4.4 0-8 3.6-8 8v48c0 4.4 3.6 8 8 8h48C-168.6 454.9-165 451.3-165 446.9z"/>
  <g class="st0">
    <polyline class="st4" points="-187 387.9 -162 387.9 -162 412.9 "/>
    <line class="st5" x1="-200" y1="425.9" x2="-162" y2="387.9"/>
    <g class="st1">
      <path class="st6" d="M-170 414.9v32c0 1.6-1.4 3-3 3h-48c-1.6 0-3-1.4-3-3v-48c0-1.6 1.4-3 3-3h32"/>
    </g>
  </g>
  <g class="st0">
    <path class="st1" d="M-160 385.9v27h-4v-20.2l-34.6 34.6 -2.8-2.8 34.6-34.6H-187v-4H-160zM-172 446.9c0 0.5-0.5 1-1 1h-48c-0.5 0-1-0.5-1-1v-48c0-0.5 0.5-1 1-1h32v-4h-32c-2.8 0-5 2.2-5 5v48c0 2.8 2.2 5 5 5h48c2.8 0 5-2.2 5-5v-32h-4V446.9z"/>
  </g>
</svg>
