<svg width="24" height="25" viewBox="0 0 24 25" fill="none" xmlns="http://www.w3.org/2000/svg">
<g clip-path="url(#clip0_2243_2835)">
<path d="M23.625 12.5C23.625 18.9203 18.4203 24.125 12 24.125C5.57967 24.125 0.375 18.9203 0.375 12.5C0.375 6.07967 5.57967 0.875 12 0.875C18.4203 0.875 23.625 6.07967 23.625 12.5Z" fill="#00703C"/>
<path d="M10.6553 18.6553L19.2803 10.0303C19.5732 9.73743 19.5732 9.26254 19.2803 8.96966L18.2197 7.90902C17.9268 7.6161 17.4519 7.6161 17.159 7.90902L10.125 14.943L6.84098 11.659C6.54811 11.3661 6.07322 11.3661 5.7803 11.659L4.71966 12.7196C4.42678 13.0125 4.42678 13.4874 4.71966 13.7803L9.59466 18.6553C9.88758 18.9482 10.3624 18.9482 10.6553 18.6553Z" fill="white"/>
</g>
<defs>
<clipPath id="clip0_2243_2835">
<rect width="24" height="24" fill="white" transform="translate(0 0.5)"/>
</clipPath>
</defs>
</svg>
