<svg id="Layer_1" xmlns="http://www.w3.org/2000/svg" viewBox="802.4 13.5 598.5 562.8"><style>.st0{fill:none;stroke:#000;stroke-width:20;stroke-linecap:round;stroke-linejoin:round;stroke-miterlimit:10;}</style><ellipse class="st0" cx="1104.2" cy="69.2" rx="53.6" ry="49.7"/><path class="st0" d="M1104.2 205.6h-100.7c0-65 56.1-102 56.1-102M1104.2 205.6h99.5c0-65-56.1-102-56.1-102"/><ellipse class="st0" cx="907.9" cy="436.4" rx="53.5" ry="48.4"/><path class="st0" d="M909.2 570.3H808.4c0-63.7 56.1-99.4 56.1-99.4M909.2 570.3h99.5c0-63.7-56.1-99.4-56.1-99.4"/><g><ellipse class="st0" cx="1295.5" cy="436.4" rx="53.6" ry="48.4"/><path class="st0" d="M1295.5 570.3H1196c0-63.7 56.1-99.4 56.1-99.4M1295.5 570.3h99.5c0-63.7-56.1-99.4-56.1-99.4"/></g><path class="st0" d="M910.4 338.2v-44.6h386.4v44.6M1104.2 250.2v43.4"/></svg>
