<svg id="Layer_1" xmlns="http://www.w3.org/2000/svg" viewBox="-942.7 127.4 596.3 489.3"><style>.st0{fill:#000;}</style><path class="st0" d="M-439.9 203.4h-225.8c-51.6 0-93.5 42-93.5 93.5v117.6c0 51.6 42 93.5 93.5 93.5h156.6l73.7 84.2 20.1 22.7c1.1 1.2 2.6 1.8 4.1 1.8.7 0 1.3-.1 2-.4 2.1-.8 3.6-2.9 3.6-5.2V501.5c35.6-14 59.3-48.5 59.3-87V296.9c-.1-51.6-42.1-93.5-93.6-93.5zm71 211.1c0 29-17.4 54.8-44.4 65.8-3.4 1.5-6.9 2.6-10.6 3.4-2.5.6-4.3 2.8-4.3 5.4v77.3l-58.9-67.4-10.1-11.5c-1-1.2-2.6-1.9-4.1-1.9h-164.4c-39.2 0-71-31.8-71-71V296.9c0-39.1 31.8-71 71-71h225.8c39.1 0 71 31.9 71 71v117.6z"/><path class="st0" d="M-775.5 344.5H-807c-1.6 0-3.1.7-4.1 1.9l-10.1 11.5-39.8 47.7V348c0-2.6-1.8-4.8-4.3-5.4-3.7-.8-7.2-2-10.5-3.4-27.1-11-44.5-36.8-44.5-65.8V221c0-39.2 31.8-71 71-71h164.5c26.8 0 51.1 15.1 63.2 38.9h24.6c-2.1-5.8-4.8-11.4-8.1-16.7-17.2-28-47-44.7-79.8-44.7h-164.5c-51.6 0-93.5 42-93.5 93.5v52.5c0 38.5 23.7 73 59.3 87v90.6c0 2.3 1.4 4.4 3.6 5.2.6.2 1.3.4 2 .4 1.5 0 3.1-.6 4.1-1.8l20.1-22.7.1-.1 54.5-65h23.6v-22.6h.1z"/></svg>
