<svg class="great-ds-header__great-ds-logo-image" aria-hidden="true" width="268" height="37" viewBox="0 0 268 37" fill="none"
	xmlns="http://www.w3.org/2000/svg">
	<path class="great-ds-header__great-ds-logo-path" d="M8.8 2.296C11.032 2.296 12.868 2.512 14.308 2.944C15.748 3.352 16.816 4.036 17.512 4.996C18.208 5.932 18.556 7.204 18.556 8.812C18.556 9.772 18.388 10.648 18.052 11.44C17.716 12.232 17.26 12.88 16.684 13.384C16.132 13.888 15.508 14.212 14.812 14.356V14.536C15.532 14.704 16.216 15.004 16.864 15.436C17.536 15.868 18.076 16.492 18.484 17.308C18.892 18.124 19.096 19.204 19.096 20.548C19.096 22.108 18.724 23.452 17.98 24.58C17.26 25.684 16.228 26.536 14.884 27.136C13.54 27.712 11.932 28 10.06 28H0.844V2.296H8.8ZM9.124 12.484C10.42 12.484 11.32 12.232 11.824 11.728C12.328 11.224 12.58 10.492 12.58 9.532C12.58 8.548 12.28 7.84 11.68 7.408C11.104 6.976 10.192 6.76 8.944 6.76H6.676V12.484H9.124ZM6.676 16.804V23.5H9.484C10.828 23.5 11.764 23.188 12.292 22.564C12.82 21.916 13.084 21.064 13.084 20.008C13.084 19.36 12.964 18.796 12.724 18.316C12.508 17.836 12.124 17.464 11.572 17.2C11.044 16.936 10.3 16.804 9.34 16.804H6.676ZM40.4373 8.344V28H36.0813L35.3253 25.48H35.0013C34.6173 26.152 34.1253 26.704 33.5253 27.136C32.9492 27.544 32.3012 27.844 31.5812 28.036C30.8612 28.252 30.1172 28.36 29.3492 28.36C28.0772 28.36 26.9492 28.108 25.9652 27.604C24.9812 27.1 24.2012 26.32 23.6252 25.264C23.0732 24.208 22.7972 22.84 22.7972 21.16V8.344H28.5572V19.828C28.5572 21.22 28.7612 22.276 29.1692 22.996C29.5773 23.716 30.2372 24.076 31.1492 24.076C32.0852 24.076 32.8052 23.824 33.3092 23.32C33.8132 22.816 34.1612 22.084 34.3533 21.124C34.5693 20.164 34.6773 18.988 34.6773 17.596V8.344H40.4373ZM58.3661 22.168C58.3661 23.488 58.0781 24.616 57.5021 25.552C56.9501 26.464 56.0981 27.16 54.9461 27.64C53.7941 28.12 52.3061 28.36 50.4821 28.36C49.1621 28.36 48.0101 28.264 47.0261 28.072C46.0421 27.904 45.0461 27.616 44.0381 27.208V22.78C45.1421 23.26 46.2821 23.656 47.4581 23.968C48.6341 24.28 49.6181 24.436 50.4101 24.436C51.2741 24.436 51.8861 24.28 52.2461 23.968C52.6301 23.656 52.8221 23.248 52.8221 22.744C52.8221 22.408 52.7261 22.108 52.5341 21.844C52.3421 21.58 51.9581 21.28 51.3821 20.944C50.8061 20.608 49.9541 20.176 48.8261 19.648C47.7221 19.12 46.8101 18.604 46.0901 18.1C45.3941 17.572 44.8661 16.948 44.5061 16.228C44.1701 15.484 44.0021 14.56 44.0021 13.456C44.0021 11.632 44.6861 10.264 46.0541 9.352C47.4461 8.44 49.2701 7.984 51.5261 7.984C52.7261 7.984 53.8541 8.104 54.9101 8.344C55.9661 8.584 57.0581 8.98 58.1861 9.532L56.5661 13.384C55.9421 13.096 55.3301 12.844 54.7301 12.628C54.1301 12.412 53.5541 12.244 53.0021 12.124C52.4741 12.004 51.9701 11.944 51.4901 11.944C50.8661 11.944 50.3861 12.052 50.0501 12.268C49.7381 12.484 49.5821 12.808 49.5821 13.24C49.5821 13.552 49.6781 13.84 49.8701 14.104C50.0621 14.344 50.4341 14.62 50.9861 14.932C51.5381 15.22 52.3421 15.592 53.3981 16.048C54.4781 16.504 55.3781 16.984 56.0981 17.488C56.8421 17.968 57.4061 18.58 57.7901 19.324C58.1741 20.044 58.3661 20.992 58.3661 22.168ZM67.5303 8.344V28H61.7703V8.344H67.5303ZM64.6863 0.639998C65.5263 0.639998 66.2463 0.831999 66.8463 1.216C67.4463 1.576 67.7463 2.26 67.7463 3.268C67.7463 4.252 67.4463 4.936 66.8463 5.32C66.2463 5.704 65.5263 5.896 64.6863 5.896C63.8223 5.896 63.0903 5.704 62.4903 5.32C61.8903 4.936 61.5903 4.252 61.5903 3.268C61.5903 2.26 61.8903 1.576 62.4903 1.216C63.0903 0.831999 63.8223 0.639998 64.6863 0.639998ZM83.1507 7.984C85.1187 7.984 86.7027 8.56 87.9027 9.712C89.1267 10.84 89.7387 12.664 89.7387 15.184V28H83.9787V16.516C83.9787 15.1 83.7627 14.044 83.3307 13.348C82.9227 12.628 82.2627 12.268 81.3507 12.268C79.9587 12.268 79.0227 12.832 78.5427 13.96C78.0627 15.064 77.8227 16.66 77.8227 18.748V28H72.0627V8.344H76.4187L77.2107 10.864H77.4627C77.8707 10.192 78.3507 9.652 78.9027 9.244C79.4787 8.812 80.1267 8.5 80.8467 8.308C81.5667 8.092 82.3347 7.984 83.1507 7.984ZM102.196 7.984C103.948 7.984 105.46 8.332 106.732 9.028C108.004 9.724 108.988 10.732 109.684 12.052C110.38 13.372 110.728 14.992 110.728 16.912V19.504H99.0275C99.0755 21.016 99.4595 22.204 100.18 23.068C100.924 23.932 101.98 24.364 103.348 24.364C104.548 24.364 105.628 24.244 106.588 24.004C107.572 23.74 108.58 23.344 109.612 22.816V26.956C108.724 27.436 107.752 27.784 106.696 28C105.664 28.24 104.38 28.36 102.844 28.36C100.972 28.36 99.3035 28 97.8395 27.28C96.3995 26.536 95.2595 25.42 94.4195 23.932C93.6035 22.444 93.1955 20.572 93.1955 18.316C93.1955 16.012 93.5675 14.104 94.3115 12.592C95.0795 11.056 96.1355 9.904 97.4795 9.136C98.8475 8.368 100.42 7.984 102.196 7.984ZM102.304 11.8C101.44 11.8 100.72 12.136 100.144 12.808C99.5675 13.48 99.2315 14.524 99.1355 15.94H105.436C105.436 15.148 105.316 14.44 105.076 13.816C104.836 13.192 104.488 12.7 104.032 12.34C103.576 11.98 103 11.8 102.304 11.8ZM127.66 22.168C127.66 23.488 127.372 24.616 126.796 25.552C126.244 26.464 125.392 27.16 124.24 27.64C123.088 28.12 121.6 28.36 119.776 28.36C118.456 28.36 117.304 28.264 116.32 28.072C115.336 27.904 114.34 27.616 113.332 27.208V22.78C114.436 23.26 115.576 23.656 116.752 23.968C117.928 24.28 118.912 24.436 119.704 24.436C120.568 24.436 121.18 24.28 121.54 23.968C121.924 23.656 122.116 23.248 122.116 22.744C122.116 22.408 122.02 22.108 121.828 21.844C121.636 21.58 121.252 21.28 120.676 20.944C120.1 20.608 119.248 20.176 118.12 19.648C117.016 19.12 116.104 18.604 115.384 18.1C114.688 17.572 114.16 16.948 113.8 16.228C113.464 15.484 113.296 14.56 113.296 13.456C113.296 11.632 113.98 10.264 115.348 9.352C116.74 8.44 118.564 7.984 120.82 7.984C122.02 7.984 123.148 8.104 124.204 8.344C125.26 8.584 126.352 8.98 127.48 9.532L125.86 13.384C125.236 13.096 124.624 12.844 124.024 12.628C123.424 12.412 122.848 12.244 122.296 12.124C121.768 12.004 121.264 11.944 120.784 11.944C120.16 11.944 119.68 12.052 119.344 12.268C119.032 12.484 118.876 12.808 118.876 13.24C118.876 13.552 118.972 13.84 119.164 14.104C119.356 14.344 119.728 14.62 120.28 14.932C120.832 15.22 121.636 15.592 122.692 16.048C123.772 16.504 124.672 16.984 125.392 17.488C126.136 17.968 126.7 18.58 127.084 19.324C127.468 20.044 127.66 20.992 127.66 22.168ZM144.457 22.168C144.457 23.488 144.169 24.616 143.593 25.552C143.041 26.464 142.189 27.16 141.037 27.64C139.885 28.12 138.397 28.36 136.573 28.36C135.253 28.36 134.101 28.264 133.117 28.072C132.133 27.904 131.137 27.616 130.129 27.208V22.78C131.233 23.26 132.373 23.656 133.549 23.968C134.725 24.28 135.709 24.436 136.501 24.436C137.365 24.436 137.977 24.28 138.337 23.968C138.721 23.656 138.913 23.248 138.913 22.744C138.913 22.408 138.817 22.108 138.625 21.844C138.433 21.58 138.049 21.28 137.473 20.944C136.897 20.608 136.045 20.176 134.917 19.648C133.813 19.12 132.901 18.604 132.181 18.1C131.485 17.572 130.957 16.948 130.597 16.228C130.261 15.484 130.093 14.56 130.093 13.456C130.093 11.632 130.777 10.264 132.145 9.352C133.537 8.44 135.361 7.984 137.617 7.984C138.817 7.984 139.945 8.104 141.001 8.344C142.057 8.584 143.149 8.98 144.277 9.532L142.657 13.384C142.033 13.096 141.421 12.844 140.821 12.628C140.221 12.412 139.645 12.244 139.093 12.124C138.565 12.004 138.061 11.944 137.581 11.944C136.957 11.944 136.477 12.052 136.141 12.268C135.829 12.484 135.673 12.808 135.673 13.24C135.673 13.552 135.769 13.84 135.961 14.104C136.153 14.344 136.525 14.62 137.077 14.932C137.629 15.22 138.433 15.592 139.489 16.048C140.569 16.504 141.469 16.984 142.189 17.488C142.933 17.968 143.497 18.58 143.881 19.324C144.265 20.044 144.457 20.992 144.457 22.168ZM147.105 25.48C147.105 24.376 147.417 23.608 148.041 23.176C148.665 22.72 149.421 22.492 150.309 22.492C151.149 22.492 151.881 22.72 152.505 23.176C153.129 23.608 153.441 24.376 153.441 25.48C153.441 26.536 153.129 27.304 152.505 27.784C151.881 28.24 151.149 28.468 150.309 28.468C149.421 28.468 148.665 28.24 148.041 27.784C147.417 27.304 147.105 26.536 147.105 25.48ZM163.18 7.984C164.404 7.984 165.436 8.224 166.276 8.704C167.14 9.184 167.848 9.904 168.4 10.864H168.544L168.976 8.344H173.908V28.036C173.908 29.908 173.548 31.48 172.828 32.752C172.132 34.024 171.076 34.984 169.66 35.632C168.244 36.304 166.456 36.64 164.296 36.64C162.904 36.64 161.632 36.556 160.48 36.388C159.352 36.22 158.26 35.92 157.204 35.488V31.204C157.972 31.54 158.716 31.816 159.436 32.032C160.18 32.272 160.936 32.44 161.704 32.536C162.496 32.656 163.348 32.716 164.26 32.716C165.58 32.716 166.552 32.344 167.176 31.6C167.824 30.856 168.148 29.74 168.148 28.252V27.856C168.148 27.448 168.16 27.028 168.184 26.596C168.232 26.164 168.28 25.78 168.328 25.444H168.148C167.62 26.476 166.936 27.22 166.096 27.676C165.28 28.132 164.272 28.36 163.072 28.36C160.984 28.36 159.316 27.472 158.068 25.696C156.844 23.896 156.232 21.4 156.232 18.208C156.232 16.048 156.52 14.212 157.096 12.7C157.672 11.164 158.476 10 159.508 9.208C160.564 8.392 161.788 7.984 163.18 7.984ZM165.196 12.34C164.5 12.34 163.924 12.568 163.468 13.024C163.012 13.456 162.664 14.116 162.424 15.004C162.208 15.868 162.1 16.96 162.1 18.28C162.1 20.248 162.352 21.724 162.856 22.708C163.384 23.668 164.188 24.148 165.268 24.148C165.844 24.148 166.336 24.064 166.744 23.896C167.176 23.704 167.524 23.404 167.788 22.996C168.052 22.564 168.244 22.012 168.364 21.34C168.508 20.668 168.58 19.852 168.58 18.892V18.244C168.58 16.828 168.472 15.688 168.256 14.824C168.04 13.96 167.68 13.336 167.176 12.952C166.696 12.544 166.036 12.34 165.196 12.34ZM195.746 18.136C195.746 19.768 195.53 21.22 195.098 22.492C194.69 23.764 194.09 24.844 193.298 25.732C192.506 26.596 191.534 27.256 190.382 27.712C189.254 28.144 187.982 28.36 186.566 28.36C185.246 28.36 184.022 28.144 182.894 27.712C181.766 27.256 180.794 26.596 179.978 25.732C179.186 24.844 178.562 23.764 178.106 22.492C177.674 21.22 177.458 19.768 177.458 18.136C177.458 15.952 177.83 14.116 178.574 12.628C179.318 11.116 180.374 9.964 181.742 9.172C183.11 8.38 184.754 7.984 186.674 7.984C188.45 7.984 190.01 8.38 191.354 9.172C192.722 9.964 193.79 11.116 194.558 12.628C195.35 14.116 195.746 15.952 195.746 18.136ZM183.326 18.136C183.326 19.432 183.434 20.524 183.65 21.412C183.89 22.276 184.25 22.936 184.73 23.392C185.234 23.824 185.87 24.04 186.638 24.04C187.43 24.04 188.054 23.824 188.51 23.392C188.99 22.936 189.338 22.276 189.554 21.412C189.77 20.524 189.878 19.432 189.878 18.136C189.878 16.84 189.77 15.76 189.554 14.896C189.338 14.032 188.978 13.384 188.474 12.952C187.994 12.52 187.37 12.304 186.602 12.304C185.426 12.304 184.586 12.796 184.082 13.78C183.578 14.74 183.326 16.192 183.326 18.136ZM203.28 28L196.188 8.344H202.2L205.476 19.54C205.62 19.972 205.728 20.428 205.8 20.908C205.872 21.388 205.932 21.856 205.98 22.312C206.028 22.768 206.052 23.188 206.052 23.572H206.196C206.22 23.164 206.244 22.732 206.268 22.276C206.316 21.82 206.388 21.364 206.484 20.908C206.58 20.428 206.688 19.972 206.808 19.54L210.12 8.344H216.168L209.076 28H203.28ZM216.118 25.48C216.118 24.376 216.43 23.608 217.054 23.176C217.678 22.72 218.434 22.492 219.322 22.492C220.162 22.492 220.894 22.72 221.518 23.176C222.142 23.608 222.454 24.376 222.454 25.48C222.454 26.536 222.142 27.304 221.518 27.784C220.894 28.24 220.162 28.468 219.322 28.468C218.434 28.468 217.678 28.24 217.054 27.784C216.43 27.304 216.118 26.536 216.118 25.48ZM243.785 8.344V28H239.429L238.673 25.48H238.349C237.965 26.152 237.473 26.704 236.873 27.136C236.297 27.544 235.649 27.844 234.929 28.036C234.209 28.252 233.465 28.36 232.697 28.36C231.425 28.36 230.297 28.108 229.313 27.604C228.329 27.1 227.549 26.32 226.973 25.264C226.421 24.208 226.145 22.84 226.145 21.16V8.344H231.905V19.828C231.905 21.22 232.109 22.276 232.517 22.996C232.925 23.716 233.585 24.076 234.497 24.076C235.433 24.076 236.153 23.824 236.657 23.32C237.161 22.816 237.509 22.084 237.701 21.124C237.917 20.164 238.025 18.988 238.025 17.596V8.344H243.785ZM254.082 12.88C254.082 13.624 254.046 14.368 253.974 15.112C253.926 15.832 253.854 16.564 253.758 17.308H253.866C253.986 16.972 254.154 16.636 254.37 16.3C254.61 15.964 254.862 15.628 255.126 15.292C255.414 14.956 255.69 14.632 255.954 14.32L260.67 8.344H267.114L260.166 16.876L267.51 28H260.922L256.206 20.044L254.082 21.88V28H248.322V0.639998H254.082V12.88Z" fill="white"/>
</svg>
