<?xml version="1.0" encoding="utf-8"?>
<!-- Generator: Adobe Illustrator 20.1.0, SVG Export Plug-In . SVG Version: 6.00 Build 0)  -->
<svg version="1.1" id="Layer_1" xmlns="http://www.w3.org/2000/svg" xmlns:xlink="http://www.w3.org/1999/xlink" x="0px" y="0px"
	 viewBox="0 0 150 77" style="enable-background:new 0 0 150 77;" xml:space="preserve">
<style type="text/css">
	.st0{fill:#FFFFFF;}
	.st1{fill:#E22426;}
	.st2{fill:#1C1448;}
	.st3{fill:#B01F26;}
</style>
<g>
	<g>
		<path class="st0" d="M19.22,18.43V0.39h12.52v3.53h-8.92v3.12h5.18v3.5h-5.18v4.35h9.3v3.53H19.22z"/>
		<path class="st0" d="M44.11,18.43l-1.62-2.73c-0.64-1.08-1.62-2.86-1.96-3.53c-0.31,0.67-1.29,2.4-1.96,3.53l-1.62,2.73h-4.3
			l5.72-9.22L32.9,0.39h4.3l1.37,2.32c0.64,1.08,1.62,2.86,1.96,3.53c0.33-0.67,1.29-2.4,1.96-3.53l1.37-2.32h4.3l-5.49,8.81
			l5.75,9.22H44.11z"/>
		<path class="st0" d="M56.94,12.04h-3.97v6.39h-3.61V0.39h7.88c3.4,0,6.21,1.88,6.21,5.72C63.46,10.29,60.68,12.04,56.94,12.04z
			 M57.12,3.9h-4.15v4.64h4.2c1.67,0,2.58-0.77,2.58-2.34S58.72,3.9,57.12,3.9z"/>
		<path class="st0" d="M72.58,18.71c-4.72,0-7.94-3.45-7.94-9.28c0-5.82,3.27-9.33,7.99-9.33c4.69,0,7.91,3.45,7.91,9.28
			C80.54,15.21,77.27,18.71,72.58,18.71z M72.56,3.69c-2.52,0-4.2,2.04-4.2,5.69c0,3.66,1.75,5.75,4.28,5.75s4.2-2.04,4.2-5.69
			C76.83,5.78,75.08,3.69,72.56,3.69z"/>
		<path class="st0" d="M92.65,18.43l-3.22-6.49H85.8v6.49h-3.61V0.39h8.4c3.4,0,6.21,1.88,6.21,5.72c0,2.71-1.16,4.41-3.45,5.31
			l3.45,7.01H92.65z M90.51,3.9H85.8v4.64h4.72c1.67,0,2.58-0.77,2.58-2.34C93.09,4.57,92.11,3.9,90.51,3.9z"/>
		<path class="st0" d="M106.36,3.95v14.48h-3.61V3.95h-5.18V0.39h13.97v3.56H106.36z"/>
		<path class="st0" d="M113.01,18.43V0.39h3.61v18.04H113.01z"/>
		<path class="st0" d="M129.68,18.43l-6.62-9.84c-0.44-0.67-1.03-1.57-1.26-2.04c0,0.67,0.05,2.94,0.05,3.94v7.94h-3.56V0.39h3.45
			l6.39,9.53c0.44,0.67,1.03,1.57,1.26,2.04c0-0.67-0.05-2.94-0.05-3.94V0.39h3.56v18.04H129.68z"/>
		<path class="st0" d="M142.2,18.71c-4.72,0-7.88-3.61-7.88-9.3c0-5.49,3.3-9.3,8.01-9.3c3.68,0,5.64,1.73,6.83,4.51l-3.43,1.42
			c-0.67-1.34-1.49-2.34-3.45-2.34c-2.71,0-4.25,2.37-4.25,5.72c0,3.32,1.57,5.77,4.28,5.77c2.47,0,3.32-1.16,3.53-2.73h-2.86V9.08
			h6.47v2.37C149.44,16.09,146.37,18.71,142.2,18.71z"/>
		<path class="st0" d="M19.22,39.97V21.93h3.61v18.04H19.22z"/>
		<path class="st0" d="M31.49,40.25c-3.01,0-5.64-1.26-7.01-3.27l2.6-2.32c1.26,1.47,2.89,2.06,4.61,2.06
			c2.14,0,3.14-0.59,3.14-1.96c0-1.16-0.62-1.67-4.02-2.45c-3.32-0.77-5.64-1.83-5.64-5.39c0-3.27,2.89-5.28,6.44-5.28
			c2.81,0,4.87,1.06,6.57,2.83l-2.6,2.53c-1.16-1.19-2.45-1.86-4.1-1.86c-1.93,0-2.58,0.82-2.58,1.62c0,1.13,0.77,1.49,3.63,2.16
			c2.86,0.67,6.03,1.65,6.03,5.57C38.57,37.93,36.41,40.25,31.49,40.25z"/>
	</g>
	<g>
		<rect x="19.23" y="43.46" class="st1" width="85.65" height="24.86"/>
		<path class="st0" d="M34.09,58.36h-2.88v-3.34h6.46v2.88c0,4.59-3.04,7.2-7.17,7.2c-4.67,0-7.81-3.57-7.81-9.21
			c0-5.44,3.27-9.21,7.94-9.21c3.65,0,5.59,1.71,6.76,4.47l-3.39,1.4c-0.66-1.33-1.48-2.32-3.42-2.32c-2.68,0-4.21,2.35-4.21,5.67
			c0,3.29,1.56,5.72,4.24,5.72c2.95,0,3.38-1.84,3.5-2.7c0.02-0.23,0.03-0.35,0.03-0.54"/>
		<path class="st0" d="M51,64.82l-3.19-6.43h-3.6v6.43h-3.57V46.96h8.32c3.37,0,6.15,1.86,6.15,5.67c0,2.68-1.15,4.36-3.42,5.26
			l3.42,6.94H51 M48.88,50.43h-4.67v4.59h4.67c1.66,0,2.55-0.76,2.55-2.32C51.44,51.09,50.47,50.43,48.88,50.43z"/>
		<polyline class="st0" points="57.82,64.82 57.82,46.96 70.22,46.96 70.22,50.45 61.39,50.45 61.39,54.15 68.01,54.15 68.01,57.63 
			61.39,57.63 61.39,61.33 70.22,61.33 70.22,64.82 57.82,64.82 		"/>
		<path class="st0" d="M85.14,64.82h3.93l-6.79-17.87h-3.47l-6.84,17.87h3.83c0,0,0.58-1.66,1.34-3.8h6.66
			C84.56,63.17,85.14,64.82,85.14,64.82 M78.33,57.63c1.06-3.01,2.06-5.9,2.14-6.2c0.08,0.31,1.08,3.19,2.14,6.2H78.33z"/>
		<polyline class="st0" points="96.24,50.48 96.24,64.82 92.67,64.82 92.67,50.48 87.54,50.48 87.54,46.96 101.38,46.96 
			101.38,50.48 96.24,50.48 		"/>
	</g>
	<rect x="0.3" y="0.39" class="st0" width="14.54" height="67.95"/>
	<g>
		<polygon class="st2" points="0.83,0.39 8.15,15.07 8.15,0.39 		"/>
		<polygon class="st2" points="7.29,28.78 0.3,14.76 0.3,28.78 		"/>
		<polygon class="st2" points="7.2,40.1 0.3,40.1 0.3,53.93 		"/>
		<polygon class="st2" points="8.15,68.34 8.15,53.67 0.84,68.34 8.15,68.34 		"/>
		<polygon class="st3" points="8.15,27.93 8.15,22.66 0.3,6.87 0.3,12.14 		"/>
		<polygon class="st3" points="8.15,51.06 8.15,45.79 0.3,61.57 0.3,66.84 		"/>
		<polygon class="st3" points="10.37,0.39 10.37,31 0.3,31 0.3,37.88 10.37,37.88 10.37,68.34 14.84,68.34 14.84,0.39 		"/>
	</g>
</g>
</svg>
