<svg width="325" height="42" viewBox="0 0 325 42" xmlns="http://www.w3.org/2000/svg" xmlns:xlink="http://www.w3.org/1999/xlink"><title>Page 1</title><defs><path id="a" d="M0 41.274h324.993V.326H0z"/></defs><g fill="none" fill-rule="evenodd"><path fill="#FFF" d="M0 4.702V27.38h16.279v-4.44H4.549v-5.474h6.531V13.06H4.549V9.14h11.242V4.702z"/><g transform="translate(0 .172)"><path d="M31.387 27.209l-2.048-3.434c-.812-1.36-2.047-3.597-2.469-4.44-.39.843-1.624 3.014-2.47 4.44l-2.046 3.434h-5.427L24.14 15.61 17.252 4.53h5.427L24.4 7.446c.812 1.36 2.047 3.596 2.47 4.438.421-.842 1.624-3.013 2.468-4.438l1.723-2.916h5.426l-6.92 11.08 7.245 11.599h-5.426zM47.794 8.936h-5.231v5.832h5.296c2.112 0 3.25-.972 3.25-2.948 0-1.977-1.3-2.884-3.315-2.884m-.227 10.238h-5.004v8.035h-4.549V4.53h9.942c4.29 0 7.83 2.366 7.83 7.193 0 5.25-3.508 7.452-8.22 7.452m19.69-10.498c-3.184 0-5.296 2.56-5.296 7.16s2.209 7.225 5.393 7.225c3.185 0 5.296-2.56 5.296-7.16 0-4.601-2.209-7.225-5.393-7.225m.032 18.888c-5.946 0-10.007-4.341-10.007-11.663S61.407 4.174 67.353 4.174c5.914 0 9.975 4.34 9.975 11.663 0 7.322-4.126 11.728-10.04 11.728M89.902 8.936h-5.947v5.832h5.947c2.112 0 3.25-.972 3.25-2.948 0-2.042-1.235-2.884-3.25-2.884zm2.697 18.273l-4.061-8.165h-4.583v8.165h-4.548V4.53h10.592c4.289 0 7.83 2.366 7.83 7.193 0 3.402-1.461 5.54-4.353 6.674l4.354 8.813h-5.231zM109.884 9v18.21h-4.55V9h-6.53V4.53h17.61V9z" fill="#FFF"/><mask id="b" fill="#fff"><use xlink:href="#a"/></mask><path fill="#FFF" mask="url(#b)" d="M118.266 27.209h4.548V4.529h-4.548zm21.022 0l-8.35-12.376c-.553-.843-1.3-1.977-1.593-2.56 0 .842.065 3.693.065 4.957v9.979h-4.484V4.53h4.354l8.058 11.987c.553.843 1.3 1.977 1.592 2.56 0-.843-.065-3.693-.065-4.957V4.53h4.484v22.679h-4.061zm15.79.356c-5.946 0-9.943-4.535-9.943-11.696 0-6.9 4.159-11.695 10.106-11.695 4.646 0 7.115 2.17 8.61 5.67l-4.322 1.78c-.845-1.684-1.884-2.947-4.354-2.947-3.411 0-5.361 2.98-5.361 7.192 0 4.18 1.982 7.258 5.394 7.258 3.12 0 4.191-1.458 4.45-3.435h-3.606v-4.244h8.156v2.98c0 5.833-3.867 9.137-9.13 9.137m24.502-.18h4.55V4.705h-4.55zm15.467.356c-3.802 0-7.116-1.587-8.838-4.114l3.282-2.916c1.592 1.847 3.639 2.592 5.816 2.592 2.696 0 3.964-.745 3.964-2.463 0-1.457-.78-2.106-5.069-3.078-4.191-.972-7.116-2.3-7.116-6.771 0-4.115 3.64-6.642 8.124-6.642 3.541 0 6.14 1.329 8.285 3.564l-3.282 3.175c-1.462-1.49-3.086-2.332-5.166-2.332-2.437 0-3.25 1.037-3.25 2.04 0 1.426.975 1.88 4.582 2.722 3.607.843 7.603 2.073 7.603 6.998 0 4.31-2.729 7.225-8.935 7.225"/><path fill="#E41F13" mask="url(#b)" d="M216.991 31.58h108.003V.326H216.991z"/><path d="M235.737 19.063h-3.636v-4.204h8.141v3.627c0 5.775-3.83 9.05-9.042 9.05-5.89 0-9.848-4.492-9.848-11.585 0-6.834 4.12-11.584 10.01-11.584 4.601 0 7.046 2.15 8.527 5.616l-4.28 1.764c-.837-1.668-1.867-2.92-4.313-2.92-3.378 0-5.31 2.952-5.31 7.124 0 4.14 1.963 7.188 5.341 7.188 3.718 0 4.266-2.307 4.41-3.4.027-.283.043-.435.041-.675m18.61-9.98h-5.89v5.775h5.89c2.092 0 3.218-.96 3.218-2.92 0-2.022-1.223-2.855-3.218-2.855m2.671 18.1l-4.022-8.09h-4.539v8.09h-4.505V4.72h10.491c4.248 0 7.757 2.343 7.757 7.124 0 3.369-1.448 5.488-4.314 6.611l4.314 8.729h-5.182m8.591 0V4.72h15.64v4.397h-11.136v4.652h8.352v4.365h-8.352v4.652h11.137v4.398zm25.874-9.05c1.33-3.789 2.595-7.413 2.7-7.798.102.385 1.367 4.01 2.697 7.798h-5.397zm8.588 9.05h4.956l-8.56-22.464h-4.376l-8.626 22.464h4.826s.737-2.082 1.689-4.783h8.402l1.69 4.783zm14-18.036v18.036h-4.504V9.148h-6.47V4.72h17.445v4.428zM219.4 38.854h-1.387v1.348h1.388c.508 0 .747-.268.747-.677 0-.447-.239-.67-.747-.67m-.06-1.915h-1.328v.99h1.382c.432 0 .588-.2.588-.49 0-.328-.186-.5-.641-.5m.023 4.254h-2.374V35.98h2.396c1.014 0 1.656.483 1.656 1.377 0 .447-.209.805-.551 1.014.417.185.73.564.73 1.139 0 1.095-.738 1.684-1.857 1.684m4.963-4.202h-1.366v1.34h1.366c.484 0 .746-.221.746-.676 0-.47-.283-.664-.746-.664zm.62 4.202l-.933-1.878h-1.053v1.878h-1.044V35.98h2.432c.986 0 1.799.544 1.799 1.653 0 .783-.337 1.274-1.001 1.535l1 2.026h-1.2zm1.999 0h1.045V35.98h-1.045zm4.15-4.187v4.187h-1.045v-4.187h-1.5V35.98h4.045v1.027zm3.65 1.088a15.308 15.308 0 0 1-.261-.812c-.053.194-.157.507-.262.812l-.335.946h1.194l-.336-.946zm1.104 3.099l-.41-1.164h-1.91l-.411 1.164H232l2-5.214h1.016L237 41.194h-1.15zm1.822 0h1.046V35.98h-1.046zm5.239 0l-1.918-2.846a8.161 8.161 0 0 1-.366-.589c0 .195.015.848.015 1.14v2.295h-1.03V35.98h1l1.85 2.755c.128.193.3.454.367.59 0-.196-.015-.85-.015-1.14V35.98h1.03v5.214h-.933zm5.248-2.19c-.411.215-.576.483-.576.795 0 .336.269.552.791.552.322 0 .59-.074.806-.23l-1.021-1.117zm2.014 2.19l-.396-.426c-.41.335-.91.506-1.522.506-1.066 0-1.717-.447-1.717-1.385 0-.73.403-1.168 1.067-1.496l-.134-.149c-.276-.307-.455-.64-.455-1.058 0-.848.672-1.288 1.552-1.288.642 0 1.06.193 1.56.545l-.5.751a1.77 1.77 0 0 0-1.09-.373c-.305 0-.491.127-.491.343 0 .223.112.373.275.566l1.44 1.639c.12-.24.24-.522.366-.865l.843.268c-.164.507-.357.947-.59 1.305l.987 1.117h-1.195zm6.672 0l-1.918-2.846c-.126-.193-.298-.454-.365-.589 0 .195.015.848.015 1.14v2.295h-1.03V35.98h1l1.85 2.755c.127.193.3.454.367.59 0-.196-.015-.85-.015-1.14V35.98h1.03v5.214h-.934zm3.896-4.261c-.843 0-1.194.723-1.194 1.654 0 .93.35 1.652 1.194 1.652s1.195-.722 1.195-1.652c0-.931-.35-1.654-1.195-1.654m0 4.341c-1.425 0-2.268-1.103-2.268-2.687 0-1.588.843-2.69 2.268-2.69 1.427 0 2.269 1.102 2.269 2.69 0 1.584-.842 2.687-2.269 2.687m5.375-4.282h-1.366v1.34h1.366c.484 0 .746-.221.746-.676 0-.47-.284-.664-.746-.664zm.62 4.202l-.934-1.878h-1.052v1.878h-1.045V35.98h2.433c.985 0 1.797.544 1.797 1.653 0 .783-.335 1.274-.999 1.535l1 2.026h-1.2zm3.955-4.187v4.187h-1.045v-4.187h-1.5V35.98h4.045v1.027zm5.172 4.187v-2.19h-2.142v2.19h-1.044V35.98h1.044v1.995h2.142V35.98h1.045v5.214zm2.016 0V35.98h3.626v1.019h-2.582v.902h1.5v1.012h-1.5v1.259h2.695v1.022zm6.888-4.202h-1.366v1.34h1.366c.485 0 .747-.221.747-.676 0-.47-.283-.664-.747-.664zm.619 4.202l-.933-1.878h-1.052v1.878h-1.045V35.98h2.433c.986 0 1.798.544 1.798 1.653 0 .783-.334 1.274-1 1.535l1 2.026h-1.201zm5.226 0l-1.92-2.846a7.622 7.622 0 0 1-.364-.589c0 .195.014.848.014 1.14v2.295h-1.03V35.98h1l1.85 2.755c.128.193.3.454.367.59 0-.196-.014-.85-.014-1.14V35.98h1.03v5.214h-.933zm4.067 0h1.045V35.98h-1.045zm4.5-4.202h-1.366v1.34h1.366c.486 0 .746-.221.746-.676 0-.47-.283-.664-.746-.664zm.62 4.202l-.934-1.878h-1.052v1.878h-1.044V35.98h2.432c.985 0 1.8.544 1.8 1.653 0 .783-.337 1.274-1 1.535l1 2.026H299.8zm2.076 0V35.98h3.626v1.019h-2.582v.902h1.5v1.012h-1.5v1.259h2.695v1.022zm4.477 0V35.98h1.044v4.184h2.62v1.03zm6.628-3.099c-.104-.305-.21-.618-.26-.812-.054.194-.159.507-.263.812l-.335.946h1.193l-.335-.946zm1.104 3.099l-.411-1.164h-1.91l-.41 1.164h-1.12l2-5.214h1.016l1.985 5.214h-1.15zm4.897 0l-1.918-2.846a8.606 8.606 0 0 1-.367-.589c0 .195.017.848.017 1.14v2.295h-1.03V35.98h.998l1.852 2.755c.127.193.3.454.367.59 0-.196-.016-.85-.016-1.14V35.98h1.03v5.214h-.933zm3.35-4.202h-.551v3.188h.515c1.096 0 1.597-.642 1.597-1.594 0-1.065-.456-1.594-1.56-1.594m-.037 4.202h-1.56V35.98h1.635c1.492 0 2.596.7 2.596 2.606 0 1.831-1.328 2.608-2.671 2.608" fill="#FFF" mask="url(#b)"/></g></g></svg>