<svg class="great-ds-header-bgs__dbt-logo-image great-ds-header-bgs__dbt-logo-image--ukgov" role="img" aria-label="UK Government logo" width="439" height="72" viewBox="0 0 439 72" fill="none"
	xmlns="http://www.w3.org/2000/svg">
	<g clip-path="url(#clip0_2_480)">
		<path d="M122.42 20.88H128.18V40.04C128.18 44.46 128.46 49.57 135.92 49.57C143.38 49.57 143.66 44.46 143.66 40.04V20.88H149.42V41.93C149.42 50.36 144.03 54.55 135.93 54.55C127.83 54.55 122.44 50.36 122.44 41.93V20.88H122.42Z" fill="#0B0C0C"></path>
		<path d="M154.43 20.88H160.19V35.85L174.83 20.88H181.92L168.8 34L182.85 53.76H175.67L164.89 38.06L160.19 42.71V53.76H154.43V20.88Z" fill="#0B0C0C"></path>
		<path d="M225.16 53.76H221.48L220.61 49.89C217.53 53.39 214.72 54.54 210.71 54.54C200.9 54.54 194.96 46.76 194.96 37.32C194.96 27.88 200.9 20.1 210.71 20.1C217.85 20.1 223.93 23.92 224.8 31.34H219.18C218.58 27.06 214.9 24.8 210.71 24.8C203.66 24.8 200.72 31.02 200.72 37.33C200.72 43.64 203.67 49.86 210.71 49.86C216.65 50 219.78 46.41 219.92 40.83H211.17V36.45H225.17V53.77L225.16 53.76Z" fill="#0B0C0C"></path>
		<path d="M228.19 41.83C228.19 34.6 232.61 29.3 240.21 29.3C247.81 29.3 252.23 34.6 252.23 41.83C252.23 49.06 247.81 54.4 240.21 54.4C232.61 54.4 228.19 49.15 228.19 41.83ZM246.98 41.83C246.98 37.73 244.91 33.45 240.21 33.45C235.51 33.45 233.44 37.73 233.44 41.83C233.44 45.93 235.51 50.26 240.21 50.26C244.91 50.26 246.98 45.98 246.98 41.83Z" fill="#0B0C0C"></path>
		<path d="M251.74 29.95H257.45L263.48 48.2299H263.57L269.37 29.95H274.8L266.28 53.7599H260.39L251.73 29.95H251.74Z" fill="#0B0C0C"></path>
		<path d="M279.55 43.21C279.55 46.94 281.58 50.26 285.95 50.26C289.04 50.26 290.83 48.92 291.75 46.3H296.72C295.62 51.5 291.1 54.4 285.94 54.4C278.43 54.4 274.29 49.24 274.29 41.87C274.29 35.1 278.71 29.3 285.8 29.3C293.31 29.3 297.91 36.07 297.04 43.21H279.54H279.55ZM291.8 39.76C291.57 36.44 289.4 33.45 285.81 33.45C282.22 33.45 279.69 36.21 279.55 39.76H291.8Z" fill="#0B0C0C"></path>
		<path d="M299.52 29.95H304.45V34.56H304.54C305.14 32.03 308.32 29.31 311.49 29.31C312.73 29.31 312.96 29.4 313.47 29.45V34.52C312.73 34.38 311.95 34.29 311.21 34.29C307.66 34.29 304.76 37.14 304.76 42.44V53.77H299.51V29.96L299.52 29.95Z" fill="#0B0C0C"></path>
		<path d="M315.73 29.95H320.7V33.45L320.79 33.54C322.4 30.92 325.07 29.3 328.2 29.3C333.4 29.3 336.63 32.02 336.63 37.41V53.76H331.38V38.79C331.24 35.06 329.86 33.45 326.73 33.45C323.23 33.45 320.97 36.21 320.97 39.71V53.76H315.72V29.95H315.73Z" fill="#0B0C0C"></path>
		<path d="M340.51 29.95H345.48V33.27H345.62C347.23 30.92 349.12 29.31 352.94 29.31C355.84 29.31 358.56 30.55 359.62 33.27C361.42 30.83 363.58 29.31 367.08 29.31C372.1 29.31 375.05 31.57 375.05 37.32V53.76H369.8V39.85C369.8 36.03 369.57 33.45 365.47 33.45C361.92 33.45 360.4 35.75 360.4 39.8V53.75H355.15V38.46C355.15 35.14 354.14 33.44 350.96 33.44C348.24 33.44 345.76 35.7 345.76 39.61V53.75H340.51V29.94V29.95Z" fill="#0B0C0C"></path>
		<path d="M383 43.21C383 46.94 385.03 50.26 389.4 50.26C392.49 50.26 394.28 48.92 395.2 46.3H400.17C399.07 51.5 394.55 54.4 389.39 54.4C381.88 54.4 377.74 49.24 377.74 41.87C377.74 35.1 382.16 29.3 389.25 29.3C396.76 29.3 401.36 36.07 400.49 43.21H382.99H383ZM395.25 39.76C395.02 36.44 392.86 33.45 389.26 33.45C385.66 33.45 383.14 36.21 383 39.76H395.25Z" fill="#0B0C0C"></path>
		<path d="M402.97 29.95H407.94V33.45L408.03 33.54C409.64 30.92 412.31 29.3 415.44 29.3C420.64 29.3 423.87 32.02 423.87 37.41V53.76H418.62V38.79C418.48 35.06 417.1 33.45 413.97 33.45C410.47 33.45 408.21 36.21 408.21 39.71V53.76H402.96V29.95H402.97Z" fill="#0B0C0C"></path>
		<path d="M425.28 29.95H429.24V22.81H434.49V29.95H439.23V33.86H434.49V46.57C434.49 48.73 434.67 49.84 437.02 49.84C437.76 49.84 438.49 49.84 439.23 49.66V53.71C438.08 53.85 436.97 53.99 435.82 53.99C430.29 53.99 429.37 51.87 429.23 47.91V33.86H425.27V29.95H425.28Z" fill="#0B0C0C"></path>
		<path d="M5.16 0.539978H1V70.92H5.16V0.539978Z" class="great-ds-header-bgs__dbt-logo-stripe" fill="#0B0C0C"></path>
		<path d="M94.94 39.09L94.75 39.07L94.24 37.69C94.48 37.38 94.61 36.89 94.24 36.64C93.74 36.44 92.34 34.84 91.92 35.88C91.74 35.94 90.63 36.01 90.54 36.21C90.01 35.37 89.55 34.47 89.22 33.47C89.44 32.31 92.5 30.87 92.5 30.87C92.5 30.87 91.63 29.62 91.28 28.91C91.13 29.25 90.98 29.11 90.65 29.26C92.35 26.23 92.72 22.25 90.46 19.39C90.23 18.89 90.34 18.24 90.11 17.75C89.72 17.23 89.45 16.22 88.76 16.11C88.76 17.01 88.66 17.89 89.1 18.72C89.56 19.3 88.47 19.79 88.13 19.33C88.78 19.25 88.89 19.12 88.67 18.76C85.86 18.13 84.28 20.11 81.6 20.42C81.36 20.42 81.15 20.5 81.02 20.72C79.37 22.95 83.08 21.43 83.4 22.9C82.78 23.41 82.69 23.07 82.11 22.93C81.27 22.96 80.46 23.22 81.51 23.93C80.87 24.93 80.9 25.28 79.61 25.37C80.17 26.16 80.05 27.31 80.2 28.21C79.28 28.38 78.65 28.83 78.63 29.81C78.21 29.9 77.77 29.69 77.47 30.13C76.89 29.65 76.22 29.56 75.53 29.55C75.19 29.3 74.37 28.71 73.49 28.25C73.66 27.6 73.83 26.98 73.99 26.41C74.25 26.25 75.18 25.65 75.42 25.5C75.3 25.25 74.81 24.26 74.67 23.99C76.33 18.29 76.87 17.97 77.7 17.84L77.75 17.68L74.68 16.7L74.63 16.9C75.4 17.46 75.66 18.4 75.3 19.49C74.48 19.14 74.01 18.36 74.1 17.67C74.08 17.67 73.9 17.61 73.9 17.61L72.87 21.02C72.87 21.02 73.02 21.06 73.03 21.07C73.43 20.49 74.14 20.16 74.95 20.3C74 23.32 69.73 22.38 70.5 19.81C71.04 18.75 72.08 19.43 71.58 20.54C73.98 19.7 72.56 16.25 70.51 18.31C71.19 16.92 71.57 15.83 70.72 14.49C69.62 15.2 69.33 16.48 69.55 18.19C68.2 15.1 65.84 18.28 67.76 19.89C67.41 17.6 70.24 19.11 68.33 20.96C66.5 22.25 64.26 20.77 64.19 18.49C65.24 18.58 66.05 19.21 66.16 19.99C66.18 19.99 66.35 19.99 66.35 19.99L66.48 16.1C66.48 16.1 66.26 16.09 66.24 16.09C66.08 16.88 65.22 17.55 64.13 17.57C64.2 16.37 64.89 15.43 65.78 15.28V15.06H61.29V15.28C62.18 15.43 62.87 16.37 62.94 17.57C61.86 17.55 61 16.88 60.83 16.09C60.81 16.09 60.59 16.1 60.59 16.1L60.72 19.99C60.72 19.99 60.9 19.99 60.91 19.99C61.02 19.21 61.82 18.58 62.88 18.49C62.82 20.77 60.57 22.26 58.74 20.96C56.82 19.11 59.66 17.6 59.31 19.89C61.23 18.27 58.87 15.1 57.52 18.19C57.73 16.48 57.45 15.2 56.35 14.49C55.5 15.83 55.88 16.92 56.56 18.31C54.51 16.25 53.1 19.7 55.49 20.54C54.99 19.43 56.03 18.75 56.57 19.81C57.33 22.37 53.06 23.31 52.12 20.3C52.93 20.16 53.64 20.49 54.04 21.07C54.06 21.07 54.2 21.02 54.2 21.02L53.17 17.61C53.17 17.61 52.98 17.66 52.97 17.67C53.06 18.36 52.59 19.14 51.77 19.49C51.42 18.4 51.67 17.46 52.44 16.9L52.39 16.7L49.32 17.68L49.37 17.84C50.21 17.96 50.75 18.28 52.4 23.99C52.26 24.26 51.78 25.24 51.65 25.5C51.89 25.65 52.83 26.25 53.08 26.41C53.22 26.93 53.37 27.49 53.53 28.08C49.4 30.01 50.34 31.32 47.16 30.94C46.88 31.6 46.61 32.25 45.96 32.69C45.84 31.68 45.39 30.9 44.8 30.19C44.51 29.85 44.11 30.23 43.67 30.26C42.81 32.14 42.21 30.44 40.7 31.42C40.76 32.3 40.89 33.17 41.37 33.97C40.24 33.89 39.31 33.59 38.56 33.06C35.18 36.83 31.66 40.45 28.77 44.6C27.23 46.64 23.11 45.45 24.19 42.65C24.69 40.6 27.65 41.04 27.46 43.07C28.92 41.44 27.98 39.83 25.75 40.19C27.8 39.3 29.03 40.98 30.88 38.67C29.47 38.7 28.27 38.26 26.86 38.58C28.64 37.51 31.09 39.1 32.61 36.15C31.28 36.29 30.09 36.85 28.71 37.05C36.94 29.2 29.02 28.81 30.03 25.42C29.39 25.97 29.02 26.51 29.31 27.25C27.47 26.48 24.73 26.71 23.98 24.47C23.8 27.66 25.2 27.43 27.61 28.09C26.5 27.96 25.4 27.95 24.36 27.56C24.57 28.99 25.66 29.29 26.94 29.16C25.69 29.85 25.97 31.63 27.25 32.25C26.44 27.63 33.35 29.22 30.2 33.46C28.73 35.64 26.61 37.27 24.83 39.18C24.49 38.6 24.14 38.02 23.36 38.1C24.72 39.67 23.19 41.37 22.83 42.99C22.31 44.99 24.07 46.69 25.96 46.92C25.21 47.81 25.15 48.61 25.73 49.34C26.3 46.4 30.56 47.07 30.96 43.89C31.03 43.52 31.21 43.22 31.63 43.05C29.71 45.22 34.32 49.81 29.99 50.35C29.37 50.37 29.22 51.02 29.56 51.48C27.77 51.39 27.28 52.07 27 53.76C27.79 53.56 28.52 53.37 29.27 53.17C28.49 55.21 26.72 53.05 27.01 56.69C27.73 56.34 28.41 55.98 29.08 55.57C29.72 57.61 25.84 56.73 28.75 59.98C28.94 59.37 29.71 58.13 30.11 57.85C29.75 58.87 29.84 60.06 30.99 60.52C31.04 60.25 31.09 60 31.14 59.76C31.19 59.76 31.18 59.76 31.24 59.76C31.4 60.44 31.43 61.38 32.09 61.77C32.31 61.86 32.42 61.98 32.5 62.2C32.62 62.58 32.97 62.68 33.31 62.72C33.74 62.81 33.85 62.32 34.16 62.13C34.25 62.67 34.89 62.75 35.2 63.21C35.44 60.56 31.93 61.52 32.73 59.77C33.04 60.84 34.04 60.6 34.73 61.04C35 61.48 35.66 61.85 35.99 61.23C36.32 61.48 36.61 61.7 36.9 61.91C36.21 58.76 34.58 60.71 33.56 59.06C34.28 59.09 35.04 60.15 35.81 59.43C36.23 59.86 36.55 60.36 36.86 60.86C36.99 59.85 36.61 59.09 35.82 58.53C34.93 57.98 33.72 58.95 32.95 57.86C31.91 56.57 31.94 54.77 32.48 53.28C32.98 52.13 34.37 51.71 35.01 50.62C34.83 51.58 34.92 53.25 36.01 53.56C35.75 51.78 37.01 50.18 37.27 48.45C37.6 48.02 37.62 47.68 37.32 47.21C36.78 46.33 36.63 45.26 36.04 44.39C35.12 43.09 33.98 43.06 35.86 41.69C34.72 43.47 35.65 42.82 36.64 44.49C36.82 43.93 37.66 43.19 36.61 43.19C34.95 42.37 38.77 40.25 39.64 40.2C40.49 40.13 41.69 40.23 42.33 39.39C41.93 38.62 41.53 38.51 42.22 37.72C41.76 37.45 41.35 37.13 41.27 36.51C40.83 36.66 40.44 36.8 39.98 36.96C40.4 36.49 41.63 35.53 41.76 36.59C41.79 37.18 42.38 37.29 42.84 37.44C42.5 37.93 41.95 38.42 42.46 38.99C42.82 39.36 43.04 40.07 43.58 40.16C43.73 39.61 43.87 39.08 44.02 38.53C45.23 39.8 42.81 40.51 46.13 41.64C46.01 40.95 45.9 40.29 45.99 39.58C47.59 40.92 45.3 41.76 48.99 42.2C48.58 41.71 48.48 41.17 48.33 40.63C48.95 40.73 49.44 41.32 49.84 41.76C50.22 42.34 50.5 42.65 51.37 42.09C51.41 42.19 51.42 42.33 51.49 42.39C51.88 42.69 51.72 43.05 51.72 43.44H51.83C52.34 42.92 52.38 42.33 52.22 41.68C51.86 40.46 50.37 41.43 49.85 40.18C50.55 40.66 51.25 40.94 52.03 40.54C52.46 40.95 52.64 41.25 52.85 41.82C53.2 40.5 52.8 39.16 51.41 39.56C50.98 39.71 50.8 39.68 50.37 39.3C51.02 39.52 51.44 39.19 51.85 38.9C51.94 39.02 51.99 39.15 52.05 39.15C52.44 39.17 52.69 39.41 52.94 39.7C53.07 38.57 51.95 37.66 50.82 37.95C50.54 39.33 49.38 38.55 48.46 38.37C47.03 37.53 46.28 35.94 45.02 34.89C45.15 33.34 43.86 32.11 42.31 32.2C43.71 31.59 45.36 32.79 45.47 34.25C45.52 34.85 45.89 35.22 46.26 35.67C50.98 26.18 66.21 23.7 74.95 29.72C75.69 30.4 76.5 30.96 77.28 31.68C77.58 30.77 77.4 29.7 78.75 30.25L79 30.08C78.72 29.31 79.3 28.45 80.1 28.39V28.99C79.75 29.05 79.47 29.39 79.53 29.75C79.8 29.69 80.05 30.05 79.9 30.28C80.15 30.42 80.51 30.36 80.7 30.16C80.92 30.17 81.15 30.19 81.37 30.22C81.06 30.95 79.99 31.2 79.39 30.66C79.51 30.82 78.99 32.43 78.97 32.62C78.91 32.86 78.69 33.01 78.46 33C78.56 33.16 78.64 33.29 78.72 33.43C79.1 33.22 79.64 33.23 79.59 32.69C79.66 32.38 79.46 30.97 79.9 31.09C80.08 31.63 79.74 32.25 80.14 32.78C81.4 32.47 80.85 31.33 82.38 31.03C82.99 30.98 84.27 30.68 84.6 31.29C83.26 30.93 81.54 31.29 81.24 32.83C79.85 33.16 78.68 34.15 77.2 34.15C76.02 34.21 75.71 35.63 75.66 36.6C75.46 37.71 75.4 38.86 74.91 39.9C74.67 40.29 74.87 40.75 75 41.11C75.45 41.35 75.77 42.91 75.84 43.47C75.84 44.49 77.59 44.83 78.3 45.46C78.5 44.18 76.08 44.55 76.42 42.76C76.85 43.94 77.79 44.18 78.82 44.77C78.5 43.57 78.4 41.59 76.73 41.84C76.09 40.95 77.03 40.89 76.73 39.83C77.21 39.98 77.44 40.15 77.56 40.44C77.41 40.39 77.28 40.35 77.08 40.29C77.14 41.05 77.79 41.23 78.3 41.75C78.22 40.51 78.1 39.73 76.95 39.13C76.3 38.53 77.05 37.16 77.01 36.33C76.99 36.09 78.55 35.31 78.79 35.38C79.95 35.53 81.16 35.35 82.28 35.64C83.4 35.99 82.44 33.56 84.24 34.84C82.93 34.45 83.73 35.88 82.78 35.96C82.12 35.96 81.56 35.9 80.87 35.88C83.24 41.17 88.51 39.62 89.96 44.33C91.17 43.26 90.35 43.28 90.01 42.16C92.75 43.99 87.46 46.1 89.45 49.3C89.32 48.94 90.57 47.44 90.71 47.14C90.94 46.8 91.32 46.78 91.57 47.03L91.97 46.21C91.23 45.81 92.57 44.08 92.66 43.59C92.8 43.29 93.11 43.15 93.36 43.28L93.73 42.25C93.03 42.06 93.56 40.37 93.5 39.9C92.52 39.02 91.72 37.91 90.96 36.88L91.43 36.8C91.38 37.03 91.46 37.28 91.66 37.42C92 37.55 93.28 38.8 93.69 38.5L93.89 39.05C93.56 39.14 93.51 39.6 93.5 39.9C93.67 40.05 93.86 40.18 94.03 40.33C94.05 40.22 94.03 39.72 94.14 39.64C94.29 39.84 94.57 39.84 94.74 39.68C94.9 39.76 94.7 40.85 94.72 40.99C94.91 41.19 95.09 41.41 95.26 41.63C95.19 41.13 95.81 39.21 94.95 39.12L94.94 39.09ZM81.14 21.26C81.32 21.24 81.47 21.23 81.67 21.2C81.32 20.95 81.67 20.6 81.95 20.85C82.63 21.38 81.26 22.25 81.15 21.26H81.14ZM53.71 26.25L52.27 25.33L53.03 23.79L55.11 24.53L53.71 26.24V26.25ZM58.43 25.06C56.17 25.52 55.69 23.03 57.96 22.62C60.22 22.16 60.7 24.65 58.43 25.06ZM63.53 24.87L61.3 23.3L63.53 21.73L65.76 23.3L63.53 24.87ZM70.62 24.18C70.36 25.77 66.79 25.08 67.13 23.51C67.39 21.92 70.96 22.61 70.62 24.18ZM71.95 24.54L74.03 23.8L74.79 25.34L73.35 26.26L71.95 24.55V24.54ZM89.1 17.24C89.51 17.69 89.69 18.19 89.69 18.74C89.3 18.6 89.12 18.17 89.1 17.24ZM87.22 20.18C86.67 20.56 86.18 21.11 85.61 20.36C85.48 20.39 85.37 20.41 85.24 20.43C86.07 19.14 86 19.36 87.22 20.18ZM82.62 24.86C82.99 24.99 83.33 25.18 83.71 24.82C83.35 24.82 83.24 24.57 83.14 24.33C82.97 23.11 84.95 23.54 85.69 23.63C87.55 24.76 90.72 24.04 89.62 21.35C90.48 21.88 90.19 23.36 89.53 23.93C87.81 24.86 86.18 24.16 84.46 25.98C84.2 25.15 83.21 25.19 82.85 26.11C82.52 26.13 82.44 26.13 82.13 26.15C82.07 25.67 82.46 25.32 82.62 24.86ZM89.12 32.83C89.04 32.93 88.89 33.13 88.89 33.13C87.46 31.5 82.63 29.62 80.54 29.93C80.54 29.93 80.57 29.69 80.58 29.56H80.57L81.36 29.06L80.68 28.5C80.68 28.42 80.25 25.67 80.25 25.67L81.45 25.63C81.45 25.63 81.02 26.13 81 26.53C81.07 26.58 81.12 26.65 81.17 26.73C81.41 26.63 81.67 26.13 81.67 26.13L81.78 27.75C81.78 27.75 81.45 27.28 81.21 27.2C81.19 27.26 81.17 27.32 81.12 27.36C81.47 28.44 83.04 28.5 83.04 27.58C82.99 27.1 82.46 27.18 82.49 27.69C81.63 27 82.79 25.91 83.27 27.01C83.21 26.38 83.27 26.02 83.75 25.71C84.07 26.12 84.03 26.51 83.68 27.12C84.74 26.14 85.14 27.8 84.15 28.05C84.64 27.17 83.24 27.45 83.75 28.37C84.22 29.09 85.36 28.98 85.76 28.2C85.73 28.15 85.71 28.1 85.7 28.05C85.3 27.97 84.71 28.31 84.71 28.31L85.26 26.81C85.26 26.81 85.49 27.45 85.82 27.65C85.88 27.59 85.96 27.55 86.04 27.53C86.1 27.14 85.71 26.52 85.71 26.52L87.55 27.23C87.55 27.23 86.82 27.41 86.59 27.74C86.64 27.81 86.66 27.89 86.67 27.97C87.05 28.05 87.67 27.73 87.67 27.73L87.01 29.19C87.01 29.19 86.82 28.55 86.48 28.34C86.44 28.37 86.38 28.39 86.33 28.41C86.07 29.25 86.83 30.08 87.67 29.87C88.68 29.56 87.88 28.41 87.6 29.37C87.05 28.52 88.53 27.59 88.6 29.01C88.78 28.33 89.02 28.02 89.55 27.94C89.69 28.49 89.47 28.79 88.98 29.21C90.12 28.73 90.17 30.31 89.07 30.22C89.45 29.87 89.12 29.46 88.74 29.77C88.08 30.46 89.31 31.44 90.27 30.95C90.27 30.89 90.29 30.83 90.31 30.78C90.07 30.61 89.51 30.6 89.51 30.6L90.69 29.73C90.69 29.73 90.55 30.26 90.66 30.53C90.75 30.52 90.84 30.53 90.92 30.56C91.17 30.31 91.19 29.62 91.19 29.62L92.07 30.72C92.07 30.72 89.86 31.74 89.47 32.03L88.86 31.97L89.16 32.83H89.14H89.12ZM93.45 37.83C93.45 37.83 93.4 37.82 93.37 37.8L92.08 36.92C92 36.86 91.97 36.75 92.02 36.65C92.26 36.65 92.53 36.51 92.49 36.22C92.59 36.35 93.98 37.09 93.87 37.31C93.59 37.28 93.36 37.53 93.46 37.83H93.45Z" fill="#0B0C0C"></path>
		<path d="M77.77 32.13C77.88 32.23 77.97 32.33 78.06 32.43C78.2 32.47 78.43 32.55 78.48 32.35L78.81 31.07C78.66 31.21 78.41 31.22 78.28 31.04C78.18 30.92 78.16 30.75 78.24 30.63C78.08 30.6 77.82 32.05 77.77 32.14V32.13Z" fill="#0B0C0C"></path>
		<path d="M58.84 67.39C55.19 65.94 52.53 69.48 55.52 70.08C52.25 70.22 52.88 65.62 51.53 65.89C52.71 67.16 52.71 69.54 53.8 70.2C56 71.13 58.28 71.29 60.64 71.18C59.45 70.13 59.17 68.8 58.84 67.39Z" fill="#0B0C0C"></path>
		<path d="M69.99 70.03C72.96 69.44 70.33 65.9 66.67 67.34C66.35 68.75 66.06 70.07 64.87 71.13C67.22 71.24 69.51 71.09 71.71 70.15C72.8 69.49 72.8 67.12 73.98 65.84C72.63 65.57 73.26 70.17 69.99 70.03Z" fill="#0B0C0C"></path>
		<path d="M94.02 40.29L93.93 41.48C93.93 41.55 93.95 41.62 93.99 41.66C94.16 41.52 94.42 41.58 94.54 41.75C94.73 41.7 94.67 41.1 94.71 40.96C94.49 40.73 94.27 40.5 94.03 40.29H94.02Z" fill="#0B0C0C"></path>
		<path d="M93.71 44.03C93.54 44.06 93.35 43.97 93.28 43.81C93.06 43.72 92.47 45.37 92.37 45.48C92.66 45.3 93.03 45.6 92.94 45.94C92.97 45.92 93 45.89 93.01 45.85C93.03 45.68 93.95 44.16 93.71 44.03Z" fill="#0B0C0C"></path>
		<path d="M103.45 38.84C102.69 39.07 102.37 39.71 102.08 40.43C100.16 37.44 96.51 35.37 95.95 31.7C96.38 28.77 100.26 29.44 99.47 32.49C101.48 31.41 100.51 29.39 98.61 29.04C100.67 29.2 101.8 30.95 103.21 28.05C101.99 28.49 100.13 28.18 99.49 28.08C102.06 27.73 103.45 27.76 103.37 24.57C102.5 26.48 100.08 26.51 98.32 27.13C98.43 26.28 98.17 25.76 97.49 25.49C98.19 30.15 89.36 28.63 99.06 38.68C97.87 38.02 96.49 38.25 95.33 37.51C96.23 39.93 97.74 39.51 99.73 40.35C97.6 40.34 96.94 42.42 98.52 43.41C98.11 41.81 100.31 40.7 101.42 41.95C103.94 45.19 99.33 49.68 95.24 41.57C95.27 42.02 94.96 42.42 94.52 42.28L94.06 43.56C95 43.91 93.56 45.71 93.46 46.24C93.3 46.59 92.93 46.69 92.66 46.5L92.21 47.44C92.78 47.96 91.25 49.43 91.08 49.89C90.9 50.15 90.59 50.24 90.36 50.1L90.2 50.44L90.26 50.51C91.29 51.73 91.77 52.68 91.49 53.98C92.33 53.26 92.7 51.27 92.03 50.18C92.79 50.97 93.89 51.54 94.33 52.55C94.77 54.39 94.43 56.21 93.18 57.66C92.65 58.19 92.79 58.47 92.72 59.13C92.37 60.17 91.13 60.25 90.66 61.13C90.33 61.9 89.79 62.53 89.55 63.34C90.96 63.12 90.72 61.16 92.05 60.76C91.51 61.58 90.99 62.33 90.62 63.29C91.73 63 93.83 62.7 93.48 61.13C93.22 60.41 93.92 59.93 93.88 59.24C94.76 58.92 94.56 58.57 94.98 57.88C95.18 58.3 95.18 58.65 95.16 59.1C95.05 58.87 94.98 58.73 94.91 58.57C94.29 59.42 94.81 60.24 94.72 61.14C97.79 58.39 93.71 58.41 96.9 52.31C97.63 51.1 94.82 51.23 94.61 48.49C94.41 47.3 95.45 46.33 95.68 45.2C96.91 47.38 101.2 47.31 100.61 50.1C101.47 49.45 101.44 48.26 101.1 47.36C105.52 45.77 102.03 41.7 103.46 38.81L103.45 38.84Z" fill="#0B0C0C"></path>
		<path d="M91.43 47.56C91.33 47.46 91.17 47.41 91.07 47.56C91.03 47.74 89.82 49.11 90.13 49.29C90.18 49.29 90.23 49.29 90.28 49.32C90.38 49.36 90.46 49.43 90.5 49.54C90.57 49.55 90.65 49.51 90.7 49.44C90.73 49.33 91.82 47.91 91.7 47.81C91.58 47.77 91.47 47.69 91.43 47.56Z" fill="#0B0C0C"></path>
		<path d="M89.64 49.61C89.64 49.61 89.68 49.67 89.7 49.7L89.72 49.66L89.65 49.61H89.64Z" fill="#0B0C0C"></path>
		<path d="M46.19 52.36C45 53.82 42.94 52.93 41.64 52.03C40.58 51.25 42.86 50.04 42.13 47.45C43.15 49.09 41.3 50.5 44.15 51.42C43.33 50.2 43.44 48.62 43.13 47.21C43.09 46.97 42.97 46.73 43.17 46.48C43.27 46.14 43.29 45.69 42.83 45.64C39.65 43.81 40.29 44.7 37.19 44.28C36.43 45.62 38.05 46.82 37.79 48.13C37.56 48.77 38.54 48.75 38.53 49.37C38.75 50.35 38.64 51.72 37.52 52.1C36.97 52.43 37.41 53.14 37.89 53.31C36.9 55.09 37.66 55.37 39.17 56.26C39.17 55.57 39.19 54.97 39.48 54.39C41.56 55.77 38.46 56 42.59 57.68C42.17 56.99 42.18 56.24 42.12 55.55C42.51 55.64 42.89 55.73 43.28 55.82C43.73 57.73 44.76 57.9 46.58 57.73C45.93 57.08 45.74 56.24 45.27 55.57C45.82 55.76 46.36 55.38 46.83 55.8C47.27 55.88 47.76 55.97 48.19 55.77C47.52 54.63 46.86 53.51 46.18 52.35L46.19 52.36Z" fill="#0B0C0C"></path>
		<path d="M89.19 43.89C87.76 44.9 87.09 43.27 84 45.17C83.43 45.26 83.31 45.5 83.41 46.05C82.78 47.41 82.76 49.06 81.69 50.21C84 49.56 83.49 48.68 84.05 46.92C83.94 49.3 84.05 49.27 84.92 50.9C83.14 52.15 80.22 51.1 79.25 53.53C79.52 53.84 79.87 53.53 80.23 53.61C80 53.89 79.9 54.22 79.53 54.47C79.61 54.24 79.66 54.09 79.71 53.94C79.04 53.72 78.49 55.24 78 55.73C82.76 54.77 77.42 53.37 86.81 52.28C88.47 51.5 85.24 50.28 88.5 48.21C88.79 47.08 88.97 45.92 89.58 44.91C89.73 44.58 89.5 44.11 89.19 43.87V43.89Z" fill="#0B0C0C"></path>
		<path d="M44.66 20.15C43.93 20.34 42.63 20.95 42.63 20.95C42 20.71 42.27 21.02 42.36 21.33C40.34 21.7 38.35 22.23 36.75 23.57C36.46 23.78 36.33 23.65 36.24 23.24C36.05 22.95 35.96 23.45 35.93 23.58C35.93 23.58 34.72 23.88 34.19 24.33C34.56 24.95 35.09 25.92 35.93 25.6C35.95 25.28 35.97 24.98 35.99 24.64C35.63 24.58 35.3 24.52 34.93 24.46C35.36 24.13 35.89 24.05 36.31 24.22C35.95 25.76 36.6 26.84 38.24 26.93C38.74 26.18 39.19 26.07 39.68 26.6C37.51 26.38 39.12 28.67 40.23 27.89C40.52 27.46 41.46 27.09 41.19 26.49C39.47 25.23 39.59 27.09 39.27 23.98C39.2 23.98 39.12 23.97 39.05 23.96C38.89 24.55 38.31 25.01 37.83 24.45C37.67 24.26 37.52 24.09 37.25 24.04C38.43 23.1 39.83 24.46 39.74 22.25C41.05 23.9 41.17 22.07 42.47 22.04C42.41 23.34 42.14 23.24 41.02 23.17C41.39 23.45 42.79 24.85 41.97 24.98C41.63 24.11 41.06 23.26 40.09 23.08C39.31 23.86 39.69 24.74 39.81 25.64C40.5 25.4 41.1 24.95 41.83 25.01C42.08 25.73 40.92 26.13 41.58 26.84C42.7 27.02 43.92 27.03 43.56 25.44C43.2 25.22 42.83 25.07 42.45 25.47C42.47 24.85 43.07 24.75 43.54 24.87C44.57 23.77 44.23 22.31 43.12 21.43C43.41 21 43.72 20.7 44.26 20.59C44.08 20.96 43.7 21.1 43.62 21.44C43.87 21.74 44.1 22.03 44.33 22.31C44.93 22.05 45.08 21.11 44.66 20.16V20.15Z" fill="#0B0C0C"></path>
		<path d="M47.51 28.85C47.67 26.44 46.6 25.24 44.26 24.87C44.26 24.84 44.27 24.8 44.28 24.77C45.25 24.72 46.22 24.73 47.13 25.32C46.89 24.57 46.28 23.47 45.4 23.57C45.72 22.91 45.71 22.47 45.4 22.07C45.25 22.53 44.96 22.82 44.48 22.84C44.58 23.67 44.31 24.37 43.85 24.98C44.04 25.89 43.78 26.66 43.18 27.38C44.08 28.99 45.6 30.21 46.28 31.95C47.78 29.14 46.18 28.2 44.11 26.66C45.44 27.14 46.77 27.59 47.51 28.85Z" fill="#0B0C0C"></path>
		<path d="M40.01 28.52C39.4 28.17 38.71 28.08 38.3 27.57C38.19 27.33 37.98 27.24 37.76 27.19C37.05 27.04 36.39 26.8 36.03 26.21C35.51 26.37 35.19 26.35 34.72 26.15C34.68 26.74 35.18 27.33 35.84 27.11C35.31 27.88 35.6 28.58 35.8 29.37C36.18 28.57 36.76 28.09 37.41 27.69C36.91 28.54 36.03 29.39 36.43 30.45C36.71 31.12 37.12 31.9 37.81 32.18C37.46 30.85 38.35 29.7 38.77 28.5C38.77 31.26 37.21 32.76 41 33.78C39.99 32.15 40.66 30.18 40.02 28.51L40.01 28.52Z" fill="#0B0C0C"></path>
		<path d="M51.19 57.57C46.62 53.31 44.91 47.78 45.31 41.64C45.2 41.58 45.06 41.52 44.83 41.4C44.06 47.92 46.58 54.49 51.64 58.69C52.15 58.21 51.46 57.94 51.18 57.57H51.19Z" fill="#0B0C0C"></path>
		<path d="M92.48 23.28C92.05 24.12 93.3 24.47 93.32 25.26C92.99 25 92.71 24.77 92.39 24.52C91.99 26.07 93.82 26.57 94.39 27.79C95.13 25.53 94.73 24.15 92.49 23.28H92.48Z" fill="#0B0C0C"></path>
		<path d="M42.95 27.36C42.71 27.41 42.48 27.07 42.19 27.34C42.46 28.09 43.46 29.6 42.23 29.95C41.02 30.02 41.2 28.5 40.84 27.65C40.62 27.9 40.44 28.11 40.24 28.33C40.49 29.18 40.74 30.02 41.01 30.93C41.21 30.79 41.38 30.67 41.56 30.54C42.41 31.14 43.18 30.73 43.46 29.79C43.71 29.85 43.94 29.96 44.12 29.78C43.72 28.96 43.34 28.17 42.95 27.37V27.36Z" fill="#0B0C0C"></path>
		<path d="M91.76 18.47C91.9 17.82 91.73 17.2 91.32 16.96C91.32 17.53 91.09 17.95 90.57 18.17C90.31 19.31 91.5 19.25 92.25 19.49C92.25 19.52 92.24 19.56 92.23 19.59C91.85 19.57 91.47 19.55 91.07 19.53C91.5 20.9 93.09 20.24 94.09 20.86C93.51 19.76 93.1 18.69 91.76 18.48V18.47Z" fill="#0B0C0C"></path>
		<path d="M92.32 25.94C91.87 26.8 92.5 27.63 92.72 28.44C92.69 28.45 92.66 28.46 92.63 28.48C92.39 28.11 92.15 27.74 91.91 27.38C91.88 27.38 91.85 27.39 91.82 27.4C91.54 28.61 92.39 29.67 92.91 30.7C93.82 29.07 93.79 27.23 92.32 25.94Z" fill="#0B0C0C"></path>
		<path d="M91.57 20.55C92.09 21.79 92.93 21.5 93.47 22.31C93.01 22.16 92.61 22.03 92.22 21.9C92.19 23.22 93.86 23.36 94.78 23.87C94.63 21.73 93.59 20.91 91.57 20.55Z" fill="#0B0C0C"></path>
		<path d="M85.18 16.73C85.55 17.41 86.03 18.07 86.77 18.3C87.34 18.3 88.16 18.66 88.63 18.34C88.64 16.53 86.44 16.77 85.18 16.73Z" fill="#0B0C0C"></path>
		<path d="M80.5 44.07C80.03 44.03 79.59 44 79.07 43.96C79.09 44.21 79.1 44.4 79.12 44.6C79.4 44.67 79.65 44.73 79.91 44.8C79.99 46.29 79.17 46.31 78.06 45.69C77.73 47.58 80.77 47.39 80.5 44.07Z" fill="#0B0C0C"></path>
		<path d="M80.25 40.72C79.75 40.57 79.26 40.39 78.81 40.08C79.13 39.68 79.43 39.31 79.75 38.92C79.66 38.66 79.57 38.38 79.44 38.03C77.76 40.09 77.75 40.38 80.31 41.27C80.29 41.04 80.27 40.89 80.25 40.71V40.72Z" fill="#0B0C0C"></path>
		<path d="M71.41 28.84C71.13 29.67 70.4 30.08 69.98 30.78C70.65 30.73 71.04 30.52 71.43 29.99C71.5 30.19 71.56 30.37 71.62 30.55C71.9 30.53 72.15 30.51 72.39 30.49C72.66 29.49 72.09 29.38 71.4 28.84H71.41Z" fill="#0B0C0C"></path>
		<path d="M76.31 32.31C76 32.49 75.34 32.42 75.4 32.91C75.4 33.63 75.4 34.36 75.4 35.08L75.49 35.11C75.73 34.45 76.99 32.82 76.31 32.31Z" fill="#0B0C0C"></path>
		<path d="M85.86 15.27C85.88 16.5 87.15 16.5 88.05 16.61C88.08 16.57 88.1 16.54 88.13 16.5C87.42 15.49 87.11 15.28 85.86 15.27Z" fill="#0B0C0C"></path>
		<path d="M84.85 13.57C84.8 14.44 85.53 14.94 86.73 14.87C86.42 13.99 85.79 13.52 84.85 13.57Z" fill="#0B0C0C"></path>
		<path d="M79.27 22.49C79.55 23.86 81.18 22.86 82.04 22.58C81.06 22.12 80.26 22.7 79.27 22.49Z" fill="#0B0C0C"></path>
		<path d="M83.9 12.19C84.15 13.06 84.49 13.25 85.39 13.12C85.1 12.4 84.64 12.11 83.9 12.19Z" fill="#0B0C0C"></path>
		<path d="M83.12 10.97C83.42 11.71 83.86 11.98 84.38 11.73C84.03 10.99 83.85 10.89 83.12 10.97Z" fill="#0B0C0C"></path>
		<path d="M80.51 36.04C80.39 35.91 80.14 35.91 79.95 35.86C79.93 35.89 79.91 35.91 79.89 35.94C80.12 36.34 80.36 36.74 80.58 37.12C81.48 37.12 80.72 36.37 80.51 36.04Z" fill="#0B0C0C"></path>
		<path d="M78.37 35.78C77.97 36.17 77.04 36.29 77.29 36.97C77.75 36.7 78.23 36.5 78.64 36.17C78.54 36.03 78.47 35.93 78.36 35.78H78.37Z" fill="#0B0C0C"></path>
		<path d="M82.26 9.61999C82.32 10.14 82.87 10.6 83.29 10.53C83.42 10.06 82.74 9.42999 82.26 9.61999Z" fill="#0B0C0C"></path>
		<path d="M72.95 36.77V36.78L72.96 36.77H72.95Z" fill="#0B0C0C"></path>
		<path d="M37.61 18.24C37.36 18.47 37.73 18.86 37.98 18.62C38.23 18.39 37.85 18.01 37.61 18.24Z" fill="#0B0C0C"></path>
		<path d="M37.94 18.93C37.69 19.16 38.06 19.55 38.31 19.31C38.56 19.08 38.18 18.7 37.94 18.93Z" fill="#0B0C0C"></path>
		<path d="M37.8 17.23L37.13 16.43C37.15 16.41 37.16 16.38 37.16 16.35L37.8 16.42L37.49 15.64L37.03 16.02C37.03 16.02 36.98 15.99 36.95 15.99L36.9 15.23C36.71 15.31 36.32 15.46 36.13 15.53L36.61 16.12C36.61 16.12 36.59 16.17 36.58 16.19L35.98 16.24L36.29 17.02L36.71 16.53C36.71 16.53 36.76 16.56 36.79 16.56C36.79 16.56 36.85 17.6 36.85 17.61C36.96 18.53 38.35 17.96 37.79 17.23H37.8Z" fill="#0B0C0C"></path>
		<path d="M34.89 19.69C34.51 19.69 34.5 20.28 34.89 20.28C35.28 20.29 35.28 19.69 34.89 19.69Z" fill="#0B0C0C"></path>
		<path d="M34.83 20.46C34.45 20.46 34.44 21.05 34.83 21.05C35.22 21.06 35.22 20.46 34.83 20.46Z" fill="#0B0C0C"></path>
		<path d="M36.06 17.81C35.68 17.81 35.67 18.4 36.06 18.4C36.45 18.41 36.45 17.81 36.06 17.81Z" fill="#0B0C0C"></path>
		<path d="M35.13 18.98C34.75 18.98 34.74 19.57 35.13 19.57C35.52 19.58 35.52 18.98 35.13 18.98Z" fill="#0B0C0C"></path>
		<path d="M42.16 18.75L41.51 18.77C41.68 19.04 41.74 19.17 41.75 19.38C41.62 19.33 41.46 19.19 41.29 18.96L41.38 19.99C41.5 19.81 41.6 19.68 41.75 19.62C41.75 20.6 40.97 20.96 40.69 20.27C40.64 19.97 40.9 19.78 41.16 20.05C41.21 19.43 40.71 19.44 40.49 19.7C40.75 19.1 40.65 18.71 40.12 18.38C39.79 18.94 39.92 19.3 40.34 19.73C39.93 19.52 39.56 19.87 39.93 20.32C40.01 19.93 40.35 20.02 40.43 20.33C40.49 21.2 38.97 21.44 38.81 20.52C38.95 20.43 39.28 20.46 39.63 20.7L39.33 19.69C39.18 20.05 38.97 20.19 38.72 20.3C38.7 20 38.92 19.42 38.92 19.42C38.62 19.54 38.01 19.78 37.7 19.9C37.7 19.9 38.26 20.18 38.45 20.41C38.19 20.5 37.95 20.54 37.59 20.38L38.06 21.32C38.16 20.9 38.38 20.66 38.54 20.63C39.05 21.42 37.78 22.28 37.23 21.61C37.07 21.33 37.26 21.03 37.59 21.26C37.54 20.68 37.04 20.68 36.88 21.11C36.89 20.51 36.74 20.15 36.12 19.97C35.96 20.57 36.16 20.93 36.75 21.18C36.41 21.14 36.04 21.47 36.5 21.89C36.5 21.51 36.82 21.47 36.99 21.73C37.26 22.43 36.44 22.69 35.77 21.99C35.92 21.93 36.08 21.96 36.29 22.01L35.65 21.2C35.68 21.49 35.66 21.69 35.6 21.82C35.46 21.66 35.42 21.52 35.36 21.21L34.87 21.64C35.34 21.93 35.86 22.4 36.5 23.31C37.35 22.47 40.78 21.04 42.1 21.08C41.94 19.97 42 19.28 42.14 18.74L42.16 18.75Z" fill="#0B0C0C"></path>
		<path d="M57.33 45.01C55.84 45.45 54.46 43.27 53.14 44.46C52.61 44.93 52.96 45.96 53.67 45.99C54.3 46.01 54.48 45.14 53.92 44.87C55.15 44.45 54.56 46.43 54.11 46.94C52.7 46.21 52.47 48.48 53.86 47.89C53.92 48.3 53.94 48.7 53.84 49.09C52.32 48.76 52.72 50.95 53.86 50.07C54.19 50.38 54.34 50.87 54.38 51.33C52.85 51.55 54.07 53.51 54.78 52.2C55.24 52.47 55.75 52.76 56.22 53.03C55.07 54.42 57.13 55.03 57.02 53.67C57.79 54 60.81 54.93 59.6 53.12C55.64 53.25 53.62 49.09 55.81 45.91C57.14 46.52 61.83 44.24 61.44 46.56C61.69 46.82 61.76 46.84 62.31 46.84C63.67 43.73 59 44.66 57.32 45.02L57.33 45.01Z" fill="#0B0C0C"></path>
		<path d="M61.89 48.24C61.76 48.25 60.86 55.88 60.39 55.44C60.48 54.94 61.58 48.24 61.58 48.24C61.58 48.24 61.25 48.19 61.09 48.17C61.06 48.33 61.03 48.52 61.03 48.52L59.21 46.13L58.97 46.24L60.92 48.8L60.79 49.25C60.61 49.13 58.73 46.52 58.54 46.28L58.16 46.25L60.69 49.56L60.56 50L57.72 46.27H57.36L60.44 50.32L60.28 50.9L56.9 46.31H56.45L60.19 51.25L60.05 51.71L55.93 46.32L55.86 46.73C55.86 46.73 59.7 51.78 59.93 52.11C59.73 52.73 59.88 52.79 60.15 53.3C60.3 53.87 59.9 54.77 59.22 54.56C59.16 54.54 59.09 54.52 59.01 54.49C58.9 54.78 58.74 55.3 58.99 55.48L60.27 56.03L61.92 54.81L62.37 48.19L61.88 48.23L61.89 48.24Z" fill="#0B0C0C"></path>
		<path d="M55.67 47.24C55.67 47.24 55.59 47.49 55.56 47.6C55.85 47.98 59.34 52.61 59.34 52.61L59.61 52.48L55.66 47.25L55.67 47.24Z" fill="#0B0C0C"></path>
		<path d="M55.51 48.3C55.51 48.3 55.45 48.74 55.66 49C56.57 50.16 57.47 51.33 58.35 52.5C58.48 52.52 58.73 52.57 58.73 52.57L55.51 48.3Z" fill="#0B0C0C"></path>
		<path d="M62.54 47.06C62.1 47.02 61.64 46.94 61.21 46.9C60.38 47.62 61.31 48.04 61.93 47.98C62.46 48.12 63.17 47.42 62.53 47.06H62.54Z" fill="#0B0C0C"></path>
		<path d="M62.4 65.73C62.27 66.32 63.2 66.51 63.31 65.92C63.44 65.33 62.51 65.14 62.4 65.73Z" fill="#0B0C0C"></path>
		<path d="M62.11 61.95C61.95 62.68 63.1 62.92 63.24 62.18C63.4 61.45 62.25 61.21 62.11 61.95Z" fill="#0B0C0C"></path>
		<path d="M58.17 60C58.01 60.73 59.16 60.97 59.3 60.23C59.46 59.5 58.31 59.26 58.17 60Z" fill="#0B0C0C"></path>
		<path d="M64.85 67.65C64.54 67.46 64.14 67.27 63.76 67.27C63.56 67.27 63.36 67.32 63.19 67.46C64.39 67.94 63.96 69.75 62.79 69.76C61.62 69.76 61.19 67.94 62.39 67.46C62.22 67.32 62.03 67.27 61.82 67.27C61.44 67.27 61.04 67.46 60.73 67.65C60.38 67.2 60.04 66.75 59.39 66.68C59.75 70.01 61.27 71.68 62.79 71.68C64.31 71.68 65.83 70.01 66.19 66.68C65.53 66.75 65.19 67.19 64.85 67.65ZM62.79 71.23C61.67 71.23 60.41 70.04 59.94 67.4C60.08 67.53 60.22 67.7 60.38 67.92L60.63 68.24L60.97 68.03C61.12 67.94 61.26 67.86 61.39 67.81C61.24 68.12 61.19 68.48 61.26 68.85C61.41 69.64 62.04 70.2 62.79 70.2C63.54 70.2 64.17 69.64 64.32 68.85C64.39 68.47 64.34 68.11 64.19 67.81C64.32 67.86 64.47 67.94 64.61 68.03L64.95 68.24L65.2 67.92C65.36 67.71 65.5 67.54 65.64 67.4C65.17 70.04 63.91 71.23 62.79 71.23Z" fill="#0B0C0C"></path>
		<path d="M53.8 56.22C53.59 56.09 53.33 56.13 53.19 56.31C52.69 56.89 54.42 57.69 54.66 58.01C54.87 58.18 55.17 58.15 55.32 57.96C55.82 57.36 54.06 56.56 53.8 56.23V56.22Z" fill="#0B0C0C"></path>
		<path d="M54.87 56.48C55.76 56.96 56.53 58.24 55.15 58.61C54.63 58.72 54.09 58.15 53.71 57.88C53.72 58.63 54.34 59.24 55.1 59.24C57.05 59.24 56.8 56.15 54.88 56.48H54.87Z" fill="#0B0C0C"></path>
		<path d="M56.62 54.76C55.86 54.51 53.48 55.05 52.68 55.08C52.14 55.15 51.75 55.63 51.8 56.18C51.92 56.76 51.9 59.28 52.33 59.75C52.76 60.57 55.27 62.78 55.95 61.74C54.72 61.12 52.65 59.59 53.45 57.65C51.65 56.55 53.24 54.78 54.64 56.28C56.13 55.36 57.79 56.02 59.27 57.04C59.8 55.9 57.23 55.11 56.63 54.77L56.62 54.76Z" fill="#0B0C0C"></path>
		<path d="M66.7 8.96997C66.61 9.22997 66.52 9.49997 66.44 9.79997C69.84 10.65 72.7 12.96 74.42 16.08L75.53 16.43C73.78 12.74 70.57 9.95997 66.7 8.96997Z" fill="#0B0C0C"></path>
		<path d="M60.36 8.96997C56.49 9.96997 53.28 12.74 51.53 16.43L52.64 16.08C54.36 12.96 57.23 10.65 60.62 9.79997C60.54 9.50997 60.46 9.22997 60.36 8.96997Z" fill="#0B0C0C"></path>
		<path d="M71.89 9.22998C71.1 9.21998 71.1 10.46 71.89 10.45C72.68 10.46 72.68 9.21998 71.89 9.22998Z" fill="#0B0C0C"></path>
		<path d="M69.08 7.63C68.29 7.62 68.29 8.86 69.08 8.85C69.87 8.86 69.87 7.62 69.08 7.63Z" fill="#0B0C0C"></path>
		<path d="M67.56 7.08002C66.77 7.07002 66.77 8.31002 67.56 8.30002C68.35 8.31002 68.35 7.07002 67.56 7.08002Z" fill="#0B0C0C"></path>
		<path d="M70.53 8.34997C69.74 8.33997 69.74 9.57997 70.53 9.56997C71.32 9.57997 71.32 8.33997 70.53 8.34997Z" fill="#0B0C0C"></path>
		<path d="M73.14 10.25C72.35 10.24 72.35 11.48 73.14 11.47C73.93 11.48 73.93 10.24 73.14 10.25Z" fill="#0B0C0C"></path>
		<path d="M76.31 16.06C76.3 16.85 77.54 16.85 77.53 16.06C77.54 15.27 76.3 15.27 76.31 16.06Z" fill="#0B0C0C"></path>
		<path d="M75.57 14.62C75.56 15.41 76.8 15.41 76.79 14.62C76.8 13.83 75.56 13.83 75.57 14.62Z" fill="#0B0C0C"></path>
		<path d="M74.28 11.39C73.49 11.38 73.49 12.62 74.28 12.61C75.07 12.62 75.07 11.38 74.28 11.39Z" fill="#0B0C0C"></path>
		<path d="M74.69 13.26C74.68 14.05 75.92 14.05 75.91 13.26C75.92 12.47 74.68 12.47 74.69 13.26Z" fill="#0B0C0C"></path>
		<path d="M55.18 9.22998C54.39 9.21998 54.39 10.46 55.18 10.45C55.97 10.46 55.97 9.21998 55.18 9.22998Z" fill="#0B0C0C"></path>
		<path d="M53.93 10.25C53.14 10.24 53.14 11.48 53.93 11.47C54.72 11.48 54.72 10.24 53.93 10.25Z" fill="#0B0C0C"></path>
		<path d="M50.15 15.45C49.36 15.44 49.36 16.68 50.15 16.67C50.94 16.68 50.94 15.44 50.15 15.45Z" fill="#0B0C0C"></path>
		<path d="M56.54 8.34997C55.75 8.33997 55.75 9.57997 56.54 9.56997C57.33 9.57997 57.33 8.33997 56.54 8.34997Z" fill="#0B0C0C"></path>
		<path d="M51.77 12.65C50.98 12.64 50.98 13.88 51.77 13.87C52.56 13.88 52.56 12.64 51.77 12.65Z" fill="#0B0C0C"></path>
		<path d="M50.88 14.01C50.09 14 50.09 15.24 50.88 15.23C51.67 15.24 51.67 14 50.88 14.01Z" fill="#0B0C0C"></path>
		<path d="M59.5 7.08002C58.71 7.07002 58.71 8.31002 59.5 8.30002C60.29 8.31002 60.29 7.07002 59.5 7.08002Z" fill="#0B0C0C"></path>
		<path d="M52.79 11.39C52 11.38 52 12.62 52.79 12.61C53.58 12.62 53.58 11.38 52.79 11.39Z" fill="#0B0C0C"></path>
		<path d="M57.98 7.63C57.19 7.62 57.19 8.86 57.98 8.85C58.77 8.86 58.77 7.62 57.98 7.63Z" fill="#0B0C0C"></path>
		<path d="M65.7 7.90999C64.73 10.04 64.58 12.97 64.58 14.53H65.39C65.39 11.95 65.76 9.71999 66.44 8.24999C66.67 7.76999 65.91 7.42999 65.7 7.90999Z" fill="#0B0C0C"></path>
		<path d="M61.36 7.90999C61.14 7.42999 60.39 7.76999 60.62 8.24999C61.29 9.72999 61.67 11.96 61.67 14.53H62.48C62.48 12.96 62.33 10.04 61.36 7.90999Z" fill="#0B0C0C"></path>
		<path d="M63.53 13.2C62.67 13.19 62.67 14.54 63.53 14.52C64.39 14.53 64.39 13.18 63.53 13.2Z" fill="#0B0C0C"></path>
		<path d="M63.53 11.54C62.67 11.53 62.67 12.88 63.53 12.86C64.39 12.87 64.39 11.52 63.53 11.54Z" fill="#0B0C0C"></path>
		<path d="M63.53 9.87998C62.67 9.86998 62.67 11.22 63.53 11.2C64.39 11.21 64.39 9.85998 63.53 9.87998Z" fill="#0B0C0C"></path>
		<path d="M63.06 9.57999C63.34 9.42999 63.72 9.42999 64 9.57999C64.95 8.11999 62.11 8.11999 63.06 9.57999Z" fill="#0B0C0C"></path>
		<path d="M63.01 8.18998C63.32 7.99998 63.76 7.99998 64.06 8.18998C64.8 6.81998 62.27 6.81998 63.01 8.18998Z" fill="#0B0C0C"></path>
		<path d="M65.54 3.72H65.76V0.72H65.54C65.44 1.27 64.78 1.71 63.94 1.82C64.05 0.97 64.49 0.32 65.04 0.22V0H62.04V0.22C62.59 0.32 63.03 0.98 63.14 1.82C62.29 1.71 61.64 1.27 61.54 0.72H61.32V3.72H61.54C61.64 3.17 62.3 2.73 63.14 2.62C63.03 3.47 62.59 4.12 62.04 4.22V4.44H63.11C63.06 4.48 63.01 4.52 62.98 4.57C61.06 5 60.87 7.92 62.7 8.61C61.99 7.92 62.53 6.59 63.54 6.63C64.55 6.6 65.1 7.92 64.38 8.61C66.21 7.92 66.01 5 64.1 4.57C64.06 4.52 64.02 4.48 63.97 4.44H65.04V4.22C64.49 4.12 64.05 3.46 63.94 2.62C64.79 2.73 65.44 3.17 65.54 3.72Z" fill="#0B0C0C"></path>
		<path d="M89.45 49.26C89.47 49.4 89.53 49.52 89.64 49.6C89.57 49.49 89.51 49.37 89.45 49.26Z" fill="#0B0C0C"></path>
		<path d="M49.31 46.72C49.14 46.68 47.04 47.07 47.04 47.07C47.04 47.07 49.04 44.74 48.99 44.47L45.59 44.85L45.66 45.44C45.82 45.42 47.66 45.16 47.66 45.16C47.66 45.16 46 47.04 45.92 47.07L46.11 47.8L49.48 47.38L49.32 46.72H49.31Z" fill="#0B0C0C"></path>
		<path d="M52.12 53.09C51.9 53.45 51.41 53.8 51.04 54.07L50.17 52.86C50.54 52.58 51.03 52.23 51.44 52.14L50.87 51.35C50.27 52.09 49.02 52.99 48.13 53.33L48.7 54.12C48.92 53.76 49.4 53.41 49.78 53.15L50.65 54.36C50.28 54.64 49.8 54.98 49.39 55.08L49.96 55.87C50.56 55.13 51.81 54.23 52.7 53.89L52.13 53.1L52.12 53.09Z" fill="#0B0C0C"></path>
		<path d="M45.63 42.59L45.58 43.31C46.54 43.13 48.09 43.13 49.05 43.31L49.1 42.59C48.14 42.77 46.59 42.77 45.63 42.59Z" fill="#0B0C0C"></path>
		<path d="M72.79 55.86C71.81 55.58 73.05 54.59 73.69 54.81H73.71L73.22 54.22C72.49 54.54 71.32 55.52 71.94 56.36C72.37 56.91 73.24 56.32 73.81 56.33C74.75 56.5 73.74 57.48 73.16 57.43L73.53 57.88C75.59 56.98 75.13 54.93 72.8 55.87L72.79 55.86Z" fill="#0B0C0C"></path>
		<path d="M76.54 47.8L75.98 49.69L76.54 50.16H76.55C76.51 49.72 76.57 49.23 76.73 48.69L77.75 48.99C77.65 49.28 77.47 49.96 77.33 50.13L77.84 50.21L78.16 49.11L79.13 49.39C79.01 49.75 78.85 50.04 78.65 50.25L79.17 50.73L79.76 48.74C79.46 48.76 76.79 47.98 76.55 47.81L76.54 47.8Z" fill="#0B0C0C"></path>
		<path d="M78.13 52.74L75.49 50.97L75.2 51.52C75.3 51.65 77.02 52.67 77.02 52.67C77.02 52.67 74.18 53.04 74.05 53.26L76.69 55.07L77 54.63C76.87 54.54 75.42 53.6 75.42 53.6C75.42 53.6 77.75 53.33 77.82 53.36L78.14 52.74H78.13Z" fill="#0B0C0C"></path>
		<path d="M70.64 55.97L68.9 56.98L68.98 57.7H68.99C69.27 57.36 69.65 57.04 70.15 56.75L70.69 57.64C70.41 57.79 69.8 58.16 69.57 58.2L69.89 58.59L70.91 58L71.43 58.85C71.09 59.04 70.77 59.14 70.47 59.16L70.52 59.85L72.36 58.79C72.13 58.61 70.69 56.27 70.64 55.99V55.97Z" fill="#0B0C0C"></path>
		<path d="M50.02 36.61C49.47 36.18 48.76 36.95 48.21 37.08C47.25 37.14 48.01 35.94 48.59 35.86L48.13 35.51C47.26 35.95 46.61 37.83 48.01 37.87C48.31 37.88 49.07 37.36 49.31 37.3C49.97 37.18 49.76 38.06 49.36 38.27C49.56 38.27 49.76 38.23 49.95 38.28C50.32 37.77 50.55 37.02 50.02 36.61Z" fill="#0B0C0C"></path>
		<path d="M50.7 33.25V32.61C48.3 32.47 48.33 36.28 50.7 36.2V35.6C49.17 35.5 48.85 32.85 50.7 33.25Z" fill="#0B0C0C"></path>
		<path d="M56.34 29.25L55.51 28.62L52.95 30.15L53.24 31.13H53.25C53.46 30.73 53.77 30.4 54.11 30.21C54.19 30.35 54.33 30.6 54.5 30.91C54.5 30.91 55.55 30.91 55.56 30.91C55.16 30.28 54.84 29.76 54.84 29.76C55.21 29.55 55.99 29.23 56.34 29.26V29.25Z" fill="#0B0C0C"></path>
		<path d="M61.98 30.47C61.73 30.39 61.39 30.2 60.97 29.87C62.26 28.1 59.59 26.28 58.25 27.89C56.97 29.23 58.69 31.33 60.28 30.43C60.83 30.72 61.48 30.89 61.99 30.48V30.46L61.98 30.47ZM60.03 29.96C58.89 30.43 57.8 28.43 59.07 27.95C60.2 27.48 61.31 29.46 60.03 29.96Z" fill="#0B0C0C"></path>
		<path d="M65.61 27.06H64.47C64.71 27.54 64.62 28.58 64.64 29.14C64.64 29.54 64.27 29.81 63.89 29.8C62.92 29.92 63.25 27.57 63.43 27.06H62.29C62.52 27.53 62.45 28.5 62.46 29.05C62.37 30.4 63.69 30.74 64.68 30.04C64.68 30.19 64.67 30.3 64.65 30.37H65.61C65.34 29.49 65.34 27.94 65.61 27.06Z" fill="#0B0C0C"></path>
		<path d="M67.33 27.49C67.33 28.37 66.87 29.73 66.57 30.57C66.7967 30.5967 67.03 30.6333 67.27 30.68C67.47 29.86 67.76 28.48 68.21 27.79L67.33 27.49Z" fill="#0B0C0C"></path>
		<path d="M74.45 42.07C74.45 41.88 74.25 41.75 74.07 41.81V41.85C73.74 43.33 73.9 37.24 73.87 37.47L74.17 37.59V36.88L73.87 37V32.52C73.91 32.29 74.26 32.49 74.07 32.63V32.67C74.48 32.8 74.6 32.14 74.16 32.13L74.44 31.65L74.37 31.59C74.37 31.59 73.88 31.86 73.87 31.86C73.87 31.45 73.17 31.55 73.3 31.95H73.34C73.49 31.77 73.7 32.09 73.46 32.14H69.32L69.45 31.86H68.7L68.83 32.14H64.7C64.45 32.1 64.66 31.77 64.81 31.95H64.85C64.99 31.55 64.29 31.45 64.28 31.86L63.78 31.59L63.71 31.65L63.99 32.13C63.55 32.13 63.67 32.8 64.08 32.67V32.63C64.4 31.15 64.25 37.21 64.28 37L63.99 36.88V37.59L64.28 37.47C64.25 37.36 64.41 43.29 64.08 41.85V41.81C63.67 41.68 63.54 42.34 63.99 42.35L63.71 42.83L63.78 42.89C63.78 42.89 64.27 42.62 64.28 42.62C64.28 43.03 64.98 42.93 64.85 42.53H64.81C64.75 42.63 64.58 42.58 64.58 42.46C64.58 42.4 64.63 42.35 64.69 42.34H68.83L68.7 42.62H69.45L69.32 42.34H73.45C73.51 42.34 73.56 42.4 73.56 42.46C73.56 42.58 73.39 42.63 73.33 42.53H73.29C73.16 42.93 73.86 43.03 73.86 42.62C73.86 42.62 74.35 42.89 74.36 42.89L74.43 42.83L74.15 42.35C74.31 42.35 74.44 42.23 74.44 42.07H74.45ZM73.58 42.07H64.58V37.21V32.41H73.58V42.07Z" fill="#0B0C0C"></path>
		<path d="M64.94 41.19V41.72H73.23V32.76H64.94V41.19ZM65.22 37.64V37.73C65.24 37.56 65.51 37.68 65.37 37.8L65.41 37.84C65.68 37.87 65.72 37.46 65.45 37.45L65.78 37.3V37.2L65.45 37.05C65.73 37.02 65.69 36.61 65.41 36.65L65.37 36.69C65.51 36.8 65.23 36.93 65.22 36.76C65.22 36.77 65.22 36.85 65.22 36.86V33.3H65.5V33.03H68.57C68.74 33.06 68.6 33.29 68.49 33.17L68.45 33.21C68.42 33.48 68.87 33.5 68.87 33.23L69.03 33.56H69.14L69.3 33.23C69.3 33.5 69.75 33.48 69.72 33.21L69.68 33.17C69.57 33.29 69.43 33.06 69.6 33.03H72.67V33.3H72.95C72.92 33.24 73.06 37.67 72.8 36.69L72.76 36.65C72.49 36.62 72.45 37.03 72.73 37.04L72.4 37.2V37.3L72.73 37.44C72.45 37.46 72.49 37.87 72.76 37.84L72.8 37.8C73.06 36.79 72.92 41.32 72.95 41.2H72.67V41.47H69.6C69.42 41.45 69.56 41.2 69.68 41.33L69.72 41.29C69.75 41.03 69.31 41 69.3 41.26L69.14 40.94H69.04L68.89 41.26C68.88 41 68.44 41.03 68.47 41.29L68.51 41.33C68.63 41.21 68.77 41.45 68.59 41.47H65.52V41.2H65.24V37.65L65.22 37.64Z" fill="#0B0C0C"></path>
		<path d="M36.49 18.4C35.77 18.92 35.35 19.79 35.32 20.75L35.52 20.58C35.6 19.75 35.99 19.02 36.62 18.56C36.58 18.5 36.53 18.45 36.49 18.4Z" fill="#0B0C0C"></path>
		<path d="M36.65 18.11C36.56 18.02 36.41 18.15 36.5 18.24C36.78 18.52 37.05 18.99 37.26 19.58L37.45 19.52C37.32 19.17 37.05 18.52 36.65 18.11Z" fill="#0B0C0C"></path>
		<path d="M35.53 18.34C35.15 18.34 35.14 18.93 35.53 18.93C35.92 18.94 35.92 18.34 35.53 18.34Z" fill="#0B0C0C"></path>
		<path d="M40.74 17.24C40.47 17.52 40.91 17.93 41.17 17.65C41.44 17.38 41 16.96 40.74 17.24Z" fill="#0B0C0C"></path>
		<path d="M41.34 17.74C41.07 18.02 41.51 18.43 41.77 18.15C42.04 17.88 41.6 17.46 41.34 17.74Z" fill="#0B0C0C"></path>
		<path d="M38.58 16.77C38.31 17.05 38.75 17.46 39.01 17.18C39.28 16.91 38.84 16.49 38.58 16.77Z" fill="#0B0C0C"></path>
		<path d="M40.07 16.92C39.8 17.2 40.24 17.61 40.5 17.33C40.77 17.06 40.33 16.64 40.07 16.92Z" fill="#0B0C0C"></path>
		<path d="M38.71 17.48C38.71 17.55 38.72 17.61 38.74 17.69C39.51 17.56 40.31 17.79 40.95 18.32L41.21 18.29C40.5 17.64 39.59 17.34 38.72 17.48H38.71Z" fill="#0B0C0C"></path>
		<path d="M38.54 17.39C38.54 17.26 38.34 17.27 38.34 17.4C38.34 17.97 38.62 18.62 38.78 18.96L38.96 18.87C38.69 18.31 38.54 17.79 38.54 17.39Z" fill="#0B0C0C"></path>
		<path d="M39.33 16.76C39.06 17.04 39.5 17.45 39.76 17.17C40.03 16.9 39.59 16.48 39.33 16.76Z" fill="#0B0C0C"></path>
		<path d="M73.22 49.09C72.8 48.68 72.09 49.46 71.67 49.03C72.53 49.01 74.52 48.07 73.08 47.29C72.27 47.15 71.46 47.55 70.68 47.73C67.54 48.98 69.38 47.45 67.43 47.62C68.09 49.29 69.75 48.43 71 48.04C71.04 48.22 70.81 48.27 70.84 48.45C71.26 48.36 71.66 48.28 72.05 48.2C72.22 47.38 73.71 47.37 73.03 48.2C71.31 48.95 69.28 48.81 67.48 49.32C66.28 52.47 64.18 50.33 64.2 51.23C63.73 51.27 63.74 51.73 64.22 51.69C64.23 52.61 66.55 51.54 66.98 51.26C67.08 51.04 67.18 50.84 67.28 50.63C67.99 50.97 68.48 49.96 69.09 49.78C69.7 49.66 70.49 49.06 71.01 49.61C71.59 50.25 72.45 49.27 72.96 49.92C72.77 50.42 73.02 50.2 73.11 50.51C73.11 50.79 73.57 50.79 73.58 50.51C73.58 50.39 73.59 50.31 73.71 50.26C73.97 49.87 73.42 49.43 73.23 49.11L73.22 49.09Z" fill="#0B0C0C"></path>
		<path d="M73.86 45.76C73.64 45.55 72.75 45.98 72.73 45.54C73.39 45.69 74.65 44.83 73.78 44.27C72.31 43.93 70.69 44.64 69.2 44.81C68.61 44.94 68.91 43.98 67.61 44.24C68.45 45.98 70.25 44.75 71.64 44.73C71.64 44.89 71.37 44.88 71.44 45.07C71.85 44.94 72.54 45.16 72.77 44.76C72.9 44.26 73.94 44.38 73.63 44.95C72.85 45.45 71.68 45.22 70.77 45.32C69.65 45.41 68.42 45.44 67.37 45.83C67.16 46.48 66.87 47.15 66.12 47.31C65.59 46.8 64.83 47.4 64.27 46.88C64.09 46.92 64.05 47.03 63.98 47.17C63.7 47.27 63.61 47.43 63.89 47.62C64.03 47.67 63.98 47.83 64.04 47.92C64.78 47.97 65.52 47.77 66.27 47.68C66.83 47.68 66.81 47.19 67.22 47.12C68.21 47.17 68.82 46.3 69.75 46.16C70.49 45.95 71.5 45.67 72.16 46.2C72.32 46.38 72.55 46.41 72.79 46.37C73.1 46.31 73.48 46.25 73.64 46.61C73.59 46.67 73.53 46.72 73.46 46.8C73.49 46.87 73.53 46.95 73.57 47.03C73.72 47.02 73.75 47.14 73.81 47.24C73.89 47.38 74.09 47.38 74.12 47.24C74.16 47.07 74.34 47.15 74.39 47C74.42 46.54 74.32 45.98 73.87 45.75L73.86 45.76Z" fill="#0B0C0C"></path>
		<path d="M72.18 52.22C70.71 52.03 70.93 53.04 70.21 52.8C70.34 52.64 70.7 52.55 70.58 52.31C69.5 52.78 68.37 53.12 67.29 53.6C66.74 54.18 66.92 55.34 65.69 55.44C65.65 56.04 64.8 56.45 64.28 56.18C64.07 56.38 64.16 56.43 64.19 56.61C64.01 56.77 63.77 57.14 64.15 57.14C64.27 57.11 64.36 56.94 64.49 56.99C64.49 57.07 64.47 57.15 64.46 57.23C64.56 57.23 64.7 57.26 64.73 57.22C64.9 57.01 65.14 57.18 65.33 57.02C65.96 56.59 66.87 56.2 66.82 55.32C67.94 54.83 68.59 53.02 70.04 53.66C70.76 54.05 70.96 52.88 71.6 52.86C71.78 53.29 71.87 53.25 72.1 53.11C72.51 53.42 72.44 52.93 72.59 52.7C72.61 52.48 72.38 52.22 72.15 52.22H72.18Z" fill="#0B0C0C"></path>
		<path d="M67.39 44.58C67.28 44.31 66.86 44.51 66.75 44.2C66.48 43.83 66.13 44.13 65.91 44.38C65.75 44.4 65.59 44.32 65.44 44.39C65.28 44.67 65.71 44.84 65.53 45.14C65.3 45.81 65.53 46.7 66.16 47.07C66.87 46.75 67.33 45.82 67.08 45.04C67.25 44.9 67.46 44.83 67.4 44.59L67.39 44.58Z" fill="#0B0C0C"></path>
		<path d="M66.58 52.49C66.38 52.05 65.94 52.01 65.63 52.38C65.52 52.51 65.36 52.47 65.22 52.48C64.92 52.62 65.09 52.94 65.35 53.01C65.21 53.51 65.14 54.01 65.33 54.5C66.02 56.16 67.06 54.05 66.8 53.15C67.28 52.76 67.14 52.52 66.57 52.48L66.58 52.49Z" fill="#0B0C0C"></path>
		<path d="M67.24 48.36C67.11 48.28 66.94 48.28 66.79 48.29C66.54 47.65 66.1 47.89 65.74 48.27C65.2 48.06 65.28 48.54 65.57 48.8C65.3 49.45 65.49 50.43 66.18 50.71C66.91 50.4 67.12 49.51 67.07 48.79C67.3 48.75 67.48 48.5 67.24 48.36Z" fill="#0B0C0C"></path>
		<path d="M72.51 50.52C71.19 50.08 69.12 52.94 68.25 52.1C68.04 51.64 67.38 51.69 66.97 51.82C67.46 52.18 67.73 52.96 68.48 52.7C69.33 52.54 69.99 51.85 70.72 51.54C70.74 51.79 70.49 51.89 70.39 52.13C70.89 51.97 71.34 51.83 71.71 51.51C71.65 50.12 73.63 51.1 71.73 51.95C72.07 51.95 72.3 52.11 72.53 51.83C72.97 51.44 72.99 50.88 72.5 50.53L72.51 50.52Z" fill="#0B0C0C"></path>
		<path d="M69.52 53.73C69.13 53.83 68.75 53.86 68.51 54.26C68.61 54.39 68.7 54.51 68.8 54.65C68.62 55.13 68.14 55.05 67.69 55.07C67.73 55.22 67.75 55.3 67.78 55.4C67.59 55.5 67.52 55.67 67.56 55.9C67.61 55.92 67.67 55.94 67.73 55.96C67.85 55.81 68.08 55.65 68.13 55.94C68.94 55.68 69.66 55.18 70.05 54.43C69.82 54.25 69.62 54.04 69.52 53.74V53.73Z" fill="#0B0C0C"></path>
		<path d="M70.45 49.58C70.07 49.7 69.63 49.69 69.4 50.04C69.54 50.19 69.66 50.31 69.79 50.46C69.53 50.6 69.23 50.85 68.95 50.61C68.84 50.51 68.52 50.55 68.59 50.76C68.6 50.79 68.59 50.83 68.58 50.87C68.53 50.87 68.49 50.88 68.45 50.88C68.28 50.88 68.24 51.1 68.36 51.2C68.48 51.33 68.59 51.19 68.72 51.23C68.72 51.3 68.72 51.36 68.73 51.42C69.44 51.46 70.5 50.83 70.88 50.26C70.73 50.03 70.59 49.81 70.44 49.58H70.45Z" fill="#0B0C0C"></path>
		<path d="M64.59 53.67C64.82 53.34 64.72 52.92 64.28 53.19C64.17 52.97 64.01 52.93 63.81 52.98C63.75 53.12 63.72 53.26 63.87 53.37C63.87 53.37 63.87 53.41 63.87 53.43C63.82 53.45 63.77 53.46 63.73 53.48C63.62 53.76 63.9 53.92 64 54.14C64.3 54.62 64.75 55.79 65.46 55.18C65.2 54.67 64.79 54.2 64.6 53.67H64.59Z" fill="#0B0C0C"></path>
		<path d="M64.84 44.9C64.9 44.77 64.88 44.61 64.75 44.51C64.59 44.55 64.45 44.5333 64.33 44.46C64.02 44.31 63.98 44.65 64.01 44.86C63.95 44.89 63.89 44.91 63.81 44.95C64.02 45.56 64.66 47.08 65.45 46.77C65.41 46.06 64.59 45.61 64.84 44.9Z" fill="#0B0C0C"></path>
		<path d="M64.77 49.07C64.8 48.93 64.75 48.78 64.63 48.65C64.37 48.73 63.82 48.14 64.02 48.84C63.86 48.9 63.76 49.01 63.87 49.16C64.17 49.62 64.25 50.35 64.76 50.61C64.99 50.61 65.35 50.82 65.49 50.55C65.34 50 64.67 49.69 64.76 49.07H64.77Z" fill="#0B0C0C"></path>
		<path d="M61.4 33.43C61.14 33.55 60.79 33.68 60.58 33.36C61.03 33.17 61.6 33.22 61.91 32.79C62.14 32.51 62.12 31.94 61.68 31.79C60.53 31.47 59.32 32.05 58.16 32.15C55.98 32.74 57.54 31.68 55.81 31.69C56.43 33.46 58.28 32.32 59.57 32.19C59.48 32.4 59.27 32.48 59.18 32.66C59.64 32.57 60.24 32.74 60.57 32.39C60.75 31.9 61.9 31.85 61.63 32.51C60.54 33.57 57.14 32.58 55.62 33.26C55.39 33.95 54.99 34.41 54.33 34.6C53.79 34.27 53.54 34.65 53 34.5C52.85 34.33 52.7 34.15 52.46 34.33C52.46 34.4 52.46 34.48 52.46 34.58C52.2 34.51 51.92 34.86 52.19 35.02C52.3 35.02 52.41 34.9 52.53 35.02C52.52 35.08 52.51 35.14 52.5 35.2C53.22 35.51 54.01 35.16 54.72 34.97C55 34.88 55.16 34.6 55.47 34.6C56.21 34.65 56.62 34.04 57.26 33.86C58.04 33.71 58.83 33.59 59.63 33.6C60.55 34.85 60.71 33.79 61.53 34.21C61.51 34.33 61.48 34.45 61.46 34.58C61.54 34.61 61.61 34.63 61.67 34.65C61.59 34.96 62.05 35.14 62.11 34.75C62.11 34.7 62.1 34.64 62.16 34.63C62.65 34.36 61.9 33.07 61.38 33.41L61.4 33.43Z" fill="#0B0C0C"></path>
		<path d="M55.66 32.24C55.63 32.14 55.61 32.06 55.59 31.97C55.43 31.97 55.28 31.96 55.14 31.95C54.82 31.53 54.62 31.53 54.24 31.9C54.0667 31.8334 53.92 31.8767 53.8 32.03C53.86 32.16 53.95 32.26 54.09 32.33C53.69 33.07 53.81 33.73 54.28 34.35C55.17 34.38 55.54 33.16 55.39 32.42C55.48 32.36 55.57 32.3 55.66 32.23V32.24Z" fill="#0B0C0C"></path>
		<path d="M59.6 33.98C59.5 33.58 58.75 33.91 58.44 33.92C58.4 34.13 58.59 34.21 58.62 34.38C58.38 34.54 58.12 34.54 57.87 34.58C57.74 34.45 57.68 34.2 57.45 34.27C57.32 34.3 57.39 34.44 57.29 34.5C57.1167 34.4867 57.0167 34.5667 56.99 34.74C57.07 34.79 57.15 34.84 57.23 34.88C57.03 35.8 59.55 34.84 59.93 34.57C59.81 34.36 59.65 34.22 59.6 33.98Z" fill="#0B0C0C"></path>
		<path d="M53.37 33.11C53.08 32.82 52.99 32.41 53.28 32.1C53.13 31.96 52.94 32.07 52.8 31.88C52.62 31.67 52.51 31.91 52.46 32.13C51.95 32.2 52.24 32.37 52.36 32.65C52.53 33.12 53.14 34.26 53.73 34.04C53.7 33.72 53.62 33.34 53.37 33.11Z" fill="#0B0C0C"></path>
		<path d="M61.34 37.48C61.07 37.61 60.72 37.73 60.52 37.41C60.98 37.22 61.55 37.27 61.86 36.84C62.09 36.56 62.07 35.99 61.63 35.83C60.47 35.51 59.25 36.09 58.08 36.2C55.89 36.79 57.45 35.73 55.71 35.74C56.33 37.52 58.2 36.38 59.5 36.25C59.41 36.46 59.19 36.54 59.11 36.73C59.57 36.64 60.17 36.81 60.52 36.46C60.7 35.97 61.86 35.91 61.59 36.58C60.49 37.65 57.06 36.65 55.53 37.33C55.3 38.03 54.9 38.49 54.23 38.68C53.77 38.39 53.52 38.63 53.12 38.61C53.14 38.74 53.17 38.86 53.21 38.99C53.24 39.12 53.26 39.25 53.27 39.38C53.73 39.33 54.2 39.15 54.63 39.03C54.91 38.94 55.08 38.66 55.39 38.66C56.13 38.71 56.55 38.09 57.19 37.91C57.98 37.76 58.78 37.64 59.58 37.65C60.5 38.91 60.67 37.84 61.5 38.27C61.48 38.39 61.45 38.51 61.43 38.64C61.51 38.67 61.58 38.69 61.65 38.71C61.57 39.02 62.03 39.21 62.1 38.81C62.1 38.76 62.09 38.7 62.15 38.69C62.64 38.42 61.89 37.12 61.36 37.46L61.34 37.48Z" fill="#0B0C0C"></path>
		<path d="M55.56 36.28C55.53 36.18 55.51 36.1 55.49 36.01C55.33 36.01 55.18 36 55.04 35.99C54.71 35.57 54.52 35.56 54.13 35.94C53.9567 35.8733 53.81 35.9166 53.69 36.07C53.76 36.21 53.84 36.31 53.98 36.37C53.58 37.11 53.69 37.78 54.18 38.4C55.08 38.43 55.45 37.2 55.3 36.46C55.39 36.4 55.48 36.33 55.57 36.27L55.56 36.28Z" fill="#0B0C0C"></path>
		<path d="M59.53 38.03C59.43 37.62 58.67 37.96 58.36 37.97C58.32 38.18 58.51 38.27 58.54 38.43C58.3 38.59 58.04 38.6 57.78 38.63C57.64 38.49 57.59 38.25 57.35 38.32C57.22 38.35 57.29 38.49 57.19 38.55C57.0167 38.5367 56.9167 38.6167 56.89 38.79C56.97 38.84 57.05 38.89 57.13 38.93C56.93 39.86 59.47 38.89 59.85 38.62C59.73 38.41 59.57 38.27 59.52 38.03H59.53Z" fill="#0B0C0C"></path>
		<path d="M53.25 37.15C52.96 36.85 52.87 36.45 53.16 36.13C53.01 35.99 52.82 36.1 52.67 35.91C52.49 35.7 52.38 35.94 52.33 36.16C51.81 36.24 52.11 36.4 52.23 36.68C52.4 37.16 53.01 38.3 53.61 38.09C53.58 37.76 53.5 37.38 53.24 37.16L53.25 37.15Z" fill="#0B0C0C"></path>
		<path d="M61.42 41.27C61.15 41.39 60.8 41.52 60.6 41.2C61.06 41.01 61.62 41.06 61.94 40.63C62.17 40.35 62.15 39.78 61.71 39.63C60.56 39.31 59.33 39.89 58.17 40C55.98 40.59 57.54 39.53 55.8 39.54C56.42 41.32 58.29 40.18 59.59 40.05C59.5 40.26 59.28 40.34 59.2 40.53C59.66 40.44 60.26 40.61 60.6 40.26C60.78 39.77 61.94 39.71 61.66 40.38C60.57 41.45 57.14 40.45 55.61 41.13C55.38 41.83 54.98 42.29 54.31 42.48C53.76 42.14 53.52 42.53 52.97 42.38C52.92 42.32 52.86 42.26 52.81 42.21C52.79 42.21 52.78 42.19 52.77 42.18C52.75 42.17 52.73 42.16 52.71 42.15C52.71 42.15 52.71 42.17 52.71 42.18C52.71 42.5 52.64 42.81 52.52 43.1C53.23 43.38 54.01 43.04 54.71 42.85C54.99 42.76 55.16 42.48 55.47 42.48C56.21 42.53 56.63 41.91 57.27 41.73C58.06 41.58 58.85 41.46 59.66 41.47C60.58 42.73 60.75 41.66 61.57 42.09C61.55 42.21 61.52 42.33 61.5 42.46C61.58 42.49 61.65 42.51 61.72 42.53C61.64 42.84 62.1 43.02 62.17 42.63C62.17 42.58 62.16 42.52 62.22 42.51C62.71 42.24 61.96 40.94 61.44 41.28L61.42 41.27Z" fill="#0B0C0C"></path>
		<path d="M55.65 40.07C55.62 39.97 55.6 39.89 55.58 39.8C55.42 39.8 55.27 39.79 55.13 39.78C54.8 39.36 54.61 39.35 54.22 39.73C54.0467 39.6633 53.9 39.7067 53.78 39.86C53.84 40 53.93 40.1 54.07 40.16C53.67 40.9 53.78 41.57 54.26 42.19C55.16 42.22 55.53 40.99 55.38 40.25C55.47 40.19 55.56 40.12 55.65 40.06V40.07Z" fill="#0B0C0C"></path>
		<path d="M59.62 41.82C59.52 41.41 58.76 41.75 58.45 41.76C58.41 41.97 58.6 42.06 58.63 42.22C58.39 42.38 58.13 42.38 57.87 42.42C57.73 42.28 57.68 42.04 57.44 42.11C57.31 42.14 57.38 42.28 57.28 42.34C57.1067 42.3267 57.0067 42.4067 56.98 42.58C57.06 42.63 57.14 42.68 57.22 42.72C57.02 43.65 59.56 42.68 59.93 42.41C59.81 42.2 59.65 42.06 59.6 41.82H59.62Z" fill="#0B0C0C"></path>
		<path d="M53.35 40.94C53.3 40.88 53.25 40.82 53.21 40.76C53.19 40.93 53.28 41.12 53.25 41.28C53.23 41.41 53.19 41.6 53.15 41.72C53.36 41.92 53.48 41.95 53.71 41.86C53.68 41.53 53.6 41.15 53.35 40.93V40.94Z" fill="#0B0C0C"></path>
		<path d="M68.23 35.44C67.8 35.06 67.54 34.69 67.53 34.35C67.51 34.24 67.78 34.09 67.76 33.98C67.76 33.59 67.42 34.03 67.29 33.96C67.22 33.85 66.98 33.52 66.83 33.68C66.74 33.72 66.85 33.96 66.78 34.01C66.75 34.05 66.73 34.06 66.62 34.06C66.27 34.06 66.22 34.27 66.51 34.4C66.71 34.52 66.86 35.1 66.97 35.18C67.19 35.48 67.67 36.27 68.13 36.1C68.27 36.03 68.4 35.63 68.4 35.58C68.4 35.56 68.32 35.49 68.23 35.43V35.44Z" fill="#0B0C0C"></path>
		<path d="M70.58 34.15C70.51 34.01 70.33 34.12 70.1 34.04C69.92 33.96 69.46 33.81 69.27 33.92C69.14 34.08 68.35 34.1 68.49 34.33C68.52 34.42 68.58 34.62 68.58 34.62L68.94 34.66V34.92C68.94 34.92 68.69 34.98 68.6 34.99C68.39 35.3 69.11 35.33 69.3 35.08C69.43 34.93 69.63 34.91 69.62 35.08C69.52 35.29 69.17 35.39 68.97 35.49C68.67 35.54 68.59 36.14 68.35 36.33C67.69 36.45 67.45 36.44 66.8 35.9C66.56 35.63 66.37 35.83 66.55 36.05C66.43 36.09 65.83 35.75 66.1 36.33L66.14 36.38C65.84 36.81 66.29 36.66 66.54 36.8C67.07 37.01 67.66 37.17 68.34 37.06C68.46 36.95 68.81 36.61 68.84 36.53C68.87 36.45 68.89 36.45 69.13 36.43C69.81 36.33 70.15 36.06 70.34 35.33C70.43 35.11 70.31 34.64 70.18 34.54C70.13 34.5 70.1 34.43 70.14 34.41C70.27 34.39 70.53 34.29 70.57 34.14L70.58 34.15Z" fill="#0B0C0C"></path>
		<path d="M72.27 34.38C71.29 34.45 70.34 35.1 70.82 36.2C71.12 36.82 71.05 36.77 70.47 36.65L70.75 37.23C70.75 37.23 71.35 37.5 71.43 37.58C71.77 37.83 71.71 38.51 71.41 38.43C70.91 38.23 70.61 37.52 70.27 37.08C70.18 37.01 69.94 36.3 69.78 36.48C67.72 36.94 70.15 37.47 69.78 38.23C69.71 38.34 69.48 38.87 69.57 38.95C69.74 39.16 70.13 39.32 70.34 39.59C70.68 39.92 70.37 40.3 69.96 39.99C69.72 39.81 69.44 40.07 69.68 40.31C69.7 40.36 69.54 40.42 69.51 40.44C69.26 40.78 69.67 40.76 69.89 40.59C70.01 40.53 69.89 40.89 70.09 40.83C70.47 40.75 71.05 40.56 71.15 39.97C71.38 39.43 70.84 39.52 70.71 39.05C70.57 38.86 70.57 38.14 70.86 38.41C71.13 38.75 71.5 38.95 71.83 38.64C72.14 38.35 71.86 37.64 71.7 37.33C71.4 36.71 71.06 36.11 71.08 35.37C71.5 34.87 71.98 35.76 72.28 34.38H72.27Z" fill="#0B0C0C"></path>
		<path d="M68.9 37.82C68.38 37.79 67.99 37.75 68.13 38.37C68.16 38.52 68.21 38.96 68.3 39.07C68.34 39.13 68.33 39.19 68.28 39.23C68.07 39.35 67.28 39.03 67.38 38.76C67.38 38.54 67.16 38.49 67.09 38.64C67.05 38.71 67 38.71 66.92 38.62C66.77 38.41 66.57 38.69 66.65 38.85C66.68 38.91 66.65 38.98 66.57 38.99C66.35 39.08 66.37 39.37 66.67 39.39C67.33 39.69 67.9 40.01 68.66 39.9H68.65C69.48 39.84 69.05 39.68 69.02 39.1C68.88 38.48 69.94 38.07 68.89 37.82H68.9Z" fill="#0B0C0C"></path>
		<path d="M71.42 46.08C71.02 46.11 70.64 46.05 70.3 46.24C70.27 46.42 70.39 46.52 70.48 46.67C70.2 46.79 69.95 46.85 69.69 46.73C69.64 46.68 69.5 46.73 69.48 46.77C69.48 47.05 69.19 46.97 69.1 47.16C69.16 47.28 69.24 47.37 69.37 47.36C69.53 47.35 69.52 47.54 69.66 47.55C70.35 47.24 71.16 47.31 71.75 46.78C71.53 46.59 71.48 46.34 71.43 46.07L71.42 46.08Z" fill="#0B0C0C"></path>
		<path d="M80.67 39.01C80.4 38.43 79.77 35.18 78.86 35.89C83.01 43.64 80.24 53.82 73.04 58.73C70.93 60 68.31 62.12 65.81 60.71C67.42 54.43 75.15 57.08 76.83 45.1C76.62 45 76.54 44.93 76.36 44.9C76.12 46.57 75.7 48.18 75.07 49.73C75.74 47.95 75.31 42.36 75.44 42.06C75.37 41.97 75.3 41.93 75.07 41.65C75.11 42.32 75.07 42.57 75.07 43.46H63.34V31.23H74.85V38.13C74.85 38.13 74.89 38.5 74.92 38.62C75.08 38.37 75.1 38.38 75.21 38.3V30.88H51.06L51.04 37.13H51.4V31.23H62.98V43.46H51.81C51.81 43.46 51.81 43.27 51.78 43.3C51.78 43.27 51.7 43.49 51.7 43.46H51.39C51.39 42.89 51.39 42.54 51.39 42.52H51.03C50.77 43.42 51.54 51.1 52.8 52.45C50.28 50.01 49.48 45.67 49.96 42.4C49.96 42.4 49.72 42.22 49.47 41.98C48.68 46.58 50.42 51.13 53.65 54.42C53.93 54.72 54.24 54.4 54.58 54.31C54.51 54.24 54.36 54.12 54.25 53.97C54.38 54.1 54.49 54.22 54.58 54.31L54.4 53.81C51.87 51.87 51.45 46.34 51.4 43.81H62.99C62.99 43.81 62.99 59.15 62.97 59.19C60.51 59.07 58.84 56.4 56.46 56.37C59.88 58.4 66.13 63.28 70.07 61.14C70.1 61.18 70.09 61.17 70.13 61.21C69.72 61.73 68.25 62.71 67.6 62.46C66.53 61.81 64.87 62.99 65.63 64.19C65.73 64.33 65.79 64.46 65.67 64.64C61.4 64.24 57.56 61.69 53.96 59.5C53.92 59.54 53.93 59.53 53.9 59.57C55.28 61.43 60.2 63.75 60.2 63.75V66.52C60.2 66.52 60.51 66.73 60.72 66.87V63.88C62.01 64.32 64.63 65.14 64.63 65.14V67.01L65.14 66.69L65.11 65.29L65.81 65.1C66.25 64.98 66.53 64.55 66.48 64.11C66.27 64.01 66.13 63.79 66.19 63.5C66.29 62.95 66.95 62.94 67.22 63.27C67.76 63.51 68.28 62.87 68.81 62.71C69.55 62.26 70.47 61.86 70.81 61.01C70.88 60.8 70.99 60.67 71.17 60.56C72.67 59.71 74.12 58.77 75.34 57.54C80.57 53.12 82.39 45.52 80.65 39.02L80.67 39.01ZM63.35 43.81H75.08C76.04 52.77 70.78 55.77 63.35 58.9V43.81ZM63.56 59.82C64.39 59.08 64.97 58.82 66.03 58.57C65.73 59.23 65.45 59.86 65.16 60.53C64.62 60.29 64.1 60.06 63.56 59.82Z" fill="#0B0C0C"></path>
		<path d="M52.46 60.68C45.82 60.69 39.21 63.52 32.56 63.52C31.76 63.52 30.97 63.48 30.17 63.39C32.23 65.01 32.08 68.27 35.08 68.27C35.21 68.27 35.35 68.27 35.49 68.25C39.56 67.82 43.6 66.67 47.6 66.03C48.29 65.93 51.6 65.11 53.54 65.11C54.24 65.11 54.76 65.22 54.92 65.5C55.13 65.88 53.81 66.99 53.8 67.04C53.8 67.05 53.8 67.06 53.82 67.06C53.95 67.06 54.68 66.64 55.22 66.28C57.39 64.72 52.85 60.67 52.46 60.67V60.68ZM38.48 66.19C38.12 67.05 37.04 67.24 36.2 67.39C36.24 67.12 35.73 64.64 35.57 64.41C37.03 63.78 39.12 64.39 38.49 66.18L38.48 66.19ZM39.35 66.73C39.39 65.87 39.1 64.5 38.71 63.73L39.56 63.57C39.52 64.43 39.81 65.8 40.2 66.57L39.35 66.73ZM42.63 66.1L40.87 66.44C40.89 65.99 40.32 63.66 40.17 63.44L42.05 63.08L41.86 63.67C41.61 63.6 41.31 63.6 40.97 63.67L41.17 64.55L42.18 64.33L42.34 64.76C42.14 64.73 41.53 64.88 41.25 64.93L41.46 65.85C41.96 65.74 42.37 65.57 42.7 65.35L42.6 66.09L42.63 66.1ZM44.38 65.73C43.11 65.76 42.81 63.92 42.62 62.97L43.2 62.86C43.49 63.64 43.46 65.54 44.77 65.3C45.56 65.09 45.01 63.26 44.83 62.56L45.37 62.44C45.6 63.64 46.22 65.86 44.38 65.73ZM49.4 64.79L47.68 65.12C47.71 64.86 47.09 62.36 46.94 62.14L48.8 61.79L48.68 62.51C48.43 62.44 48.13 62.44 47.79 62.51L48 63.39L49.01 63.16L49.18 63.59C48.98 63.56 48.37 63.72 48.09 63.77L48.31 64.69C48.81 64.58 49.22 64.41 49.54 64.18L49.4 64.79ZM51.25 61.87L51.75 64.39L51.17 64.49L50.66 61.98C50.3 62.04 50.1 62.04 49.62 62.26L49.6 61.7L52.11 61.38L52.28 61.86C52.05 61.78 51.25 61.88 51.25 61.88V61.87Z" fill="#0B0C0C"></path>
		<path d="M37.39 64.75C37.12 64.59 36.79 64.54 36.4 64.6C36.48 65.19 36.7 66.3 36.87 66.87C37.97 66.71 38.31 65.33 37.39 64.75Z" fill="#0B0C0C"></path>
		<path d="M92.6 63.51C91.77 63.51 90.98 63.5 90.59 63.46C86.21 63.03 81.88 61.78 77.51 61.09C76.25 60.89 75.22 60.7 74.33 60.7C72.47 60.7 71.21 61.51 69.72 64.69C69.08 65.9 71.22 67.05 71.69 67.1C69.94 65.6 70.55 65.16 71.93 65.16C73.84 65.16 77.23 66.01 77.89 66.09C81.89 66.73 85.94 67.87 90 68.31C90.14 68.32 90.28 68.33 90.41 68.33C93.4 68.33 93.26 65.07 95.31 63.45C94.94 63.48 93.73 63.51 92.6 63.51ZM76.14 61.76C76.04 61.85 75.69 64.34 75.71 64.58L75.04 64.45C75.16 64.23 75.32 62.5 75.32 62.5L74.17 64.28L73.5 62.27C73.5 62.27 73.23 63.71 73.22 64.18L72.56 64.09C72.77 63.75 73.18 61.2 73.18 61.2L73.86 61.33C73.88 61.47 74.39 63.2 74.39 63.2C74.39 63.2 75.29 61.69 75.35 61.61L76.15 61.76H76.14ZM78.59 63.95C77.99 65.99 75.64 64.87 76.34 63.06C76.94 61.08 79.29 62.13 78.59 63.95ZM80.91 65.74C80.7 65.7 79.59 63.43 79.59 63.43C79.59 63.43 79.32 65.19 79.25 65.31L78.75 65.24L79.33 62.48L79.89 62.55C79.89 62.62 80.77 64.49 80.77 64.49C80.77 64.49 81.06 62.98 81.09 62.84L81.52 62.96L80.91 65.73V65.74ZM83.53 65.98C83.13 66.12 82.57 65.96 82.15 65.88L82.7 63.04C84.54 62.92 85.31 65.31 83.52 65.98H83.53ZM86.8 64.67C86.72 64.99 86.48 65.21 86.09 65.33C86.26 65.89 86.36 66.07 86.65 66.68L86.2 66.62C86.11 66.57 85.55 65.78 85.38 65.35C85.28 65.7 85.18 66.15 85.22 66.47L84.46 66.35C84.6 66.13 85.19 63.81 85.17 63.56C85.83 63.64 87.01 63.76 86.8 64.65V64.67ZM88.25 66.92C86.56 67.24 86.56 64.39 87.92 63.99C89.62 63.63 89.62 66.53 88.25 66.92ZM90.01 65.25C89.94 65.76 89.71 66.78 89.8 67.26L89.14 67.16C89.43 66.42 89.63 65.16 89.58 64.36L90.24 64.46C90.13 64.68 90.05 64.94 90.01 65.25ZM91.57 65.13C91.57 65.13 91.18 67.32 91.21 67.5L90.55 67.38C90.55 67.38 90.95 65.46 91.05 65.04C90.82 64.99 90.54 65.01 90.28 65.11L90.54 64.55L92.32 64.87L92.44 65.48C92.29 65.33 91.81 65.17 91.55 65.12L91.57 65.13Z" fill="#0B0C0C"></path>
		<path d="M77.74 62.4C76.7 62.11 76.3 64.26 77.17 64.63C78.23 64.91 78.61 62.78 77.74 62.4Z" fill="#0B0C0C"></path>
		<path d="M83.23 63.48C83.09 64.03 82.87 65.08 82.8 65.64C84.1 65.92 84.51 63.73 83.23 63.48Z" fill="#0B0C0C"></path>
		<path d="M85.73 63.98L85.43 65.08C86.28 65.24 86.64 64.12 85.73 63.98Z" fill="#0B0C0C"></path>
		<path d="M88.33 64.37C87.33 64.12 87.01 66.2 87.84 66.53C88.86 66.77 89.16 64.71 88.33 64.37Z" fill="#0B0C0C"></path>
		<path d="M50.12 49.35C50.01 49.07 49.83 48.84 49.58 48.67C49.33 48.5 49.05 48.4 48.73 48.38C48.41 48.36 48.09 48.41 47.77 48.55C47.29 48.74 46.96 49.05 46.77 49.48C46.58 49.91 46.58 50.33 46.77 50.74C46.88 51.01 47.06 51.23 47.31 51.4C47.56 51.57 47.85 51.66 48.17 51.69C48.49 51.71 48.8 51.66 49.09 51.53C49.38 51.41 49.62 51.24 49.83 51.01C50.03 50.78 50.17 50.51 50.23 50.22C50.29 49.92 50.26 49.63 50.13 49.35H50.12ZM49.53 50.35C49.34 50.67 49.06 50.9 48.7 51.05C48.38 51.19 48.08 51.22 47.81 51.14C47.53 51.06 47.35 50.9 47.25 50.67C47.12 50.39 47.15 50.09 47.34 49.76C47.53 49.43 47.8 49.2 48.16 49.05C48.47 48.92 48.76 48.89 49.05 48.96C49.33 49.03 49.53 49.19 49.63 49.44C49.76 49.73 49.73 50.03 49.54 50.35H49.53Z" fill="#0B0C0C"></path>
		<path d="M89.86 51.23L90.2 50.47C90.02 50.21 89.87 49.96 89.69 49.7L89.11 50.9C88.79 50.79 88.44 50.93 88.3 51.25L87.46 53.11C87.32 53.42 87.45 53.78 87.74 53.95L87.16 55.24H87.14C86.78 55.24 86.49 55.53 86.49 55.89V57.93C86.49 58.25 86.72 58.51 87.02 58.57V58.86C86.24 59.04 85.66 59.75 85.66 60.58C85.66 61.56 86.45 62.35 87.43 62.35C88.41 62.35 89.2 61.56 89.2 60.58C89.2 59.74 88.62 59.04 87.84 58.86V58.58C88.2 58.58 88.49 58.29 88.49 57.93V55.89C88.49 55.6 88.29 55.35 88.03 55.27L88.48 54.28C88.55 54.3 88.62 54.32 88.69 54.32C88.77 54.32 88.85 54.31 88.92 54.28C89.08 54.22 89.21 54.1 89.28 53.94L90.12 52.08C90.19 51.92 90.2 51.74 90.13 51.58C90.07 51.43 89.97 51.32 89.84 51.24L89.86 51.23ZM88.55 60.58C88.55 61.19 88.05 61.69 87.44 61.69C86.83 61.69 86.33 61.19 86.33 60.58C86.33 60.11 86.62 59.71 87.03 59.55V59.87C87.03 60.07 87.19 60.23 87.39 60.23H87.48C87.68 60.23 87.84 60.07 87.84 59.87V59.55C88.25 59.71 88.54 60.11 88.54 60.58H88.55ZM88.02 57.93C88.02 58.02 87.95 58.09 87.86 58.09V57.94C87.86 57.74 87.7 57.58 87.5 57.58H87.41C87.21 57.58 87.05 57.74 87.05 57.94V58.03C87.05 58.03 87.01 57.97 87.01 57.93V55.89C87.01 55.8 87.08 55.73 87.17 55.73H87.21C87.21 55.73 87.28 55.79 87.32 55.81L87.4 55.85C87.56 55.92 87.74 55.87 87.84 55.73H87.87C87.96 55.73 88.03 55.8 88.03 55.89V57.93H88.02ZM89.69 51.86L88.85 53.72C88.85 53.72 88.8 53.79 88.76 53.8C88.73 53.8 88.71 53.81 88.68 53.8C88.71 53.64 88.63 53.48 88.47 53.41L88.39 53.37C88.24 53.3 88.06 53.35 87.96 53.48C87.91 53.44 87.89 53.36 87.92 53.3L88.76 51.44C88.76 51.44 88.81 51.37 88.85 51.36C88.87 51.36 88.89 51.35 88.91 51.35C88.93 51.35 88.95 51.35 88.97 51.36H89C89.03 51.47 89.1 51.56 89.2 51.61L89.28 51.65C89.38 51.7 89.49 51.69 89.59 51.65H89.62C89.62 51.65 89.69 51.71 89.7 51.75C89.72 51.79 89.71 51.83 89.7 51.87L89.69 51.86Z" fill="#0B0C0C"></path>
	</g>
	<defs>
		<clipPath id="clip0_2_480">
			<rect width="438" height="72" fill="white" transform="translate(0.870117)"></rect>
		</clipPath>
	</defs>
</svg>
