<?xml version="1.0" encoding="utf-8"?>
<!-- Generator: Adobe Illustrator 21.0.0, SVG Export Plug-In . SVG Version: 6.00 Build 0)  -->
<svg version="1.1" id="Layer_1" xmlns="http://www.w3.org/2000/svg" xmlns:xlink="http://www.w3.org/1999/xlink" x="0px" y="0px"
	 width="129px" height="20px" viewBox="0 0 129 20" style="enable-background:new 0 0 129 20;" xml:space="preserve">
<style type="text/css">
	.st0{clip-path:url(#SVGID_2_);fill:#DCE0DF;}
	.st1{clip-path:url(#SVGID_4_);fill:#DCE0DF;}
	.st2{clip-path:url(#SVGID_6_);fill:#DCE0DF;}
	.st3{clip-path:url(#SVGID_8_);fill:#DCE0DF;}
	.st4{clip-path:url(#SVGID_10_);fill:#DCE0DF;}
	.st5{clip-path:url(#SVGID_12_);fill:#DCE0DF;}
	.st6{clip-path:url(#SVGID_14_);fill:#DCE0DF;}
	.st7{clip-path:url(#SVGID_16_);fill:#DCE0DF;}
	.st8{clip-path:url(#SVGID_18_);fill:#DCE0DF;}
	.st9{clip-path:url(#SVGID_20_);fill:#DCE0DF;}
	.st10{clip-path:url(#SVGID_22_);fill:#DCE0DF;}
	.st11{clip-path:url(#SVGID_24_);fill:#DCE0DF;}
	.st12{clip-path:url(#SVGID_26_);fill:#DCE0DF;}
	.st13{clip-path:url(#SVGID_28_);fill:#DCE0DF;}
	.st14{clip-path:url(#SVGID_30_);fill:#DCE0DF;}
	.st15{clip-path:url(#SVGID_32_);fill:#DCE0DF;}
	.st16{clip-path:url(#SVGID_34_);fill:#DCE0DF;}
	.st17{clip-path:url(#SVGID_36_);fill:#DCE0DF;}
	.st18{clip-path:url(#SVGID_38_);fill:#DCE0DF;}
	.st19{clip-path:url(#SVGID_40_);fill:#DCE0DF;}
	.st20{clip-path:url(#SVGID_42_);fill:#DCE0DF;}
	.st21{clip-path:url(#SVGID_44_);fill:#DCE0DF;}
	.st22{clip-path:url(#SVGID_46_);fill:#DCE0DF;}
	.st23{clip-path:url(#SVGID_48_);fill:#DCE0DF;}
	.st24{clip-path:url(#SVGID_50_);fill:#DCE0DF;}
	.st25{clip-path:url(#SVGID_52_);fill:#DCE0DF;}
	.st26{clip-path:url(#SVGID_54_);enable-background:new    ;}
	.st27{clip-path:url(#SVGID_56_);}
	.st28{clip-path:url(#SVGID_58_);}
	.st29{clip-path:url(#SVGID_60_);fill:#DCE0DF;}
	.st30{clip-path:url(#SVGID_62_);fill:#DCE0DF;}
	.st31{clip-path:url(#SVGID_64_);fill:#DCE0DF;}
	.st32{clip-path:url(#SVGID_66_);fill:#DCE0DF;}
	.st33{clip-path:url(#SVGID_68_);fill:#DCE0DF;}
	.st34{clip-path:url(#SVGID_70_);fill:#DCE0DF;}
	.st35{clip-path:url(#SVGID_72_);fill:#DCE0DF;}
	.st36{clip-path:url(#SVGID_74_);fill:#DCE0DF;}
	.st37{clip-path:url(#SVGID_76_);fill:#DCE0DF;}
	.st38{clip-path:url(#SVGID_78_);fill:#DCE0DF;}
	.st39{clip-path:url(#SVGID_80_);fill:#DCE0DF;}
	.st40{clip-path:url(#SVGID_82_);fill:#DCE0DF;}
	.st41{clip-path:url(#SVGID_84_);fill:#DCE0DF;}
	.st42{clip-path:url(#SVGID_86_);fill:#DCE0DF;}
	.st43{clip-path:url(#SVGID_88_);fill:#DCE0DF;}
	.st44{clip-path:url(#SVGID_90_);fill:#DCE0DF;}
	.st45{clip-path:url(#SVGID_92_);fill:#DCE0DF;}
	.st46{clip-path:url(#SVGID_94_);fill:#DCE0DF;}
	.st47{clip-path:url(#SVGID_96_);fill:#DCE0DF;}
	.st48{clip-path:url(#SVGID_98_);fill:#DCE0DF;}
	.st49{clip-path:url(#SVGID_100_);fill:#DCE0DF;}
	.st50{clip-path:url(#SVGID_102_);fill:#DCE0DF;}
	.st51{clip-path:url(#SVGID_104_);fill:#DCE0DF;}
	.st52{clip-path:url(#SVGID_106_);fill:#DCE0DF;}
	.st53{clip-path:url(#SVGID_108_);fill:#DCE0DF;}
	.st54{clip-path:url(#SVGID_110_);fill:#DCE0DF;}
	.st55{clip-path:url(#SVGID_112_);fill:#DCE0DF;}
	.st56{clip-path:url(#SVGID_114_);fill:#DCE0DF;}
	.st57{clip-path:url(#SVGID_116_);fill:#DCE0DF;}
	.st58{clip-path:url(#SVGID_118_);fill:#DCE0DF;}
	.st59{clip-path:url(#SVGID_120_);fill:#DCE0DF;}
	.st60{clip-path:url(#SVGID_122_);fill:#DCE0DF;}
	.st61{clip-path:url(#SVGID_124_);fill:#DCE0DF;}
	.st62{clip-path:url(#SVGID_126_);fill:#DCE0DF;}
	.st63{clip-path:url(#SVGID_128_);fill:#DCE0DF;}
	.st64{clip-path:url(#SVGID_130_);fill:#DCE0DF;}
	.st65{clip-path:url(#SVGID_132_);fill:#DCE0DF;}
	.st66{clip-path:url(#SVGID_134_);fill:#DCE0DF;}
	.st67{clip-path:url(#SVGID_136_);fill:#DCE0DF;}
	.st68{clip-path:url(#SVGID_138_);fill:#DCE0DF;}
	.st69{clip-path:url(#SVGID_140_);fill:#DCE0DF;}
	.st70{clip-path:url(#SVGID_142_);fill:#DCE0DF;}
	.st71{clip-path:url(#SVGID_144_);fill:#DCE0DF;}
</style>
<g>
	<g>
		<defs>
			<rect id="SVGID_1_" x="0.62" y="0.6" width="1.12" height="18.47"/>
		</defs>
		<clipPath id="SVGID_2_">
			<use xlink:href="#SVGID_1_"  style="overflow:visible;"/>
		</clipPath>
		<rect x="-3.54" y="-3.57" class="st0" width="9.45" height="26.8"/>
	</g>
	<g>
		<defs>
			<path id="SVGID_3_" d="M16.02,3.6c-0.15,0.2-0.27,0.32-0.25,0.47c0.02,0.16,0.25,0.26,0.35,0.42c0.1-0.18,0.26-0.32,0.24-0.46
				C16.34,3.89,16.06,3.7,16.02,3.6"/>
		</defs>
		<clipPath id="SVGID_4_">
			<use xlink:href="#SVGID_3_"  style="overflow:visible;"/>
		</clipPath>
		<rect x="11.6" y="-0.57" class="st1" width="8.93" height="9.23"/>
	</g>
	<g>
		<defs>
			<path id="SVGID_5_" d="M18.73,3.6c0.14,0.2,0.27,0.32,0.25,0.47c-0.02,0.16-0.25,0.26-0.35,0.42c-0.1-0.18-0.26-0.32-0.24-0.46
				C18.41,3.89,18.68,3.7,18.73,3.6"/>
		</defs>
		<clipPath id="SVGID_6_">
			<use xlink:href="#SVGID_5_"  style="overflow:visible;"/>
		</clipPath>
		<rect x="14.22" y="-0.57" class="st2" width="8.93" height="9.23"/>
	</g>
	<g>
		<defs>
			<path id="SVGID_7_" d="M14.48,3.64c0.14,0,0.26-0.12,0.26-0.26c0-0.15-0.12-0.26-0.26-0.26c-0.14,0-0.26,0.12-0.26,0.26
				C14.22,3.52,14.33,3.64,14.48,3.64"/>
		</defs>
		<clipPath id="SVGID_8_">
			<use xlink:href="#SVGID_7_"  style="overflow:visible;"/>
		</clipPath>
		<rect x="10.05" y="-1.05" class="st3" width="8.86" height="8.86"/>
	</g>
	<g>
		<defs>
			<path id="SVGID_9_" d="M14.68,3.82c0-0.14-0.12-0.26-0.26-0.26c-0.14,0-0.26,0.12-0.26,0.26c0,0.15,0.12,0.26,0.26,0.26
				C14.56,4.08,14.68,3.97,14.68,3.82"/>
		</defs>
		<clipPath id="SVGID_10_">
			<use xlink:href="#SVGID_9_"  style="overflow:visible;"/>
		</clipPath>
		<rect x="9.99" y="-0.61" class="st4" width="8.85" height="8.86"/>
	</g>
	<g>
		<defs>
			<path id="SVGID_11_" d="M14.77,4.26c0-0.14-0.12-0.26-0.26-0.26c-0.14,0-0.26,0.12-0.26,0.26c0,0.14,0.12,0.26,0.26,0.26
				C14.65,4.52,14.77,4.4,14.77,4.26"/>
		</defs>
		<clipPath id="SVGID_12_">
			<use xlink:href="#SVGID_11_"  style="overflow:visible;"/>
		</clipPath>
		<rect x="10.08" y="-0.17" class="st5" width="8.85" height="8.85"/>
	</g>
	<g>
		<defs>
			<path id="SVGID_13_" d="M15.48,2.77c0.14,0,0.26-0.12,0.26-0.26c0-0.15-0.12-0.26-0.26-0.26c-0.14,0-0.26,0.11-0.26,0.26
				C15.22,2.65,15.34,2.77,15.48,2.77"/>
		</defs>
		<clipPath id="SVGID_14_">
			<use xlink:href="#SVGID_13_"  style="overflow:visible;"/>
		</clipPath>
		<rect x="11.06" y="-1.91" class="st6" width="8.85" height="8.85"/>
	</g>
	<g>
		<defs>
			<path id="SVGID_15_" d="M15.03,2.91c0.14,0,0.26-0.12,0.26-0.26c0-0.14-0.12-0.26-0.26-0.26c-0.14,0-0.26,0.12-0.26,0.26
				C14.77,2.79,14.89,2.91,15.03,2.91"/>
		</defs>
		<clipPath id="SVGID_16_">
			<use xlink:href="#SVGID_15_"  style="overflow:visible;"/>
		</clipPath>
		<rect x="10.61" y="-1.78" class="st7" width="8.86" height="8.86"/>
	</g>
	<g>
		<defs>
			<path id="SVGID_17_" d="M14.68,3.22c0.14,0,0.26-0.11,0.26-0.26c0-0.14-0.12-0.26-0.26-0.26c-0.14,0-0.26,0.12-0.26,0.26
				C14.41,3.11,14.54,3.22,14.68,3.22"/>
		</defs>
		<clipPath id="SVGID_18_">
			<use xlink:href="#SVGID_17_"  style="overflow:visible;"/>
		</clipPath>
		<rect x="10.25" y="-1.46" class="st8" width="8.86" height="8.85"/>
	</g>
	<g>
		<defs>
			<path id="SVGID_19_" d="M15.96,2.82c0.14,0,0.26-0.12,0.26-0.26c0-0.14-0.12-0.26-0.26-0.26c-0.14,0-0.26,0.12-0.26,0.26
				C15.7,2.7,15.82,2.82,15.96,2.82"/>
		</defs>
		<clipPath id="SVGID_20_">
			<use xlink:href="#SVGID_19_"  style="overflow:visible;"/>
		</clipPath>
		<rect x="11.53" y="-1.87" class="st9" width="8.85" height="8.86"/>
	</g>
	<g>
		<defs>
			<path id="SVGID_21_" d="M16.41,2.95c0.14,0,0.26-0.12,0.26-0.26c0-0.14-0.12-0.26-0.26-0.26c-0.15,0-0.26,0.12-0.26,0.26
				C16.15,2.83,16.26,2.95,16.41,2.95"/>
		</defs>
		<clipPath id="SVGID_22_">
			<use xlink:href="#SVGID_21_"  style="overflow:visible;"/>
		</clipPath>
		<rect x="11.98" y="-1.74" class="st10" width="8.85" height="8.86"/>
	</g>
	<g>
		<defs>
			<path id="SVGID_23_" d="M16.83,3.15c0.14,0,0.26-0.12,0.26-0.26c0-0.14-0.12-0.26-0.26-0.26c-0.14,0-0.26,0.12-0.26,0.26
				C16.57,3.03,16.69,3.15,16.83,3.15"/>
		</defs>
		<clipPath id="SVGID_24_">
			<use xlink:href="#SVGID_23_"  style="overflow:visible;"/>
		</clipPath>
		<rect x="12.41" y="-1.54" class="st11" width="8.86" height="8.86"/>
	</g>
	<g>
		<defs>
			<path id="SVGID_25_" d="M20,3.38c0,0.14,0.12,0.26,0.26,0.26c0.14,0,0.26-0.12,0.26-0.26c0-0.15-0.12-0.26-0.26-0.26
				C20.11,3.12,20,3.23,20,3.38"/>
		</defs>
		<clipPath id="SVGID_26_">
			<use xlink:href="#SVGID_25_"  style="overflow:visible;"/>
		</clipPath>
		<rect x="15.83" y="-1.05" class="st12" width="8.85" height="8.86"/>
	</g>
	<g>
		<defs>
			<path id="SVGID_27_" d="M20.32,3.56c-0.14,0-0.26,0.11-0.26,0.26c0,0.15,0.12,0.26,0.26,0.26c0.14,0,0.26-0.12,0.26-0.26
				C20.58,3.67,20.46,3.56,20.32,3.56"/>
		</defs>
		<clipPath id="SVGID_28_">
			<use xlink:href="#SVGID_27_"  style="overflow:visible;"/>
		</clipPath>
		<rect x="15.89" y="-0.61" class="st13" width="8.86" height="8.86"/>
	</g>
	<g>
		<defs>
			<path id="SVGID_29_" d="M20.23,4c-0.14,0-0.26,0.12-0.26,0.26c0,0.15,0.12,0.26,0.26,0.26c0.14,0,0.26-0.11,0.26-0.26
				C20.49,4.12,20.37,4,20.23,4"/>
		</defs>
		<clipPath id="SVGID_30_">
			<use xlink:href="#SVGID_29_"  style="overflow:visible;"/>
		</clipPath>
		<rect x="15.8" y="-0.17" class="st14" width="8.85" height="8.85"/>
	</g>
	<g>
		<defs>
			<path id="SVGID_31_" d="M19.25,2.77c0.14,0,0.26-0.12,0.26-0.26c0-0.15-0.12-0.26-0.26-0.26c-0.14,0-0.26,0.11-0.26,0.26
				C18.99,2.65,19.11,2.77,19.25,2.77"/>
		</defs>
		<clipPath id="SVGID_32_">
			<use xlink:href="#SVGID_31_"  style="overflow:visible;"/>
		</clipPath>
		<rect x="14.82" y="-1.91" class="st15" width="8.86" height="8.85"/>
	</g>
	<g>
		<defs>
			<path id="SVGID_33_" d="M19.7,2.91c0.14,0,0.26-0.12,0.26-0.26c0-0.14-0.12-0.26-0.26-0.26c-0.14,0-0.26,0.12-0.26,0.26
				C19.44,2.79,19.56,2.91,19.7,2.91"/>
		</defs>
		<clipPath id="SVGID_34_">
			<use xlink:href="#SVGID_33_"  style="overflow:visible;"/>
		</clipPath>
		<rect x="15.28" y="-1.78" class="st16" width="8.86" height="8.86"/>
	</g>
	<g>
		<defs>
			<path id="SVGID_35_" d="M20.06,3.22c0.14,0,0.26-0.11,0.26-0.26c0-0.14-0.12-0.26-0.26-0.26c-0.14,0-0.26,0.12-0.26,0.26
				C19.8,3.11,19.92,3.22,20.06,3.22"/>
		</defs>
		<clipPath id="SVGID_36_">
			<use xlink:href="#SVGID_35_"  style="overflow:visible;"/>
		</clipPath>
		<rect x="15.63" y="-1.46" class="st17" width="8.86" height="8.85"/>
	</g>
	<g>
		<defs>
			<path id="SVGID_37_" d="M18.78,2.82c0.15,0,0.26-0.12,0.26-0.26c0-0.14-0.12-0.26-0.26-0.26c-0.14,0-0.26,0.12-0.26,0.26
				C18.52,2.7,18.63,2.82,18.78,2.82"/>
		</defs>
		<clipPath id="SVGID_38_">
			<use xlink:href="#SVGID_37_"  style="overflow:visible;"/>
		</clipPath>
		<rect x="14.35" y="-1.87" class="st18" width="8.86" height="8.86"/>
	</g>
	<g>
		<defs>
			<path id="SVGID_39_" d="M18.33,2.95c0.15,0,0.26-0.12,0.26-0.26c0-0.14-0.12-0.26-0.26-0.26c-0.14,0-0.26,0.12-0.26,0.26
				C18.06,2.83,18.19,2.95,18.33,2.95"/>
		</defs>
		<clipPath id="SVGID_40_">
			<use xlink:href="#SVGID_39_"  style="overflow:visible;"/>
		</clipPath>
		<rect x="13.9" y="-1.74" class="st19" width="8.86" height="8.86"/>
	</g>
	<g>
		<defs>
			<path id="SVGID_41_" d="M17.64,2.88c0,0.15,0.12,0.26,0.26,0.26c0.15,0,0.26-0.12,0.26-0.26c0-0.14-0.12-0.26-0.26-0.26
				C17.76,2.62,17.64,2.74,17.64,2.88"/>
		</defs>
		<clipPath id="SVGID_42_">
			<use xlink:href="#SVGID_41_"  style="overflow:visible;"/>
		</clipPath>
		<rect x="13.48" y="-1.54" class="st20" width="8.85" height="8.86"/>
	</g>
	<g>
		<defs>
			<path id="SVGID_43_" d="M16.98,3.79h0.29V3.01c-0.11-0.01-0.2-0.03-0.29-0.06V3.79z"/>
		</defs>
		<clipPath id="SVGID_44_">
			<use xlink:href="#SVGID_43_"  style="overflow:visible;"/>
		</clipPath>
		<rect x="12.81" y="-1.22" class="st21" width="8.63" height="9.17"/>
	</g>
	<g>
		<defs>
			<path id="SVGID_45_" d="M17.69,2.95C17.6,2.98,17.5,3,17.39,3.01v0.78h0.29V2.95z"/>
		</defs>
		<clipPath id="SVGID_46_">
			<use xlink:href="#SVGID_45_"  style="overflow:visible;"/>
		</clipPath>
		<rect x="13.23" y="-1.22" class="st22" width="8.63" height="9.17"/>
	</g>
	<g>
		<defs>
			<path id="SVGID_47_" d="M17.32,2.22v-0.6c-0.31,0.07-0.54,0.3-0.6,0.6H17.32z"/>
		</defs>
		<clipPath id="SVGID_48_">
			<use xlink:href="#SVGID_47_"  style="overflow:visible;"/>
		</clipPath>
		<rect x="12.56" y="-2.54" class="st23" width="8.93" height="8.93"/>
	</g>
	<g>
		<defs>
			<path id="SVGID_49_" d="M17.41,2.22h0.6c-0.05-0.3-0.29-0.53-0.6-0.6V2.22z"/>
		</defs>
		<clipPath id="SVGID_50_">
			<use xlink:href="#SVGID_49_"  style="overflow:visible;"/>
		</clipPath>
		<rect x="13.24" y="-2.54" class="st24" width="8.93" height="8.93"/>
	</g>
	<g>
		<defs>
			<path id="SVGID_51_" d="M16.73,2.31c0.06,0.34,0.28,0.6,0.56,0.6s0.5-0.25,0.56-0.6H16.73z"/>
		</defs>
		<clipPath id="SVGID_52_">
			<use xlink:href="#SVGID_51_"  style="overflow:visible;"/>
		</clipPath>
		<rect x="12.57" y="-1.86" class="st25" width="9.45" height="8.93"/>
	</g>
	<g>
		<defs>
			<rect id="SVGID_53_" x="16.81" y="0.6" width="0.95" height="0.96"/>
		</defs>
		<clipPath id="SVGID_54_">
			<use xlink:href="#SVGID_53_"  style="overflow:visible;"/>
		</clipPath>
		<g class="st26">
			<g>
				<defs>
					<rect id="SVGID_55_" x="16.45" y="0.18" width="1.67" height="1.67"/>
				</defs>
				<clipPath id="SVGID_56_">
					<use xlink:href="#SVGID_55_"  style="overflow:visible;"/>
				</clipPath>
				<g class="st27">
					<defs>
						<path id="SVGID_57_" d="M17.6,1.55c-0.13-0.1-0.23-0.25-0.25-0.41c0.15,0.03,0.32,0.13,0.41,0.26V0.78
							c-0.1,0.13-0.26,0.24-0.41,0.26c0.02-0.15,0.11-0.29,0.24-0.45h-0.6c0.13,0.16,0.22,0.3,0.24,0.45
							c-0.15-0.03-0.32-0.13-0.41-0.26v0.63c0.1-0.13,0.26-0.23,0.41-0.26c-0.02,0.16-0.12,0.3-0.25,0.41H17.6z"/>
					</defs>
					<clipPath id="SVGID_58_">
						<use xlink:href="#SVGID_57_"  style="overflow:visible;"/>
					</clipPath>
					<g class="st28">
						<defs>
							<rect id="SVGID_59_" x="16.45" y="0.18" width="1.67" height="1.67"/>
						</defs>
						<clipPath id="SVGID_60_">
							<use xlink:href="#SVGID_59_"  style="overflow:visible;"/>
						</clipPath>
						<rect x="12.65" y="-3.57" class="st29" width="9.28" height="9.29"/>
					</g>
				</g>
			</g>
		</g>
	</g>
	<g>
		<defs>
			<path id="SVGID_61_" d="M18.27,14.05c-0.57-0.14-1.25-0.39-1.89-0.68l0-0.01c0.02-0.13-0.03-0.28-0.13-0.39
				c-0.1-0.11-0.23-0.18-0.36-0.18c-0.06,0-0.12,0.01-0.17,0.03c-0.09-0.08-0.18-0.17-0.26-0.27c-0.24-0.28-0.43-0.61-0.56-0.98
				c-0.08-0.21-0.13-0.43-0.17-0.65c-0.03,0.18-0.24,0.43-0.6,0.44c0-0.04,0-0.13-0.03-0.14c-0.09,0.1-0.24,0.22-0.56,0.1
				c0.05,0.25,0.12,0.5,0.21,0.74c0.19,0.52,0.47,0.98,0.82,1.38c0.12,0.13,0.24,0.25,0.37,0.37c0,0.02,0,0.05,0,0.07
				c0,0.13,0.13,0.35,0.32,0.44c0.15,0.07,0.32,0.06,0.47-0.05c0.28,0.15,0.63,0.29,1.01,0.39c0.43,0.12,0.84,0.18,1.17,0.18
				c0.28,0,0.65-0.13,1.01-0.36c0.14-0.09,0.28-0.2,0.38-0.29c0.01-0.01,0.03-0.02,0.04-0.04C19.05,14.22,18.62,14.14,18.27,14.05
				 M16.18,13.19l-0.06-0.04c-0.11-0.09-0.2-0.09-0.3,0c-0.05,0.04-0.09,0.09-0.13,0.14l-0.06,0.07l0.04,0.04
				c0.12,0.09,0.13,0.19,0.1,0.26c-0.01,0.02-0.03,0.04-0.06,0.05c-0.06,0.01-0.14-0.01-0.22-0.06l-0.04-0.03l-0.03,0.04
				c-0.01,0.01-0.01,0.02-0.02,0.03c-0.01,0.01-0.02,0.03-0.03,0.05c-0.05,0.09-0.07,0.16-0.07,0.21c0,0.01,0,0.03,0.01,0.04
				c0.02,0.06,0.07,0.1,0.11,0.12l0.03,0.02c0.05,0.03,0.13,0.08,0.18,0.11c-0.11,0.06-0.21,0.06-0.31,0.01
				c-0.16-0.08-0.26-0.26-0.26-0.35c0-0.14,0.06-0.31,0.17-0.48l0.02-0.03l-0.02-0.03c-0.03-0.05-0.06-0.1-0.08-0.15
				c0.06,0.01,0.12,0.02,0.18,0.03l0.03,0.01l0.02-0.02c0.07-0.08,0.31-0.32,0.53-0.32c0.1,0,0.2,0.05,0.28,0.14
				c0.06,0.07,0.09,0.15,0.1,0.22C16.25,13.25,16.21,13.22,16.18,13.19 M16.55,14.28c-0.13,0-0.24-0.11-0.24-0.25
				c0-0.13,0.11-0.24,0.24-0.24c0.14,0,0.24,0.11,0.24,0.24C16.79,14.17,16.68,14.28,16.55,14.28 M17.62,14.61
				c-0.12,0-0.22-0.1-0.22-0.22c0-0.12,0.1-0.23,0.22-0.23c0.13,0,0.23,0.1,0.23,0.23C17.84,14.51,17.74,14.61,17.62,14.61"/>
		</defs>
		<clipPath id="SVGID_62_">
			<use xlink:href="#SVGID_61_"  style="overflow:visible;"/>
		</clipPath>
		<rect x="9.38" y="6.77" class="st30" width="14.12" height="12.26"/>
	</g>
	<g>
		<defs>
			<path id="SVGID_63_" d="M17.91,15.74c-0.04,0-0.08,0.01-0.12,0.02v-0.69c-0.3-0.01-0.65-0.06-1-0.15v0.84
				c-0.04-0.01-0.08-0.02-0.12-0.02c-0.24,0-0.39,0.2-0.39,0.39c0,0.17,0.1,0.33,0.19,0.44c0.04-0.11,0.09-0.19,0.14-0.19
				c0.12,0,0.07,0.59,0.41,0.61c-0.01,0.03-0.02,0.06-0.02,0.1c0,0.15,0.12,0.27,0.27,0.27c0.15,0,0.27-0.12,0.27-0.27
				c0-0.03-0.01-0.07-0.02-0.1c0.35-0.01,0.29-0.61,0.41-0.61c0.06,0,0.1,0.08,0.15,0.19c0.09-0.11,0.19-0.27,0.19-0.44
				C18.3,15.94,18.15,15.74,17.91,15.74 M17.29,17.24c-0.08,0-0.15-0.07-0.15-0.15c0-0.08,0.07-0.15,0.15-0.15
				c0.09,0,0.15,0.07,0.15,0.15C17.45,17.17,17.38,17.24,17.29,17.24 M18.11,16.37c-0.04-0.08-0.1-0.12-0.15-0.12
				c-0.23,0-0.14,0.62-0.42,0.62c-0.12,0-0.19-0.08-0.19-0.16c0-0.09,0.06-0.12,0.06-0.19c0-0.07-0.05-0.1-0.12-0.1
				c-0.06,0-0.11,0.03-0.11,0.1c0,0.07,0.06,0.1,0.06,0.19c0,0.08-0.07,0.16-0.19,0.16c-0.28,0-0.19-0.62-0.42-0.62
				c-0.05,0-0.11,0.04-0.15,0.12c-0.05-0.09-0.07-0.18-0.07-0.24c0-0.11,0.09-0.27,0.27-0.27c0.31,0,0.24,0.43,0.39,0.43
				c0.07,0,0.12-0.04,0.12-0.1c0-0.12-0.22-0.23-0.22-0.41c0-0.18,0.16-0.32,0.33-0.46c0.17,0.14,0.33,0.29,0.33,0.46
				c0,0.18-0.22,0.29-0.22,0.41c0,0.06,0.05,0.1,0.12,0.1c0.15,0,0.08-0.43,0.39-0.43c0.18,0,0.27,0.16,0.27,0.27
				C18.18,16.2,18.15,16.29,18.11,16.37"/>
		</defs>
		<clipPath id="SVGID_64_">
			<use xlink:href="#SVGID_63_"  style="overflow:visible;"/>
		</clipPath>
		<rect x="12.12" y="10.76" class="st31" width="10.35" height="10.77"/>
	</g>
	<g>
		<defs>
			<path id="SVGID_65_" d="M25.95,16.57c-0.01-0.03-0.05-0.06-0.09-0.04c-0.8,0.23-1.8-0.43-2.76-1.07
				c-0.81-0.54-1.57-1.05-2.23-1.05c-0.24,0-0.46,0.05-0.64,0.15c-0.23,0.13-0.4,0.33-0.51,0.59c-0.11,0.27-0.23,0.45-0.32,0.6
				c-0.11,0.17-0.19,0.3-0.19,0.46c0,0.13,0.06,0.25,0.17,0.36c0.09,0.09,0.23,0.18,0.42,0.29c0.04,0.02,0.08,0.04,0.12,0.06
				c0.16,0.08,0.26,0.13,0.27,0.22c-0.32,0.14-0.73,0.25-1.19,0.34c-0.53,0.09-1.1,0.14-1.71,0.14c-0.61,0-1.19-0.05-1.71-0.14
				c-0.47-0.08-0.88-0.2-1.2-0.34c0.01-0.13,0.11-0.19,0.28-0.27c0.04-0.02,0.08-0.04,0.13-0.06c0.16-0.08,0.31-0.17,0.41-0.26
				c0.11-0.1,0.17-0.2,0.17-0.33c0-0.16-0.08-0.29-0.19-0.46c-0.09-0.15-0.21-0.33-0.32-0.6c-0.11-0.27-0.28-0.46-0.51-0.59
				c-0.19-0.1-0.4-0.15-0.64-0.15c-0.66,0-1.42,0.51-2.23,1.05c-0.96,0.64-1.95,1.31-2.76,1.07c-0.04-0.01-0.08,0.01-0.09,0.05
				c-0.01,0.03,0.01,0.08,0.04,0.09c0.24,0.11,0.46,0.28,0.67,0.44c0.29,0.23,0.56,0.44,0.86,0.44c0.28,0,0.59-0.09,0.96-0.28
				c0.32-0.17,0.66-0.4,0.98-0.62c0.63-0.43,1.29-0.88,1.91-0.93c-0.07,0.06-0.13,0.12-0.19,0.17c-0.18,0.16-0.34,0.31-0.34,0.59
				c0,0.23,0.08,0.39,0.19,0.61c0.03,0.06,0.07,0.14,0.1,0.22c0.07,0.15,0.1,0.28,0.14,0.45c0.02,0.07,0.04,0.15,0.06,0.25
				c0.04,0.15,0.11,0.43,0.57,0.66c0.53,0.27,1.44,0.41,2.71,0.41c1.27,0,2.18-0.14,2.7-0.41c0.45-0.23,0.53-0.51,0.57-0.66
				c0.03-0.1,0.05-0.18,0.06-0.25c0.04-0.17,0.07-0.29,0.14-0.45c0.05-0.11,0.1-0.21,0.14-0.29c0.09-0.18,0.17-0.32,0.17-0.52
				c0-0.29-0.17-0.44-0.36-0.61c-0.06-0.06-0.13-0.11-0.19-0.18c0.62,0.05,1.28,0.5,1.91,0.93c0.32,0.22,0.66,0.45,0.98,0.62
				c0.37,0.2,0.68,0.29,0.96,0.29c0.3,0,0.57-0.21,0.86-0.44c0.21-0.16,0.42-0.33,0.67-0.44C25.95,16.65,25.96,16.6,25.95,16.57"/>
		</defs>
		<clipPath id="SVGID_66_">
			<use xlink:href="#SVGID_65_"  style="overflow:visible;"/>
		</clipPath>
		<rect x="4.46" y="10.23" class="st32" width="25.66" height="13"/>
	</g>
	<g>
		<defs>
			<path id="SVGID_67_" d="M21.14,10.14c-0.09-0.06-0.23-0.2-0.31-0.36c-0.1-0.2-0.49-0.98-0.56-1.08
				c-0.05-0.09-0.08-0.17-0.08-0.23c0-0.08,0.04-0.15,0.09-0.21c0.03-0.04,0.12-0.13,0.15-0.18c0.03-0.04,0.05-0.07,0.07-0.09
				c-0.14-0.25-0.29-0.44-0.48-0.66c-0.23-0.26-0.49-0.49-0.78-0.67c0.15-0.1,0.31-0.24,0.31-0.48c0-0.14-0.06-0.25-0.16-0.34
				c0.16-0.51,0.45-1.13,0.69-1.4l-0.52-0.22c0.13,0.2,0.14,0.44,0.11,0.58c-0.13-0.09-0.25-0.22-0.29-0.39
				c-0.03,0.16-0.11,0.41-0.19,0.56c0.15-0.07,0.27-0.1,0.42-0.04c-0.09,0.12-0.31,0.3-0.65,0.22C18.79,5.1,18.61,5,18.61,4.86
				c0-0.08,0.07-0.18,0.18-0.18c0.11,0.01,0.12,0.18,0.08,0.26c0.15-0.08,0.3-0.51,0.07-0.58c-0.18-0.05-0.35,0.2-0.41,0.39
				c-0.03-0.23-0.13-0.45-0.31-0.44c-0.24,0.02-0.16,0.46-0.08,0.57c0.01-0.15,0.1-0.24,0.17-0.23c0.06,0.01,0.15,0.05,0.13,0.19
				c-0.02,0.14-0.21,0.22-0.44,0.22c-0.22,0-0.6-0.07-0.64-0.49c0.14,0.03,0.36,0.13,0.46,0.28c-0.03-0.25-0.03-0.44,0-0.7
				c-0.12,0.17-0.32,0.25-0.45,0.28c0.04-0.18,0.19-0.37,0.38-0.48h-0.94c0.18,0.11,0.33,0.3,0.37,0.48
				c-0.14-0.02-0.33-0.11-0.44-0.28c0.03,0.27,0.03,0.45,0,0.7c0.09-0.14,0.31-0.25,0.45-0.28C17.17,5,16.79,5.07,16.57,5.07
				c-0.23,0-0.42-0.09-0.44-0.22c-0.01-0.14,0.07-0.18,0.13-0.19c0.07-0.01,0.16,0.08,0.17,0.23c0.08-0.11,0.16-0.55-0.08-0.57
				c-0.18-0.01-0.28,0.21-0.31,0.44c-0.06-0.19-0.23-0.44-0.41-0.39c-0.23,0.06-0.07,0.49,0.07,0.58c-0.03-0.07-0.03-0.24,0.09-0.26
				c0.12-0.01,0.18,0.09,0.18,0.18C15.98,5,15.79,5.1,15.61,5.15c-0.34,0.08-0.56-0.1-0.65-0.22c0.15-0.07,0.27-0.03,0.42,0.04
				c-0.08-0.15-0.16-0.41-0.19-0.56c-0.04,0.17-0.15,0.3-0.29,0.4c-0.03-0.14-0.02-0.38,0.11-0.58L14.5,4.44
				c0.24,0.27,0.53,0.89,0.69,1.41c-0.1,0.09-0.15,0.2-0.15,0.34c0,0.24,0.15,0.38,0.31,0.48c-0.28,0.19-0.54,0.41-0.78,0.67
				c-0.35,0.39-0.63,0.86-0.82,1.37c0.07,0.07,0.38,0.41,0.45,0.5c0.13,0.16,0.21,0.32,0.21,0.45c0.01,0.23,0.06,0.33,0.18,0.48
				c0.04,0.05,0.09,0.23,0.1,0.35h2.56v2.79c-0.1,0.01-0.21,0.03-0.29,0.14c0.29,0.12,0.58,0.22,0.86,0.31
				c0.03-0.18,0.06-0.29,0.16-0.41c0,0-0.37-0.04-0.57-0.05v-2.79h2.5c-0.01,0.38-0.08,0.75-0.2,1.1c-0.13,0.36-0.32,0.7-0.56,0.97
				c-0.24,0.28-0.52,0.5-0.83,0.66c-0.05,0.03-0.05,0.06-0.1,0.08c-0.04,0.05-0.09,0.13-0.12,0.23c-0.03,0.08-0.04,0.14-0.06,0.25
				c0.12,0.03,0.18,0.06,0.29,0.08c0.88,0.22,1.09,0.16,1.14,0.12h0c0.2-0.15,0.38-0.33,0.55-0.52c0.35-0.4,0.63-0.86,0.82-1.38
				c0.2-0.53,0.3-1.1,0.3-1.69C21.14,10.28,21.14,10.25,21.14,10.14z M17.25,10.34h-2.56c0-0.4,0.07-0.78,0.2-1.15
				c0.13-0.36,0.32-0.7,0.56-0.97c0.24-0.28,0.52-0.5,0.83-0.66c0.31-0.15,0.63-0.23,0.96-0.24V10.34z M17.29,6.07
				c-0.85,0-1.44,0.25-1.78,0.48c-0.2-0.12-0.28-0.23-0.28-0.37c0-0.48,1.37-0.53,2.06-0.53h0c0.69,0,2.07,0.04,2.07,0.53
				c0,0.14-0.09,0.25-0.29,0.37C18.73,6.32,18.15,6.07,17.29,6.07z M17.4,10.34V7.32c0.31,0.01,0.62,0.09,0.9,0.23
				c0.31,0.16,0.59,0.37,0.83,0.66c0.24,0.28,0.43,0.61,0.56,0.97c0.13,0.36,0.2,0.75,0.2,1.15H17.4z"/>
		</defs>
		<clipPath id="SVGID_68_">
			<use xlink:href="#SVGID_67_"  style="overflow:visible;"/>
		</clipPath>
		<rect x="9.59" y="-0.22" class="st33" width="15.72" height="18.4"/>
	</g>
	<g>
		<defs>
			<path id="SVGID_69_" d="M19.5,9.85c0.04,0.03,0.03,0.1-0.03,0.09c-0.05-0.45-0.22-0.9-0.48-1.27c0,0,0,0,0.01-0.01
				c0.05-0.02,0.09-0.06,0.11-0.13c-0.08-0.01-0.13,0.03-0.16,0.07c-0.02-0.02-0.04-0.05-0.06-0.07c-0.16-0.2-0.34-0.37-0.54-0.51
				c-0.19-0.13-0.39-0.22-0.6-0.28c0-0.05,0.07-0.06,0.09-0.01c0.01-0.08-0.06-0.12-0.1-0.1c-0.02,0.01-0.04,0.03-0.04,0.06
				c-0.03-0.03-0.06-0.05-0.11-0.06c0,0.05,0.01,0.09,0.03,0.12c-0.03,0-0.05,0.01-0.07,0.03c-0.02,0.04,0.01,0.11,0.09,0.12
				c-0.04-0.03-0.02-0.09,0.03-0.09v0.98c-0.05-0.01-0.11-0.01-0.16,0.04c0.05,0.05,0.11,0.06,0.16,0.04v1.06
				c-0.06,0-0.07-0.06-0.03-0.09c-0.08,0-0.11,0.07-0.1,0.11c0.01,0.03,0.04,0.04,0.08,0.04c-0.02,0.03-0.04,0.06-0.04,0.11
				c0.05,0,0.08-0.02,0.11-0.04c-0.01,0.05,0.01,0.07,0.04,0.08c0.04,0.02,0.11-0.01,0.11-0.1c-0.03,0.04-0.09,0.03-0.09-0.02h0.74
				c-0.01,0.05-0.01,0.11,0.04,0.16c0.05-0.05,0.06-0.12,0.04-0.16h0.82c0,0.05-0.06,0.07-0.09,0.03c0,0.08,0.08,0.11,0.11,0.09
				c0.03-0.01,0.04-0.03,0.04-0.08c0.03,0.02,0.06,0.04,0.11,0.04c0-0.05-0.02-0.09-0.04-0.11c0.04,0,0.07-0.01,0.08-0.04
				C19.62,9.91,19.59,9.84,19.5,9.85 M18.8,8.55c-0.02,0.02-0.03,0.05-0.02,0.07c0.01,0.02,0.03,0.05,0.07,0.05
				c-0.03,0.02-0.05,0.06-0.06,0.1c0.05,0.01,0.09-0.01,0.12-0.03c-0.01,0.04,0,0.07,0.03,0.08c0.02,0.01,0.04,0.01,0.07,0
				c0.19,0.31,0.32,0.66,0.38,1.02c-0.02-0.02-0.05-0.03-0.09-0.03c0,0.05,0.02,0.09,0.05,0.12h-0.62c0-0.04-0.02-0.08-0.04-0.09
				c-0.02-0.01-0.06,0-0.08,0.03c0-0.03-0.02-0.07-0.05-0.11c-0.03,0.04-0.05,0.07-0.05,0.11c-0.03-0.03-0.06-0.04-0.08-0.03
				c-0.03,0.01-0.05,0.04-0.04,0.09h-0.53c0.02-0.03,0.04-0.06,0.04-0.11c-0.05,0-0.08,0.02-0.11,0.04V9
				c0.04,0.01,0.08-0.01,0.09-0.04c0.01-0.02,0.01-0.05-0.03-0.08c0.04,0,0.08-0.01,0.11-0.05c-0.03-0.03-0.07-0.04-0.11-0.05
				c0.04-0.03,0.04-0.06,0.03-0.09c-0.01-0.03-0.05-0.05-0.09-0.04V7.92c0.02,0.02,0.05,0.03,0.09,0.04c0-0.04-0.01-0.08-0.03-0.1
				c0.16,0.06,0.33,0.13,0.48,0.24C18.48,8.21,18.65,8.37,18.8,8.55"/>
		</defs>
		<clipPath id="SVGID_70_">
			<use xlink:href="#SVGID_69_"  style="overflow:visible;"/>
		</clipPath>
		<rect x="13.34" y="3.46" class="st34" width="10.43" height="10.9"/>
	</g>
	<g>
		<defs>
			<path id="SVGID_71_" d="M19.07,9.57c0.03-0.01,0.06-0.04,0.07-0.06c-0.04,0.01-0.06-0.01-0.07-0.01c0.02-0.02,0.05,0,0.02-0.05
				c-0.03-0.05-0.05-0.05-0.08-0.01c-0.03,0.03-0.23-0.01-0.23-0.16c0.01,0.03,0.04,0.04,0.07,0.06c0.01,0.01,0.01,0.01,0.02,0.01
				c0.01,0,0.02,0,0.03,0c0.02,0.01,0.04,0.01,0.06,0.01c0,0,0.01,0,0.01,0V9.36c0.04-0.01,0.07-0.03,0.08-0.07
				c0.01-0.08-0.07-0.12-0.16-0.19c-0.03-0.03-0.06-0.05-0.08-0.07c-0.03-0.06-0.01-0.11-0.08-0.22c0-0.03-0.01-0.06-0.02-0.1
				c-0.04,0.07-0.06,0.21,0.04,0.32C18.83,9.11,19.01,9.2,19,9.28c0,0.02-0.02,0.03-0.04,0.04c-0.01,0-0.02,0-0.03,0
				c0,0-0.01,0-0.02-0.01c-0.01,0-0.02-0.01-0.04-0.02c-0.02-0.01-0.04-0.02-0.06-0.05c-0.07-0.07-0.14-0.17-0.18-0.23
				c-0.08-0.1-0.04-0.21-0.03-0.29c0.06-0.08-0.04-0.24-0.09-0.28c0,0,0.01-0.04,0-0.09c-0.01,0.01-0.04,0.01-0.05,0
				c-0.02-0.03-0.02-0.03-0.04-0.04c-0.04-0.01-0.04-0.03-0.04-0.04c-0.02,0.02-0.03,0.04-0.05,0.04c-0.03,0-0.04,0-0.05,0.01
				c-0.02,0.01-0.03,0.02-0.06,0.02c-0.04,0-0.03,0.02-0.03,0.04c0,0.01,0,0.04,0.03,0.05c0,0,0.01,0.01,0.01,0.01l0.03,0.03
				l0.02-0.03c0.01-0.01,0.06-0.02,0.07,0.01c0.01,0.02,0.01,0.03-0.02,0.03c-0.03,0.01-0.04,0.01-0.07,0.01
				c-0.02,0-0.02,0.02-0.02,0.04c0,0.02,0.02,0.03,0.06,0.02c0.04-0.01,0.11-0.02,0.11,0.02c0,0.09-0.1,0.09-0.12,0.19
				c-0.03-0.02-0.05-0.03-0.06-0.06c-0.01-0.03-0.04-0.06-0.08-0.09c-0.02-0.02-0.05-0.04-0.08-0.06c-0.03-0.02-0.03-0.04-0.03-0.07
				c0-0.03,0.01-0.06,0.01-0.09c0,0-0.01-0.02-0.01-0.03c-0.01-0.02-0.03-0.03-0.05-0.03c0.01,0.01,0.01,0.01,0.02,0.03
				c-0.01,0.01-0.01,0.01-0.01,0.02c-0.01,0.01-0.01,0.02,0,0.03c0,0,0,0,0,0.01c0,0.01,0,0.01,0,0.01c0,0.01,0,0.01,0,0
				c-0.01-0.02-0.02-0.05-0.04-0.06h-0.01c0,0,0,0,0-0.01c0-0.02-0.02-0.04-0.05-0.01c0.01,0,0.02,0,0.02,0.01c0,0.01,0,0.02,0,0.02
				c0,0.02,0.01,0.03,0.04,0.03c0,0,0.01,0,0.01,0c0,0,0,0.01,0,0.01c0,0.01,0,0.01,0,0c-0.04-0.02-0.06,0-0.06,0.02
				c0,0,0,0.01,0,0.01c-0.01,0.01-0.02,0.03,0.01,0.05c0-0.01,0-0.02,0.01-0.03c0,0,0,0,0.01,0c0,0.01,0.01,0.01,0.01,0.01
				c0,0,0.01,0,0.02-0.01c0,0,0.01,0,0.01,0l0.01,0.01c0,0,0,0,0,0.01c-0.03,0.03-0.02,0.05,0.01,0.06
				c-0.01,0.03-0.06,0.02-0.06-0.03c-0.03,0.06,0.02,0.09,0.07,0.07c0,0.02,0,0.06,0.01,0.06c0,0,0-0.01,0.01-0.01c0,0,0,0,0,0.01
				C18,8.68,18,8.7,18.02,8.7c0-0.01,0-0.01,0.01-0.01c0.01,0.01,0.01,0.03,0.02,0.04c0.02,0.04,0.07,0.15,0.17,0.19
				c-0.05,0.03-0.09,0.07-0.12,0.12c-0.03,0.03-0.07,0.06-0.1,0.04c-0.01-0.01-0.01-0.02-0.03-0.03c-0.01,0-0.03-0.01-0.04-0.01
				c0,0-0.01,0-0.02,0.01c-0.02-0.01-0.05,0-0.06,0.02c0.01,0,0.03-0.01,0.04,0.01c0,0.01,0,0.02,0,0.02c0,0.01,0.01,0.03,0.06,0.02
				c0,0,0.01,0,0.01,0.01c-0.01,0-0.01,0.01-0.03,0.01c-0.03-0.01-0.03-0.03-0.05,0c0,0-0.01,0.01-0.01,0.01h-0.01
				c-0.02,0.01-0.04,0.05-0.02,0.07c0-0.01,0-0.02,0.02-0.03c0,0,0.01,0.01,0.01,0.01c0.01,0.02,0.03,0.04,0.07-0.02
				c0-0.01,0.01,0,0,0c0,0.03-0.03,0.06,0.01,0.07c0,0,0.01,0,0.01,0v0.01c0.01,0.03,0.05,0.04,0.06,0.03
				c-0.01-0.01-0.03-0.01-0.03-0.04h0.02c0.02-0.02,0-0.04,0.01-0.06c0,0,0,0,0.01,0c0.01,0.01,0.02,0.04,0.05,0.02
				c0.01-0.01,0.02-0.02,0.02-0.03c0.04-0.01,0.07-0.03,0.1-0.02c0-0.02,0.02-0.05,0.06-0.06c0.04-0.01,0.06,0,0.07,0.01
				c0-0.01,0.02-0.04,0.04-0.07c0,0.16,0.21,0.15,0.26,0.25c-0.06-0.02-0.13-0.04-0.17-0.03c-0.05,0.01-0.14,0.06-0.15,0.12
				c-0.01,0.05,0.04,0.14,0.09,0.17c-0.06,0.01-0.08-0.01-0.14,0.01h-0.01c-0.05,0-0.05-0.08-0.11-0.06c0,0-0.01,0.01-0.02,0.01
				c-0.02,0-0.05,0.03-0.05,0.05c0.01-0.01,0.02-0.02,0.03-0.02v0.01c0,0.01,0,0.02,0.02,0.02c0.01,0,0.01-0.01,0.02-0.01
				c0,0,0.01,0,0.01,0.01c0,0.02-0.07-0.01-0.06,0.05c0,0,0.01,0.01,0.01,0.02c0,0.02,0.01,0.04,0.04,0.03
				c-0.01,0-0.02-0.01-0.01-0.02c0.01,0,0.01,0,0.01,0c0,0,0.01,0,0.01-0.01c0,0,0,0,0,0c0,0,0.01,0,0.01,0c0,0,0,0.01,0,0.01
				c0,0,0,0.02,0.01,0.02c0,0.02,0.03,0.04,0.06,0.02c-0.01,0-0.03-0.01-0.03-0.01c0.01,0,0.01-0.01,0.01-0.01
				c0-0.01,0.01-0.01,0.01-0.02c0-0.01,0-0.01,0.01-0.01h0.01c0.01,0,0.01,0,0.01,0.01c0.01,0.01,0.02,0.02,0.04,0.02
				c0.01,0,0.02-0.01,0.02-0.01c0.01,0,0.02,0.01,0.03,0.01c-0.01-0.02,0.01-0.04,0.06-0.01l0.03-0.03c0,0,0.05,0.02,0.06,0
				c0.03-0.03,0.01-0.03,0.01-0.05c-0.02-0.05-0.03-0.04-0.04-0.09c-0.01-0.08,0.09-0.12,0.16-0.11c0.01,0.05,0.08,0.18,0.2,0.22
				c0.07,0.02,0.1-0.06,0.13-0.04c0,0,0.01,0.01,0.01,0.02c0,0.04,0,0.07-0.01,0.09c-0.01,0.02-0.05,0-0.07,0
				c-0.02,0-0.03,0.01-0.03,0.01c-0.02,0-0.05,0.02-0.05,0.05c0.01-0.01,0.02-0.02,0.04-0.02c0,0,0,0.01,0,0.01
				c0,0.03,0.04,0.04,0.06,0.02c0-0.01,0.01,0,0,0c-0.02,0.01-0.05,0.04-0.02,0.06c0,0,0.01,0,0.01,0.01c0,0.02,0.01,0.04,0.03,0.04
				c-0.01-0.01-0.01-0.02,0-0.04c0.01,0,0.01,0,0.02,0c0.02,0,0.01-0.04,0.03-0.05c0,0,0,0,0,0C18.98,9.75,18.98,9.77,19,9.78
				c0,0,0.01,0,0.02,0c0.01,0.02,0.03,0.03,0.06,0.01c-0.01,0-0.02-0.01-0.03-0.02c0.01-0.01,0.01-0.01,0.01-0.02
				c0.01-0.05-0.03-0.05-0.03-0.07c0-0.02,0.05-0.01,0.05-0.06c0,0,0,0,0-0.01c0.02-0.01,0.04-0.03,0.04-0.04
				C19.1,9.59,19.07,9.58,19.07,9.57L19.07,9.57z"/>
		</defs>
		<clipPath id="SVGID_72_">
			<use xlink:href="#SVGID_71_"  style="overflow:visible;"/>
		</clipPath>
		<rect x="13.68" y="4.11" class="st35" width="9.62" height="9.86"/>
	</g>
	<g>
		<defs>
			<path id="SVGID_73_" d="M16.96,10.98l-0.04,0l0-0.04c0.01-0.15-0.08-0.26-0.25-0.26c-0.14,0-0.42,0.18-0.81,0.18
				c-0.16,0-0.36-0.08-0.49-0.15l-0.05,0.12v-0.01c0-0.05-0.04-0.1-0.1-0.1c-0.05,0-0.1,0.04-0.1,0.1c0,0.05,0.04,0.1,0.1,0.1
				c0.03,0,0.06-0.01,0.08-0.03L15.26,11c0.02,0.01,0.03,0.01,0.05,0.02c-0.06,0.59,0.38,1.34,1.15,1.57
				c0.11-0.03,0.23-0.01,0.23,0.11c0,0.08-0.04,0.11-0.11,0.11c-0.05,0-0.07-0.03-0.07-0.06c0-0.05,0.09-0.02,0.1-0.06
				c0.01-0.05-0.02-0.07-0.07-0.07c-0.05,0-0.14,0.03-0.14,0.13c0,0.1,0.09,0.17,0.18,0.17c0.09,0,0.26-0.05,0.24-0.26
				c0.04,0,0.09-0.01,0.1-0.04l0.01-0.12l-0.04-0.01l0.03-1.35l0.03,0c0.05,0,0.09-0.02,0.1-0.07C17.04,11.02,17,10.99,16.96,10.98
				 M15.57,11.09l0.94,1.35C16,12.24,15.5,11.79,15.57,11.09 M16.53,12.31l-0.85-1.23c0.03,0,0.05,0,0.08,0c0.04,0,0.09,0,0.13-0.01
				l0.68,0.98C16.56,12.15,16.54,12.24,16.53,12.31 M16.59,11.92l-0.6-0.86c0.07-0.02,0.13-0.04,0.19-0.06l0.45,0.64
				C16.62,11.73,16.61,11.83,16.59,11.92 M16.74,10.97l-0.04,0c-0.04,0-0.09,0.01-0.1,0.07c0,0.05,0.03,0.09,0.08,0.09h0.03l0,0.03
				c-0.01,0.08-0.03,0.2-0.05,0.35l-0.38-0.55c0.18-0.07,0.32-0.15,0.4-0.15C16.74,10.82,16.75,10.84,16.74,10.97"/>
		</defs>
		<clipPath id="SVGID_74_">
			<use xlink:href="#SVGID_73_"  style="overflow:visible;"/>
		</clipPath>
		<rect x="10.97" y="6.52" class="st36" width="10.23" height="10.57"/>
	</g>
	<g>
		<defs>
			<path id="SVGID_75_" d="M16.8,8.27c0.18,0,0.27-0.06,0.27-0.12c0-0.2-0.5-0.08-0.5-0.2c0-0.02,0.01-0.04,0.04-0.06h0.01
				c0.25-0.02,0.26-0.2,0.44-0.23c-0.22-0.03-0.25,0.14-0.34,0.15c0.05-0.02,0.07-0.08,0.06-0.1c-0.04,0.06-0.14,0.06-0.2,0.13
				c-0.01,0.01-0.01,0.03-0.01,0.04c-0.03,0.02-0.05,0.04-0.05,0.07c0,0.19,0.51,0.06,0.51,0.2c0,0.05-0.09,0.08-0.23,0.08
				c-0.1,0-0.18-0.07-0.38-0.02c0-0.03,0.07-0.1,0.04-0.13c0.02-0.01,0.03-0.02,0.03-0.04c-0.01-0.01-0.02-0.01-0.04-0.02
				c0.01-0.01,0-0.02-0.01-0.03c0,0-0.01-0.02-0.01-0.03c-0.01-0.01-0.02-0.02-0.05-0.03c-0.02-0.01-0.04-0.01-0.04-0.01
				c-0.01,0-0.03,0-0.03,0c-0.01,0-0.02,0-0.03,0.01c-0.01-0.01-0.02-0.01-0.04-0.01c-0.01,0.02-0.01,0.03,0,0.06
				c-0.02,0-0.04,0.05-0.06,0.04c0.01,0.01,0.01,0.02,0.02,0.02C16.2,8.07,16.19,8.1,16.17,8.1c0,0,0.01,0.01,0.01,0.01
				c-0.02,0.04-0.02,0.09-0.03,0.12c-0.01-0.01-0.03-0.02-0.04-0.03c-0.03-0.02-0.03-0.03-0.02-0.06c0-0.03,0.02-0.05,0.02-0.07
				c0,0,0-0.02,0-0.02c0-0.02-0.03-0.03-0.04-0.03c0.01,0.01,0.01,0.01,0.01,0.03c-0.01,0-0.01,0.01-0.01,0.01
				c-0.01,0.01-0.01,0.02,0,0.02c0,0.01,0,0.01,0,0.01c0,0,0,0.01,0,0.01c0,0,0,0,0,0c0-0.02-0.01-0.04-0.03-0.05h-0.01V8.05
				c0-0.02-0.02-0.03-0.05-0.01c0.01,0,0.02,0,0.02,0c0,0.01-0.01,0.02-0.01,0.02c0,0.02,0.01,0.03,0.03,0.03c0,0,0.01,0,0.01,0
				c0,0,0,0.01,0,0.01c0,0,0,0,0,0c-0.04-0.01-0.05,0-0.06,0.01c0,0,0,0.01,0,0.01c-0.01,0.01-0.02,0.03,0,0.04
				c0-0.01,0-0.02,0.01-0.02c0,0,0,0,0,0c0,0,0.01,0.01,0.01,0.01c0,0,0.01,0,0.02-0.01c0,0,0,0,0.01,0c0,0,0,0,0.01,0.01
				c0,0,0,0,0,0.01c-0.03,0.02-0.03,0.04,0,0.05c0,0,0,0,0,0.01c-0.01,0.04-0.07,0.03-0.06-0.01C15.95,8.26,16,8.3,16.05,8.28
				c0,0,0,0,0.01,0c0,0.01,0,0.01,0.01,0.01c0,0,0-0.01,0.01-0.01c0,0,0,0,0,0.01c0,0.01,0,0.02,0.01,0.03c0-0.01,0-0.02,0.01-0.02
				c0.01,0,0.02,0.04,0.05,0.06c-0.04,0.02-0.11,0.03-0.11,0.03c-0.01,0-0.07-0.01-0.09,0.01c-0.03,0.01-0.1,0.04-0.12,0.01
				c-0.01-0.01,0-0.02-0.01-0.04c-0.01-0.01-0.02-0.02-0.02-0.02h-0.02c-0.01-0.01-0.04-0.02-0.05-0.01c0.01,0,0.02,0,0.03,0.02
				c0,0-0.01,0.01-0.01,0.01c-0.01,0.01,0,0.02,0.04,0.04c0,0,0.01,0.01,0,0.01c-0.01,0-0.02,0-0.02,0
				c-0.02-0.01-0.02-0.03-0.04-0.02c0,0-0.01,0.01-0.01,0.01c0,0,0,0,0,0c-0.02,0-0.05,0.02-0.04,0.04c0,0,0.01-0.01,0.02-0.02
				c0,0.01,0,0.01,0,0.01c0,0.03,0.01,0.04,0.06,0.01c0.01-0.01,0.01,0,0,0c-0.01,0.02-0.04,0.04-0.02,0.06c0,0,0.01,0,0.01,0.01
				c0,0,0,0,0,0c-0.01,0.03,0.02,0.04,0.04,0.04c-0.01-0.01-0.02-0.02-0.01-0.04c0,0,0.01,0,0.01,0c0.02-0.01,0.01-0.04,0.02-0.05
				c0,0,0.01,0,0.01,0c0,0.01,0.01,0.04,0.03,0.04c0.03,0,0.04-0.02,0.04-0.04c0,0,0,0,0,0c0.01,0.01,0.02,0.02,0.01,0.03
				c0.01,0,0.01-0.01,0.02-0.02c0,0.01,0.01,0.03-0.01,0.05c0.01,0,0.04-0.02,0.04-0.05c0,0,0.01,0.01,0.01,0.01c0,0,0,0,0,0
				c0.01,0,0.03,0.01,0.06,0c0,0,0,0,0,0c0,0.01,0,0.02,0,0.03c0,0,0.01-0.01,0.01-0.01c0.01,0,0,0.03,0.02,0.04
				c0-0.07,0.04-0.04,0.08-0.07c0.01,0,0.01,0,0,0c0,0.01-0.01,0.02-0.02,0.02c0.02,0,0.05-0.02,0.05-0.04c0,0,0.01-0.01,0.03-0.02
				c0.01,0,0.04-0.01,0.05-0.02c0,0.01,0.01,0.03,0,0.03c0.04,0,0.09-0.05,0.11-0.05c0.1-0.02-0.06-0.09,0.14-0.07
				c0.02,0,0.04-0.01,0.06-0.02c-0.01,0.03-0.02,0.09,0.01,0.09c0.01,0,0.04,0.01,0.05,0.02c0,0,0,0,0,0
				c-0.02,0-0.04,0.01-0.04,0.01c-0.05,0.03-0.05-0.07-0.1-0.05c0,0-0.01,0.01-0.01,0.01c-0.02,0-0.05,0.02-0.04,0.04
				c0.01-0.01,0.02-0.02,0.03-0.02v0.01c0,0.01,0,0.02,0.02,0.02c0.01,0,0.01-0.01,0.02-0.01c0,0,0,0,0,0.01
				c0,0.02-0.06-0.01-0.05,0.04c0,0,0,0.01,0.01,0.01c0,0.01,0.01,0.03,0.04,0.02c0-0.01-0.01-0.01-0.01-0.02h0.01
				c0,0,0,0,0.01-0.01c0,0,0,0,0,0c0,0,0.01,0,0.01,0.01c0,0-0.01,0.01-0.01,0.01c0,0,0.01,0.01,0.01,0.01
				c0,0.02,0.02,0.04,0.05,0.02c-0.01,0-0.02,0-0.03-0.01c0,0,0.01-0.01,0.01-0.01c0,0,0.01-0.01,0.01-0.02c0,0,0,0,0,0
				c0,0,0.01,0,0.01,0c0,0,0.01,0,0.01,0c0,0.01,0.02,0.02,0.04,0.02c0.03-0.01,0-0.04,0.03-0.05c0,0,0.01,0,0.02,0
				c0.03,0.01,0.06,0.01,0.07-0.01c0.01-0.01,0-0.06-0.02-0.07c-0.02-0.01,0-0.03-0.01-0.05c0.03,0.01,0.06,0.02,0.1,0.02
				c0.07,0,0-0.01,0.03-0.03c0.03-0.02,0.07-0.01,0.08-0.01c0.01,0,0.02,0.01,0.01,0.01c-0.01,0.04,0,0.04,0,0.06
				c-0.01,0.01-0.04,0-0.06,0c-0.01,0-0.02,0.01-0.02,0.01c-0.02,0-0.04,0.02-0.04,0.04c0.01,0,0.02-0.01,0.03-0.02v0.01
				c0,0.03,0.03,0.03,0.05,0.02c0,0,0.01,0,0.01,0c-0.01,0.01-0.04,0.04-0.02,0.04c0,0,0.01,0,0.01,0.01c0,0.02,0.01,0.03,0.02,0.03
				c0-0.01-0.01-0.01,0-0.03h0.01c0.01,0,0.01-0.03,0.03-0.04c0,0,0,0,0,0c0,0.02-0.01,0.04,0.01,0.04c0,0,0.01,0,0.01,0
				c0,0.01,0.02,0.02,0.04,0.01c0,0-0.01-0.01-0.02-0.01c0.01,0,0.01-0.01,0.01-0.02c0.01-0.04-0.02-0.04-0.02-0.05
				c0-0.02,0.04-0.01,0.04-0.05c0-0.01,0-0.02-0.02-0.02h0h0c0.01,0,0.02,0,0.03-0.01c-0.03,0-0.02-0.02-0.02-0.03c0,0,0,0,0-0.01
				c0.01-0.01,0.02-0.02,0.01-0.04c-0.01,0.01-0.04,0.03-0.04,0c0,0,0-0.02-0.03-0.01C16.91,8.3,16.88,8.28,16.8,8.27
				C16.79,8.27,16.79,8.27,16.8,8.27 M16.24,8.06L16.24,8.06L16.24,8.06 M16.37,8.03c0.01,0.01,0.04,0.02,0.06,0.02
				c-0.03,0.01-0.02,0.02-0.04,0.01C16.37,8.07,16.37,8.05,16.37,8.03 M16.33,8.01c-0.01,0.01-0.03,0.03-0.04,0.01
				c-0.01-0.01,0-0.01-0.01-0.04C16.3,7.99,16.32,8.01,16.33,8.01 M16.28,8.13c0-0.01,0.01-0.02,0.01-0.02c0.01,0,0.02,0,0.02-0.01
				c0-0.01-0.01-0.02-0.02-0.03c0.01,0,0.02-0.01,0.01-0.01c-0.01-0.01-0.02,0.01-0.02,0c0-0.01,0.01-0.01,0.01-0.01
				c0,0,0.01,0,0.01,0l0.05,0.02c0.01,0,0.01,0.01,0.01,0.01c0,0.01,0,0.01,0,0.02c0,0,0-0.01-0.01-0.02c-0.01,0-0.01,0.01,0,0.02
				c-0.01-0.01-0.02-0.01-0.03,0c-0.01,0.01,0,0.02,0,0.02c0,0.01,0,0.01,0,0.03c0,0.01-0.02,0.03-0.04,0.02
				C16.27,8.16,16.27,8.14,16.28,8.13"/>
		</defs>
		<clipPath id="SVGID_76_">
			<use xlink:href="#SVGID_75_"  style="overflow:visible;"/>
		</clipPath>
		<rect x="11.5" y="3.49" class="st37" width="9.73" height="9.25"/>
	</g>
	<g>
		<defs>
			<path id="SVGID_77_" d="M17.05,8.95c0-0.06-0.06-0.09-0.24-0.09c-0.18,0-0.58,0.07-0.58-0.03c0-0.05,0.08-0.05,0.17-0.04
				c0.01,0.01,0.02,0.02,0.04,0.02c0.23,0.07,0.5-0.06,0.64-0.02c-0.16-0.12-0.3,0-0.48-0.03c0.1,0,0.14-0.03,0.14-0.06
				c-0.08,0.05-0.23-0.03-0.33,0.03c0,0-0.01,0.01-0.01,0.01c-0.13-0.01-0.23-0.01-0.23,0.08c0,0.18,0.48,0.07,0.63,0.07
				c0.15,0,0.18,0.01,0.18,0.05c0,0.04-0.15,0.05-0.23,0.05c-0.13,0-0.52-0.07-0.76-0.02c0.02-0.04,0.06-0.09,0.04-0.12
				c0.02-0.01,0.04-0.03,0.04-0.04c-0.01-0.01-0.03-0.02-0.05-0.02c0.01-0.01,0-0.02-0.01-0.03c0,0-0.01-0.03-0.01-0.03
				c-0.01-0.01-0.03-0.02-0.05-0.04c-0.03-0.01-0.04-0.01-0.06-0.02c0,0-0.03,0.01-0.03,0.01c-0.01,0-0.03,0-0.03,0.01
				c-0.01-0.01-0.03-0.01-0.04-0.02c-0.01,0.02-0.01,0.04-0.01,0.07c-0.02,0-0.04,0.06-0.06,0.05c0.01,0.02,0.01,0.02,0.02,0.02
				c-0.02,0.03-0.03,0.07-0.04,0.07c0.01,0.01,0.02,0.02,0.03,0.02c0,0.03,0,0.05,0,0.07l-0.04-0.01h-0.01c-0.01,0-0.01,0-0.01-0.01
				c0,0,0.01,0,0.01,0l-0.02-0.01c-0.02-0.02-0.04-0.05-0.08-0.07c-0.04-0.02-0.04-0.04-0.03-0.07c0-0.03,0.02-0.06,0.02-0.09
				c0,0,0-0.02-0.01-0.03c0-0.02-0.03-0.03-0.04-0.03c0.01,0.01,0.02,0.01,0.02,0.03c-0.01,0.01-0.01,0.01-0.01,0.01
				c-0.01,0.01-0.01,0.02,0,0.03c0,0,0,0.01,0,0.01l0,0.01c0,0.01,0,0-0.01,0c-0.01-0.02-0.01-0.06-0.03-0.06c0,0-0.01,0-0.01,0
				c0,0,0,0,0-0.01c0-0.02-0.03-0.04-0.05-0.01c0.01,0,0.02,0,0.02,0.01c0,0.01-0.01,0.02-0.01,0.02c0,0.02,0.01,0.03,0.04,0.03
				c0,0,0,0,0.01,0.01c0,0,0,0.01,0,0.01c0,0.01,0,0,0,0c-0.04-0.02-0.06,0-0.06,0.02c0,0,0,0.01,0,0.02
				c-0.01,0.01-0.02,0.03,0,0.05c0-0.01,0-0.02,0.01-0.03c0,0,0,0,0.01,0c0,0,0.01,0.01,0.01,0.01c0,0,0.01,0,0.03-0.01
				c0,0,0,0,0.01,0c0,0,0.01,0,0.01,0.01c0,0,0,0.01,0,0.01c-0.03,0.03-0.02,0.05,0.01,0.06c0,0,0.01,0,0.01,0.01
				c-0.01,0.05-0.07,0.04-0.07-0.01c-0.04,0.06,0.03,0.1,0.07,0.07c0,0,0.01,0,0.01,0c0,0.01,0.01,0.02,0.01,0.02
				c0,0,0-0.01,0.01-0.01c0,0,0,0.01,0,0.01c0,0.01,0,0.03,0.02,0.03c0-0.01,0-0.02,0.01-0.02c0.01,0,0.03,0.04,0.07,0.06
				c0.03,0.01,0.06,0.05,0.08,0.03c0,0.03,0.03,0.07,0.02,0.07c-0.01,0-0.1,0-0.13,0.01c-0.03,0.02-0.12,0.05-0.14,0.01
				c-0.01-0.01,0-0.02-0.01-0.04c-0.01-0.01-0.02-0.02-0.03-0.02h-0.02c-0.01-0.01-0.04-0.02-0.06-0.01c0.01,0,0.02,0,0.03,0.02
				c0,0.01-0.01,0.01-0.01,0.02c-0.01,0.01,0,0.03,0.05,0.05c0,0,0.01,0.01,0,0.01c-0.01,0.01-0.02,0.01-0.03,0
				c-0.02-0.01-0.02-0.04-0.05-0.02c0,0-0.01,0.01-0.02,0.01c0,0,0,0,0,0c-0.02,0-0.06,0.03-0.04,0.05c0-0.01,0.01-0.02,0.03-0.02
				c0,0.01,0.01,0.01,0.01,0.02c0,0.03,0.01,0.05,0.07,0.01c0-0.01,0,0,0,0c-0.01,0.02-0.05,0.04-0.02,0.06c0,0,0.01,0.01,0.01,0.01
				c0,0,0,0,0,0c-0.01,0.03,0.03,0.06,0.04,0.06c-0.01-0.01-0.02-0.03-0.02-0.05c0.01,0,0.01,0,0.01,0
				c0.03-0.01,0.02-0.04,0.03-0.05c0,0,0.01,0,0.01,0c0,0.01,0.01,0.04,0.04,0.04c0.03,0,0.04-0.03,0.04-0.04c0,0,0-0.01,0,0
				c0.01,0.01,0.02,0.02,0.01,0.03c0.01,0,0.02-0.01,0.02-0.02c0.01,0.02,0.01,0.04-0.01,0.06c0.01-0.01,0.04-0.02,0.05-0.05
				c0.01,0,0.01,0.01,0.01,0.02c0,0,0,0,0,0c0.01,0,0.03,0.01,0.06,0c0,0,0,0,0,0c0,0.01,0,0.02,0,0.03c0,0,0.01-0.01,0.01-0.01
				c0.01,0,0,0.03,0.02,0.05c0.01-0.08,0.05-0.05,0.1-0.08c0.01,0,0.01,0,0,0c0,0.01-0.01,0.02-0.02,0.03
				c0.06,0.01,0.14-0.07,0.15-0.1c0.02,0,0.04-0.01,0.05-0.01c0.16,0.01,0.05-0.14,0.3-0.09c0.01,0,0.04-0.02,0.06-0.03
				c-0.02,0.03-0.02,0.1,0.01,0.11c0.02,0,0.05,0.01,0.06,0.02c0,0,0,0,0,0.01c-0.02,0-0.04,0.01-0.05,0.01
				c-0.05,0.04-0.06-0.08-0.11-0.06c0,0-0.01,0.01-0.01,0.01c-0.02,0-0.05,0.03-0.05,0.05c0.01-0.01,0.02-0.02,0.04-0.02v0.01
				c0,0.01,0,0.02,0.02,0.02c0.01,0,0.01-0.01,0.02-0.01c0,0,0.01,0,0.01,0.01c0,0.02-0.07-0.01-0.06,0.05c0,0,0,0.01,0.01,0.02
				c0,0.02,0.01,0.03,0.04,0.03c-0.01,0-0.02-0.01-0.02-0.02h0.01c0,0,0.01,0,0.01-0.01c0,0,0,0,0,0c0,0,0,0,0,0.01
				c0,0,0,0.01,0,0.01c0,0,0,0.02,0.01,0.02c0,0.02,0.03,0.05,0.06,0.02c-0.01,0-0.03,0-0.03-0.01c0.01,0,0.01,0,0.02,0
				c0-0.01,0.01-0.01,0.01-0.02c0,0,0,0,0,0c0,0,0.01,0,0.01,0c0.01,0,0.01,0,0.01,0.01c0.01,0.01,0.03,0.02,0.04,0.02
				c0.04-0.01,0.01-0.05,0.04-0.06h0.02c0.03,0.01,0.07,0.01,0.08-0.01c0.01-0.01,0-0.07-0.03-0.09c-0.02-0.01,0-0.03-0.02-0.06
				c0.03,0.01,0.07,0.03,0.11,0.03c0.09,0,0.1-0.01,0.14-0.04c0.04-0.03,0.09-0.01,0.1-0.01c0.01,0,0.02,0.01,0.02,0.02
				c-0.01,0.04,0,0.05-0.01,0.07c-0.01,0.01-0.04,0-0.07,0c-0.01,0-0.02,0.01-0.03,0.01c-0.02,0-0.04,0.02-0.04,0.05
				c0.01-0.01,0.02-0.02,0.04-0.02c0,0,0,0.01,0,0.01c0,0.03,0.03,0.04,0.05,0.02c0,0,0.01,0,0.01,0c-0.02,0.01-0.05,0.04-0.02,0.05
				c0,0,0.01,0.01,0.02,0.01c0,0.02,0.01,0.04,0.03,0.04c-0.01-0.01-0.01-0.02,0-0.04h0.01c0.02,0,0.01-0.03,0.03-0.05c0,0,0,0,0,0
				c-0.01,0.02-0.01,0.05,0.01,0.05c0,0,0.01,0,0.01,0c0.01,0.02,0.03,0.03,0.05,0.01c-0.01,0-0.02-0.01-0.02-0.02
				c0-0.01,0.01-0.02,0.01-0.02c0.01-0.04-0.03-0.04-0.03-0.06c0-0.02,0.04-0.01,0.04-0.05c0-0.01,0-0.02-0.02-0.03v0
				c0.01,0,0.03,0,0.03-0.01c-0.03,0-0.02-0.02-0.03-0.04c0,0,0-0.01,0-0.01c0.01-0.01,0.02-0.02,0.01-0.05
				c-0.01,0.01-0.05,0.03-0.05,0c0,0,0-0.02-0.03-0.02c-0.06,0.01-0.09-0.01-0.2-0.01C16.87,9.04,17.05,9.01,17.05,8.95 M15.65,9.05
				C15.65,9.05,15.65,9.05,15.65,9.05C15.65,9.05,15.65,9.05,15.65,9.05 M15.93,8.79c0.01,0.01,0.05,0.02,0.07,0.03
				c-0.03,0.01-0.03,0.02-0.05,0.02C15.94,8.84,15.93,8.81,15.93,8.79 M15.89,8.77c-0.01,0.01-0.03,0.03-0.04,0.01
				c-0.01-0.01,0-0.02-0.01-0.05C15.85,8.75,15.88,8.77,15.89,8.77 M15.83,8.92c0.01-0.01,0.01-0.02,0.02-0.02
				c0.01,0,0.02,0,0.02-0.01c0.01-0.01-0.01-0.02-0.02-0.03c0.01,0,0.02-0.01,0.01-0.02c-0.01-0.01-0.02,0.01-0.02,0
				c0-0.01,0.01-0.01,0.01-0.01c0.01,0,0.01,0,0.02,0l0.06,0.03c0.01,0.01,0.01,0.01,0.01,0.01c0,0.01,0,0.02,0,0.02
				c-0.01,0,0-0.02-0.01-0.02c-0.01,0-0.01,0.01,0,0.02c-0.01-0.01-0.03-0.01-0.03,0c-0.01,0.01,0,0.02,0.01,0.03
				c0,0.01,0,0.02-0.01,0.03c0,0.01-0.02,0.03-0.04,0.02C15.82,8.95,15.82,8.93,15.83,8.92 M15.97,9.23L15.97,9.23
				C15.97,9.23,15.97,9.23,15.97,9.23"/>
		</defs>
		<clipPath id="SVGID_78_">
			<use xlink:href="#SVGID_77_"  style="overflow:visible;"/>
		</clipPath>
		<rect x="11.12" y="4.5" class="st38" width="10.13" height="9.05"/>
	</g>
	<g>
		<defs>
			<path id="SVGID_79_" d="M16.97,9.73c0-0.05-0.06-0.09-0.23-0.09c-0.17,0-0.69,0.06-0.69-0.03c0-0.06,0.18-0.04,0.31-0.04
				c0,0.01,0.02,0.02,0.04,0.03c0.22,0.06,0.45-0.09,0.61-0.03c-0.12-0.12-0.28,0.01-0.45-0.02c0.1,0,0.2-0.02,0.2-0.05
				c-0.07,0.05-0.29-0.03-0.38,0.02c-0.01,0.01-0.01,0.01-0.01,0.01C16.2,9.54,16,9.51,16,9.61c0,0.17,0.6,0.07,0.74,0.07
				c0.14,0,0.17,0.01,0.17,0.04c0,0.04-0.14,0.05-0.22,0.05c-0.13,0-0.69-0.08-0.91-0.01c0.01-0.03,0.07-0.09,0.04-0.12
				c0.02-0.01,0.04-0.03,0.04-0.04c-0.01-0.01-0.03-0.02-0.04-0.02c0.01-0.01,0-0.02-0.01-0.03c0,0-0.01-0.02-0.01-0.03
				c-0.01-0.01-0.03-0.02-0.05-0.03c-0.03-0.01-0.04-0.01-0.05-0.01c-0.01,0-0.03,0.01-0.03,0c-0.01,0-0.03,0-0.03,0.01
				c-0.01-0.01-0.02-0.01-0.04-0.02c-0.01,0.02-0.01,0.03-0.01,0.06c-0.02,0-0.04,0.05-0.06,0.04c0.01,0.02,0.01,0.02,0.02,0.02
				c-0.02,0.03-0.02,0.07-0.04,0.07c0.01,0.01,0.01,0.01,0.02,0.02c0,0.02-0.01,0.04-0.01,0.05L15.5,9.74c-0.01,0-0.02,0-0.03,0
				c-0.01,0-0.02,0-0.03,0c-0.03,0-0.05-0.05-0.09-0.07c-0.03-0.02-0.04-0.03-0.04-0.07c0-0.03,0.01-0.06,0.01-0.08
				c0,0,0-0.02-0.01-0.03c-0.01-0.02-0.03-0.03-0.04-0.03c0.01,0.01,0.01,0.01,0.02,0.03c-0.01,0.01-0.01,0.01-0.01,0.02
				c-0.01,0.01-0.01,0.02,0,0.03c0,0,0,0,0,0.01c0,0,0,0.01,0,0.01c0,0,0,0,0,0c-0.01-0.02-0.02-0.05-0.04-0.06h-0.01v0
				c0-0.02-0.03-0.04-0.05-0.01c0,0,0.01,0,0.02,0.01c0,0.01,0,0.02,0,0.02c0,0.02,0.01,0.03,0.04,0.03c0,0,0.01,0,0.01,0
				c0,0,0,0.01,0,0.01c0,0.01,0,0.01,0,0c-0.04-0.02-0.06,0-0.06,0.02c0,0,0,0.01,0,0.01c-0.01,0.01-0.02,0.03,0.01,0.05
				c0-0.01,0-0.02,0.01-0.02c0,0,0,0,0,0c0,0.01,0.01,0.01,0.01,0.01c0,0,0.01,0,0.02-0.01c0,0,0.01,0,0.01,0c0,0,0.01,0,0.01,0.01
				c0,0,0,0.01,0,0.01c-0.03,0.02-0.02,0.05,0.01,0.06c0.01,0,0.01,0,0.01,0.01c0,0.05-0.06,0.04-0.06-0.01
				c-0.03,0.06,0.03,0.1,0.08,0.07c0,0,0,0,0,0c0,0.01,0.01,0.01,0.02,0.01c0,0,0-0.01,0.01-0.01c0,0,0,0,0,0.01
				c0,0.01,0.01,0.03,0.03,0.03c0-0.01,0-0.02,0.01-0.02c0.01,0,0.04,0.06,0.11,0.1c0.01,0,0.03,0,0.04-0.02
				c0,0,0.01,0.01,0.01,0.01c0,0.03,0.02,0.07,0.02,0.07c-0.01,0-0.12,0-0.14,0.01c-0.03,0.02-0.11,0.05-0.13,0.01
				c-0.01-0.01,0-0.02-0.01-0.04c-0.01-0.01-0.02-0.02-0.03-0.02H15.2c-0.01-0.01-0.04-0.02-0.05-0.01c0.01,0,0.02,0.01,0.03,0.02
				c0,0-0.01,0.01-0.01,0.01c-0.01,0.01,0,0.03,0.05,0.04c0,0,0.01,0.01,0,0.01c-0.01,0.01-0.02,0.01-0.03,0
				c-0.02-0.01-0.02-0.04-0.05-0.03c0,0-0.01,0.01-0.01,0.01h-0.01c-0.02-0.01-0.06,0.02-0.04,0.05c0-0.01,0.01-0.02,0.03-0.02
				c0,0.01,0,0.01,0,0.01c0,0.03,0.01,0.05,0.07,0.01c0.01,0,0.01,0,0,0c-0.01,0.02-0.05,0.04-0.02,0.06c0,0,0.01,0,0.01,0.01
				c0,0,0,0,0,0.01c0,0.03,0.02,0.05,0.04,0.05c-0.01-0.01-0.02-0.02-0.02-0.04c0.01,0,0.01,0.01,0.02,0.01
				c0.02-0.01,0.01-0.04,0.03-0.05c0,0,0.01,0,0.01,0c0,0.01,0.01,0.04,0.04,0.04c0.03,0,0.04-0.03,0.04-0.04c0,0,0,0,0,0
				c0.01,0.01,0.02,0.01,0.02,0.03c0,0,0.01-0.01,0.02-0.02c0,0.01,0.01,0.03-0.01,0.05c0.01,0,0.04-0.02,0.05-0.05
				c0,0,0.01,0.01,0.01,0.01c0,0,0,0,0,0c0.01,0.01,0.03,0.01,0.06,0c0,0,0,0,0,0c0,0.01,0,0.02,0,0.03c0,0,0.01-0.01,0.01-0.01
				c0.01,0,0,0.03,0.01,0.05c0.01-0.07,0.1-0.04,0.14-0.07c0.01-0.01,0.01,0,0,0c0,0.01-0.01,0.02-0.02,0.03
				c0.02,0,0.04-0.01,0.06-0.02c0,0,0,0-0.01,0.01l0.08-0.03c0-0.01,0-0.01,0-0.02c0.01,0,0.02,0,0.03-0.01c0,0,0,0,0,0
				c0.05,0,0.04-0.04,0.06-0.03c0.28,0.03,0.12-0.12,0.44-0.09c0.01,0,0.02-0.01,0.04-0.02c-0.02,0.03-0.02,0.08,0.01,0.09
				c0.01,0,0.04,0.01,0.06,0.02c0,0,0,0.01,0,0.01c-0.02,0-0.04,0.01-0.04,0.01c-0.05,0.03-0.05-0.08-0.11-0.06
				c0,0-0.01,0.01-0.01,0.01c-0.02,0-0.05,0.02-0.05,0.05c0.01-0.01,0.02-0.02,0.04-0.02v0.01c0,0.01,0,0.02,0.02,0.02
				c0.01,0,0.01-0.01,0.02-0.01c0,0,0,0,0,0.01c0,0.02-0.07-0.01-0.05,0.05c0,0,0.01,0.01,0.01,0.01c0,0.02,0.01,0.04,0.04,0.03
				c-0.01,0-0.02-0.01-0.02-0.02c0.01,0,0.01,0,0.02,0c0,0,0,0,0.01-0.01c0,0,0,0,0,0c0,0,0,0,0,0.01c0,0.01,0,0.01,0,0.01
				c0,0,0,0.02,0.01,0.02c0,0.02,0.03,0.04,0.06,0.02c-0.01,0-0.03,0-0.03-0.01c0.01,0,0.01-0.01,0.02-0.01c0,0,0.01-0.01,0.01-0.02
				c0-0.01,0-0.01,0.01-0.01h0.01c0.01,0,0.01,0,0.01,0c0,0.01,0.02,0.02,0.04,0.02c0.03-0.01,0.01-0.04,0.03-0.05
				c0,0,0.02,0,0.02,0c0.03,0.01,0.07,0,0.08-0.01c0.01-0.01,0-0.06-0.03-0.08c-0.02-0.01,0-0.03-0.02-0.06
				c0.03,0.01,0.06,0.03,0.11,0.03c0.08,0,0.1-0.01,0.13-0.03c0.04-0.02,0.08-0.01,0.09-0.01c0.01,0,0.02,0.01,0.01,0.02
				c-0.01,0.04,0,0.04,0,0.06c-0.01,0.01-0.04,0-0.06,0c-0.01,0-0.03,0.01-0.03,0.01c-0.02,0-0.04,0.02-0.04,0.04
				c0.01,0,0.02-0.02,0.03-0.02c0,0,0,0.01,0,0.01c0,0.03,0.03,0.04,0.05,0.02c0,0,0.01,0,0.01,0c-0.01,0.01-0.04,0.04-0.02,0.05
				c0,0,0.01,0,0.01,0.01c0,0.02,0.01,0.03,0.03,0.04c-0.01-0.01-0.01-0.01,0-0.03h0.01c0.02,0,0.01-0.03,0.03-0.05c0,0,0,0,0,0
				c-0.01,0.02-0.01,0.04,0.01,0.05c0,0,0.01,0,0.01,0c0,0.01,0.02,0.03,0.05,0.01c-0.01,0-0.02-0.01-0.02-0.01
				c0.01-0.01,0.01-0.01,0.01-0.02c0.01-0.04-0.02-0.04-0.02-0.06c0-0.02,0.04-0.01,0.04-0.05c0-0.01-0.01-0.02-0.02-0.03v0v0
				c0.01,0,0.03,0,0.03-0.01c-0.03,0-0.02-0.02-0.03-0.04c0-0.01,0-0.01,0-0.01c0.01-0.01,0.02-0.02,0.01-0.04
				c-0.01,0.01-0.04,0.03-0.05,0c0,0,0-0.02-0.04-0.02c-0.05,0.01-0.09-0.01-0.18-0.01C16.79,9.82,16.97,9.8,16.97,9.73 M15.72,9.59
				c0.01,0.01,0.05,0.02,0.07,0.03c-0.03,0.01-0.03,0.01-0.04,0.01C15.73,9.64,15.72,9.61,15.72,9.59 M15.68,9.57
				c-0.01,0.01-0.03,0.03-0.04,0.01c-0.01-0.01,0-0.02-0.01-0.05C15.64,9.55,15.67,9.57,15.68,9.57 M15.62,9.71
				c0.01-0.01,0.01-0.02,0.01-0.02c0.01,0,0.02,0,0.02-0.01c0.01-0.01-0.01-0.02-0.02-0.03c0.01,0,0.02-0.01,0.01-0.01
				c-0.01-0.01-0.02,0-0.02,0c0-0.01,0.01-0.01,0.01-0.01c0.01-0.01,0.01,0,0.02,0l0.05,0.02c0.01,0.01,0.01,0.01,0.01,0.02
				c0,0,0,0.01,0,0.02c-0.01,0,0-0.02-0.02-0.02c-0.01,0-0.01,0.01,0,0.02c-0.01,0-0.02-0.01-0.03,0c-0.01,0.01,0,0.02,0,0.03
				c0,0,0,0.01,0,0.03c0,0.01-0.02,0.03-0.04,0.02C15.61,9.74,15.61,9.72,15.62,9.71"/>
		</defs>
		<clipPath id="SVGID_80_">
			<use xlink:href="#SVGID_79_"  style="overflow:visible;"/>
		</clipPath>
		<rect x="10.91" y="5.28" class="st39" width="10.25" height="9.03"/>
	</g>
	<g>
		<defs>
			<path id="SVGID_81_" d="M19.39,11.05C19.39,11.04,19.39,11.04,19.39,11.05c0.01-0.01,0.02-0.03,0.02-0.05
				c-0.01,0.01-0.05,0.03-0.05,0c0,0,0-0.02-0.03-0.02c-0.05,0.01-0.1-0.01-0.2-0.01c-0.01,0-0.01-0.01,0-0.01
				c0.1-0.01,0.28-0.02,0.28-0.08c0-0.05-0.06-0.09-0.23-0.09c-0.17,0-0.69,0.06-0.69-0.03c0-0.06,0.18-0.04,0.31-0.03
				c0,0.01,0.02,0.02,0.04,0.02c0.22,0.06,0.47-0.1,0.6-0.06c-0.17-0.06-0.28,0.04-0.45,0.01c0.1,0,0.2-0.02,0.2-0.05
				c-0.08,0.05-0.29-0.03-0.38,0.02c-0.01,0-0.01,0.01-0.01,0.01c-0.16,0-0.36-0.02-0.36,0.07c0,0.17,0.6,0.07,0.74,0.07
				c0.14,0,0.18,0.02,0.18,0.04c0,0.04-0.14,0.05-0.22,0.05c-0.13,0-0.69-0.07-0.91-0.01c0.01-0.04,0.07-0.09,0.04-0.12
				c0.02-0.01,0.04-0.03,0.04-0.04c-0.01-0.01-0.03-0.02-0.04-0.02c0.01-0.01,0-0.02-0.01-0.03c0,0-0.01-0.03-0.01-0.03
				c-0.01-0.01-0.03-0.02-0.05-0.03c-0.02-0.01-0.04-0.01-0.05-0.01c-0.01,0-0.03,0-0.03,0c-0.01,0-0.03,0-0.03,0.01
				c-0.01-0.01-0.02-0.01-0.04-0.01c-0.01,0.02-0.01,0.03,0,0.06c-0.02,0-0.04,0.05-0.06,0.04c0.01,0.01,0.01,0.02,0.02,0.02
				c-0.02,0.03-0.03,0.07-0.04,0.07c0.01,0.01,0.02,0.02,0.03,0.03c0,0.02,0,0.04,0,0.05l-0.03-0.01h-0.03c-0.01,0-0.02,0-0.03-0.01
				c-0.03,0-0.05-0.05-0.09-0.07c-0.03-0.02-0.03-0.04-0.03-0.07c0-0.03,0.01-0.06,0.01-0.08c0-0.01-0.01-0.02-0.01-0.03
				c-0.01-0.02-0.03-0.04-0.04-0.03c0.01,0.01,0.01,0.01,0.02,0.03c-0.01,0.01-0.01,0.01-0.01,0.01c0,0.01-0.01,0.02,0,0.03
				c0,0,0,0.01,0,0.01c0,0,0,0.01,0,0.01c0,0.01,0,0,0,0c-0.01-0.02-0.02-0.05-0.04-0.05c0,0-0.01,0-0.01,0c0,0,0,0,0,0
				c0-0.02-0.02-0.04-0.05-0.01c0.01,0,0.02,0,0.02,0.01c0,0.01-0.01,0.02-0.01,0.02c0,0.02,0.01,0.03,0.04,0.03
				c0.01,0,0.01,0,0.01,0.01c0,0,0,0.01,0,0.01c0,0,0,0,0,0c-0.04-0.02-0.06,0-0.06,0.02c0,0,0,0.01,0,0.01
				c-0.01,0.01-0.02,0.03,0.01,0.05c0-0.01,0-0.02,0.01-0.03h0c0,0,0.01,0.01,0.01,0.01c0,0,0.01,0,0.02-0.01h0.01
				c0,0,0.01,0.01,0.01,0.01c0,0,0,0,0,0.01c-0.03,0.03-0.02,0.05,0.01,0.06c0,0,0.01,0,0.01,0.01c0,0.05-0.07,0.04-0.06-0.01
				c-0.03,0.06,0.03,0.1,0.07,0.07c0,0,0,0,0.01,0c0,0.01,0.01,0.02,0.01,0.02c0,0,0-0.01,0.01-0.01c0,0,0,0.01,0,0.01
				c0,0.01,0.01,0.03,0.02,0.03c0-0.01,0-0.02,0.01-0.02c0.01,0,0.04,0.07,0.11,0.11c0-0.01,0.03-0.02,0.04-0.03
				c0,0.01,0.01,0.03,0.02,0.03l0.01-0.01c0,0.04,0.03,0.07,0.03,0.07c-0.01,0-0.08-0.01-0.1,0c-0.03,0.02-0.11,0.05-0.13,0.01
				c-0.01-0.01-0.01-0.02-0.02-0.04c-0.01-0.01-0.01-0.02-0.02-0.02h-0.02c-0.01-0.01-0.04-0.01-0.05-0.01
				c0.01,0,0.02,0.01,0.03,0.02c0,0.01-0.01,0.01-0.01,0.01c0,0.01,0,0.03,0.05,0.05c0,0,0.01,0,0,0.01c-0.01,0-0.02,0.01-0.03,0
				c-0.02-0.01-0.02-0.04-0.05-0.02c0,0-0.01,0-0.01,0.01h0c-0.02,0-0.06,0.03-0.04,0.05c0-0.01,0.01-0.02,0.03-0.03
				c0,0.01,0,0.01,0,0.02c0,0.03,0.01,0.04,0.07,0.01c0.01,0,0.01,0,0,0c-0.01,0.02-0.05,0.04-0.02,0.06c0,0,0.01,0.01,0.01,0.01
				c0,0,0,0.01,0,0.01c0,0.03,0.03,0.05,0.04,0.05c-0.01-0.01-0.02-0.02-0.02-0.04c0.01,0,0.01,0.01,0.02,0
				c0.02-0.01,0.01-0.04,0.03-0.05c0,0,0,0,0.01,0c0,0.01,0.01,0.04,0.04,0.04c0.03,0,0.04-0.03,0.04-0.04c0,0,0,0,0,0
				c0.01,0.01,0.02,0.02,0.01,0.03c0,0,0.01-0.01,0.02-0.02c0,0.02,0.01,0.03-0.01,0.06c0.01-0.01,0.04-0.02,0.05-0.05
				c0.01,0.01,0.01,0.01,0.01,0.02c0,0,0,0,0,0c0.01,0,0.03,0.01,0.06,0c0,0,0,0,0,0c0,0.01,0,0.02,0,0.03c0,0,0.01-0.01,0.01-0.01
				c0.01,0,0,0.03,0.02,0.05c0.01-0.08,0.05-0.05,0.1-0.08c0.01,0,0.01,0,0,0c0,0.01-0.01,0.02-0.02,0.02
				c0.02,0.01,0.09-0.03,0.09-0.06c0-0.01,0.03-0.01,0.05-0.01c0.05,0,0.04-0.04,0.06-0.03c0.28,0.04,0.12-0.12,0.45-0.09
				c0.01,0,0.02-0.02,0.04-0.03c-0.02,0.03-0.02,0.1,0.02,0.1c0.01,0,0.04,0.01,0.06,0.02c0,0,0,0.01,0,0.01
				c-0.02,0-0.04,0.01-0.05,0.01c-0.05,0.03-0.05-0.08-0.11-0.06c0,0-0.01,0.01-0.01,0.01c-0.02,0-0.05,0.03-0.05,0.05
				c0.01-0.01,0.02-0.02,0.03-0.02v0.01c0,0.01,0,0.02,0.02,0.02c0.01,0,0.01-0.01,0.02-0.01c0,0,0.01,0,0.01,0.01
				c0,0.02-0.07-0.01-0.05,0.04c0,0,0.01,0.01,0.01,0.02c0,0.02,0.01,0.04,0.04,0.02c-0.01,0-0.02-0.01-0.01-0.02c0,0,0.01,0,0.01,0
				c0,0,0.01,0,0.01-0.01c0,0,0,0,0,0c0,0,0.01,0,0.01,0.01c0,0,0,0.01,0,0.01c0,0,0,0.01,0,0.02c0,0.02,0.03,0.04,0.06,0.02
				c-0.01,0-0.03,0-0.03-0.01c0.01,0,0.01-0.01,0.01-0.01c0,0,0.01-0.01,0.01-0.02c0-0.01,0-0.01,0-0.01h0.01
				c0.01,0,0.01,0,0.01,0.01c0.01,0.01,0.02,0.02,0.04,0.01c0.03-0.01,0-0.04,0.03-0.05c0.01,0,0.01,0,0.02,0
				c0.03,0,0.07,0,0.08-0.01c0.01-0.01,0-0.06-0.03-0.08c-0.02-0.01,0-0.03-0.02-0.06c0.03,0.01,0.06,0.02,0.11,0.02
				c0.08,0,0.1-0.01,0.14-0.03c0.04-0.03,0.08-0.01,0.1-0.01c0.01,0,0.01,0.01,0.01,0.02c-0.01,0.04,0,0.04-0.01,0.06
				c-0.01,0.01-0.04,0-0.07,0c-0.01,0-0.02,0.01-0.02,0.01c-0.02,0.01-0.04,0.02-0.04,0.04c0.01,0,0.02-0.01,0.04-0.02v0.01
				c0,0.03,0.03,0.04,0.05,0.02c0,0,0.01,0,0,0.01c-0.01,0.01-0.05,0.04-0.02,0.05l0.01,0.01c0,0.01,0.01,0.03,0.02,0.04
				c0-0.01,0-0.02,0-0.03h0.01c0.02,0,0.01-0.04,0.03-0.05c0,0,0,0,0,0c-0.01,0.02-0.01,0.04,0,0.05c0,0,0.01,0,0.01,0
				c0,0.02,0.02,0.03,0.05,0.01c-0.01,0-0.02-0.01-0.02-0.01c0-0.01,0.01-0.02,0.01-0.02c0.02-0.04-0.02-0.04-0.02-0.06
				c0-0.02,0.04-0.01,0.04-0.05c0-0.01,0-0.02-0.01-0.03c0,0,0,0,0,0c0.01,0,0.02,0,0.03-0.01C19.38,11.09,19.39,11.06,19.39,11.05z
				 M18.16,10.73c0.01,0.01,0.05,0.02,0.07,0.03c-0.03,0.01-0.03,0.02-0.04,0.02C18.17,10.77,18.16,10.75,18.16,10.73z M18.12,10.71
				c-0.01,0.01-0.03,0.03-0.04,0.01c-0.01-0.02,0-0.02-0.02-0.05C18.08,10.68,18.11,10.7,18.12,10.71z M18.06,10.84
				c0.01-0.01,0.01-0.02,0.02-0.02c0.01,0,0.02,0,0.02-0.01c0-0.01-0.01-0.02-0.02-0.03c0.01,0,0.02-0.01,0.01-0.02
				c-0.01,0-0.02,0.01-0.02,0c0,0,0.01-0.01,0.01-0.01c0.01,0,0.01,0,0.02,0l0.05,0.03c0.01,0.01,0.01,0.01,0.01,0.01
				c0,0.01,0,0.02,0,0.02c-0.01,0-0.01-0.01-0.01-0.02c-0.01,0-0.01,0.01,0,0.02c-0.01-0.01-0.03-0.01-0.03,0
				c-0.01,0.01-0.01,0.02,0,0.03c0,0,0,0.01,0,0.03c-0.01,0.01-0.02,0.03-0.04,0.02C18.05,10.88,18.05,10.86,18.06,10.84z
				 M18.01,10.76L18.01,10.76L18.01,10.76z M18.03,10.71L18.03,10.71L18.03,10.71z"/>
		</defs>
		<clipPath id="SVGID_82_">
			<use xlink:href="#SVGID_81_"  style="overflow:visible;"/>
		</clipPath>
		<rect x="13.43" y="6.43" class="st40" width="10.17" height="9.03"/>
	</g>
	<g>
		<defs>
			<path id="SVGID_83_" d="M18.63,11.47c0,0.01,0.02,0.02,0.04,0.03c0.21,0.06,0.45-0.1,0.57-0.06c-0.17-0.06-0.27,0.04-0.43,0.01
				c0.09,0,0.19-0.02,0.2-0.04c-0.07,0.05-0.27-0.03-0.36,0.02c-0.01,0-0.01,0.01-0.01,0.01c-0.11,0-0.21,0-0.21,0.07
				c0,0.16,0.43,0.07,0.57,0.07s0.12,0.01,0.12,0.04c0,0.03-0.16,0.05-0.23,0.05c-0.12,0-0.47-0.06-0.69-0.02
				c0.02-0.03,0.06-0.08,0.03-0.1c0.02-0.01,0.03-0.03,0.03-0.04c-0.01-0.01-0.03-0.01-0.04-0.02c0.01-0.01,0-0.02-0.01-0.03
				c0,0-0.01-0.02-0.01-0.03c-0.01-0.01-0.02-0.02-0.05-0.03c-0.03-0.01-0.04-0.01-0.05-0.01c0,0-0.02,0-0.03,0
				c-0.01,0-0.03,0-0.03,0.01c-0.01-0.01-0.02-0.01-0.04-0.01C18,11.4,18,11.41,18.01,11.44c-0.02,0-0.04,0.05-0.06,0.04
				c0.01,0.01,0.01,0.02,0.02,0.02c-0.02,0.03-0.02,0.06-0.04,0.07c0.01,0.01,0.01,0.01,0.02,0.02c-0.01,0.02-0.01,0.04-0.01,0.06
				l-0.02-0.01h-0.01c-0.03,0-0.04,0-0.09-0.02c-0.03-0.02-0.03-0.04-0.03-0.07c0-0.03,0.01-0.05,0.01-0.08c0,0,0-0.01-0.01-0.02
				c-0.01-0.02-0.03-0.03-0.04-0.03c0.01,0,0.02,0.01,0.02,0.03c-0.01,0-0.01,0.01-0.01,0.01c-0.01,0.01-0.01,0.02,0,0.03
				c0,0,0,0,0,0.01c0,0,0,0.01,0,0.01c0,0,0,0,0,0c-0.01-0.02-0.02-0.05-0.03-0.05c0,0-0.01,0-0.01,0v0c0-0.02-0.02-0.04-0.04-0.01
				c0,0,0.01,0,0.02,0.01c0,0.01-0.01,0.02-0.01,0.02c0,0.02,0.01,0.03,0.04,0.03c0,0,0,0,0.01,0c0,0,0,0,0,0.01c0,0,0,0,0,0
				c-0.04-0.01-0.05,0-0.05,0.01c0,0,0,0.01,0,0.02c-0.01,0.01-0.01,0.03,0.01,0.04c0-0.01,0-0.02,0.01-0.02c0,0,0,0,0.01,0
				c0,0.01,0.01,0.01,0.01,0.01c0,0,0.01,0,0.02,0c0,0,0.01,0,0.01,0c0,0,0.01,0,0.01,0c0,0,0,0.01,0,0.01
				c-0.02,0.03-0.02,0.05,0.01,0.05c0,0,0,0,0,0.01c0,0.05-0.06,0.04-0.06-0.01c-0.03,0.05,0.03,0.09,0.07,0.07c0,0,0,0,0,0
				c0,0.01,0.01,0.02,0.02,0.02c0,0,0-0.01,0.01-0.01c0,0,0,0,0,0c0,0.01,0.01,0.03,0.02,0.03c0-0.01,0-0.02,0.01-0.02
				c0.01,0,0.01-0.02,0.06,0.01c0,0.01,0.01,0.02,0.02,0.02l0.04-0.01c0,0.03,0,0.08,0,0.08c-0.01,0-0.07-0.01-0.09,0
				c-0.03,0.02-0.1,0.04-0.13,0.01c-0.01-0.01,0-0.02-0.01-0.03c-0.01-0.01-0.02-0.02-0.03-0.02h-0.02
				c-0.01-0.01-0.04-0.01-0.05-0.01c0.01,0,0.02,0,0.03,0.02c0,0-0.01,0.01-0.01,0.01c-0.01,0.01,0,0.02,0.04,0.04
				c0,0,0.01,0.01,0,0.01c-0.01,0-0.02,0-0.03,0c-0.02-0.02-0.02-0.04-0.04-0.02c0,0-0.01,0-0.02,0.01c0,0,0,0,0,0
				c-0.02,0-0.05,0.03-0.04,0.05c0-0.01,0.01-0.02,0.03-0.02c0,0.01,0,0.01,0,0.01c0,0.03,0.01,0.04,0.07,0.01c0,0,0,0,0,0
				c-0.01,0.02-0.04,0.04-0.02,0.06c0,0,0,0.01,0.01,0.01c0,0,0,0,0,0.01c0,0.03,0.03,0.05,0.04,0.05
				c-0.01-0.01-0.02-0.02-0.01-0.04c0.01,0,0.01,0,0.01,0c0.03-0.01,0.01-0.04,0.03-0.05c0,0,0.01,0,0.01,0
				c0,0.01,0.01,0.03,0.03,0.03c0.03,0,0.04-0.03,0.04-0.04c0,0,0,0,0,0c0.01,0,0.02,0.01,0.01,0.03c0,0,0.01-0.01,0.02-0.02
				c0.01,0.01,0.01,0.03-0.01,0.05c0.01,0,0.04-0.02,0.04-0.05c0.01,0.01,0.01,0.01,0.01,0.01h0c0.01,0,0.03,0.01,0.06,0
				c0,0,0,0,0,0c0,0.01,0,0.02,0,0.03c0-0.01,0.01-0.02,0.01-0.02c0.01,0,0,0.03,0.02,0.04c0-0.07,0.06-0.05,0.11-0.08c0,0,0,0,0,0
				c0,0.01-0.01,0.02-0.02,0.02c0.05,0.03,0.1-0.04,0.11-0.07c0.01,0,0.01-0.01,0.01-0.01c0,0.01,0,0.01-0.01,0.02
				c0.05,0,0.04-0.03,0.06-0.03c0.14,0.01,0.04-0.12,0.26-0.08c0.01,0,0.04-0.01,0.06-0.02c-0.01,0.03-0.02,0.09,0.01,0.1
				c0.02,0,0.04,0.01,0.05,0.02c0,0,0,0,0,0.01c-0.02,0-0.04,0-0.04,0.01c-0.05,0.03-0.05-0.07-0.1-0.05c0,0-0.01,0.01-0.01,0.01
				c-0.02,0-0.05,0.02-0.04,0.04c0.01-0.01,0.02-0.01,0.03-0.02c0,0.01,0,0.01,0,0.01c0,0.01,0,0.01,0.02,0.01
				c0.01,0,0.01-0.01,0.02-0.01c0,0,0.01,0,0.01,0.01c0,0.02-0.06-0.01-0.05,0.04c0,0,0.01,0.01,0.01,0.02
				c0,0.01,0.01,0.03,0.04,0.02c0,0-0.01-0.01-0.01-0.02h0.01c0,0,0,0,0.01-0.01c0,0,0,0,0,0c0,0,0.01,0,0.01,0
				c0,0.01,0,0.01,0,0.01c0,0,0,0.02,0,0.02c0,0.02,0.03,0.04,0.05,0.02c-0.01,0-0.03,0-0.03-0.01c0.01,0,0.01,0,0.01-0.01
				c0,0,0-0.01,0-0.02c0,0,0,0,0.01,0h0.01c0.01,0,0.01,0,0.01,0c0.01,0.01,0.02,0.02,0.04,0.02c0.04-0.01,0-0.04,0.03-0.05
				c0,0,0.01,0,0.02,0c0.03,0.01,0.07,0.01,0.07-0.01c0.01-0.01,0-0.06-0.03-0.08c-0.01-0.01,0-0.03-0.01-0.06
				c0.03,0.01,0.06,0.03,0.1,0.03c0.07,0,0.11-0.01,0.15-0.03c0.04-0.02,0.08-0.01,0.09-0.01c0.01,0,0.01,0.01,0.01,0.02
				c-0.02,0.03-0.01,0.04-0.02,0.06c-0.01,0.01-0.04,0-0.06,0c-0.01,0-0.02,0.01-0.02,0.01c-0.02,0.01-0.04,0.02-0.05,0.04
				c0-0.01,0.02-0.02,0.04-0.02c0,0,0,0.01,0,0.01c0,0.03,0.02,0.04,0.04,0.02c0,0,0.01,0,0,0c-0.02,0.01-0.05,0.03-0.03,0.05
				c0,0,0.01,0,0.01,0.01c-0.01,0.02,0,0.03,0.01,0.03c0-0.01,0-0.01,0.01-0.03H19c0.02,0,0.02-0.04,0.04-0.04c0,0,0,0,0,0
				c-0.01,0.02-0.02,0.04-0.01,0.05c0,0,0.01,0,0.01,0c0,0.01,0.02,0.02,0.04,0.01c0,0-0.01-0.01-0.01-0.01
				c0.01-0.01,0.01-0.02,0.01-0.02c0.02-0.04-0.01-0.04-0.01-0.06c0-0.02,0.04-0.01,0.05-0.05c0-0.01,0-0.02-0.01-0.03c0,0,0,0,0,0
				h0c0.01,0,0.02,0,0.03-0.01c-0.03,0-0.01-0.02-0.01-0.03c0,0,0-0.01,0-0.01c0.01-0.01,0.02-0.02,0.02-0.04
				c-0.01,0.01-0.05,0.03-0.04,0c0,0,0-0.02-0.03-0.01c-0.05,0.01-0.12-0.01-0.21-0.01c-0.01,0-0.01,0,0-0.01
				c0.09-0.01,0.28-0.02,0.28-0.08c0-0.05-0.01-0.08-0.17-0.08c-0.16,0-0.53,0.06-0.53-0.03C18.47,11.46,18.54,11.47,18.63,11.47
				 M18.1,11.46c-0.01,0.01-0.03,0.03-0.04,0.01c-0.01-0.01,0-0.02-0.01-0.04C18.06,11.44,18.09,11.46,18.1,11.46 M18.13,11.56
				c-0.01,0-0.01-0.02-0.01-0.02c-0.01,0-0.01,0.01,0,0.02c-0.01,0-0.02-0.01-0.03,0c-0.01,0.01,0,0.02,0,0.03c0,0.01,0,0.01,0,0.03
				c0,0.01-0.02,0.03-0.04,0.02c-0.02-0.01-0.01-0.03-0.01-0.04c0.01-0.01,0.01-0.02,0.02-0.02c0.01,0,0.02,0,0.02-0.01
				c0-0.01-0.01-0.02-0.02-0.03c0.01-0.01,0.02-0.01,0.01-0.01c-0.01-0.01-0.02,0-0.02,0c0-0.01,0.01-0.01,0.01-0.01
				c0,0,0.01,0,0.02,0l0.05,0.02c0.01,0,0.01,0.01,0.01,0.01C18.13,11.55,18.14,11.56,18.13,11.56 M18.16,11.52
				c-0.02,0-0.03-0.03-0.02-0.04c0.01,0.01,0.04,0.02,0.06,0.03C18.17,11.51,18.18,11.52,18.16,11.52"/>
		</defs>
		<clipPath id="SVGID_84_">
			<use xlink:href="#SVGID_83_"  style="overflow:visible;"/>
		</clipPath>
		<rect x="13.39" y="7.21" class="st41" width="10.02" height="8.97"/>
	</g>
	<g>
		<defs>
			<path id="SVGID_85_" d="M18.46,12.23c0,0.01,0.02,0.02,0.04,0.03c0.21,0.06,0.45-0.1,0.57-0.06c-0.16-0.06-0.27,0.04-0.43,0.01
				c0.09,0,0.19-0.02,0.2-0.04c-0.07,0.05-0.27-0.03-0.36,0.02c-0.01,0-0.01,0.01-0.02,0.01c-0.06,0.01-0.12,0.05-0.12,0.1
				c0,0.14,0.53,0.03,0.53,0.08c0,0.03-0.1,0.07-0.24,0.07c-0.11,0-0.29-0.07-0.52-0.01v0c0.02-0.04,0.06-0.1,0.04-0.12
				c0.02-0.01,0.03-0.02,0.03-0.04c-0.01-0.01-0.03-0.02-0.04-0.02c0-0.01,0-0.02-0.01-0.03c0,0-0.01-0.02-0.01-0.03
				c-0.01-0.01-0.02-0.02-0.04-0.03c-0.02-0.01-0.04-0.01-0.05-0.01c-0.01,0-0.03,0.01-0.03,0.01c-0.01,0-0.02,0-0.03,0.01
				c-0.01-0.01-0.02-0.01-0.03-0.01c-0.01,0.02-0.01,0.03-0.01,0.06c-0.02,0-0.04,0.05-0.05,0.04c0.01,0.02,0.01,0.02,0.02,0.02
				c-0.01,0.03-0.02,0.06-0.04,0.06c0.01,0.01,0.02,0.01,0.02,0.02c-0.01,0.04-0.01,0.09-0.01,0.13c-0.03-0.03-0.08-0.11-0.11-0.13
				c-0.03-0.02-0.03-0.03-0.03-0.06c0-0.03,0.01-0.05,0.01-0.07c0,0,0-0.02-0.01-0.03c0-0.02-0.03-0.03-0.04-0.03
				c0.01,0.01,0.01,0.01,0.02,0.03c-0.01,0.01-0.01,0.01-0.01,0.01c-0.01,0.01-0.01,0.02,0,0.03c0,0,0,0,0,0.01c0,0,0,0.01,0,0.01
				c0,0.01,0,0,0,0c-0.01-0.02-0.02-0.04-0.03-0.05h-0.01v-0.01c0-0.02-0.02-0.03-0.04-0.01c0,0,0.01,0,0.02,0.01
				c0,0.01-0.01,0.02-0.01,0.02c0,0.02,0.01,0.03,0.04,0.03c0,0,0.01,0,0.01,0c0,0,0,0.01,0,0.01c0,0,0,0,0,0
				c-0.04-0.01-0.05,0-0.05,0.01c0,0,0,0.01,0,0.01c-0.01,0.01-0.02,0.03,0.01,0.04c0-0.01,0-0.02,0.01-0.02c0,0,0,0,0.01,0
				l0.01,0.01c0,0,0.01,0,0.02-0.01c0,0,0,0,0.01,0c0,0,0.01,0,0.01,0.01c0,0,0,0,0,0.01c-0.02,0.02-0.02,0.04,0.01,0.05
				c0,0,0.01,0,0.01,0.01c0,0.04-0.06,0.03-0.06-0.01c-0.03,0.05,0.02,0.09,0.07,0.06c0,0,0,0,0,0c0,0.01,0.01,0.01,0.01,0.01
				c0,0,0-0.01,0.01-0.01c0,0,0,0,0,0c0,0.01,0,0.03,0.02,0.03c0-0.01,0-0.01,0-0.01c0.01,0,0,0.06,0.06,0.1
				c0.01,0.04,0.04,0.06,0.07,0.06c0.01,0.03,0.03,0.05,0.02,0.05c-0.01,0-0.08-0.01-0.1,0c-0.01,0.01-0.04,0.02-0.07,0.02l0,0.01
				c0,0,0-0.01,0-0.01c-0.02,0-0.04,0-0.05-0.01c-0.01-0.01-0.01-0.02-0.01-0.03c-0.01-0.01-0.01-0.02-0.02-0.02h-0.02
				c-0.01-0.01-0.04-0.01-0.05-0.01c0.01,0,0.02,0.01,0.03,0.02c0,0.01-0.01,0.01-0.01,0.02c-0.01,0.01,0,0.02,0.04,0.04
				c0,0,0.01,0.01,0,0.01c-0.01,0-0.02,0.01-0.03,0c-0.02-0.01-0.02-0.03-0.04-0.02c0,0-0.01,0.01-0.01,0.01h0
				c-0.02,0-0.05,0.02-0.04,0.05c0-0.01,0.01-0.02,0.02-0.02c0,0,0,0.01,0.01,0.01c0,0.02,0.01,0.04,0.06,0.01c0.01,0,0.01,0,0,0
				c-0.01,0.02-0.04,0.04-0.02,0.06c0,0,0,0,0.01,0.01c0,0,0,0,0,0.01c-0.01,0.03,0.02,0.05,0.04,0.04
				c-0.01-0.01-0.02-0.02-0.01-0.04c0.01,0,0.01,0.01,0.01,0.01c0.02-0.01,0.01-0.04,0.02-0.05c0,0,0,0,0,0.01
				c0,0.01,0.01,0.03,0.03,0.03c0.03,0,0.04-0.02,0.04-0.04c0,0,0,0,0,0c0.01,0.01,0.02,0.02,0.01,0.03c0,0,0.01-0.01,0.02-0.02
				c0.01,0.01,0.01,0.03-0.01,0.04c0.01,0,0.04-0.01,0.04-0.04c0,0,0.01,0.01,0.01,0.01c0,0,0,0,0,0c0.01,0.01,0.03,0.01,0.05,0
				c0,0,0,0,0,0c0,0.01,0,0.02,0,0.03c0,0,0.01-0.01,0.01-0.01c0.01,0,0,0.03,0.02,0.04c0-0.07,0.04-0.04,0.09-0.07c0,0,0.01,0,0,0
				c0,0.01-0.01,0.02-0.02,0.02c0.02,0,0.06-0.02,0.06-0.05c0-0.01,0.03-0.04,0.04-0.12h0.01c0.06,0,0.08-0.04,0.14-0.05
				c-0.01,0.01-0.02,0.06-0.02,0.08c0,0.03,0.04,0.07,0.05,0.08c0,0,0,0,0,0.01c-0.02,0-0.04,0.01-0.04,0.01
				c-0.05,0.03-0.05-0.07-0.1-0.05c0,0-0.01,0.01-0.01,0.01c-0.02,0-0.05,0.02-0.04,0.04c0.01-0.01,0.01-0.01,0.03-0.02v0.01
				c0,0.01,0,0.01,0.02,0.01c0.01,0,0.01-0.01,0.02-0.01c0,0,0.01,0,0.01,0.01c0,0.02-0.06-0.01-0.05,0.04c0,0,0.01,0.01,0.01,0.01
				c0,0.02,0.01,0.03,0.04,0.02c-0.01,0-0.01-0.01-0.01-0.02h0.01c0,0,0.01,0,0.01-0.01c0,0,0,0,0,0c0,0,0.01,0,0.01,0.01
				c0,0-0.01,0.01-0.01,0.01c0,0,0,0.01,0.01,0.01c0,0.02,0.02,0.04,0.05,0.02c-0.01,0-0.02,0-0.03-0.01c0.01,0,0.01,0,0.01-0.01
				c0,0,0.01-0.01,0.01-0.01c0,0,0,0,0,0h0.01c0.01,0,0.01,0,0.01,0c0.01,0.01,0.02,0.02,0.04,0.01c0.03-0.01,0.01-0.04,0.03-0.05
				h0.02c0.02,0.01,0.05,0.01,0.05,0c0.01-0.01,0-0.06-0.03-0.08c-0.02-0.01,0.02-0.11-0.05-0.16c0.04,0.01,0.15,0.03,0.17,0
				c0.04,0.01,0.08,0.03,0.08,0.04c0,0.01,0.01,0.01,0,0.02c-0.03,0.02-0.03,0.03-0.04,0.03l0,0c-0.01-0.01-0.02-0.03-0.03-0.03
				c-0.01-0.01-0.02,0-0.02,0c-0.02-0.01-0.04,0-0.05,0.02c0.01,0,0.02,0,0.04,0c0,0,0,0.01,0,0.01c0,0.01,0,0.01,0.01,0.01
				c0,0,0,0,0,0c0,0,0,0.01,0,0.01c-0.02-0.01-0.05-0.01-0.04,0.01c0,0,0,0.01,0,0.01c-0.01,0.01-0.02,0.03-0.01,0.04
				c0-0.01,0.01-0.01,0.02-0.02c0,0,0.01,0.01,0.01,0.01c0.01,0.01,0.03-0.02,0.05-0.01c0,0,0,0,0,0c-0.02,0.01-0.04,0.02-0.03,0.04
				l0.01,0.01c-0.01,0.01,0,0.03,0.02,0.04c0,0-0.01-0.01,0-0.02c0.01,0,0.02,0,0.02,0c0.04-0.02,0.01-0.04,0.03-0.05
				c0.01-0.01,0.03,0.02,0.06,0c0,0,0.01-0.01,0-0.03c0,0,0,0,0,0c0.01,0.01,0.01,0.02,0.03,0.01c-0.02-0.02,0-0.03,0.01-0.04
				c0,0,0,0,0.01,0c0.01,0,0.03,0,0.04-0.02c-0.02,0-0.06-0.02-0.03-0.03c0.03-0.01,0.04-0.03,0.03-0.05
				c-0.03-0.04-0.09-0.04-0.09-0.08h0.05c0.18,0,0.3-0.05,0.29-0.11c-0.01-0.12-0.54,0.01-0.54-0.08
				C18.38,12.26,18.41,12.24,18.46,12.23 M18.06,12.24c0.01,0.01,0.04,0.02,0.06,0.03c-0.03,0.01-0.02,0.01-0.04,0.01
				C18.07,12.28,18.06,12.26,18.06,12.24 M18.03,12.23c-0.01,0.01-0.03,0.03-0.04,0.01c-0.01-0.01,0-0.02-0.01-0.04
				C17.99,12.21,18.02,12.22,18.03,12.23 M17.97,12.35c0.01-0.01,0.01-0.02,0.01-0.02c0.01,0,0.02,0,0.02-0.01
				c0-0.01-0.01-0.02-0.02-0.03c0.01,0,0.02-0.01,0.01-0.01c-0.01-0.01-0.02,0-0.02,0c0-0.01,0.01-0.01,0.01-0.01
				c0-0.01,0.01,0,0.02,0l0.05,0.02c0.01,0,0.01,0.01,0.01,0.01c0,0.01,0,0.02,0,0.02c-0.01,0-0.01-0.01-0.01-0.02
				c-0.01,0-0.01,0.01,0,0.02c-0.01,0-0.02-0.01-0.03,0c-0.01,0.01,0,0.01,0,0.02c0,0.01,0,0.01,0,0.02c0,0.01-0.02,0.03-0.03,0.02
				C17.96,12.38,17.96,12.36,17.97,12.35"/>
		</defs>
		<clipPath id="SVGID_86_">
			<use xlink:href="#SVGID_85_"  style="overflow:visible;"/>
		</clipPath>
		<rect x="13.37" y="7.98" class="st42" width="9.86" height="9.05"/>
	</g>
	<g>
		<defs>
			<path id="SVGID_87_" d="M9.84,2.87c0-0.11-0.08-0.19-0.19-0.19c-0.1,0-0.19,0.08-0.19,0.19c0,0.1,0.08,0.18,0.19,0.18
				C9.75,3.06,9.84,2.98,9.84,2.87"/>
		</defs>
		<clipPath id="SVGID_88_">
			<use xlink:href="#SVGID_87_"  style="overflow:visible;"/>
		</clipPath>
		<rect x="5.29" y="-1.48" class="st43" width="8.71" height="8.7"/>
	</g>
	<g>
		<defs>
			<path id="SVGID_89_" d="M9.79,2.52c0-0.1-0.08-0.19-0.19-0.19c-0.1,0-0.19,0.09-0.19,0.19c0,0.11,0.08,0.19,0.19,0.19
				C9.71,2.71,9.79,2.63,9.79,2.52"/>
		</defs>
		<clipPath id="SVGID_90_">
			<use xlink:href="#SVGID_89_"  style="overflow:visible;"/>
		</clipPath>
		<rect x="5.25" y="-1.83" class="st44" width="8.71" height="8.71"/>
	</g>
	<g>
		<defs>
			<path id="SVGID_91_" d="M9.81,2.43C9.91,2.43,10,2.34,10,2.24c0-0.11-0.08-0.19-0.19-0.19c-0.1,0-0.19,0.08-0.19,0.19
				C9.62,2.34,9.7,2.43,9.81,2.43"/>
		</defs>
		<clipPath id="SVGID_92_">
			<use xlink:href="#SVGID_91_"  style="overflow:visible;"/>
		</clipPath>
		<rect x="5.45" y="-2.11" class="st45" width="8.71" height="8.71"/>
	</g>
	<g>
		<defs>
			<path id="SVGID_93_" d="M10.15,2.41c0.11,0,0.19-0.08,0.19-0.19c0-0.11-0.08-0.19-0.19-0.19c-0.1,0-0.19,0.08-0.19,0.19
				C9.97,2.32,10.05,2.41,10.15,2.41"/>
		</defs>
		<clipPath id="SVGID_94_">
			<use xlink:href="#SVGID_93_"  style="overflow:visible;"/>
		</clipPath>
		<rect x="5.8" y="-2.14" class="st46" width="8.71" height="8.71"/>
	</g>
	<g>
		<defs>
			<path id="SVGID_95_" d="M11.6,2.15c0.07,0.07,0.2,0.07,0.27,0c0.07-0.07,0.07-0.19,0-0.26c-0.07-0.07-0.19-0.07-0.27,0
				C11.53,1.95,11.53,2.07,11.6,2.15"/>
		</defs>
		<clipPath id="SVGID_96_">
			<use xlink:href="#SVGID_95_"  style="overflow:visible;"/>
		</clipPath>
		<rect x="7.38" y="-2.34" class="st47" width="8.71" height="8.71"/>
	</g>
	<g>
		<defs>
			<path id="SVGID_97_" d="M11.65,1.87c0.07-0.07,0.07-0.19,0-0.26c-0.07-0.08-0.2-0.08-0.27,0c-0.07,0.07-0.07,0.19,0,0.26
				C11.46,1.94,11.58,1.94,11.65,1.87"/>
		</defs>
		<clipPath id="SVGID_98_">
			<use xlink:href="#SVGID_97_"  style="overflow:visible;"/>
		</clipPath>
		<rect x="7.17" y="-2.62" class="st48" width="8.71" height="8.71"/>
	</g>
	<g>
		<defs>
			<path id="SVGID_99_" d="M11.31,1.81c0.07-0.08,0.07-0.19,0-0.27c-0.07-0.07-0.19-0.07-0.27,0c-0.07,0.08-0.07,0.19,0,0.27
				C11.11,1.88,11.23,1.88,11.31,1.81"/>
		</defs>
		<clipPath id="SVGID_100_">
			<use xlink:href="#SVGID_99_"  style="overflow:visible;"/>
		</clipPath>
		<rect x="6.82" y="-2.68" class="st49" width="8.71" height="8.71"/>
	</g>
	<g>
		<defs>
			<path id="SVGID_101_" d="M11.01,2.03c0.07-0.07,0.07-0.19,0-0.26c-0.07-0.08-0.19-0.08-0.27,0c-0.07,0.08-0.07,0.19,0,0.27
				C10.82,2.11,10.94,2.11,11.01,2.03"/>
		</defs>
		<clipPath id="SVGID_102_">
			<use xlink:href="#SVGID_101_"  style="overflow:visible;"/>
		</clipPath>
		<rect x="6.52" y="-2.46" class="st50" width="8.71" height="8.71"/>
	</g>
	<g>
		<defs>
			<path id="SVGID_103_" d="M10.08,1.75l0.1,0.23l0.13-0.16c0,0,0.01,0.01,0.01,0.01c0.01,0.08,0.02,0.21,0.02,0.29
				c0,0.09,0.07,0.17,0.17,0.17c0.09,0,0.16-0.08,0.16-0.17c0-0.06-0.03-0.12-0.09-0.15c-0.06-0.05-0.14-0.12-0.18-0.17
				c0-0.01,0.01-0.01,0.01-0.02l0.22,0.02l-0.09-0.24L10.38,1.7c0,0,0,0-0.01-0.01l-0.01-0.24l-0.23,0.09l0.15,0.18
				c0,0-0.01,0.01-0.01,0.02L10.08,1.75z"/>
		</defs>
		<clipPath id="SVGID_104_">
			<use xlink:href="#SVGID_103_"  style="overflow:visible;"/>
		</clipPath>
		<rect x="5.91" y="-2.72" class="st51" width="8.93" height="9.16"/>
	</g>
	<g>
		<defs>
			<path id="SVGID_105_" d="M11.59,2.16c0.05,0.08,0.07,0.12,0.07,0.18c-0.04-0.02-0.09-0.06-0.14-0.13l0.03,0.3
				c0.03-0.05,0.07-0.09,0.11-0.11c-0.01,0.2-0.09,0.28-0.16,0.29c-0.08,0.01-0.14-0.04-0.16-0.1c-0.02-0.09,0.06-0.14,0.14-0.06
				c0.01-0.18-0.13-0.18-0.2-0.1c0.08-0.18,0.04-0.3-0.11-0.39c-0.1,0.17-0.06,0.27,0.07,0.4c-0.12-0.06-0.23,0.04-0.12,0.18
				c0.02-0.12,0.13-0.09,0.15,0c0.02,0.08-0.06,0.18-0.19,0.22c-0.19,0.06-0.25-0.06-0.29-0.16c0.04-0.03,0.14-0.02,0.24,0.05
				l-0.09-0.3c-0.04,0.1-0.1,0.15-0.18,0.18c-0.01-0.09,0.06-0.26,0.06-0.26L10.47,2.5c0,0,0.17,0.08,0.22,0.15
				c-0.07,0.03-0.15,0.04-0.25-0.01l0.14,0.28c0.03-0.12,0.09-0.2,0.14-0.21c0.04,0.1,0.08,0.23-0.09,0.32
				c-0.12,0.06-0.25,0.04-0.29-0.03c-0.05-0.08,0.01-0.18,0.1-0.1c-0.02-0.17-0.17-0.17-0.21-0.04c0-0.18-0.04-0.28-0.23-0.33
				c-0.05,0.18,0.01,0.28,0.19,0.36c-0.1-0.01-0.21,0.09-0.07,0.21c0-0.11,0.09-0.13,0.14-0.05c0.04,0.06,0.03,0.14-0.04,0.18
				c-0.06,0.04-0.17,0.03-0.32-0.1c0.04-0.02,0.09-0.01,0.16,0L9.87,2.89c0.01,0.09,0.01,0.15-0.01,0.18
				C9.81,3.03,9.8,2.99,9.78,2.9L9.63,3.03c0.14,0.09,0.3,0.22,0.5,0.49c0.2-0.13,0.57-0.3,0.8-0.4c0.23-0.09,0.61-0.22,0.85-0.28
				c-0.05-0.33-0.03-0.53,0.02-0.69L11.59,2.16z"/>
		</defs>
		<clipPath id="SVGID_106_">
			<use xlink:href="#SVGID_105_"  style="overflow:visible;"/>
		</clipPath>
		<rect x="5.47" y="-2.12" class="st52" width="10.49" height="9.8"/>
	</g>
	<g>
		<defs>
			<path id="SVGID_107_" d="M14.46,10.49c0.05-0.14-0.21-0.3-0.23-0.5c-0.03-0.2-0.01-0.39-0.23-0.66c-0.23-0.26-1.01-1.1-1.24-1.37
				c0.06-0.01,0.2-0.04,0.34,0.1c0.09,0.08,0.25,0.24,0.41,0.39c0.21-0.53,0.46-0.92,0.83-1.34c0.05-0.05,0.1-0.1,0.14-0.15
				C14.34,7,14.13,7.03,14.01,7.12C14,6.89,14.01,6.7,13.86,6.55c0.06-0.32,0.01-0.71-0.71-1.19c0.37,0.09,0.59,0.42,0.87,0.17
				c-0.25-0.01-0.26-0.56-1.17-1.02c0.35-0.01,0.62,0.56,1.02,0.24c-0.38-0.04-0.51-0.72-1.19-0.93c0.24,0.03,0.48,0.14,0.69-0.14
				c-0.24,0.06-0.38-0.16-0.63-0.18c0.09-0.3,0.07-0.48-0.03-0.7c-0.18,0.01-0.36,0.07-0.49,0.18c-0.02-0.16-0.19-0.17-0.34-0.16
				C11.87,2.88,11.9,2.99,11.83,3c-0.12,0.02-0.53,0.13-0.84,0.25c-0.32,0.12-0.67,0.35-0.78,0.42c-0.06,0.04-0.12-0.06-0.16-0.11
				c-0.11,0.1-0.22,0.22-0.14,0.34C9.73,3.92,9.54,3.97,9.37,4.1c0,0.2,0.17,0.4,0.42,0.51C9.37,5.03,9.75,5.42,9.38,5.79
				c0.52,0.02,0.43-0.71,0.7-0.81c-0.03,0.51-0.31,0.61-0.31,1.16c0,0.29,0.18,0.62,0.02,0.81c0.44-0.12,0.33-1.09,0.6-1.38
				c0.05,0.17,0.02,0.33-0.04,0.49c-0.15,0.45,0.02,1.07-0.22,1.27c0.45-0.04,0.5-0.76,0.87-1.03c-0.32,0.65-0.64,2.02-1.11,2.71
				c-0.76,1.03-1.21,2.29-1.91,2.29c-0.31,0-0.54-0.19-0.54-0.58c0-1.17,2.01-1.98,2.01-3.22c0-0.55-0.45-0.77-0.74-0.77
				c-0.19,0-0.42,0.1-0.62,0.25C8,6.96,7.91,6.94,7.84,6.94c-0.71,0-0.52,1.28-1.14,1.27c0.24,0.14,0.67-0.13,0.92-0.49
				c-0.1,0.83-1.29,0.61-1.2,1.6c0.17-0.78,2.06-0.66,2.06-1.85c0-0.13-0.07-0.25-0.16-0.33c0.14-0.09,0.28-0.13,0.4-0.13
				c0.23,0,0.43,0.17,0.43,0.5c0,1.05-1.99,1.93-1.99,3.21c0,0.22,0.06,0.4,0.17,0.54c-0.14,0.06-0.29,0.04-0.41-0.11
				c-0.01,0.33,0.46,0.54,0.76,0.37c0.07,0.02,0.13,0.04,0.21,0.04c-0.09,0.25-0.39,0.32-0.55,0.31c0.49,0.38,1.34-0.12,1.3-0.56
				c0.39-0.31,0.63-0.85,0.91-1.2c-0.02,0.08-0.03,0.16-0.04,0.24c-0.29,0.52-0.55,0.99-0.63,1.67c-0.06,0.58-0.35,1.09-0.75,1.09
				c-0.09,0-0.23-0.12-0.3-0.06C7.68,13.18,7.8,13.3,7.8,13.4c0,0.16-0.32,0.33-0.32,0.83c0,0.23,0.13,0.5,0.08,0.65
				c0.13-0.07,0.3-0.28,0.37-0.56c0.14,0.67-0.29,0.64,0.02,1.23c0.04-0.2,0.23-0.28,0.35-0.2c0.12,0.08,0.06,0.14-0.03,0.23
				c-0.09,0.09-0.17,0.53,0.23,0.51c-0.07-0.05-0.08-0.17,0.12-0.21C8.92,15.82,9,15.95,9.3,15.95c0.18,0,0.23-0.24,0.38-0.24
				c0.14,0,0.14,0.11,0.09,0.2c0.24-0.06,0.28-0.19,0.28-0.32c0-0.13-0.11-0.21-0.03-0.27c0.08-0.05,0.35,0.01,0.24,0.23
				c0.14-0.03,0.22-0.13,0.22-0.3c0-0.17-0.2-0.27-0.38-0.24c-0.03-0.1-0.19-0.16-0.33-0.16c-0.33,0-0.27,0.26-0.5,0.26
				c-0.36,0-0.71-0.47-0.71-1.26c0-0.42,0.45-0.53,0.77-0.67c0.32-0.14,0.88-0.49,1.22-1.05c0.26-0.44,0.27-0.93,0.24-1.5
				c0.45,0.26,0.51,0.63,0.51,0.9c0,0.35-0.18,0.5-0.33,0.56c-0.12,0.06-0.16,0.04-0.17,0.11c-0.02,0.09,0.04,0.14,0.1,0.17
				c0.17,0.08,0.13,0.24,0.18,0.41c0.05,0.17,0.2,0.44,0.45,0.63c0.03-0.1,0.02-0.27,0-0.49c0.35,0.17,0.07,0.87,0.74,0.87
				c-0.12-0.07-0.09-0.26-0.02-0.28c0.07-0.03,0.16,0.04,0.29,0.23c0.13,0.18,0.09,0.17,0.41,0.17c0.32,0,0.17-0.11,0.34-0.11
				c0.17,0,0.16,0.2,0.07,0.34c0.29-0.09,0.37-0.3,0.27-0.53c0.25-0.14,0.39,0.06,0.42,0.2c0.25-0.25,0-0.55-0.19-0.57
				c0-0.09-0.08-0.19-0.19-0.2c-0.1-0.01-0.2-0.01-0.32-0.01c-0.12,0.01-0.18,0.18-0.32,0.18c-0.42,0-1.26-0.76-1.26-1.1
				c0-0.33,0.8-0.53,0.8-1.05c0-0.67-0.66-0.9-1.22-1.34c0.2-0.22,0.78-0.27,1.11-0.11c0.03-0.19,0.16-0.14,0.2-0.46
				c0.12,0.29,0,0.53,0.12,0.65c0.09-0.14,0.33-0.12,0.32-0.47c0.07,0.22-0.09,0.56,0.07,0.7c0.03-0.18,0.14-0.21,0.2-0.21
				c0.07,0,0.13,0.05,0.13,0.15c0,0.27-0.33,0.15-0.33,0.45c0,0.13,0.16,0.17,0.16,0.26c0,0.08-0.13,0.21-0.29,0.1
				c0.05,0.12,0.16,0.22,0.3,0.22c0.14,0,0.3-0.12,0.36-0.27c0.08,0.19,0.02,0.41-0.12,0.44c0.15,0.07,0.49,0,0.45-0.44
				c0.19,0.03,0.3,0.17,0.18,0.4c0.16-0.04,0.31-0.12,0.31-0.29C14.54,10.7,14.39,10.66,14.46,10.49 M10.67,4.42
				c-0.18,0.01-0.18-0.16-0.5-0.24c0.23-0.05,0.52-0.16,0.77-0.26C10.99,4.13,10.9,4.4,10.67,4.42 M11.96,5.79
				c-0.23,0.1-0.42-0.1-0.46-0.25c-0.05-0.14-0.08-0.26-0.03-0.31c0.1-0.1,0.13-0.18,0.07-0.3c-0.07-0.15-0.23-0.08-0.39-0.03
				c0.08-0.14,0.09-0.24-0.02-0.23c-0.13,0.01-0.13,0.22-0.2,0.19c-0.07-0.02-0.03-0.14-0.03-0.2c0-0.09,0.06-0.12,0.14-0.15
				l0.68-0.26c0.09-0.03,0.15-0.05,0.21,0.01c0.05,0.04,0.15,0.1,0.12,0.17c-0.03,0.07-0.18-0.08-0.27,0
				c-0.09,0.06-0.01,0.13,0.14,0.18c-0.15,0.09-0.3,0.14-0.25,0.3c0.04,0.13,0.12,0.17,0.26,0.17c0.07,0,0.13,0.11,0.19,0.25
				C12.19,5.44,12.21,5.69,11.96,5.79 M12,3.89c-0.18,0.14-0.42,0.01-0.53-0.18c0.25-0.11,0.54-0.22,0.74-0.34
				C12.03,3.65,12.15,3.78,12,3.89"/>
		</defs>
		<clipPath id="SVGID_108_">
			<use xlink:href="#SVGID_107_"  style="overflow:visible;"/>
		</clipPath>
		<rect x="2.25" y="-1.37" class="st53" width="16.46" height="21.62"/>
	</g>
	<g>
		<defs>
			<path id="SVGID_109_" d="M27.25,13.72c0,0.31,0.25,0.56,0.56,0.56s0.56-0.25,0.56-0.56c0-0.31-0.25-0.56-0.56-0.56
				S27.25,13.41,27.25,13.72 M27.39,13.72c0-0.23,0.19-0.42,0.42-0.42c0.23,0,0.42,0.19,0.42,0.42c0,0.23-0.19,0.42-0.42,0.42
				C27.58,14.14,27.39,13.95,27.39,13.72"/>
		</defs>
		<clipPath id="SVGID_110_">
			<use xlink:href="#SVGID_109_"  style="overflow:visible;"/>
		</clipPath>
		<rect x="23.08" y="8.99" class="st54" width="9.46" height="9.46"/>
	</g>
	<g>
		<defs>
			<path id="SVGID_111_" d="M25.14,14.24c-0.07,0.05-0.12,0.13-0.14,0.21c-0.02,0.1,0.01,0.2,0.09,0.28
				c0.07,0.08,0.17,0.13,0.28,0.15c0.11,0.02,0.23,0.01,0.32-0.04c0.1-0.05,0.16-0.13,0.18-0.24c0.04-0.2-0.13-0.39-0.37-0.43
				C25.37,14.14,25.24,14.17,25.14,14.24 M25.4,14.74c-0.16-0.03-0.28-0.15-0.25-0.27c0.01-0.06,0.05-0.1,0.08-0.12
				c0.07-0.05,0.16-0.06,0.25-0.05c0.14,0.03,0.26,0.13,0.26,0.24c0,0.01,0,0.02,0,0.03C25.71,14.69,25.56,14.77,25.4,14.74"/>
		</defs>
		<clipPath id="SVGID_112_">
			<use xlink:href="#SVGID_111_"  style="overflow:visible;"/>
		</clipPath>
		<rect x="20.83" y="9.99" class="st55" width="9.21" height="9.06"/>
	</g>
	<g>
		<defs>
			<path id="SVGID_113_" d="M22.04,6.31c-0.18,0.13-0.23,0.37-0.12,0.51c0.11,0.14,0.35,0.15,0.52,0.01
				c0.1-0.07,0.16-0.18,0.17-0.29c0.01-0.08-0.01-0.16-0.06-0.22c-0.05-0.06-0.12-0.1-0.2-0.11C22.25,6.2,22.13,6.24,22.04,6.31
				 M22,6.64c0-0.07,0.04-0.16,0.12-0.22c0.07-0.05,0.14-0.08,0.21-0.07c0.03,0.01,0.07,0.02,0.1,0.06
				c0.03,0.04,0.03,0.09,0.03,0.12c-0.01,0.07-0.05,0.14-0.12,0.19c-0.11,0.09-0.26,0.09-0.32,0.01C22.01,6.71,22,6.68,22,6.64"/>
		</defs>
		<clipPath id="SVGID_114_">
			<use xlink:href="#SVGID_113_"  style="overflow:visible;"/>
		</clipPath>
		<rect x="17.7" y="2.05" class="st56" width="9.09" height="9.05"/>
	</g>
	<g>
		<defs>
			<path id="SVGID_115_" d="M24.48,13.3c-0.09,0.08-0.13,0.21-0.14,0.34v0.01c0,0.13,0.04,0.25,0.13,0.33
				c0.06,0.07,0.14,0.1,0.23,0.1c0.09,0,0.17-0.03,0.23-0.1c0.08-0.08,0.13-0.2,0.14-0.34c0-0.12-0.03-0.22-0.1-0.31
				c-0.07-0.09-0.16-0.14-0.26-0.14C24.63,13.2,24.55,13.23,24.48,13.3 M24.7,13.94L24.7,13.94c-0.06,0-0.1-0.04-0.13-0.06
				c-0.06-0.06-0.09-0.15-0.09-0.24c0-0.1,0.03-0.18,0.09-0.24c0.03-0.03,0.07-0.06,0.13-0.06c0.12,0,0.22,0.14,0.21,0.3
				c0,0.09-0.04,0.18-0.1,0.24C24.8,13.91,24.76,13.94,24.7,13.94"/>
		</defs>
		<clipPath id="SVGID_116_">
			<use xlink:href="#SVGID_115_"  style="overflow:visible;"/>
		</clipPath>
		<rect x="20.18" y="9.04" class="st57" width="9.06" height="9.21"/>
	</g>
	<g>
		<defs>
			<path id="SVGID_117_" d="M21.72,8.74c-0.09,0.03-0.15,0.09-0.19,0.16c-0.09,0.18,0.02,0.42,0.24,0.52
				c0.12,0.06,0.25,0.07,0.36,0.03c0.09-0.03,0.16-0.09,0.19-0.16c0.04-0.08,0.04-0.16,0.01-0.25c-0.04-0.11-0.13-0.21-0.25-0.26
				C21.96,8.71,21.83,8.7,21.72,8.74 M21.83,9.29c-0.15-0.07-0.22-0.22-0.17-0.32c0.02-0.06,0.07-0.08,0.1-0.09
				c0.08-0.03,0.17-0.02,0.25,0.02C22.11,8.94,22.17,9,22.2,9.08c0.01,0.03,0.02,0.09,0,0.14c-0.02,0.05-0.07,0.08-0.11,0.09
				C22.01,9.34,21.92,9.33,21.83,9.29"/>
		</defs>
		<clipPath id="SVGID_118_">
			<use xlink:href="#SVGID_117_"  style="overflow:visible;"/>
		</clipPath>
		<rect x="17.34" y="4.55" class="st58" width="9.18" height="9.09"/>
	</g>
	<g>
		<defs>
			<path id="SVGID_119_" d="M27.65,8.15c0.18,0.51,0.55,0.69,0.83,0.56c-0.62-0.07-0.12-1.14-0.92-1.14c-0.04,0-0.09,0.01-0.13,0.01
				c-0.14-0.14-0.29-0.21-0.52-0.21c-0.34,0-0.92,0.33-0.92,1.01c0,1.46,1.69,1.58,1.69,2.87c0,0.38-0.28,0.61-0.6,0.61
				c-0.29,0-0.51-0.32-0.75-0.82c-0.11-0.24-0.36-0.56-0.62-0.91c0.08,0.06,0.16,0.09,0.25,0.09c0.09,0,0.17-0.03,0.23-0.09
				c0.06-0.06,0.1-0.14,0.1-0.23V9.91c0-0.11-0.05-0.23-0.14-0.33c-0.09-0.1-0.21-0.15-0.33-0.16c-0.09,0-0.17,0.03-0.23,0.09
				c-0.06,0.06-0.1,0.14-0.1,0.23v0.01c0,0.05,0.01,0.1,0.03,0.15c-0.36-0.48-0.7-0.94-0.7-1.2c0-0.22,0.16-0.42,0.35-0.66
				c0.01,0.01,0.07,0.04,0.07,0.04l0.05-0.06c0.07-0.08,0.21-0.23,0.5-0.54l0.02-0.02l0,0l0.07-0.08l-0.18-0.15
				c0.05-0.11,0.09-0.23,0.12-0.36c0.06,0.23,0.18,0.38,0.34,0.34c-0.11-0.24,0.11-0.57-0.03-1.16c0.14,0.23,0.34,0.35,0.48,0.31
				c-0.37-0.33,0.11-0.8-0.38-1.51c0.16,0.06,0.26,0.02,0.34-0.06c-0.45-0.06-0.24-0.63-1.02-0.84c0.19-0.03,0.31-0.15,0.28-0.25
				c-0.21,0.15-0.39-0.28-1.06-0.27c-0.04-0.25-0.28-0.52-0.54-0.65c0.05,0.2,0,0.37-0.05,0.52l-2.2-2.17
				c-0.06-0.06-0.1-0.07-0.12-0.05c-0.02,0.02-0.02,0.06,0.03,0.11l1.89,2.38c-0.14,0.05-0.28,0.11-0.43,0.16
				c-0.09,0.03-0.16,0.13-0.16,0.25c-0.35,0.18-0.66,0.39-0.81,0.53c-0.12,0.11-0.21,0.13-0.11,0.37c0.04,0.09-0.08,0.32,0.19,0.15
				c0.18-0.11,0.59-0.33,0.65-0.19c0.03,0.07-0.17,0.17-0.31,0.22c-0.14,0.05-0.29,0.16-0.27,0.21c0.02,0.05,0.13,0,0.14,0.05
				c0.01,0.06,0.05,0.12,0.11,0.12c0.06,0,0.13-0.12,0.17-0.07c0.04,0.04-0.02,0.29-0.07,0.36c0.21-0.03,0.35-0.23,0.36-0.39
				c0.01-0.16,0.05-0.2,0.08-0.22c0.03-0.02,0.07,0.17,0.03,0.29c0.11-0.02,0.23-0.18,0.21-0.45c0.06-0.05,0.12-0.08,0.16-0.08
				c0.07,0,0.21,0.2,0.42,0.2c0.37,0,0.58-0.3,0.6-0.45c0.02-0.12,0.01-0.23-0.05-0.31c0.13,0.11,0.18,0.28,0.18,0.4
				c0,0.53-0.94,0.78-1.32,1.15c-0.01,0.01-0.03,0.02-0.04,0.04l-0.44-0.17L23,5.85c0,0.01-0.01,0.02-0.03,0.08
				c-0.05,0.15-0.14,0.47-0.2,0.65c0,0-0.02,0.07-0.02,0.07l0.04,0.02c-0.26,0.35-0.47,0.74-0.52,1.14
				c-0.11-0.11-0.21-0.2-0.32-0.29c0.01-0.04,0.02-0.08,0.02-0.12c0.01-0.12-0.03-0.23-0.1-0.31c-0.05-0.06-0.13-0.1-0.2-0.1
				c-0.08,0-0.15,0.02-0.22,0.08c-0.01,0.01-0.03,0.02-0.04,0.04c-0.01-0.01-0.03-0.02-0.05-0.04c-0.14-0.11-0.33-0.25-0.43-0.36
				c-0.05-0.05-0.09-0.08-0.19-0.08c-0.04,0-0.13-0.01-0.2-0.01c-0.06,0-0.1,0.05-0.18,0.12c-0.04,0.03-0.14,0.11-0.25,0.2
				c0.06,0.06,0.11,0.11,0.16,0.17c0.03,0.03,0.06,0.06,0.08,0.1c0.03-0.02,0.06-0.04,0.08-0.06c0.05-0.04,0.11-0.05,0.16-0.05
				c0.06,0,0.14,0.04,0.19,0.13c0.04,0.06,0.4,0.53,0.69,0.85c-0.03,0.01-0.06,0.02-0.09,0.04c-0.13,0.05-0.41,0.04-0.54,0.03
				c-0.13-0.01-0.15-0.04-0.24,0.09c-0.03,0.05-0.07,0.11-0.12,0.16c-0.04,0.05-0.07,0.11,0.01,0.26c0.13,0.22,0.45,0.8,0.56,1.06
				c0.11,0.26,0.23,0.3,0.44,0.39c0.21,0.09,0.56,0.29,0.6,0.33l0.01-0.2c-0.06-0.06-0.26-0.14-0.33-0.16
				c-0.07-0.03-0.09-0.06,0-0.06c0.09,0,0.34,0.09,0.51,0.16c-0.05-0.2-0.24-0.41-0.35-0.54c-0.15-0.04-0.3-0.04-0.36,0.01
				c0.01,0.04-0.02,0.09-0.08,0.09c-0.06,0-0.1-0.05-0.08-0.1c0.02-0.06,0.11-0.08,0.09-0.19c-0.02-0.11-0.16-0.13-0.25-0.14
				C21.14,9.13,21,8.86,20.93,8.75c-0.07-0.11-0.03-0.17,0.02-0.21c0.11-0.09,0.33,0.05,0.78,0.08c0.16,0.01,0.35,0.02,0.56,0.03
				c0.06,0.52,0.27,1.02,0.99,1.2c0.35,0.09,0.72,0.35,0.84,0.69c-1.45-0.02-1.67,0.54-1.67,1.07c0,0.6,0.51,0.57,0.51,1.02
				c0,0.4-1.22,0.56-1.58,0.62c-0.31,0.04-0.49,0.11-0.64,0.26c-0.15,0.15-0.3,0.29-0.57,0.57c0,0,0.12,0.03,0.23,0.02l0.21-0.27
				c0.06-0.09,0.1-0.16,0.14-0.16c0.04,0.01,0.01,0.08-0.04,0.17l-0.17,0.29c0.71,0.05,0.76-0.22,0.76-0.33
				c0-0.11-0.18-0.18-0.07-0.25c0.1-0.07,0.19-0.02,0.27,0.08c0.08,0.09,0.11,0.17,0.3,0.1c0,0,1.56-0.65,1.75-0.74
				c0.18-0.08,0.13-0.16,0.02-0.25c-0.12-0.1-0.14-0.25-0.14-0.41c0-0.47,0.28-0.62,0.79-0.61c-0.01,0.08-0.01,0.16-0.01,0.23
				c0,0.74,1.11,1.46,1.41,1.46c0.13,0,0.31-0.1,0.33,0.34c0.01,0.32,0.07,0.55,0.01,0.93c-0.06,0.38-0.17,0.44-0.39,0.59
				c-0.23,0.16-0.44,0.66-0.53,0.76c0.1,0.07,0.21,0.08,0.29-0.17c0.07-0.2,0.15-0.34,0.24-0.39c-0.09,0.22-0.15,0.54-0.19,0.64
				c0.28,0.05,0.74-0.21,0.74-0.41c0-0.2-0.16-0.18-0.16-0.32c0-0.06,0.07-0.12,0.16-0.12c0.11,0,0.2,0.09,0.21,0.13
				c0.13-0.07,0.2-0.19,0.2-0.49c0-0.11-0.01-0.23-0.01-0.36c0.01,0.02,0.01,0.03,0.02,0.05c0.06,0.08,0.14,0.13,0.26,0.14
				c0.1,0.01,0.22-0.02,0.31-0.09c0.11-0.07,0.19-0.18,0.21-0.3c0.01-0.03,0.01-0.05,0.01-0.07c0-0.06-0.02-0.12-0.05-0.17
				c-0.05-0.07-0.12-0.12-0.21-0.14c-0.12-0.03-0.25,0-0.36,0.08c-0.1,0.07-0.18,0.17-0.21,0.27c-0.02-0.4-0.05-0.78-0.04-0.93
				c0.02-0.23,0.03-0.32-0.05-0.36c-0.07-0.03-0.16,0.09-0.27,0.09c-0.11,0-0.43-0.3-0.43-0.62c0-0.32,0.34-0.73,0.33-1.16
				c-0.01-0.14,0.08-0.21,0.13-0.09c0.07,0.15,0.16,0.35,0.31,0.51c-0.09,0.55,0.51,1.08,1.01,0.69c-0.25,0.03-0.41-0.18-0.52-0.4
				c0.04,0.01,0.09,0.01,0.13,0.01c0.03,0,0.05,0,0.07,0c0.17,0.22,0.72,0.2,0.87-0.34c-0.1,0.11-0.3,0.2-0.44,0.18
				c0.21-0.16,0.32-0.43,0.32-0.71c0-1.39-1.68-1.55-1.68-2.81c0-0.47,0.41-0.77,0.69-0.77c0.11,0,0.19,0.03,0.26,0.09
				C27.08,7.83,27.02,8,27.03,8.2c0.04,1,1.67,0.95,1.69,1.43C28.9,8.9,27.69,9.13,27.65,8.15z M23.32,4.33
				c0.08-0.15,0-0.38,0.27-0.38c0.14,0,0.26,0.13,0.42,0.19C23.75,4.16,23.51,4.22,23.32,4.33z M21.83,7.39
				c0,0.08-0.04,0.15-0.09,0.2c-0.02,0.02-0.06,0.04-0.11,0.04c-0.09,0-0.17-0.12-0.17-0.24V7.37c0-0.08,0.03-0.15,0.09-0.2
				c0.02-0.02,0.06-0.04,0.11-0.04c0.05,0,0.08,0.03,0.1,0.05C21.81,7.23,21.83,7.3,21.83,7.39z M26.64,14.39
				c0.02-0.08,0.07-0.16,0.15-0.21c0.08-0.05,0.17-0.07,0.25-0.06c0.04,0.01,0.09,0.03,0.12,0.08c0.03,0.05,0.03,0.1,0.02,0.14
				c-0.02,0.08-0.07,0.15-0.15,0.21c-0.14,0.09-0.3,0.08-0.37-0.02C26.63,14.48,26.63,14.43,26.64,14.39z M25.62,9.74
				c0-0.04,0.01-0.09,0.05-0.13c0.04-0.04,0.1-0.05,0.13-0.05c0.08,0,0.16,0.04,0.23,0.11c0.06,0.07,0.1,0.16,0.1,0.23
				c0,0.04-0.01,0.09-0.05,0.13c-0.04,0.04-0.1,0.05-0.13,0.05c-0.08,0-0.17-0.04-0.23-0.11C25.66,9.91,25.62,9.82,25.62,9.74z
				 M22.86,6.61c0.08-0.25,0.23-0.73,0.23-0.73l0.26,0.1C23.27,6,23.18,6.07,23.1,6.15c0.06,0.03,0.16,0.03,0.23-0.01l-0.1,0.26
				c-0.02-0.04-0.1-0.13-0.17-0.15c-0.05,0.21,0.08,0.29,0.17,0.33c0.16,0.08,0.26,0.09,0.3,0.02c0.05-0.09-0.05-0.21-0.18-0.16
				c-0.01-0.13,0.06-0.21,0.15-0.21c0.07,0,0.13,0.06,0.15,0.15c-0.01-0.22,0.09-0.39,0.29-0.45c0.07,0.21,0.01,0.36-0.15,0.51
				c0.08-0.04,0.18-0.03,0.22,0.03c0.05,0.07,0.03,0.18-0.09,0.24c-0.03-0.14-0.19-0.15-0.24-0.06c-0.05,0.09,0.02,0.18,0.17,0.26
				c0.17,0.09,0.3,0.04,0.39-0.11c-0.06-0.02-0.15-0.01-0.24,0.05l0.17-0.32c0.01,0.05,0.04,0.13,0.11,0.19
				c0.03-0.07,0.06-0.2,0.01-0.31l0.37,0.21c-0.12,0.01-0.21,0.1-0.26,0.16c0.09,0.03,0.17,0.01,0.22,0l-0.19,0.31
				c0-0.1-0.03-0.19-0.08-0.23c-0.08,0.15-0.06,0.29,0.1,0.39c0.14,0.08,0.25,0.1,0.3,0.02c0.06-0.09-0.04-0.22-0.17-0.17
				c0-0.13,0.07-0.2,0.16-0.2c0.07,0.01,0.12,0.09,0.14,0.17c0.05-0.22,0.15-0.34,0.37-0.38c0.05,0.2-0.05,0.37-0.24,0.48
				c0.09-0.03,0.17-0.01,0.2,0.05c0.04,0.08,0.02,0.18-0.1,0.23c-0.02-0.14-0.18-0.17-0.23-0.08c-0.04,0.07,0.02,0.15,0.17,0.25
				c0.09,0.06,0.22,0.13,0.38-0.02c-0.05-0.06-0.17-0.07-0.22-0.07l0.17-0.22c-0.01,0.08,0.05,0.17,0.1,0.21
				c0.03-0.11,0.04-0.22,0.03-0.3l0.21,0.17c0,0-0.35,0.37-0.52,0.56L22.86,6.61z M25.14,12.36c-0.09,0.13-0.25,0.18-0.35,0.1
				c-0.1-0.07-0.11-0.24-0.02-0.37c0.09-0.13,0.25-0.18,0.35-0.11C25.23,12.06,25.23,12.23,25.14,12.36z M25.81,11.31
				c-0.09,0.13-0.25,0.18-0.35,0.1c-0.1-0.07-0.11-0.24-0.02-0.37c0.09-0.13,0.25-0.18,0.35-0.11
				C25.89,11.01,25.9,11.18,25.81,11.31z"/>
		</defs>
		<clipPath id="SVGID_120_">
			<use xlink:href="#SVGID_119_"  style="overflow:visible;"/>
		</clipPath>
		<rect x="15.95" y="-3.08" class="st59" width="16.95" height="23.38"/>
	</g>
	<g>
		<defs>
			<path id="SVGID_121_" d="M72.51,13.75c1.19,0,2.15-0.94,2.15-2.61c0-1.69-0.96-2.62-2.15-2.62s-2.15,0.94-2.15,2.62
				C70.36,12.81,71.32,13.75,72.51,13.75 M72.51,7.51c2.19,0,3.36,1.59,3.36,3.63c0,2.02-1.16,3.62-3.36,3.62
				c-2.19,0-3.36-1.59-3.36-3.62C69.15,9.1,70.32,7.51,72.51,7.51"/>
		</defs>
		<clipPath id="SVGID_122_">
			<use xlink:href="#SVGID_121_"  style="overflow:visible;"/>
		</clipPath>
		<rect x="64.99" y="3.34" class="st60" width="15.05" height="15.58"/>
	</g>
	<g>
		<defs>
			<polygon id="SVGID_123_" points="35.66,4.72 37,4.72 37,9.04 42.27,9.04 42.27,4.72 43.61,4.72 43.61,14.75 42.27,14.75 
				42.27,10.16 37,10.16 37,14.75 35.66,14.75 			"/>
		</defs>
		<clipPath id="SVGID_124_">
			<use xlink:href="#SVGID_123_"  style="overflow:visible;"/>
		</clipPath>
		<rect x="31.5" y="0.56" class="st61" width="16.27" height="18.36"/>
	</g>
	<g>
		<defs>
			<polygon id="SVGID_125_" points="45.45,4.72 47.28,4.72 50.43,13.15 53.61,4.72 55.43,4.72 55.43,14.75 54.17,14.75 54.17,6.41 
				54.14,6.41 51.01,14.75 49.87,14.75 46.74,6.41 46.72,6.41 46.72,14.75 45.45,14.75 			"/>
		</defs>
		<clipPath id="SVGID_126_">
			<use xlink:href="#SVGID_125_"  style="overflow:visible;"/>
		</clipPath>
		<rect x="41.29" y="0.56" class="st62" width="18.31" height="18.36"/>
	</g>
	<g>
		<defs>
			<polygon id="SVGID_127_" points="64.29,4.52 64.85,4.54 65.4,4.61 65.92,4.75 66.4,4.92 66.84,5.15 67.24,5.44 67.58,5.78 
				67.89,6.18 68.16,6.65 68.35,7.16 68.48,7.76 67.18,7.76 67.07,7.3 66.87,6.89 66.63,6.55 66.34,6.26 65.99,6.01 65.61,5.84 
				65.21,5.71 64.75,5.63 64.29,5.61 63.72,5.65 63.22,5.78 62.76,5.97 62.38,6.22 62.01,6.53 61.72,6.89 61.47,7.32 61.28,7.76 
				61.13,8.22 61.02,8.72 60.96,9.23 60.94,9.75 60.96,10.31 61.05,10.84 61.19,11.34 61.4,11.82 61.65,12.26 61.95,12.66 
				62.32,12.99 62.74,13.28 63.2,13.47 63.72,13.6 64.29,13.66 64.86,13.6 65.38,13.49 65.86,13.3 66.28,13.05 66.63,12.72 
				66.93,12.36 67.14,11.94 67.32,11.48 67.39,11 67.41,10.46 64.29,10.46 64.29,9.37 68.58,9.37 68.58,14.52 67.76,14.52 
				67.41,13.3 67.07,13.7 66.66,14.03 66.22,14.29 65.76,14.51 65.27,14.64 64.79,14.72 64.29,14.75 63.58,14.7 62.93,14.56 
				62.34,14.33 61.78,14.05 61.3,13.66 60.86,13.24 60.5,12.76 60.19,12.22 59.96,11.67 59.79,11.07 59.68,10.46 59.64,9.83 
				59.68,9.18 59.75,8.54 59.89,7.95 60.08,7.37 60.33,6.84 60.63,6.34 61,5.88 61.4,5.49 61.88,5.15 62.39,4.88 62.97,4.69 
				63.6,4.55 64.29,4.52 			"/>
		</defs>
		<clipPath id="SVGID_128_">
			<use xlink:href="#SVGID_127_"  style="overflow:visible;"/>
		</clipPath>
		<rect x="55.47" y="0.35" class="st63" width="17.27" height="18.57"/>
	</g>
	<g>
		<defs>
			<polygon id="SVGID_129_" points="79.63,14.75 78.4,14.75 75.83,7.8 77.1,7.8 79.05,13.6 79.08,13.6 80.97,7.8 82.16,7.8 			"/>
		</defs>
		<clipPath id="SVGID_130_">
			<use xlink:href="#SVGID_129_"  style="overflow:visible;"/>
		</clipPath>
		<rect x="71.66" y="3.64" class="st64" width="14.67" height="15.28"/>
	</g>
	<g>
		<defs>
			<path id="SVGID_131_" d="M87.4,12.39c-0.2,0.9-0.86,1.35-1.8,1.35c-1.51,0-2.2-1.07-2.16-2.28h5.18C88.7,9.79,87.95,7.5,85.5,7.5
				c-1.89,0-3.25,1.53-3.25,3.61c0.07,2.12,1.11,3.65,3.32,3.65c1.55,0,2.65-0.83,2.96-2.36H87.4z M83.45,10.46
				c0.08-1.06,0.79-1.96,1.98-1.96c1.12,0,1.94,0.87,1.99,1.96H83.45z"/>
		</defs>
		<clipPath id="SVGID_132_">
			<use xlink:href="#SVGID_131_"  style="overflow:visible;"/>
		</clipPath>
		<rect x="78.08" y="3.34" class="st65" width="14.72" height="15.58"/>
	</g>
	<g>
		<defs>
			<path id="SVGID_133_" d="M89.57,14.75h1.14v-3.09c0-1.76,0.67-2.8,2.5-2.8V7.66c-1.23-0.04-2,0.51-2.54,1.62h-0.03V7.82h-1.07
				V14.75z"/>
		</defs>
		<clipPath id="SVGID_134_">
			<use xlink:href="#SVGID_133_"  style="overflow:visible;"/>
		</clipPath>
		<rect x="85.41" y="3.49" class="st66" width="11.97" height="15.43"/>
	</g>
	<g>
		<defs>
			<polygon id="SVGID_135_" points="97.27,7.69 97.78,7.71 98.23,7.8 98.58,7.95 98.9,8.14 99.14,8.4 99.33,8.68 99.48,9.02 
				99.58,9.38 99.63,9.79 99.65,10.22 99.65,14.75 98.53,14.75 98.53,10.09 98.47,9.68 98.36,9.34 98.15,9.08 97.87,8.87 
				97.52,8.74 97.12,8.68 96.69,8.72 96.3,8.81 95.98,8.98 95.7,9.19 95.48,9.43 95.31,9.73 95.18,10.09 95.1,10.44 95.08,10.86 
				95.08,14.75 93.94,14.75 93.94,7.84 95.01,7.84 95.01,8.94 95.03,8.94 95.31,8.55 95.61,8.23 95.96,7.99 96.36,7.82 96.81,7.73 
				97.27,7.69 			"/>
		</defs>
		<clipPath id="SVGID_136_">
			<use xlink:href="#SVGID_135_"  style="overflow:visible;"/>
		</clipPath>
		<rect x="89.78" y="3.52" class="st67" width="14.04" height="15.4"/>
	</g>
	<g>
		<defs>
			<path id="SVGID_137_" d="M116.05,12.39c-0.2,0.9-0.86,1.35-1.8,1.35c-1.51,0-2.2-1.07-2.16-2.28h5.18
				c0.07-1.67-0.68-3.97-3.13-3.97c-1.89,0-3.25,1.53-3.25,3.61c0.07,2.12,1.11,3.65,3.32,3.65c1.55,0,2.65-0.83,2.96-2.36H116.05z
				 M112.1,10.46c0.08-1.06,0.79-1.96,1.98-1.96c1.12,0,1.94,0.87,1.99,1.96H112.1z"/>
		</defs>
		<clipPath id="SVGID_138_">
			<use xlink:href="#SVGID_137_"  style="overflow:visible;"/>
		</clipPath>
		<rect x="106.73" y="3.34" class="st68" width="14.72" height="15.58"/>
	</g>
	<g>
		<defs>
			<polygon id="SVGID_139_" points="121.59,7.69 122.1,7.71 122.55,7.8 122.9,7.95 123.22,8.14 123.46,8.4 123.65,8.68 123.8,9.02 
				123.9,9.38 123.95,9.79 123.97,10.22 123.97,14.75 122.85,14.75 122.85,10.09 122.79,9.68 122.68,9.34 122.47,9.08 122.19,8.87 
				121.84,8.74 121.44,8.68 121.01,8.72 120.62,8.81 120.3,8.98 120.02,9.19 119.8,9.43 119.63,9.73 119.5,10.09 119.42,10.44 
				119.4,10.86 119.4,14.75 118.26,14.75 118.26,7.84 119.33,7.84 119.33,8.94 119.35,8.94 119.63,8.55 119.93,8.23 120.28,7.99 
				120.68,7.82 121.13,7.73 121.59,7.69 			"/>
		</defs>
		<clipPath id="SVGID_140_">
			<use xlink:href="#SVGID_139_"  style="overflow:visible;"/>
		</clipPath>
		<rect x="114.1" y="3.52" class="st69" width="14.04" height="15.4"/>
	</g>
	<g>
		<defs>
			<path id="SVGID_141_" d="M100.26,7.81h1.07v1.02h0.03c0.51-0.78,1.29-1.18,2.24-1.18c0.84,0,1.62,0.34,1.9,1.18
				c0.47-0.74,1.29-1.18,2.17-1.18c1.38,0,2.31,0.58,2.31,2.01v5.09h-1.14V10.2c0-0.86-0.23-1.54-1.34-1.54
				c-1.1,0-1.81,0.7-1.81,1.77v4.32h-1.14V10.2c0-0.9-0.28-1.54-1.3-1.54c-1.35,0-1.85,1.25-1.85,1.77v4.32h-1.14V7.81z"/>
		</defs>
		<clipPath id="SVGID_142_">
			<use xlink:href="#SVGID_141_"  style="overflow:visible;"/>
		</clipPath>
		<rect x="96.09" y="3.49" class="st70" width="18.05" height="15.43"/>
	</g>
	<g>
		<defs>
			<path id="SVGID_143_" d="M126.99,7.81h1.38v1.01h-1.38v4.31c0,0.52,0.15,0.62,0.86,0.62h0.52v1.01h-0.87
				c-1.18,0-1.65-0.24-1.65-1.52V8.82h-1.18V7.81h1.18V5.73h1.14V7.81z"/>
		</defs>
		<clipPath id="SVGID_144_">
			<use xlink:href="#SVGID_143_"  style="overflow:visible;"/>
		</clipPath>
		<rect x="120.51" y="1.57" class="st71" width="12.03" height="17.35"/>
	</g>
</g>
<g>
</g>
<g>
</g>
<g>
</g>
<g>
</g>
<g>
</g>
<g>
</g>
<g>
</g>
<g>
</g>
<g>
</g>
<g>
</g>
<g>
</g>
<g>
</g>
<g>
</g>
<g>
</g>
<g>
</g>
</svg>
