<svg id="Layer_1" data-name="Layer 1" xmlns="http://www.w3.org/2000/svg" xmlns:xlink="http://www.w3.org/1999/xlink" viewBox="0 0 56.7 56.69"><defs><style>.cls-1,.cls-5{fill:none;}.cls-2{clip-path:url(#clip-path);}.cls-3{fill:#009b3a;}.cls-4{fill:#fedf00;}.cls-5{stroke:#00adee;stroke-width:0.03px;}.cls-6{fill:#002776;}.cls-7{fill:#fff;}</style><clipPath id="clip-path"><circle class="cls-1" cx="28.35" cy="28.35" r="28.35"/></clipPath></defs><title>Artboard 1</title><g id="Layer_2" data-name="Layer 2"><g id="_ÎÓÈ_1" data-name=" ÎÓÈ 1"><g class="cls-2"><rect class="cls-3" x="-14.17" width="85.04" height="56.69"/><polygon class="cls-4" points="-5.25 28.31 28.42 6.8 61.95 28.31 28.42 49.89 -5.25 28.31"/><circle class="cls-5" cx="28.35" cy="28.35" r="14.17"/><circle class="cls-6" cx="28.35" cy="28.35" r="14.17"/><polygon class="cls-7" points="16.8 25.2 16.93 25.59 17.33 25.59 17 25.83 17.13 26.21 16.8 25.97 16.47 26.21 16.6 25.83 16.27 25.59 16.68 25.59 16.8 25.2"/><polygon class="cls-7" points="28.39 34.1 28.52 34.49 28.92 34.49 28.59 34.73 28.72 35.11 28.39 34.87 28.06 35.11 28.19 34.73 27.86 34.49 28.27 34.49 28.39 34.1"/><polygon class="cls-7" points="22.72 35.25 22.84 35.63 23.25 35.63 22.92 35.87 23.05 36.26 22.72 36.02 22.39 36.26 22.52 35.87 22.18 35.63 22.59 35.63 22.72 35.25"/><polygon class="cls-7" points="20.62 34.15 20.7 34.41 20.97 34.41 20.75 34.56 20.84 34.82 20.62 34.66 20.4 34.82 20.49 34.56 20.27 34.41 20.54 34.41 20.62 34.15"/><polygon class="cls-7" points="26.98 31.44 27.07 31.7 27.34 31.7 27.12 31.85 27.2 32.11 26.98 31.95 26.77 32.11 26.85 31.85 26.63 31.7 26.9 31.7 26.98 31.44"/><polygon class="cls-7" points="32.29 27.22 32.38 27.48 32.65 27.48 32.43 27.63 32.51 27.89 32.29 27.73 32.07 27.89 32.16 27.63 31.94 27.48 32.21 27.48 32.29 27.22"/><polygon class="cls-7" points="27.71 32.54 27.76 32.71 27.93 32.7 27.79 32.8 27.84 32.96 27.71 32.86 27.57 32.96 27.62 32.8 27.48 32.7 27.65 32.71 27.71 32.54"/><polygon class="cls-7" points="19.44 30.58 19.49 30.74 19.66 30.74 19.52 30.84 19.57 31 19.44 30.9 19.3 31 19.35 30.84 19.22 30.74 19.39 30.74 19.44 30.58"/><polygon class="cls-7" points="28.35 39.19 28.39 39.31 28.52 39.31 28.42 39.39 28.46 39.52 28.35 39.44 28.24 39.52 28.28 39.39 28.18 39.31 28.31 39.31 28.35 39.19"/><polygon class="cls-7" points="40.31 33.06 40.39 33.31 40.66 33.31 40.44 33.47 40.52 33.73 40.31 33.57 40.09 33.73 40.17 33.47 39.95 33.31 40.23 33.31 40.31 33.06"/><polygon class="cls-7" points="35.47 35.75 35.55 36.01 35.82 36.01 35.6 36.17 35.68 36.42 35.47 36.26 35.25 36.42 35.34 36.17 35.11 36.01 35.39 36.01 35.47 35.75"/><polygon class="cls-7" points="36.89 36.09 36.97 36.35 37.24 36.35 37.02 36.5 37.1 36.76 36.89 36.6 36.67 36.76 36.75 36.5 36.53 36.35 36.81 36.35 36.89 36.09"/><polygon class="cls-7" points="33.86 36.26 33.94 36.52 34.21 36.52 33.99 36.67 34.08 36.93 33.86 36.77 33.64 36.93 33.73 36.67 33.51 36.52 33.78 36.52 33.86 36.26"/><polygon class="cls-7" points="31.54 35.92 31.63 36.18 31.89 36.18 31.68 36.34 31.76 36.59 31.54 36.43 31.32 36.59 31.41 36.34 31.19 36.18 31.46 36.18 31.54 35.92"/><polygon class="cls-7" points="35.47 38.52 35.55 38.77 35.82 38.77 35.6 38.93 35.68 39.19 35.47 39.03 35.25 39.19 35.34 38.93 35.11 38.77 35.39 38.77 35.47 38.52"/><polygon class="cls-7" points="18.08 31.1 18.21 31.48 18.61 31.48 18.28 31.72 18.41 32.11 18.08 31.87 17.75 32.11 17.88 31.72 17.55 31.48 17.96 31.48 18.08 31.1"/><polygon class="cls-7" points="38.32 32.75 38.45 33.14 38.85 33.14 38.53 33.38 38.65 33.76 38.32 33.52 38 33.76 38.12 33.38 37.79 33.14 38.2 33.14 38.32 32.75"/><polygon class="cls-7" points="32.81 23.3 32.93 23.69 33.34 23.69 33.01 23.93 33.13 24.31 32.81 24.07 32.48 24.31 32.6 23.93 32.27 23.69 32.68 23.69 32.81 23.3"/><polygon class="cls-7" points="38.04 35.18 38.15 35.52 38.51 35.52 38.22 35.73 38.33 36.07 38.04 35.85 37.76 36.07 37.87 35.73 37.58 35.52 37.93 35.52 38.04 35.18"/><polygon class="cls-7" points="38.85 34.04 38.96 34.38 39.32 34.38 39.03 34.59 39.14 34.93 38.85 34.72 38.57 34.93 38.68 34.59 38.39 34.38 38.75 34.38 38.85 34.04"/><polygon class="cls-7" points="35.47 36.99 35.58 37.33 35.93 37.32 35.65 37.53 35.76 37.87 35.47 37.66 35.18 37.87 35.29 37.53 35 37.32 35.36 37.33 35.47 36.99"/><polygon class="cls-7" points="32.65 37.34 32.76 37.68 33.11 37.68 32.82 37.89 32.93 38.23 32.65 38.02 32.36 38.23 32.47 37.89 32.18 37.68 32.54 37.68 32.65 37.34"/><polygon class="cls-7" points="23.02 28.35 23.13 28.69 23.49 28.68 23.2 28.89 23.31 29.23 23.02 29.02 22.73 29.23 22.85 28.89 22.56 28.68 22.91 28.69 23.02 28.35"/><polygon class="cls-7" points="30 31.33 30.11 31.67 30.47 31.67 30.18 31.88 30.29 32.22 30 32.01 29.72 32.22 29.83 31.88 29.54 31.67 29.9 31.67 30 31.33"/><polygon class="cls-7" points="28.39 30.11 28.5 30.45 28.85 30.45 28.57 30.66 28.68 31 28.39 30.79 28.1 31 28.21 30.66 27.93 30.45 28.28 30.45 28.39 30.11"/><polygon class="cls-7" points="20.97 32.61 21.08 32.95 21.44 32.95 21.15 33.16 21.26 33.5 20.97 33.29 20.68 33.5 20.8 33.16 20.51 32.95 20.86 32.95 20.97 32.61"/><polygon class="cls-7" points="16.27 32.51 16.38 32.85 16.74 32.85 16.45 33.05 16.56 33.39 16.27 33.18 15.98 33.39 16.1 33.05 15.81 32.85 16.16 32.85 16.27 32.51"/><path class="cls-7" d="M15.39,22.62a13.89,13.89,0,0,0-.75,2.17,32.31,32.31,0,0,1,27.19,7.79,14.37,14.37,0,0,0,.49-2.25,34.34,34.34,0,0,0-27-7.7Z"/><path class="cls-3" d="M16.1,22.87a.68.68,0,1,0,.68.6.64.64,0,0,0-.68-.6ZM16.23,24a.43.43,0,1,1,.29-.54v.07A.4.4,0,0,1,16.23,24Zm1.82-1.28-.77,0,.07,1.35h.25v-.5h.52a.75.75,0,0,1,.18.49h.23c0-.15,0-.44-.19-.55a.51.51,0,0,0-.14-.88h-.15Zm0,.6h-.52V23h.52a.17.17,0,0,1,.18.16h0a.17.17,0,0,1-.15.15Zm1.61-.66H19V24h.64a.58.58,0,0,0,.57-.59h0v-.19a.58.58,0,0,0-.55-.61h0Zm0,1.1h-.37v-.85h.37a.37.37,0,0,1,.37.36v.12a.37.37,0,0,1-.35.32Zm1.34,0h1V24H20.83V22.65H22v.25h-.93v.27h.77v.23h-.77Zm2.46-1h.34l-.12,1.34h-.23l.08-.92-.35.9H23l-.14-1-.08.92h-.23l.12-1.34H23l.19,1Zm2,.39,1,.17v.23l-.75-.13v.21l.63.11V24l-.63-.11,0,.3.77.13v.23l-1-.17Zm3.46.59-.75-.19-.34,1.3.24.06.13-.49.52.13a.42.42,0,1,0,.21-.82Zm-.17.57-.5-.13.09-.34.5.13a.17.17,0,0,1,.12.21h0a.17.17,0,0,1-.13.14Zm1.88-.07L29.94,24l-.43,1.28.24.07.15-.48.5.16a.74.74,0,0,1,0,.52l.22.07c0-.15.13-.43,0-.58a.42.42,0,0,0,0-.81Zm-.2.56-.5-.16.11-.33.5.16a.17.17,0,1,1-.1.33Zm1.71,0a.68.68,0,1,0,.3.91l0-.07a.64.64,0,0,0-.27-.86h0Zm.1.76a.36.36,0,1,1-.19-.52.4.4,0,0,1,.24.49Zm3.34.75L34.89,26l-.62,1.2.22.11.22-.45.47.23a.73.73,0,0,1-.09.51l.21.1c.07-.14.19-.4.11-.57a.45.45,0,0,0,.24-.81l0,0Zm0,.45a.17.17,0,0,1-.23.08h0l-.47-.27.15-.31.46.23a.17.17,0,0,1,.14.2v0Zm1,.34-.13.23.67.38-.11.2-.67-.38-.17.3.86.48-.12.22-1-.63.67-1.17,1,.57-.12.22Zm2.3,1.49-.25-.16c.08-.12,0-.24-.14-.32s-.23-.12-.3,0,.71.54.45,1-.52.17-.74,0-.47-.4-.29-.68l.26.16c-.07.12,0,.24.16.35s.27.1.32,0-.71-.57-.44-1,.61-.08.76,0a.44.44,0,0,1,.21.7Zm1.45,1L40,29.42c.08-.12,0-.24-.12-.33s-.22-.13-.3,0,.68.58.4,1-.53.14-.74,0-.44-.42-.25-.7l.25.18c-.08.11,0,.24.14.35s.27.12.32,0-.67-.61-.39-1,.62,0,.76,0a.44.44,0,0,1,.17.6l0,0Zm1.21.42a.68.68,0,1,0,0,1l0-.05a.64.64,0,0,0-.06-.9l0,0Zm-.14.75a.36.36,0,0,1-.63-.36l.07-.08a.36.36,0,0,1,.63.36ZM33.27,25.9a.4.4,0,0,0,.16.53.35.35,0,0,0,.38-.09l-.2-.09.08-.18.24.11h0l.18.08-.27.62-.18-.08.08-.18a.55.55,0,0,1-.46,0,.68.68,0,0,1,.5-1.18.61.61,0,0,1,.34.63L33.93,26a.35.35,0,0,0-.19-.29.4.4,0,0,0-.5.2Z"/></g></g></g></svg>