<svg xmlns="http://www.w3.org/2000/svg" xmlns:xlink="http://www.w3.org/1999/xlink" viewBox="0 0 56.69 56.69"><defs><style>.cls-1{fill:none;}.cls-2{clip-path:url(#clip-path);}.cls-3{fill:#de2910;}.cls-4{fill:#ffdc00;}</style><clipPath id="clip-path"><circle class="cls-1" cx="28.35" cy="28.35" r="28.35"/></clipPath></defs><title>Asset 1</title><g id="Layer_2" data-name="Layer 2"><g id="Layer_1-2" data-name="Layer 1"><g id="Layer_2-2" data-name="Layer 2"><g id="_ÎÓÈ_1" data-name=" ÎÓÈ 1"><g class="cls-2"><rect class="cls-3" width="56.69" height="56.69"/><polygon class="cls-4" points="21.95 18.51 23.87 24.2 30.12 24.2 25.06 27.91 26.93 33.56 21.95 30.2 16.96 33.56 18.84 27.91 13.81 24.2 20.06 24.2 21.95 18.51"/><polygon class="cls-4" points="41.98 29.86 42.61 31.71 44.63 31.71 42.99 32.91 43.59 34.74 41.98 33.66 40.37 34.74 40.97 32.91 39.35 31.71 41.37 31.71 41.98 29.86"/><polygon class="cls-4" points="40.62 21.45 42 22.83 43.81 21.93 42.88 23.74 44.23 25.11 42.31 24.85 41.34 26.54 41.07 24.63 39.08 24.27 40.9 23.38 40.62 21.45"/><polygon class="cls-4" points="34.02 16.63 35.86 17.3 37.12 15.72 37.03 17.75 38.84 18.41 36.98 19 36.82 20.93 35.77 19.32 33.82 19.84 35.09 18.26 34.02 16.63"/><polygon class="cls-4" points="34.02 36.67 35.86 37.33 37.12 35.75 37.03 37.78 38.84 38.45 36.98 39.03 36.82 40.98 35.77 39.36 33.82 39.88 35.09 38.3 34.02 36.67"/></g></g></g></g></g></svg>