<svg id="Layer_1" data-name="Layer 1" xmlns="http://www.w3.org/2000/svg" xmlns:xlink="http://www.w3.org/1999/xlink" viewBox="0 0 56.7 56.7"><defs><style>.cls-1{fill:none;}.cls-2{clip-path:url(#clip-path);}.cls-3{fill:#fff;}.cls-4{fill:#128807;}.cls-5{fill:#f93;}.cls-6{fill:#008;}</style><clipPath id="clip-path"><circle class="cls-1" cx="28.35" cy="28.35" r="28.35"/></clipPath></defs><title>Artboard 1</title><g id="Layer_2" data-name="Layer 2"><g id="_ÎÓÈ_1" data-name=" ÎÓÈ 1"><g class="cls-2"><rect class="cls-3" x="-2.83" y="17.96" width="62.36" height="20.79"/><rect class="cls-4" x="-2.83" y="38.75" width="62.36" height="20.79"/><rect class="cls-5" x="-2.83" y="-2.83" width="62.36" height="20.79"/><circle class="cls-6" cx="28.35" cy="28.35" r="8.32"/><path class="cls-3" d="M27.06,29a1.58,1.58,0,0,1-.08-.21l-1.27.52-4.38.91c0,.2.09.41.16.61h0a.34.34,0,1,1,.34.6h-.11A5.79,5.79,0,0,0,22,32l3.75-2.44Z"/><path class="cls-3" d="M27.39,27.28l.19-.13-.83-1.1-2-4c-.18.1-.37.19-.53.3a.09.09,0,0,1,.08.06.34.34,0,0,1-.6.34h0c-.17.14-.31.31-.46.46l3.33,3Z"/><path class="cls-3" d="M27,27.9a1.34,1.34,0,0,1,.08-.21l-1.26-.52-3.74-2.45a6.38,6.38,0,0,0-.32.57h.11a.34.34,0,0,1-.34.6h0a5.29,5.29,0,0,0-.15.57l4.37.92Z"/><path class="cls-3" d="M27,28.64a1.21,1.21,0,0,1,0-.22l-1.36.17-4.5-.25,4.5-.25,1.36.17A1.46,1.46,0,0,1,27,28l-1.37-.19-4.25-1.4c-.06.21-.13.42-.17.63h0a.35.35,0,1,1,0,.69h-.1V29h.1a.35.35,0,1,1,0,.69h0a2.61,2.61,0,0,0,.16.61l4.25-1.39Z"/><path class="cls-3" d="M27.71,27.06l.21-.08-.52-1.27-.91-4.37c-.2,0-.4.09-.6.16a.34.34,0,0,1-.6.34v-.09a5.79,5.79,0,0,0-.54.31l2.42,3.74Z"/><path class="cls-3" d="M27.17,27.57a1.3,1.3,0,0,1,.13-.19l-1.13-.83-3-3.38c-.16.16-.33.31-.48.48h0a.34.34,0,0,1-.34.6h0a.1.1,0,0,0-.07-.09c-.11.16-.19.34-.29.51l4,2Z"/><path class="cls-3" d="M28.06,27h.22l-.17-1.36.25-4.5h-.61v.09a.35.35,0,1,1-.69,0h0a2.75,2.75,0,0,0-.61.16l1.39,4.25Z"/><path class="cls-3" d="M29.17,27.17l.18.12.82-1.12,3.33-3c-.16-.16-.3-.33-.47-.47h0a.34.34,0,1,1-.6-.34h0a.1.1,0,0,0,.08-.06A4.76,4.76,0,0,0,32,22l-2,4Z"/><path class="cls-3" d="M29.64,27.7a1.67,1.67,0,0,1,.08.21L31,27.39l4.37-.91c0-.2-.09-.4-.16-.6a.34.34,0,1,1-.34-.6H35a5.79,5.79,0,0,0-.31-.54L30.9,27.17Z"/><path class="cls-3" d="M28.8,27l.21.09.53-1.26L32,22.08c-.19-.11-.37-.23-.58-.33v.09a.34.34,0,1,1-.6-.34h0a5.29,5.29,0,0,0-.57-.15l-.92,4.37Z"/><path class="cls-3" d="M28.43,26.91h.22l.19-1.37,1.4-4.25c-.21-.06-.41-.13-.62-.17a.35.35,0,1,1-.69,0h0V21h-.61l.25,4.5Z"/><path class="cls-3" d="M29.43,27.39a1.42,1.42,0,0,1,.13.19l1.1-.83,4-2c-.1-.18-.19-.37-.3-.53a.09.09,0,0,1-.06.08.34.34,0,1,1-.34-.6h0c-.14-.17-.31-.31-.46-.46l-3,3.33Z"/><path class="cls-3" d="M29.72,28.8a1.39,1.39,0,0,1-.08.21l1.26.53L34.64,32c.11-.19.23-.37.32-.56h-.09a.34.34,0,1,1,.34-.6,5.3,5.3,0,0,0,.15-.57L31,29.34Z"/><path class="cls-3" d="M29.31,29.43l-.19.13.83,1.1,2,4a5.79,5.79,0,0,0,.54-.31.1.1,0,0,1-.09-.07.34.34,0,1,1,.6-.34h0c.17-.14.31-.31.46-.46l-3.33-3Z"/><path class="cls-3" d="M29.55,29.17a1.49,1.49,0,0,1-.13.19l1.08.84,3,3.33c.16-.16.33-.3.47-.47h0a.34.34,0,1,1,.34-.6.1.1,0,0,0,.06.08c.11-.16.19-.34.29-.51l-4-2Z"/><path class="cls-3" d="M29.79,28.43a1.35,1.35,0,0,1,0,.22l1.37.19,4.25,1.4c.06-.21.13-.41.17-.62a.35.35,0,1,1,0-.69h.09v-.61l-4.5.25Z"/><path class="cls-3" d="M35.61,27.74h-.09a.35.35,0,1,1,0-.69,2.54,2.54,0,0,0-.16-.6l-4.19,1.42-1.37.19a1.23,1.23,0,0,1,0,.22l1.37-.17,4.5.25h0C35.65,28.17,35.63,27.94,35.61,27.74Z"/><path class="cls-3" d="M27.9,29.72l-.21-.09-.52,1.26-2.46,3.74a5.6,5.6,0,0,0,.59.33v-.11a.34.34,0,1,1,.6.34h0a5.3,5.3,0,0,0,.57.15L27.39,31Z"/><path class="cls-3" d="M27.28,29.31l-.11-.14-1.1.83-4,2a5.79,5.79,0,0,0,.31.54.1.1,0,0,1,.07-.09.34.34,0,1,1,.34.6h0c.14.17.31.31.46.46l2.92-3.34Z"/><path class="cls-3" d="M27.57,29.55l-.18-.12-.84,1.08-3.33,3c.16.16.3.33.48.48h0a.34.34,0,1,1,.6.34.1.1,0,0,0-.09.07c.16.11.33.19.49.28l2-4Z"/><path class="cls-3" d="M28.27,29.79h-.22l-.19,1.37-1.4,4.25a6.48,6.48,0,0,0,.63.17h0a.35.35,0,1,1,.69,0v.1h.62l-.3-4.51Z"/><path class="cls-3" d="M28.64,29.75h-.22l.18,1.42-.25,4.5H29v-.1a.35.35,0,1,1,.69,0h0a2.61,2.61,0,0,0,.61-.16l-1.39-4.25Z"/><path class="cls-3" d="M29,29.64l-.21.08L29.31,31l.91,4.38c.2,0,.41-.09.61-.16h0a.34.34,0,1,1,.6-.34h0V35a5.79,5.79,0,0,0,.54-.31l-2.44-3.75Z"/></g></g></g></svg>