<svg id="Layer_1" data-name="Layer 1" xmlns="http://www.w3.org/2000/svg" xmlns:xlink="http://www.w3.org/1999/xlink" viewBox="0 0 56.7 56.69"><defs><style>.cls-1{fill:none;}.cls-2{clip-path:url(#clip-path);}.cls-3{fill:#fff;}.cls-4{fill:#002377;}.cls-5{fill:#c2121f;}</style><clipPath id="clip-path"><circle class="cls-1" cx="28.35" cy="28.35" r="28.35"/></clipPath></defs><title>Artboard 1</title><g id="Layer_2" data-name="Layer 2"><g id="_ÎÓÈ_1" data-name=" ÎÓÈ 1"><g class="cls-2"><rect class="cls-3" x="-14.17" width="85.04" height="56.69"/><polygon class="cls-4" points="-14.17 37.92 -14.17 49.76 4 37.92 -14.17 37.92"/><polygon class="cls-4" points="-14.17 7.26 -14.17 18.77 3.5 18.77 -14.17 7.26"/><polygon class="cls-4" points="62.1 0 36.13 0 36.13 16.92 62.1 0"/><polygon class="cls-4" points="20.57 0 -5.67 0 20.57 17.11 20.57 0"/><polygon class="cls-4" points="-5.17 56.69 20.57 56.69 20.57 39.91 -5.17 56.69"/><polygon class="cls-4" points="70.87 18.77 70.87 7.08 52.92 18.77 70.87 18.77"/><polygon class="cls-4" points="36.13 56.69 61.6 56.69 36.13 40.09 36.13 56.69"/><polygon class="cls-4" points="70.87 49.94 70.87 37.92 52.42 37.92 70.87 49.94"/><path class="cls-5" d="M32.75,22.83H70.83v11H32.75V56.69h-8.8V33.86H-14.17v-11H23.95V0h8.8ZM-14.17,56.12v.57h5.72L20.36,37.92h-6.6ZM65.39,0,36.58,18.78h6.6L70.83.73V0ZM42.75,37.92,70.83,56.25V52L49.3,38ZM13.62,18.78-14.17.67V5L7,18.78Z"/></g></g></g></svg>