<svg id="Layer_1" data-name="Layer 1" xmlns="http://www.w3.org/2000/svg" xmlns:xlink="http://www.w3.org/1999/xlink" viewBox="0 0 56.7 56.69"><defs><style>.cls-1{fill:none;}.cls-2{clip-path:url(#clip-path);}.cls-3{fill:#fff;}.cls-4{fill:#233caf;}.cls-5{fill:#eb0000;}</style><clipPath id="clip-path"><circle class="cls-1" cx="28.35" cy="28.35" r="28.35"/></clipPath></defs><title>Artboard 1</title><g id="Layer_2" data-name="Layer 2"><g id="_ÎÓÈ_1" data-name=" ÎÓÈ 1"><g class="cls-2"><polygon class="cls-3" points="0.15 4.63 0.62 5.58 1.67 5.74 0.91 6.47 1.09 7.52 0.15 7.03 -0.79 7.52 -0.61 6.47 -1.37 5.74 -0.32 5.58 0.15 4.63"/><polygon class="cls-3" points="7.28 4.63 7.75 5.58 8.8 5.74 8.04 6.47 8.22 7.52 7.28 7.03 6.35 7.52 6.52 6.47 5.77 5.74 6.81 5.58 7.28 4.63"/><polygon class="cls-3" points="14.41 4.63 14.88 5.58 15.93 5.74 15.17 6.47 15.35 7.52 14.41 7.03 13.48 7.52 13.66 6.47 12.9 5.74 13.95 5.58 14.41 4.63"/><polygon class="cls-3" points="21.55 4.63 22.02 5.58 23.06 5.74 22.3 6.47 22.48 7.52 21.55 7.03 20.61 7.52 20.79 6.47 20.03 5.74 21.08 5.58 21.55 4.63"/><polygon class="cls-3" points="0.15 10.78 0.62 11.73 1.67 11.88 0.91 12.62 1.09 13.66 0.15 13.17 -0.79 13.66 -0.61 12.62 -1.37 11.88 -0.32 11.73 0.15 10.78"/><polygon class="cls-3" points="7.28 10.78 7.75 11.73 8.8 11.88 8.04 12.62 8.22 13.66 7.28 13.17 6.35 13.66 6.52 12.62 5.77 11.88 6.81 11.73 7.28 10.78"/><polygon class="cls-3" points="14.41 10.78 14.88 11.73 15.93 11.88 15.17 12.62 15.35 13.66 14.41 13.17 13.48 13.66 13.66 12.62 12.9 11.88 13.95 11.73 14.41 10.78"/><polygon class="cls-3" points="21.55 10.78 22.02 11.73 23.06 11.88 22.3 12.62 22.48 13.66 21.55 13.17 20.61 13.66 20.79 12.62 20.03 11.88 21.08 11.73 21.55 10.78"/><polygon class="cls-3" points="0.15 16.93 0.62 17.88 1.67 18.03 0.91 18.77 1.09 19.81 0.15 19.32 -0.79 19.81 -0.61 18.77 -1.37 18.03 -0.32 17.88 0.15 16.93"/><polygon class="cls-3" points="7.28 16.93 7.75 17.88 8.8 18.03 8.04 18.77 8.22 19.81 7.28 19.32 6.35 19.81 6.52 18.77 5.77 18.03 6.81 17.88 7.28 16.93"/><polygon class="cls-3" points="14.41 16.93 14.88 17.88 15.93 18.03 15.17 18.77 15.35 19.81 14.41 19.32 13.48 19.81 13.66 18.77 12.9 18.03 13.95 17.88 14.41 16.93"/><polygon class="cls-3" points="21.55 16.93 22.02 17.88 23.06 18.03 22.3 18.77 22.48 19.81 21.55 19.32 20.61 19.81 20.79 18.77 20.03 18.03 21.08 17.88 21.55 16.93"/><polygon class="cls-3" points="0.15 23.07 0.62 24.02 1.67 24.18 0.91 24.91 1.09 25.95 0.15 25.46 -0.79 25.95 -0.61 24.91 -1.37 24.18 -0.32 24.02 0.15 23.07"/><polygon class="cls-3" points="7.28 23.07 7.75 24.02 8.8 24.18 8.04 24.91 8.22 25.95 7.28 25.46 6.35 25.95 6.52 24.91 5.77 24.18 6.81 24.02 7.28 23.07"/><polygon class="cls-3" points="14.41 23.07 14.88 24.02 15.93 24.18 15.17 24.91 15.35 25.95 14.41 25.46 13.48 25.95 13.66 24.91 12.9 24.18 13.95 24.02 14.41 23.07"/><polygon class="cls-3" points="21.55 23.07 22.02 24.02 23.06 24.18 22.3 24.91 22.48 25.95 21.55 25.46 20.61 25.95 20.79 24.91 20.03 24.18 21.08 24.02 21.55 23.07"/><rect class="cls-3" x="-14.28" width="85.26" height="56.69"/><rect class="cls-4" x="-14.28" width="43.13" height="30.59"/><rect class="cls-5" x="28.85" width="42.14" height="4.49"/><rect class="cls-5" x="28.85" y="8.7" width="42.14" height="4.49"/><rect class="cls-5" x="28.85" y="17.4" width="42.14" height="4.49"/><rect class="cls-5" x="28.85" y="26.1" width="42.14" height="4.49"/><rect class="cls-5" x="-14.28" y="34.8" width="85.26" height="4.49"/><rect class="cls-5" x="-14.28" y="43.5" width="85.26" height="4.49"/><rect class="cls-5" x="-14.28" y="52.2" width="85.26" height="4.49"/><polygon class="cls-3" points="4.31 3.42 5.34 2.68 4.07 2.68 3.67 1.47 3.28 2.68 2.02 2.68 3.04 3.42 2.65 4.63 3.67 3.89 4.7 4.63 4.31 3.42"/><polygon class="cls-3" points="11.45 3.42 12.48 2.68 11.21 2.68 10.82 1.47 10.43 2.68 9.16 2.68 10.18 3.42 9.79 4.63 10.82 3.89 11.85 4.63 11.45 3.42"/><polygon class="cls-3" points="18.6 3.42 19.62 2.68 18.35 2.68 17.96 1.47 17.57 2.68 16.3 2.68 17.33 3.42 16.94 4.63 17.96 3.89 18.99 4.63 18.6 3.42"/><polygon class="cls-3" points="25.74 3.42 26.77 2.68 25.5 2.68 25.1 1.47 24.71 2.68 23.45 2.68 24.47 3.42 24.08 4.63 25.1 3.89 26.13 4.63 25.74 3.42"/><polygon class="cls-3" points="0.74 6.49 1.77 5.74 0.5 5.74 0.1 4.53 -0.29 5.74 -1.56 5.74 -0.53 6.49 -0.92 7.69 0.1 6.95 1.13 7.69 0.74 6.49"/><polygon class="cls-3" points="7.88 6.49 8.91 5.74 7.64 5.74 7.25 4.53 6.86 5.74 5.59 5.74 6.61 6.49 6.22 7.69 7.25 6.95 8.27 7.69 7.88 6.49"/><polygon class="cls-3" points="15.02 6.49 16.05 5.74 14.78 5.74 14.39 4.53 14 5.74 12.73 5.74 13.76 6.49 13.36 7.69 14.39 6.95 15.42 7.69 15.02 6.49"/><polygon class="cls-3" points="22.17 6.49 23.2 5.74 21.93 5.74 21.53 4.53 21.14 5.74 19.87 5.74 20.9 6.49 20.51 7.69 21.53 6.95 22.56 7.69 22.17 6.49"/><polygon class="cls-3" points="4.31 9.55 5.34 8.8 4.07 8.8 3.67 7.59 3.28 8.8 2.02 8.8 3.04 9.55 2.65 10.75 3.67 10.01 4.7 10.75 4.31 9.55"/><polygon class="cls-3" points="11.45 9.55 12.48 8.8 11.21 8.8 10.82 7.59 10.43 8.8 9.16 8.8 10.18 9.55 9.79 10.75 10.82 10.01 11.85 10.75 11.45 9.55"/><polygon class="cls-3" points="18.6 9.55 19.62 8.8 18.35 8.8 17.96 7.59 17.57 8.8 16.3 8.8 17.33 9.55 16.94 10.75 17.96 10.01 18.99 10.75 18.6 9.55"/><polygon class="cls-3" points="25.74 9.55 26.77 8.8 25.5 8.8 25.1 7.59 24.71 8.8 23.45 8.8 24.47 9.55 24.08 10.75 25.1 10.01 26.13 10.75 25.74 9.55"/><polygon class="cls-3" points="0.74 12.61 1.77 11.86 0.5 11.86 0.1 10.66 -0.29 11.86 -1.56 11.86 -0.53 12.61 -0.92 13.82 0.1 13.07 1.13 13.82 0.74 12.61"/><polygon class="cls-3" points="7.88 12.61 8.91 11.86 7.64 11.86 7.25 10.66 6.86 11.86 5.59 11.86 6.61 12.61 6.22 13.82 7.25 13.07 8.27 13.82 7.88 12.61"/><polygon class="cls-3" points="15.02 12.61 16.05 11.86 14.78 11.86 14.39 10.66 14 11.86 12.73 11.86 13.76 12.61 13.36 13.82 14.39 13.07 15.42 13.82 15.02 12.61"/><polygon class="cls-3" points="22.17 12.61 23.2 11.86 21.93 11.86 21.53 10.66 21.14 11.86 19.87 11.86 20.9 12.61 20.51 13.82 21.53 13.07 22.56 13.82 22.17 12.61"/><polygon class="cls-3" points="4.31 15.67 5.34 14.93 4.07 14.93 3.67 13.72 3.28 14.93 2.02 14.93 3.04 15.67 2.65 16.88 3.67 16.13 4.7 16.88 4.31 15.67"/><polygon class="cls-3" points="11.45 15.67 12.48 14.93 11.21 14.93 10.82 13.72 10.43 14.93 9.16 14.93 10.18 15.67 9.79 16.88 10.82 16.13 11.85 16.88 11.45 15.67"/><polygon class="cls-3" points="18.6 15.67 19.62 14.93 18.35 14.93 17.96 13.72 17.57 14.93 16.3 14.93 17.33 15.67 16.94 16.88 17.96 16.13 18.99 16.88 18.6 15.67"/><polygon class="cls-3" points="25.74 15.67 26.77 14.93 25.5 14.93 25.1 13.72 24.71 14.93 23.45 14.93 24.47 15.67 24.08 16.88 25.1 16.13 26.13 16.88 25.74 15.67"/><polygon class="cls-3" points="0.74 18.73 1.77 17.99 0.5 17.99 0.1 16.78 -0.29 17.99 -1.56 17.99 -0.53 18.73 -0.92 19.94 0.1 19.19 1.13 19.94 0.74 18.73"/><polygon class="cls-3" points="7.88 18.73 8.91 17.99 7.64 17.99 7.25 16.78 6.86 17.99 5.59 17.99 6.61 18.73 6.22 19.94 7.25 19.19 8.27 19.94 7.88 18.73"/><polygon class="cls-3" points="15.02 18.73 16.05 17.99 14.78 17.99 14.39 16.78 14 17.99 12.73 17.99 13.76 18.73 13.36 19.94 14.39 19.19 15.42 19.94 15.02 18.73"/><polygon class="cls-3" points="22.17 18.73 23.2 17.99 21.93 17.99 21.53 16.78 21.14 17.99 19.87 17.99 20.9 18.73 20.51 19.94 21.53 19.19 22.56 19.94 22.17 18.73"/><polygon class="cls-3" points="4.31 21.79 5.34 21.05 4.07 21.05 3.67 19.84 3.28 21.05 2.02 21.05 3.04 21.79 2.65 23 3.67 22.25 4.7 23 4.31 21.79"/><polygon class="cls-3" points="11.45 21.79 12.48 21.05 11.21 21.05 10.82 19.84 10.43 21.05 9.16 21.05 10.18 21.79 9.79 23 10.82 22.25 11.85 23 11.45 21.79"/><polygon class="cls-3" points="18.6 21.79 19.62 21.05 18.35 21.05 17.96 19.84 17.57 21.05 16.3 21.05 17.33 21.79 16.94 23 17.96 22.25 18.99 23 18.6 21.79"/><polygon class="cls-3" points="25.74 21.79 26.77 21.05 25.5 21.05 25.1 19.84 24.71 21.05 23.45 21.05 24.47 21.79 24.08 23 25.1 22.25 26.13 23 25.74 21.79"/><polygon class="cls-3" points="0.74 24.86 1.77 24.11 0.5 24.11 0.1 22.9 -0.29 24.11 -1.56 24.11 -0.53 24.86 -0.92 26.06 0.1 25.32 1.13 26.06 0.74 24.86"/><polygon class="cls-3" points="7.88 24.86 8.91 24.11 7.64 24.11 7.25 22.9 6.86 24.11 5.59 24.11 6.61 24.86 6.22 26.06 7.25 25.32 8.27 26.06 7.88 24.86"/><polygon class="cls-3" points="15.02 24.86 16.05 24.11 14.78 24.11 14.39 22.9 14 24.11 12.73 24.11 13.76 24.86 13.36 26.06 14.39 25.32 15.42 26.06 15.02 24.86"/><polygon class="cls-3" points="22.17 24.86 23.2 24.11 21.93 24.11 21.53 22.9 21.14 24.11 19.87 24.11 20.9 24.86 20.51 26.06 21.53 25.32 22.56 26.06 22.17 24.86"/><polygon class="cls-3" points="4.31 27.92 5.34 27.17 4.07 27.17 3.67 25.96 3.28 27.17 2.02 27.17 3.04 27.92 2.65 29.12 3.67 28.38 4.7 29.12 4.31 27.92"/><polygon class="cls-3" points="11.45 27.92 12.48 27.17 11.21 27.17 10.82 25.96 10.43 27.17 9.16 27.17 10.18 27.92 9.79 29.12 10.82 28.38 11.85 29.12 11.45 27.92"/><polygon class="cls-3" points="18.6 27.92 19.62 27.17 18.35 27.17 17.96 25.96 17.57 27.17 16.3 27.17 17.33 27.92 16.94 29.12 17.96 28.38 18.99 29.12 18.6 27.92"/><polygon class="cls-3" points="25.74 27.92 26.77 27.17 25.5 27.17 25.1 25.96 24.71 27.17 23.45 27.17 24.47 27.92 24.08 29.12 25.1 28.38 26.13 29.12 25.74 27.92"/></g></g></g></svg>