<?xml version="1.0" encoding="utf-8"?>
<!-- Generator: Adobe Illustrator 21.0.2, SVG Export Plug-In . SVG Version: 6.00 Build 0)  -->
<svg version="1.1" id="Layer_2" xmlns="http://www.w3.org/2000/svg" xmlns:xlink="http://www.w3.org/1999/xlink" x="0px" y="0px" viewBox="0 0 435.25 432.78" style="enable-background:new 0 0 435.25 432.78;"
	 xml:space="preserve">
<style type="text/css">
	.st0{fill:#160D37;}
	.st1{fill:#B00D23;}
</style>
<g>
	<path class="st0" d="M322.42,171.2l2.69,1.93h2.51v-4.82l7.9-0.77l7.5,5.59h12.33l0.87-0.79c-1.24-4.16-2.63-8.24-4.18-12.24
		l-8.05,0.13l-4.04-4.43l-0.78-7.13l-4.14,2.26l-2.22,8.71l-5.97-6.35l-0.24-6l-5.76-4.96l-2.12-2.12h-6.68l2.1,5.96l8.05,4.49
		l1.4,1.48l-1.75,0.87l0.08,4.72l-3.92,1.64l-3.34-0.73l-2.1-2.96l5.45,0.29l1.47-1.98l-12.06-8.13l-0.93-3.47l-4.9,4.43l-4.96-1.02
		l-7.56,9.83l-1.49,3.85l-4.84,0.44l-7.15,0.05l-4.28-2l-1.26-8.5l1.54-4.05l7.28-1.59l7.94,1.59l0.97-4.39l-3.37-0.8l1.15-6.84
		l7.99-1.25l5.59-7.89l5.77-0.97l5.21,0.77h1.92l-1.06-7.42l-6.33,2.55l-2.23-5.54l-3.67-0.51l-0.69-3.79l3-3.26l7.13-2.79
		l1.83-3.28c-27.24-23.99-62.94-38.6-102-38.6c-33.9,0-65.26,11-90.76,29.59l7.79-0.06l3.47,1.92l6.54,1.41l0.51,2.57l10.4,0.38
		l-1.41-3.34l-9.24-0.26l2.18-2.05l-0.76-2.44h-8.36l9.11-6.8h8.73l4.1,5.66l6.81,0.38l4.1-3.98l3.08,1.54l-5.66,5.52
		c0,0-7.82,0.14-7.44,0.14c0.38,0,0.64,5.39,0.64,5.39l9.49-0.26l1.03-2.56l6.54-0.39l0.77-3.85l-3.85-0.65l1.28-3.47l2.95-0.89
		l10.27,0.51l-5.66,5.14l0.91,3.98l5.9,0.9l-0.38-7.19l5.65-2.96l10.01-1.16l14.5,6.42v5.52l4.62,1.16l-2.32,4.37h-6.55l-1.94,5
		l-14.94-3.53l11.76-6.27l-4.48-3.81l-10.14,1.28l-0.89,0.92l-0.03-0.01l-0.15,0.21l-2.92,3.04l-4.83,0.4l0.38,2.4l1.69,0.7
		l-0.07,0.79l-3.93,0.56l-0.29,2.28l-3.75,0.19l-0.68-4.53l-6.74,2.05l-13.77,8.06l1.54,5.68l3.85,2.51l7.7,1.06v8.75l3.56-0.57
		l3.28-6.84l8.19-2.59v-10.5l4.55-3.44l11.01,2.6l-0.77,6.94h2.96l8.09-3.98l0.39,9.11l5.89,3.59l-0.25,5.4l-5.64,1.92l0.38,1.79
		l6.8,3.1l-0.14,3.72l-1.97,0.17c-0.01-0.06-0.02-0.1-0.02-0.1l-8.58-2.65l-0.36-2.75h-0.01l2.51-1.73v-2.51l-2.7-0.68l-0.67,2.32
		l-4.74,0.73l-0.47-0.15v0.24l-1.64,0.25l-1.34-2.7l-1.54-0.68h-3.37l-1.53,1.26v2.79l2.88,0.96l2.85,0.4l-0.64,0.28l-2.6,2.88
		l-1.14-1.44l-2.51-0.66l-6.84,6.43l0.89,0.73l-10.1,5.6l-9.5,9.89l-0.65,4.4l-9.52,6.26l-4.72,4.75l0.52,9.5l-6.55-3.05l0.05-5.55
		l-18.22,0.01l-9.44,4.78l-4.1,7.56l-1.63,5.99l2.65,5.81l7.44,0.91l11.81-7.9l1.03,3.92l-3.61,6.81l8.99,1.54l0.9,13.89l12.33,2.1
		l7.83-9.05l9.5,1.93l3.34,4.64l9.11-0.54l0.26-2.69l5.01,2.43l5.65,8.85l9.75,0.13l3.6,6.3l0.51,7.7l10.79,4.1l13.61,0.14
		l3.98,6.54l6.03,1.93l-1.16,5.41l-6.61,8.4l-1.93,18.6l-5.97,4.72l-8.85-0.26l-2.95,5.13l2.19,9.65l-9.64,12.32l-3.08,5.66
		l-9.18,4.41l-6.04,0.92l-0.25,2.56l4.24,1.22l-0.51,2.76l-3.79,3.65l2.3,2.91l4.57,0.13l-0.26,3.52l-1.22,3.47l-0.39,2.82
		l6.76,5.69l-0.9,2.96l-9.2-0.17l-9.15-7.98l-7.13-12.53l0.99-12.09l-5.39-7.19l2.18-12.19l-3.2-0.89v-26.45c0,0-8.99-6.81-9.5-6.81
		c-0.52,0-4.76-1.16-4.76-1.16l-0.9-5l-11.68-14.64l1.16-5.26l0.38-8.6l8.09-5.66l-1.16-9.63l-11.81-0.89l-9.24-10.53l-6.55-1.81
		l-4.23-0.78l0.51-3.85l-5.39-0.77v2.18l-13.49-3.37l-5.43-8.3l2.21-4.02l-8.54-12.46l-1.46-9.11h-3.47l1.15,8.85l5.9,9.11
		l-0.64,3.6l-5-0.77l-6.16-10.5v-12.22l-6.42-3.08v-8.79c-7.93,18.58-12.33,39.01-12.33,60.46c0,85.19,69.3,154.49,154.49,154.49
		c48.29,0,91.47-22.29,119.82-57.11h-5.1v-10.27l-5.9-7.94v-12.35l-4.5-4.49l-0.4-5.14l5.72-10.91l-10.83-19.14l1.27-12.98
		l-9.75-1.01l-3.59-3.59h-6.56l-3.33,3.08H273.3l-0.39,1.03h-6.43l-14.75-16.81l0.12-13.1l2.44-0.89l0.91-5.01h-3.47l-1.42-5.26
		l17.07-12.32v-8.73l8.36-4.64l3.39,0.34H286l5.38-2.89l17.34-1.35v8.86L322.42,171.2z M279.09,116.12l1.41-2.18l5.08-1.03
		l1.27,6.17l2.7,4.36l1.79,2.06l3.27,1.28l-3.08,3.67l-5.97,0.57h-4.49l0.5-5.33l3.73-0.77l-0.32-2.51l-3.48-2.18l-2.43-1.67
		L279.09,116.12L279.09,116.12z M270.75,125.75l3.08-4.94l4.16-0.97l2.96,1.28l-0.27,3.34l-6.35,4.49h-3.59v-3.2H270.75z
		 M186.81,144.75l-3.22,0.27l0.17-2.24l1.44-1.79l1.93,1.52L186.81,144.75z M198.09,140.8l-2.2,0.19l-0.44,2.12l-1.69,1.05
		l-2.71,0.23c-0.09-0.64-0.15-1.12-0.15-1.12h-1.05v-2.28h4.43l0.91-2.36l1.76-0.03l2.01,0.42L198.09,140.8z"/>
</g>
<g>
	<path class="st1" d="M36.86,126.7l-12.17-6.08c-2.05,4.03-4.03,8.77-6.08,12.87l12.17,5.38C32.12,134.83,34.17,130.73,36.86,126.7z
		"/>
	<path class="st1" d="M86.23,66.5l-8.77-10.82c-4.03,3.4-7.43,6.08-10.82,9.48l9.48,9.48C78.8,71.88,82.2,69.19,86.23,66.5z"/>
	<path class="st1" d="M49.66,105.69l-10.82-8.13c-2.69,3.4-4.74,7.43-7.43,11.53l11.53,6.79C44.99,111.77,47.68,108.45,49.66,105.69
		z"/>
	<path class="st1" d="M19.25,176.07l-13.51-2.69c-1.34,4.74-2.05,9.48-2.69,14.22l13.51,2.05C16.56,185.54,17.91,180.8,19.25,176.07
		z"/>
	<path class="st1" d="M66.64,84.05l-10.11-9.48c-3.4,3.4-6.79,7.43-9.48,10.82l10.82,8.77C60.56,90.84,63.24,87.44,66.64,84.05z"/>
	<path class="st1" d="M26.04,151.74L13.17,147c-1.34,4.74-2.69,8.77-4.03,13.51l12.87,3.4C22.64,159.8,23.99,155.77,26.04,151.74z"
		/>
	<path class="st1" d="M36.86,305.93l-12.17,6.08c2.05,4.03,4.03,8.13,6.79,12.17l12.17-6.79C40.89,313.36,38.84,309.96,36.86,305.93
		z"/>
	<path class="st1" d="M14.51,215.96c0-4.03,0-8.77,0.71-13.51l-13.51-0.71C1,206.48,1,211.22,1,215.96v0.71h13.51V215.96z"/>
	<path class="st1" d="M26.04,281.6l-12.87,4.74c1.34,4.03,3.4,8.77,5.38,12.87l12.17-5.38C29.43,289.66,27.38,285.63,26.04,281.6z"
		/>
	<path class="st1" d="M15.22,230.17l-13.51,0.64c0,4.74,0.71,9.48,1.34,14.22l13.51-2.05C15.85,238.95,15.22,234.21,15.22,230.17z"
		/>
	<path class="st1" d="M19.25,256.56l-13.51,2.69c0.71,4.74,2.05,8.77,3.4,13.51l13.51-3.4C21.3,265.33,19.96,260.59,19.25,256.56z"
		/>
	<path class="st1" d="M389.88,151.03l12.87-4.74c-2.05-4.03-3.4-8.77-5.38-12.87l-12.17,5.38
		C386.55,142.89,388.53,147,389.88,151.03z"/>
	<path class="st1" d="M49.66,327.57l-10.82,8.13c2.69,4.03,6.08,8.13,8.77,11.53l10.11-9.48L49.66,327.57z"/>
	<path class="st1" d="M379.06,126.7l11.53-6.08c-2.05-4.03-4.03-8.13-6.79-12.17l-11.53,6.79
		C375.02,119.27,377.08,122.59,379.06,126.7z"/>
	<path class="st1" d="M365.55,104.34l10.82-8.13c-2.69-4.03-6.08-8.13-8.77-11.53l-10.11,8.77
		C360.17,97.63,362.86,100.95,365.55,104.34z"/>
	<path class="st1" d="M155.19,29.94l-3.4-12.87c-4.74,1.34-8.77,2.69-13.51,4.03l4.74,12.87C147.06,32.7,151.16,31.28,155.19,29.94z
		"/>
	<path class="st1" d="M348.64,84.05l10.11-9.48l-10.11-10.11l-9.48,10.11C342.56,77.33,345.95,80.72,348.64,84.05z"/>
	<path class="st1" d="M181.58,23.85l-2.05-13.51c-4.74,0.71-9.48,2.05-14.22,2.69L168,26.54C172.8,25.9,176.84,25.2,181.58,23.85z"
		/>
	<path class="st1" d="M308.75,380.97l6.79,11.53c4.03-2.69,8.13-5.45,12.17-8.13l-8.13-10.82
		C316.18,376.23,312.78,378.99,308.75,380.97z"/>
	<path class="st1" d="M329.69,366.12l8.77,10.11c4.03-3.4,7.43-6.08,10.82-8.77l-9.48-10.11
		C336.48,360.67,333.08,363.43,329.69,366.12z"/>
	<path class="st1" d="M302.67,31.99l-6.08,12.17c4.03,2.05,7.43,4.74,11.53,6.79l6.79-12.17C310.8,36.73,306.7,34.04,302.67,31.99z"
		/>
	<path class="st1" d="M327,46.84l-8.13,10.82c4.03,2.69,7.43,5.45,10.82,8.13l8.77-10.11C334.42,52.29,331.03,49.6,327,46.84z"/>
	<path class="st1" d="M276.99,21.17l-4.74,12.87c4.03,1.34,8.13,2.69,12.17,4.74l5.45-12.17C285.76,24.56,281.66,22.51,276.99,21.17
		z"/>
	<path class="st1" d="M285.05,393.14l5.38,12.17c4.74-2.05,8.77-4.03,12.87-5.38l-6.08-12.17
		C293.19,389.82,289.16,391.16,285.05,393.14z"/>
	<path class="st1" d="M396.67,254.51l13.51,2.69c1.34-4.03,2.05-8.77,2.05-13.51l-13.51-2.05
		C398.01,245.74,397.38,250.48,396.67,254.51z"/>
	<path class="st1" d="M260.72,401.98l3.4,12.87c4.74-1.34,8.77-2.69,14.22-4.03l-4.74-12.87
		C268.86,399.22,264.76,400.64,260.72,401.98z"/>
	<path class="st1" d="M389.88,280.18l12.87,4.74c1.34-4.74,2.69-9.48,4.03-14.22l-12.87-3.4
		C392.64,272.12,391.29,276.15,389.88,280.18z"/>
	<path class="st1" d="M379.76,304.58l12.17,6.08c2.05-4.03,4.03-8.13,5.45-12.87l-12.17-5.45
		C383.8,296.45,381.82,300.48,379.76,304.58z"/>
	<path class="st1" d="M366.25,326.86l10.82,8.13c2.69-4.03,5.45-8.13,8.13-12.17l-11.53-6.79
		C370.99,319.44,368.94,323.47,366.25,326.86z"/>
	<path class="st1" d="M349.35,347.16l10.11,9.48c2.69-3.4,6.08-6.79,9.48-10.82l-10.82-8.77
		C355.43,340.37,352.04,343.77,349.35,347.16z"/>
	<path class="st1" d="M180.23,420.87c4.74,0.71,9.48,1.34,14.22,1.34l0.71-13.51c-4.03-0.71-8.77-0.71-12.87-1.34L180.23,420.87z"/>
	<path class="st1" d="M153.21,415.49c4.03,1.34,8.77,2.69,13.51,3.4l2.69-12.87c-4.03-1.34-8.77-2.05-12.87-3.4L153.21,415.49z"/>
	<path class="st1" d="M67.28,347.87l-10.11,9.48l10.11,10.11l9.48-10.11C73.36,353.95,69.96,351.27,67.28,347.87z"/>
	<path class="st1" d="M221.47,9.64l-0.71,13.51c4.03,0,8.77,0.71,12.87,1.34l2.05-13.51C230.95,10.34,226.21,9.64,221.47,9.64z"/>
	<path class="st1" d="M194.45,23.22c4.03,0,8.77-0.71,13.51-0.71V9c-4.74,0-9.48,0.71-14.22,0.71L194.45,23.22z"/>
	<path class="st1" d="M234.34,407.36l2.05,13.51c4.74-0.71,9.48-1.34,13.51-2.05l-2.69-13.51
		C243.11,406.01,238.37,406.72,234.34,407.36z"/>
	<path class="st1" d="M249.19,13.03l-2.69,13.51c4.74,0.71,8.77,2.05,12.87,3.4l3.4-13.51C258.67,15.08,253.93,13.74,249.19,13.03z"
		/>
	<path class="st1" d="M208.67,409.41v13.51c4.74,0,9.48-0.71,14.22-0.71l-0.71-13.51C217.44,409.41,213.4,409.41,208.67,409.41z"/>
</g>
<g>
	<path class="st1" d="M409.54,173.38c-0.71-4.74-2.05-8.77-3.4-13.51l-12.87,3.4c1.34,4.03,2.69,8.77,3.4,12.87L409.54,173.38z"/>
	<path class="st1" d="M413.29,190.21c-0.14-0.92-0.28-1.77-0.35-2.69l-13.51,2.05c0.07,0.35,0.14,0.78,0.21,1.13
		c-10.82,3.25-18.46,13.16-18.46,25.25c0,14.85,12.17,26.38,26.38,26.38c14.85,0,26.38-11.53,26.38-26.38
		C433.87,203.16,424.82,192.83,413.29,190.21z M407.49,228.83c-7.43,0-12.87-6.08-12.87-12.87c0-7.43,6.08-12.87,12.87-12.87
		c7.43,0,12.87,6.08,12.87,12.87C420.36,223.38,414.28,228.83,407.49,228.83z"/>
</g>
<g>
	<path class="st1" d="M136.45,395.33c0.14-9.19-4.74-18.04-13.01-23.13c-4.03-2.05-8.13-3.4-12.87-3.4c-4.95,0-9.9,1.49-14.15,4.31
		c-3.75-2.55-7-5.09-10.19-7.64l-8.77,10.82c3.47,2.9,6.44,5.23,9.69,7.57c-2.55,5.52-3.4,11.46-1.63,17.47
		c2.05,6.79,6.08,12.17,12.17,15.56c4.03,2.05,8.13,3.4,12.87,3.4c9.27,0,17.97-4.6,22.07-11.74c1.98,0.85,4.1,1.7,6.37,2.33
		l4.74-12.87C141.26,397.1,138.85,396.25,136.45,395.33z M110.56,406.01c-6.72,0-12.17-5.45-12.17-12.17
		c0-6.72,5.45-12.17,12.17-12.17s12.17,5.45,12.17,12.17C122.8,400.57,117.28,406.01,110.56,406.01z"/>
	<path class="st1" d="M129.45,38.99c0.5-0.28,0.92-0.57,1.41-0.85l-5.38-12.17c-1.27,0.57-2.55,1.13-3.75,1.63
		c-4.46-3.68-10.4-5.73-16.55-5.73c-4.03,0-8.77,1.34-12.87,3.4c-12.17,7.43-16.91,23.7-9.48,35.86C86.87,69.26,95.71,74,105.12,74
		c5.16,0,20.23-3.4,25.04-19.59C131.71,49.1,131.29,43.87,129.45,38.99z M105.19,60.21c-7,0-12.66-5.66-12.66-12.66
		s5.66-12.66,12.66-12.66c7,0,12.66,5.66,12.66,12.66S112.19,60.21,105.19,60.21z"/>
</g>
</svg>
