<?xml version="1.0" encoding="utf-8"?>
<!-- Generator: Adobe Illustrator 21.0.2, SVG Export Plug-In . SVG Version: 6.00 Build 0)  -->
<svg version="1.1" id="Layer_1" xmlns="http://www.w3.org/2000/svg" xmlns:xlink="http://www.w3.org/1999/xlink" x="0px" y="0px" viewBox="0 0 424.01 424" style="enable-background:new 0 0 424.01 424;" xml:space="preserve">
<style type="text/css">
	.st0{fill:none;stroke:#160D37;stroke-width:11;stroke-miterlimit:10;}
	.st1{fill:#FFFFFF;stroke:#160D37;stroke-width:7;stroke-miterlimit:10;}
	.st2{fill:#B00D23;}
	.st3{fill:#160D37;}
</style>
<title>icon-register</title>
<path class="st0" d="M124.58,92.2h167.86c6.58,0,11.91,5.35,11.91,11.94v216.31c0,6.6-5.33,11.94-11.91,11.94H124.58
	c-6.58,0-11.91-5.35-11.91-11.94V104.14C112.66,97.55,118,92.2,124.58,92.2z"/>
<line class="st0" x1="140.9" y1="124.81" x2="272.69" y2="124.81"/>
<line class="st0" x1="140.9" y1="148.82" x2="272.69" y2="148.82"/>
<line class="st0" x1="140.9" y1="172.85" x2="272.69" y2="172.85"/>
<line class="st0" x1="140.9" y1="196.86" x2="272.69" y2="196.86"/>
<line class="st0" x1="140.9" y1="220.89" x2="272.69" y2="220.89"/>
<line class="st0" x1="140.9" y1="244.91" x2="272.69" y2="244.91"/>
<line class="st0" x1="140.9" y1="268.92" x2="272.69" y2="268.92"/>
<line class="st0" x1="140.9" y1="292.95" x2="225.76" y2="292.95"/>
<polygon class="st1" points="137.8,297.41 142.97,259.69 171.62,254.53 173.24,283.67 "/>
<polygon class="st1" points="140.65,289.2 145.13,292.75 139.04,295.85 "/>
<path class="st2" d="M175.27,285.66c0.31-0.32,0.6-0.65,0.87-1L327.64,92.6c4.06-5.16,3.66-12.32-0.88-15.92l-18.64-14.74
	c-4.55-3.6-11.6-2.34-15.66,2.82L140.99,256.81c-0.28,0.35-0.53,0.72-0.76,1.08L175.27,285.66z"/>
<path class="st3" d="M396.51,145.23l13.16-4.82c-15.64-41.67-41.14-74.91-77.3-100.91l-7.18,10.25
	C358.12,73.53,383.01,106.85,396.51,145.23z"/>
<path class="st3" d="M211.48,13.03c29.05-0.03,57.74,6.48,83.94,19.06l5.24-11.27C232.9-7.77,166.8-6.39,103.72,31.23
	C42.7,67.66,9.5,123.01,1,194.31l14.78,1.31C23.99,93.39,108.47,13.03,211.48,13.03z"/>
<path class="st3" d="M15.89,229.82L2.1,230.99C5.28,317.09,80.18,413.87,193.03,423c0.37-4.31,0.74-8.57,1.11-12.81
	C99.62,401.81,24.29,325.57,15.89,229.82z"/>
<path class="st3" d="M418.98,176.14l-13.9,2.41c1.85,11.05,2.78,22.24,2.78,33.45c0,104.07-78.86,189.46-179.34,198.22
	c0.35,4.09,0.68,8.17,0.99,12.26C331.93,418.86,441.7,315.82,418.98,176.14z"/>
</svg>
