<?xml version="1.0" encoding="utf-8"?>
<!-- Generator: Adobe Illustrator 21.0.2, SVG Export Plug-In . SVG Version: 6.00 Build 0)  -->
<svg version="1.1" id="Layer_1" xmlns="http://www.w3.org/2000/svg" xmlns:xlink="http://www.w3.org/1999/xlink" x="0px" y="0px" viewBox="0 0 435.25 432.78" style="enable-background:new 0 0 435.25 432.78;"
	 xml:space="preserve">
<style type="text/css">
	.st0{fill:#160D37;}
	.st1{fill:#B00D23;}
	.st2{fill:none;}
</style>
<title>icon-connect</title>
<path class="st0" d="M316.71,140.37h-113.8c-26.01,0.03-47.09,21.11-47.12,47.12v59.27c0.03,26.01,21.11,47.09,47.12,47.12h78.92
	l37.14,42.44l10.13,11.44c0.53,0.58,1.28,0.91,2.07,0.91c0.34,0.01,0.68-0.06,1-0.2c1.08-0.42,1.8-1.46,1.81-2.62V290.6
	c18.02-7.1,29.87-24.48,29.89-43.85v-59.26C363.79,161.48,342.72,140.42,316.71,140.37L316.71,140.37z M352.52,246.76
	c0.03,14.61-8.85,27.76-22.41,33.2c-1.72,0.75-3.51,1.32-5.34,1.71c-1.27,0.29-2.17,1.42-2.17,2.72v39l-29.68-34l-5.09-5.8
	c-0.51-0.62-1.27-0.98-2.07-1h-82.85c-19.76-0.01-35.77-16.02-35.78-35.78v-59.32c0.02-19.75,16.03-35.76,35.78-35.78h113.8
	c19.75,0.03,35.77,16.03,35.81,35.78L352.52,246.76z"/>
<path class="st0" d="M63.2,149.24v26.46c0.02,19.37,11.87,36.75,29.89,43.85v45.66c-0.01,1.17,0.72,2.21,1.81,2.62
	c0.32,0.12,0.66,0.19,1,0.2c0.79,0.01,1.55-0.32,2.07-0.91l10.13-11.44l0.05-0.05l27.47-32.76h11.9v-11.39h-15.83
	c-0.81,0.01-1.57,0.37-2.07,1l-5.09,5.8l-20.06,24v-29c0-1.3-0.9-2.43-2.17-2.72c-1.81-0.4-3.58-0.97-5.29-1.71
	c-13.56-5.42-22.45-18.56-22.43-33.16v-26.45c0.01-19.76,16.02-35.77,35.78-35.78h82.91c13.46,0.01,25.77,7.59,31.85,19.6h12.4
	c-1.06-2.94-2.43-5.76-4.08-8.42c-8.53-14.04-23.79-22.59-40.22-22.53h-82.9C84.31,102.14,63.23,123.23,63.2,149.24L63.2,149.24z"/>
<path class="st1" d="M245.41,251.6c-3.94,0-7.72-1.56-10.5-4.35l-19.77-19.77c-5.86-5.74-5.95-15.14-0.21-21s15.14-5.95,21-0.21
	c0.07,0.07,0.14,0.14,0.21,0.21l9.27,9.27l38.11-38.12c5.86-5.74,15.26-5.65,21,0.21c5.66,5.77,5.66,15.01,0,20.79l-48.61,48.61
	C253.13,250.03,249.35,251.6,245.41,251.6L245.41,251.6z"/>
<path class="st2" d="M264.52,421.96c0-1.93,1.2-4.07,3.38-6.16l42-39.38c3.89-3.62,6.58-3.24,7.84-2.69s3.23,2.15,3.17,7.08
	l-0.56,12.64c60.1-36,96.31-99.32,97.08-169.72c1.14-106.57-81.39-194.87-186.32-202.29v407.52l98.61,1l-57.51-2.56
	C265,427.11,264.52,423.15,264.52,421.96L264.52,421.96z"/>
<path class="st2" d="M231.11-0.04v6c113.51,7.45,203,102.79,201.69,218c-0.85,77.19-41.16,146.07-107.89,184.58l9.87,10.42
	c3.33,3.6,3.9,7.08,1.64,9.23c-1.34,1.31-3.69,1.88-6.69,1.79l100.79,1.13l4.73-428.85L231.11-0.04z"/>
<path class="st0" d="M329.41,428.21c2.26-2.15,1.7-5.64-1.64-9.23l-4.25-4.55c-2.48-2.64-2.35-6.79,0.3-9.27
	c0.32-0.3,0.67-0.57,1.04-0.8c62.59-39.18,100.16-105.93,101-180.42c1.2-114.23-85.54-208.98-197.72-217.75
	c-1.76-0.13-3.49,0.45-4.81,1.62l-0.89,0.78c-2.44,2.15-2.93,5.76-1.16,8.48l1.08,1.67c1.11,1.72,2.96,2.83,5,3
	c103.4,9,184.24,96.56,183.07,202c-0.73,66.07-32.66,125.86-86.26,162.76c-2.97,2.06-7.06,1.31-9.11-1.66
	c-0.81-1.18-1.22-2.59-1.16-4.02c0.05-4.93-2-6.51-3.17-7.08s-3.95-0.94-7.84,2.69l-42,39.38c-2.18,2.05-3.37,4.15-3.37,6.15
	c0,1.22,0.5,5.18,7.7,5.51l57.5,2.49C325.73,430.09,328.08,429.52,329.41,428.21L329.41,428.21z"/>
<path class="st0" d="M96.4,10.74c-2.26,2.15-1.7,5.64,1.64,9.23l4.29,4.55c2.48,2.64,2.35,6.79-0.3,9.27
	c-0.32,0.3-0.67,0.57-1.04,0.8C38.39,73.78,0.83,140.53,0.01,215.01c-1.26,114.23,85.51,208.95,197.66,217.75
	c1.76,0.13,3.49-0.45,4.81-1.62l0.89-0.78c2.44-2.15,2.93-5.76,1.16-8.48l-1.08-1.67c-1.11-1.72-2.96-2.83-5-3
	c-103.4-9-184.24-96.56-183.07-202c0.73-66.07,32.66-125.86,86.26-162.76c2.97-2.06,7.06-1.31,9.11,1.66
	c0.81,1.18,1.22,2.59,1.16,4.02c-0.05,4.93,2,6.51,3.17,7.08s3.95,0.94,7.84-2.69l42-39.38c2.18-2.09,3.36-4.23,3.38-6.16
	c0-1.22-0.5-5.18-7.7-5.51l-57.51-2.51C100.08,8.86,97.74,9.43,96.4,10.74z"/>
</svg>
