<svg class="great-ds-icon-svg great-ds-icon--menu" width="16" height="17" viewBox="0 0 16 17"
	xmlns="http://www.w3.org/2000/svg">
	<path fill="currentColor" class="great-ds-icon--menu-bars" d="M1 3.5C1 2.94687 1.44687 2.5 2 2.5H14C14.5531 2.5 15 2.94687 15 3.5C15 4.05313 14.5531 4.5 14 4.5H2C1.44687 4.5 1 4.05313 1 3.5ZM1 8.5C1 7.94688 1.44687 7.5 2 7.5H14C14.5531 7.5 15 7.94688 15 8.5C15 9.05312 14.5531 9.5 14 9.5H2C1.44687 9.5 1 9.05312 1 8.5ZM15 13.5C15 14.0531 14.5531 14.5 14 14.5H2C1.44687 14.5 1 14.0531 1 13.5C1 12.9469 1.44687 12.5 2 12.5H14C14.5531 12.5 15 12.9469 15 13.5Z"></path>
	<path fill="currentColor" class="great-ds-icon--menu-close" d="M10.085 8.5L13.2122 5.37281C13.5959 4.98906 13.5959 4.36687 13.2122 3.98281L12.5172 3.28781C12.1334 2.90406 11.5113 2.90406 11.1272 3.28781L8 6.415L4.87281 3.28781C4.48906 2.90406 3.86688 2.90406 3.48281 3.28781L2.78781 3.98281C2.40406 4.36656 2.40406 4.98875 2.78781 5.37281L5.915 8.5L2.78781 11.6272C2.40406 12.0109 2.40406 12.6331 2.78781 13.0172L3.48281 13.7122C3.86656 14.0959 4.48906 14.0959 4.87281 13.7122L8 10.585L11.1272 13.7122C11.5109 14.0959 12.1334 14.0959 12.5172 13.7122L13.2122 13.0172C13.5959 12.6334 13.5959 12.0113 13.2122 11.6272L10.085 8.5Z"></path>
</svg>
